        		<svg version="1.1" xmlns="http://www.w3.org/2000/svg" xmlns:xlink="http://www.w3.org/1999/xlink" x="0px" y="0px" width="71.37px"
             height="71.37px" viewBox="0 0 71.37 71.37" enable-background="new 0 0 71.37 71.37" xml:space="preserve">
              <path class="circle-but" opacity="0" fill="#D3D3D3" d="M35.685,0.5C16.284,0.5,0.5,16.284,0.5,35.685S16.284,70.87,35.685,70.87
              S70.87,55.086,70.87,35.685S55.086,0.5,35.685,0.5z"/>
              <path class="circle-but" fill="#D3D3D3" d="M35.685,71.37C16.008,71.37,0,55.362,0,35.685S16.008,0,35.685,0S71.37,16.008,71.37,35.685
              S55.362,71.37,35.685,71.37z M35.685,1C16.56,1,1,16.56,1,35.685S16.56,70.37,35.685,70.37S70.37,54.811,70.37,35.685
              S54.811,1,35.685,1z"/>
              <path class="inner-but" fill="#4D4D4D" d="M36.692,40.89l4.067,5.685h-8.135L36.692,40.89z M53.609,34.188l-33.972,8.32l0.231,0.924l33.972-8.32
              L53.609,34.188z M29.343,38.301l-2.403-10.03l-10.076,2.403l2.403,10.03L29.343,38.301z"/>
              <path  class="inner-but" fill="#4D4D4D" d="M50.42,26.007l1.34,5.593l-5.685,1.34l-1.34-5.593L50.42,26.007 M51.344,24.528l-8.089,1.895
              l1.895,7.996l8.089-1.895L51.344,24.528z"/>
            </svg>
