<svg version="1.1" xmlns="http://www.w3.org/2000/svg" xmlns:xlink="http://www.w3.org/1999/xlink" x="0px" y="0px" width="71.37px"
               height="71.37px" viewBox="0 0 71.37 71.37" enable-background="new 0 0 71.37 71.37" xml:space="preserve">
								<path class="circle-but" opacity="0" fill="#D2D2D2" d="M35.685,0.5C16.284,0.5,0.5,16.284,0.5,35.685S16.284,70.87,35.685,70.87
								S70.87,55.086,70.87,35.685S55.086,0.5,35.685,0.5z"/>
            <path class="circle-but" fill="#D3D3D3" d="M35.685,71.37C16.008,71.37,0,55.362,0,35.685S16.008,0,35.685,0S71.37,16.008,71.37,35.685
								S55.362,71.37,35.685,71.37z M35.685,1C16.56,1,1,16.56,1,35.685S16.56,70.37,35.685,70.37S70.37,54.811,70.37,35.685
								S54.811,1,35.685,1z"/>
            <path class="inner-but" fill="#4D4D4D" d="M43.152,35.825c-1.144,0-2.571,0.191-4.142,0.553c-1.646-1.261-3.317-2.796-4.751-4.367
								c0.474-4.691-0.287-6.648-1.018-7.463c-0.575-0.641-1.376-0.864-2.263-0.62c-1.016,0.279-1.399,0.917-1.542,1.403
								c-0.591,2.013,1.863,5.228,3.517,7.101c-0.253,2.156-0.734,4.466-1.365,6.567c-1.498,0.725-2.782,1.499-3.725,2.247
								c-1.188,0.941-1.863,1.858-2.008,2.724c-0.119,0.712,0.117,1.38,0.682,1.93c0.436,0.425,0.918,0.64,1.431,0.64h0
								c2.186,0,3.825-4.043,4.653-6.644c1.926-0.89,4.074-1.65,6.109-2.162c1.747,1.286,4.098,2.731,5.843,2.731
								c1.151,0,1.917-0.622,2.155-1.75c0.192-0.909-0.095-1.503-0.369-1.842C45.794,36.178,44.716,35.825,43.152,35.825z M27.967,45.287
								c-0.178,0-0.36-0.093-0.557-0.285c-0.349-0.34-0.355-0.62-0.32-0.827c0.157-0.943,1.629-2.23,3.938-3.483
								C29.88,43.853,28.699,45.287,27.967,45.287z M30.637,25.683c0.054-0.184,0.179-0.413,0.671-0.548
								c0.129-0.035,0.25-0.053,0.359-0.053c0.252,0,0.455,0.096,0.64,0.302c0.669,0.746,0.952,2.676,0.801,5.29
								C31.625,28.836,30.328,26.737,30.637,25.683z M37.455,36.778c-1.454,0.412-2.938,0.935-4.342,1.53l0.012-0.038l-0.033,0.015
								c0.406-1.51,0.734-3.091,0.961-4.627l0.024,0.027l0.004-0.035c1.062,1.095,2.216,2.155,3.379,3.1l-0.032,0.008L37.455,36.778z
								M45.502,38.456c-0.115,0.544-0.376,0.756-0.93,0.756c-0.94,0-2.429-0.661-4.185-1.843c1.041-0.192,1.981-0.293,2.765-0.293
								c1.531,0,2.056,0.366,2.233,0.584C45.441,37.731,45.611,37.94,45.502,38.456z"/>
						</svg>
