<svg version="1.1" xmlns="http://www.w3.org/2000/svg" xmlns:xlink="http://www.w3.org/1999/xlink" x="0px" y="0px" width="71.37px"
             height="71.37px" viewBox="0 0 71.37 71.37" enable-background="new 0 0 71.37 71.37" xml:space="preserve">
								<path  class="circle-but" opacity="0" fill="#D3D3D3" d="M35.685,0.5C16.284,0.5,0.5,16.284,0.5,35.685S16.284,70.87,35.685,70.87
								S70.87,55.086,70.87,35.685S55.086,0.5,35.685,0.5z"/>
          <path  class="circle-but" fill="#D3D3D3" d="M35.685,71.37C16.008,71.37,0,55.362,0,35.685S16.008,0,35.685,0S71.37,16.008,71.37,35.685
								S55.362,71.37,35.685,71.37z M35.685,1C16.56,1,1,16.56,1,35.685S16.56,70.37,35.685,70.37S70.37,54.811,70.37,35.685
								S54.811,1,35.685,1z"/>
          <path class="inner-but" fill="#4D4D4D" d="M47.13,22.347c-2.996,0-5.434,2.438-5.434,5.434H23.779l11.675,7.833l7.165-4.807
								c0.363,0.54,0.823,1.007,1.351,1.386l-8.516,5.713l-11.783-7.905V43.59h23.567V33.209c2.946-0.058,5.325-2.468,5.325-5.428
								C52.563,24.784,50.126,22.347,47.13,22.347z M47.238,32.203c-0.037,0.001-0.071,0.011-0.108,0.011
								c-0.823,0-1.586-0.24-2.247-0.634c-0.569-0.337-1.064-0.784-1.433-1.332c-0.475-0.706-0.754-1.555-0.754-2.469
								c0-2.445,1.989-4.434,4.434-4.434s4.434,1.989,4.434,4.434C51.563,30.188,49.631,32.145,47.238,32.203z"/>
          <polygon class="inner-but" fill="#4D4D4D" points="47.607,28.832 47.689,24.507 46.685,24.507 46.795,28.832 		"/>
          <path class="inner-but" fill="#4D4D4D" d="M47.215,29.572c-0.172,0-0.316,0.057-0.437,0.171c-0.12,0.114-0.179,0.252-0.179,0.415
								c0,0.157,0.059,0.29,0.179,0.4s0.265,0.165,0.437,0.165c0.164,0,0.309-0.055,0.43-0.165s0.182-0.243,0.182-0.4
								c0-0.162-0.061-0.301-0.182-0.415C47.523,29.629,47.379,29.572,47.215,29.572z"/>
						</svg>
