<?xml version="1.0" encoding="utf-8"?>
<!-- Generator: Adobe Illustrator 17.0.1, SVG Export Plug-In . SVG Version: 6.00 Build 0)  -->
<!DOCTYPE svg PUBLIC "-//W3C//DTD SVG 1.1//EN" "http://www.w3.org/Graphics/SVG/1.1/DTD/svg11.dtd">
<svg version="1.1" xmlns="http://www.w3.org/2000/svg" xmlns:xlink="http://www.w3.org/1999/xlink" x="0px" y="0px" width="698.3px"
	 height="56.728px" viewBox="0 0 698.3 56.728" enable-background="new 0 0 698.3 56.728" xml:space="preserve">
<symbol  id="enter" viewBox="-3.143 -2.781 6.286 5.563">
	<g>
		<polygon fill="#00B8E4" points="-3.143,-2.781 0,2.782 3.143,-2.781 		"/>
	</g>
</symbol>
<g id="back">
</g>
<g id="text">
</g>
<g id="img">
</g>
<g id="main">
	<g id="FIND_x5F_logo_2">
	</g>
	<g id="marker_x5F_map_x5F_area">
	</g>
	<g id="FIND_x5F_logo">
	</g>
	<g>

			<use xlink:href="#enter"  width="6.286" height="5.563" x="-3.143" y="-2.781" transform="matrix(-2.4783 0 0 2.4783 608.8025 27.9611)" overflow="visible"/>
		<g>
			<rect x="3.5" y="7.962" opacity="0.3" fill="#FFFFFF" width="40" height="40"/>
			<rect x="3.5" y="7.962" fill="none" stroke="#FFFFFF" stroke-width="7" stroke-miterlimit="10" width="40" height="40"/>
		</g>
		<g>
			<path fill="#FFFFFF" d="M68.756,18.993c0,0.382-0.072,0.742-0.219,1.079c-0.146,0.338-0.358,0.63-0.639,0.877
				c-0.28,0.248-0.628,0.444-1.041,0.588s-0.887,0.215-1.422,0.215c-0.526,0-0.992-0.052-1.399-0.156
				c-0.406-0.104-0.753-0.248-1.04-0.431v-0.938c0.365,0.27,0.761,0.468,1.187,0.596c0.426,0.129,0.853,0.193,1.278,0.193
				c0.378,0,0.717-0.051,1.015-0.15s0.55-0.237,0.757-0.411c0.206-0.174,0.362-0.38,0.469-0.616c0.107-0.237,0.16-0.492,0.16-0.767
				c0-0.665-0.228-1.157-0.682-1.478s-1.114-0.479-1.979-0.479h-0.907v-0.724h0.771c0.378,0,0.718-0.043,1.021-0.127
				c0.302-0.086,0.559-0.209,0.77-0.373c0.211-0.162,0.372-0.361,0.482-0.596c0.111-0.235,0.167-0.5,0.167-0.797
				c0-0.238-0.042-0.459-0.124-0.662c-0.083-0.201-0.203-0.377-0.362-0.524c-0.158-0.147-0.354-0.265-0.587-0.349
				c-0.232-0.086-0.501-0.128-0.806-0.128c-0.396,0-0.778,0.062-1.148,0.183c-0.369,0.122-0.717,0.296-1.043,0.521v-0.873
				c0.317-0.174,0.659-0.314,1.027-0.422c0.367-0.105,0.779-0.159,1.235-0.159c0.427,0,0.809,0.057,1.146,0.169
				c0.337,0.113,0.62,0.271,0.851,0.471c0.23,0.199,0.407,0.438,0.529,0.714c0.121,0.276,0.183,0.577,0.183,0.903
				c0,0.609-0.157,1.11-0.47,1.504c-0.313,0.394-0.774,0.671-1.383,0.832v0.025c0.356,0.031,0.672,0.113,0.945,0.248
				c0.274,0.135,0.505,0.306,0.691,0.512c0.188,0.207,0.328,0.441,0.424,0.705S68.756,18.706,68.756,18.993z"/>
			<path fill="#FFFFFF" d="M76.766,21.596l-1.031-2.766h-4.012l-1.004,2.766h-0.966l3.562-9.354h0.874l3.542,9.354H76.766z
				 M73.916,13.879c-0.03-0.082-0.063-0.178-0.095-0.287c-0.032-0.108-0.06-0.232-0.082-0.371h-0.025
				c-0.026,0.139-0.056,0.263-0.088,0.371c-0.033,0.109-0.064,0.205-0.095,0.287l-1.514,4.162h3.425L73.916,13.879z"/>
			<path fill="#FFFFFF" d="M84.809,18.85c0,0.4-0.066,0.769-0.198,1.105c-0.133,0.337-0.324,0.627-0.574,0.871
				c-0.25,0.243-0.556,0.433-0.917,0.567c-0.36,0.135-0.771,0.202-1.232,0.202h-2.682v-9.354h4.847v0.795h-3.979v3.269h1.95
				c0.418,0,0.798,0.052,1.142,0.156s0.637,0.263,0.881,0.476c0.243,0.214,0.432,0.479,0.564,0.797
				C84.743,18.051,84.809,18.424,84.809,18.85z M83.896,18.908c0-0.631-0.184-1.09-0.551-1.38c-0.368-0.289-0.908-0.434-1.621-0.434
				h-1.65v3.712h1.67c0.365,0,0.683-0.046,0.952-0.137c0.27-0.092,0.493-0.221,0.672-0.385c0.179-0.166,0.311-0.365,0.398-0.598
				C83.853,19.455,83.896,19.195,83.896,18.908z"/>
			<path fill="#FFFFFF" d="M87.484,17.955v3.641h-0.868v-9.354h2.414c0.491,0,0.926,0.061,1.305,0.182
				c0.378,0.122,0.698,0.299,0.959,0.529s0.459,0.513,0.594,0.848c0.135,0.334,0.202,0.717,0.202,1.148
				c0,0.434-0.076,0.836-0.229,1.203s-0.371,0.685-0.655,0.952c-0.285,0.268-0.632,0.476-1.041,0.626
				c-0.408,0.15-0.872,0.225-1.39,0.225H87.484z M87.484,13.037v4.123h1.239c0.805,0,1.415-0.188,1.833-0.561
				c0.417-0.375,0.626-0.902,0.626-1.586c0-1.317-0.77-1.977-2.309-1.977H87.484z"/>
			<path fill="#FFFFFF" d="M97.731,21.759c-0.674,0-1.28-0.123-1.819-0.368c-0.539-0.246-0.997-0.582-1.373-1.008
				c-0.377-0.427-0.666-0.928-0.868-1.504s-0.303-1.195-0.303-1.855c0-0.73,0.101-1.4,0.303-2.006
				c0.202-0.607,0.497-1.127,0.884-1.56c0.388-0.433,0.861-0.77,1.423-1.011c0.561-0.242,1.2-0.362,1.917-0.362
				c0.661,0,1.255,0.118,1.781,0.355s0.974,0.565,1.344,0.985c0.369,0.42,0.653,0.916,0.852,1.49
				c0.197,0.574,0.297,1.198,0.297,1.872c0,0.709-0.098,1.366-0.291,1.974c-0.193,0.606-0.479,1.131-0.854,1.575
				c-0.376,0.443-0.839,0.792-1.39,1.044C99.083,21.633,98.449,21.759,97.731,21.759z M97.803,12.875
				c-0.565,0-1.066,0.107-1.504,0.322c-0.437,0.215-0.806,0.506-1.105,0.874s-0.527,0.798-0.682,1.292
				c-0.154,0.493-0.233,1.018-0.238,1.574c-0.004,0.531,0.064,1.039,0.206,1.523c0.141,0.485,0.354,0.914,0.639,1.285
				c0.285,0.372,0.645,0.669,1.08,0.891c0.435,0.222,0.943,0.333,1.526,0.333c0.582,0,1.095-0.102,1.536-0.304
				s0.81-0.482,1.105-0.842c0.296-0.358,0.519-0.785,0.669-1.281c0.149-0.496,0.225-1.037,0.225-1.625
				c0-0.547-0.066-1.066-0.199-1.559c-0.133-0.491-0.339-0.92-0.619-1.288s-0.639-0.659-1.073-0.874S98.412,12.875,97.803,12.875z"
				/>
			<path fill="#FFFFFF" d="M110.008,21.596v-4.377h-5.101v4.377h-0.868v-9.354h0.868v4.193h5.101v-4.193h0.868v9.354H110.008z"/>
			<path fill="#FFFFFF" d="M119.734,21.596v-7.039c0-0.213,0.003-0.411,0.01-0.596c0.006-0.186,0.016-0.339,0.029-0.461h-0.033
				c-0.039,0.092-0.092,0.193-0.159,0.304s-0.128,0.206-0.18,0.284l-5.192,7.508h-0.907v-9.354h0.868v6.953
				c0,0.23-0.004,0.439-0.01,0.626c-0.007,0.187-0.017,0.337-0.029,0.45h0.025c0.048-0.087,0.107-0.186,0.177-0.297
				s0.139-0.217,0.209-0.316l5.113-7.416h0.953v9.354H119.734z"/>
			<path fill="#FFFFFF" d="M123.909,17.955v3.641h-0.868v-9.354h2.414c0.491,0,0.926,0.061,1.305,0.182
				c0.378,0.122,0.698,0.299,0.959,0.529s0.459,0.513,0.594,0.848c0.135,0.334,0.202,0.717,0.202,1.148
				c0,0.434-0.076,0.836-0.229,1.203s-0.371,0.685-0.655,0.952c-0.285,0.268-0.632,0.476-1.041,0.626
				c-0.408,0.15-0.872,0.225-1.39,0.225H123.909z M123.909,13.037v4.123h1.239c0.805,0,1.415-0.188,1.833-0.561
				c0.417-0.375,0.626-0.902,0.626-1.586c0-1.317-0.77-1.977-2.309-1.977H123.909z"/>
			<path fill="#FFFFFF" d="M134.156,21.759c-0.674,0-1.28-0.123-1.819-0.368c-0.539-0.246-0.997-0.582-1.373-1.008
				c-0.377-0.427-0.666-0.928-0.868-1.504s-0.303-1.195-0.303-1.855c0-0.73,0.101-1.4,0.303-2.006
				c0.202-0.607,0.497-1.127,0.884-1.56c0.388-0.433,0.861-0.77,1.423-1.011c0.561-0.242,1.2-0.362,1.917-0.362
				c0.661,0,1.255,0.118,1.781,0.355s0.974,0.565,1.344,0.985c0.369,0.42,0.653,0.916,0.852,1.49
				c0.197,0.574,0.297,1.198,0.297,1.872c0,0.709-0.098,1.366-0.291,1.974c-0.193,0.606-0.479,1.131-0.854,1.575
				c-0.376,0.443-0.839,0.792-1.39,1.044C135.508,21.633,134.874,21.759,134.156,21.759z M134.228,12.875
				c-0.565,0-1.066,0.107-1.504,0.322c-0.437,0.215-0.806,0.506-1.105,0.874s-0.527,0.798-0.682,1.292
				c-0.154,0.493-0.233,1.018-0.238,1.574c-0.004,0.531,0.064,1.039,0.206,1.523c0.141,0.485,0.354,0.914,0.639,1.285
				c0.285,0.372,0.645,0.669,1.08,0.891c0.435,0.222,0.943,0.333,1.526,0.333c0.582,0,1.095-0.102,1.536-0.304
				s0.81-0.482,1.105-0.842c0.296-0.358,0.519-0.785,0.669-1.281c0.149-0.496,0.225-1.037,0.225-1.625
				c0-0.547-0.066-1.066-0.199-1.559c-0.133-0.491-0.339-0.92-0.619-1.288s-0.639-0.659-1.073-0.874S134.837,12.875,134.228,12.875z
				"/>
			<path fill="#FFFFFF" d="M140.465,21.596v-9.354h2.558c0.387,0,0.736,0.052,1.047,0.156c0.311,0.104,0.576,0.251,0.796,0.439
				c0.22,0.189,0.388,0.417,0.506,0.682c0.117,0.266,0.176,0.557,0.176,0.875c0,0.27-0.037,0.521-0.111,0.756
				c-0.073,0.235-0.18,0.449-0.319,0.643s-0.31,0.361-0.512,0.503s-0.432,0.253-0.688,0.336v0.026
				c0.313,0.029,0.598,0.105,0.854,0.229c0.257,0.121,0.477,0.279,0.659,0.476s0.323,0.425,0.424,0.688
				c0.1,0.263,0.149,0.551,0.149,0.863c0,0.396-0.071,0.758-0.215,1.087c-0.144,0.328-0.345,0.61-0.604,0.848
				s-0.566,0.421-0.923,0.552c-0.356,0.13-0.75,0.195-1.181,0.195H140.465z M141.333,13.037v3.32h1.213
				c0.317,0,0.604-0.041,0.861-0.123c0.257-0.083,0.477-0.203,0.659-0.359s0.322-0.346,0.42-0.567
				c0.099-0.222,0.147-0.472,0.147-0.751c0-1.013-0.631-1.52-1.892-1.52H141.333z M141.333,17.141v3.666h1.611
				c0.691,0,1.223-0.162,1.595-0.486s0.558-0.783,0.558-1.379c0-1.201-0.815-1.801-2.446-1.801H141.333z"/>
			<path fill="#FFFFFF" d="M153.987,21.596l-1.031-2.766h-4.012l-1.004,2.766h-0.966l3.562-9.354h0.874l3.542,9.354H153.987z
				 M151.136,13.879c-0.03-0.082-0.063-0.178-0.095-0.287c-0.032-0.108-0.06-0.232-0.082-0.371h-0.025
				c-0.026,0.139-0.056,0.263-0.088,0.371c-0.033,0.109-0.064,0.205-0.095,0.287l-1.514,4.162h3.425L151.136,13.879z"/>
			<path fill="#FFFFFF" d="M162.395,21.596v-4.377h-5.101v4.377h-0.868v-9.354h0.868v4.193h5.101v-4.193h0.868v9.354H162.395z"/>
			<path fill="#FFFFFF" d="M171.658,21.596v-4.377h-5.101v4.377h-0.868v-9.354h0.868v4.193h5.101v-4.193h0.868v9.354H171.658z"/>
			<path fill="#FFFFFF" d="M181.012,21.596l-1.031-2.766h-4.012l-1.004,2.766H174l3.562-9.354h0.874l3.542,9.354H181.012z
				 M178.162,13.879c-0.03-0.082-0.063-0.178-0.095-0.287c-0.032-0.108-0.06-0.232-0.082-0.371h-0.025
				c-0.026,0.139-0.056,0.263-0.088,0.371c-0.033,0.109-0.064,0.205-0.095,0.287l-1.514,4.162h3.425L178.162,13.879z"/>
			<path fill="#FFFFFF" d="M182.617,21.596l1.572-2.896c0.104-0.195,0.204-0.369,0.3-0.521s0.193-0.287,0.291-0.404
				s0.2-0.218,0.307-0.301c0.106-0.082,0.221-0.149,0.342-0.201v-0.027c-0.33-0.073-0.627-0.186-0.89-0.336
				c-0.264-0.149-0.487-0.332-0.672-0.547c-0.186-0.216-0.328-0.463-0.428-0.74c-0.1-0.279-0.15-0.584-0.15-0.914
				c0-0.408,0.077-0.768,0.232-1.076c0.154-0.309,0.359-0.564,0.616-0.77c0.256-0.205,0.549-0.359,0.877-0.463
				c0.328-0.104,0.669-0.156,1.021-0.156h2.693v9.354h-0.867v-4.07h-1.031c-0.195,0-0.372,0.023-0.531,0.068
				c-0.159,0.046-0.308,0.121-0.446,0.229c-0.14,0.106-0.274,0.249-0.405,0.428c-0.13,0.178-0.265,0.399-0.404,0.664l-1.409,2.682
				H182.617z M186.238,13.037c-0.661,0-1.167,0.156-1.517,0.467c-0.351,0.311-0.525,0.738-0.525,1.281
				c0,0.301,0.051,0.57,0.153,0.809c0.102,0.24,0.245,0.444,0.431,0.613c0.185,0.17,0.407,0.301,0.668,0.393
				c0.262,0.091,0.548,0.137,0.861,0.137h1.553v-3.699H186.238z"/>
			<path fill="#FFFFFF" d="M68.397,42.971l-3.803-4.377c-0.104-0.126-0.172-0.215-0.202-0.268h-0.026v4.645h-0.868v-9.354h0.868
				v4.402h0.026c0.03-0.048,0.063-0.094,0.098-0.137c0.034-0.043,0.071-0.09,0.11-0.137l3.641-4.129h1.102l-4.057,4.514l4.324,4.84
				H68.397z"/>
			<path fill="#FFFFFF" d="M70.888,42.971v-9.354h2.558c0.387,0,0.736,0.052,1.047,0.156c0.311,0.104,0.576,0.251,0.796,0.439
				c0.22,0.189,0.388,0.417,0.506,0.682c0.117,0.266,0.176,0.557,0.176,0.875c0,0.27-0.037,0.521-0.111,0.756
				c-0.073,0.235-0.18,0.449-0.319,0.643s-0.31,0.361-0.512,0.503s-0.432,0.253-0.688,0.336v0.026
				c0.313,0.029,0.598,0.105,0.854,0.229c0.257,0.121,0.477,0.279,0.659,0.476s0.323,0.425,0.424,0.688
				c0.1,0.263,0.149,0.551,0.149,0.863c0,0.396-0.071,0.758-0.215,1.087c-0.144,0.328-0.345,0.61-0.604,0.848
				s-0.566,0.421-0.923,0.552c-0.356,0.13-0.75,0.195-1.181,0.195H70.888z M71.757,34.412v3.32h1.213
				c0.317,0,0.604-0.041,0.861-0.123c0.257-0.083,0.477-0.203,0.659-0.359s0.322-0.346,0.42-0.567
				c0.099-0.222,0.147-0.472,0.147-0.751c0-1.013-0.631-1.52-1.892-1.52H71.757z M71.757,38.516v3.666h1.611
				c0.691,0,1.223-0.162,1.595-0.486s0.558-0.783,0.558-1.379c0-1.201-0.815-1.801-2.446-1.801H71.757z"/>
			<path fill="#FFFFFF" d="M84.412,42.971l-1.031-2.766h-4.012l-1.004,2.766h-0.966l3.562-9.354h0.874l3.542,9.354H84.412z
				 M81.561,35.254c-0.03-0.082-0.063-0.178-0.095-0.287c-0.032-0.108-0.06-0.232-0.082-0.371h-0.025
				c-0.026,0.139-0.056,0.263-0.088,0.371c-0.033,0.109-0.064,0.205-0.095,0.287l-1.514,4.162h3.425L81.561,35.254z"/>
			<path fill="#FFFFFF" d="M87.719,39.33v3.641H86.85v-9.354h2.414c0.491,0,0.926,0.061,1.305,0.182
				c0.378,0.122,0.698,0.299,0.959,0.529s0.459,0.513,0.594,0.848c0.135,0.334,0.202,0.717,0.202,1.148
				c0,0.434-0.076,0.836-0.229,1.203s-0.371,0.685-0.655,0.952c-0.285,0.268-0.632,0.476-1.041,0.626
				c-0.408,0.15-0.872,0.225-1.39,0.225H87.719z M87.719,34.412v4.123h1.239c0.805,0,1.415-0.188,1.833-0.561
				c0.417-0.375,0.626-0.902,0.626-1.586c0-1.317-0.77-1.977-2.309-1.977H87.719z"/>
			<path fill="#FFFFFF" d="M96.896,34.412v8.559h-0.867v-8.559h-2.694v-0.795h6.262v0.795H96.896z"/>
			<path fill="#FFFFFF" d="M107.569,42.971v-7.039c0-0.213,0.003-0.411,0.01-0.596c0.006-0.186,0.016-0.339,0.029-0.461h-0.033
				c-0.039,0.092-0.092,0.193-0.159,0.304s-0.128,0.206-0.18,0.284l-5.192,7.508h-0.907v-9.354h0.868v6.953
				c0,0.23-0.004,0.439-0.01,0.626c-0.007,0.187-0.017,0.337-0.029,0.45h0.025c0.048-0.087,0.107-0.186,0.177-0.297
				s0.139-0.217,0.209-0.316l5.113-7.416h0.953v9.354H107.569z"/>
			<path fill="#FFFFFF" d="M111.744,39.33v3.641h-0.868v-9.354h2.414c0.491,0,0.926,0.061,1.305,0.182
				c0.378,0.122,0.698,0.299,0.959,0.529s0.459,0.513,0.594,0.848c0.135,0.334,0.202,0.717,0.202,1.148
				c0,0.434-0.076,0.836-0.229,1.203s-0.371,0.685-0.655,0.952c-0.285,0.268-0.632,0.476-1.041,0.626
				c-0.408,0.15-0.872,0.225-1.39,0.225H111.744z M111.744,34.412v4.123h1.239c0.805,0,1.415-0.188,1.833-0.561
				c0.417-0.375,0.626-0.902,0.626-1.586c0-1.317-0.77-1.977-2.309-1.977H111.744z"/>
			<path fill="#FFFFFF" d="M123.263,42.971l-1.031-2.766h-4.012l-1.004,2.766h-0.966l3.562-9.354h0.874l3.542,9.354H123.263z
				 M120.413,35.254c-0.03-0.082-0.063-0.178-0.095-0.287c-0.032-0.108-0.06-0.232-0.082-0.371h-0.025
				c-0.026,0.139-0.056,0.263-0.088,0.371c-0.033,0.109-0.064,0.205-0.095,0.287l-1.514,4.162h3.425L120.413,35.254z"/>
		</g>
		<g>
			<path fill="#FFFFFF" d="M293.388,21.596v-8.571h-5.101v8.571h-0.868v-9.354h6.837v9.354H293.388z"/>
			<path fill="#FFFFFF" d="M297.55,17.955v3.641h-0.868v-9.354h2.414c0.491,0,0.926,0.061,1.305,0.182
				c0.378,0.122,0.698,0.299,0.959,0.529s0.459,0.513,0.594,0.848c0.135,0.334,0.202,0.717,0.202,1.148
				c0,0.434-0.076,0.836-0.229,1.203s-0.371,0.685-0.655,0.952c-0.285,0.268-0.632,0.476-1.041,0.626
				c-0.408,0.15-0.872,0.225-1.39,0.225H297.55z M297.55,13.037v4.123h1.239c0.805,0,1.415-0.188,1.833-0.561
				c0.417-0.375,0.626-0.902,0.626-1.586c0-1.317-0.77-1.977-2.309-1.977H297.55z"/>
			<path fill="#FFFFFF" d="M307.797,21.759c-0.674,0-1.28-0.123-1.819-0.368c-0.539-0.246-0.997-0.582-1.373-1.008
				c-0.377-0.427-0.666-0.928-0.868-1.504s-0.303-1.195-0.303-1.855c0-0.73,0.101-1.4,0.303-2.006
				c0.202-0.607,0.497-1.127,0.884-1.56c0.388-0.433,0.861-0.77,1.423-1.011c0.561-0.242,1.2-0.362,1.917-0.362
				c0.661,0,1.255,0.118,1.781,0.355s0.974,0.565,1.344,0.985c0.369,0.42,0.653,0.916,0.852,1.49
				c0.197,0.574,0.297,1.198,0.297,1.872c0,0.709-0.098,1.366-0.291,1.974c-0.193,0.606-0.479,1.131-0.854,1.575
				c-0.376,0.443-0.839,0.792-1.39,1.044C309.149,21.633,308.515,21.759,307.797,21.759z M307.869,12.875
				c-0.565,0-1.066,0.107-1.504,0.322c-0.437,0.215-0.806,0.506-1.105,0.874s-0.527,0.798-0.682,1.292
				c-0.154,0.493-0.233,1.018-0.238,1.574c-0.004,0.531,0.064,1.039,0.206,1.523c0.141,0.485,0.354,0.914,0.639,1.285
				c0.285,0.372,0.645,0.669,1.08,0.891c0.435,0.222,0.943,0.333,1.526,0.333c0.582,0,1.095-0.102,1.536-0.304
				s0.81-0.482,1.105-0.842c0.296-0.358,0.519-0.785,0.669-1.281c0.149-0.496,0.225-1.037,0.225-1.625
				c0-0.547-0.066-1.066-0.199-1.559c-0.133-0.491-0.339-0.92-0.619-1.288s-0.639-0.659-1.073-0.874S308.478,12.875,307.869,12.875z
				"/>
			<path fill="#FFFFFF" d="M320.759,24.101v-2.505h-6.985v2.505h-0.835v-3.294h0.743c0.209-0.392,0.41-0.813,0.604-1.263
				s0.377-0.917,0.551-1.399s0.334-0.976,0.479-1.48c0.146-0.504,0.272-1.009,0.379-1.514c0.106-0.504,0.193-1.002,0.261-1.493
				s0.107-0.964,0.12-1.415h4.215v8.564h1.284v3.294H320.759z M319.422,13.037h-2.583c-0.018,0.348-0.059,0.732-0.124,1.151
				c-0.065,0.42-0.15,0.858-0.254,1.317c-0.104,0.459-0.225,0.927-0.359,1.402c-0.135,0.477-0.281,0.944-0.44,1.403
				c-0.158,0.458-0.325,0.899-0.499,1.324c-0.174,0.424-0.352,0.813-0.534,1.171h4.794V13.037z"/>
			<path fill="#FFFFFF" d="M329.135,21.596l-1.031-2.766h-4.012l-1.004,2.766h-0.966l3.562-9.354h0.874l3.542,9.354H329.135z
				 M326.284,13.879c-0.03-0.082-0.063-0.178-0.095-0.287c-0.032-0.108-0.06-0.232-0.082-0.371h-0.025
				c-0.026,0.139-0.056,0.263-0.088,0.371c-0.033,0.109-0.064,0.205-0.095,0.287l-1.514,4.162h3.425L326.284,13.879z"/>
			<path fill="#FFFFFF" d="M337.543,21.596v-4.377h-5.101v4.377h-0.868v-9.354h0.868v4.193h5.101v-4.193h0.868v9.354H337.543z"/>
			<path fill="#FFFFFF" d="M346.806,21.596v-4.377h-5.101v4.377h-0.868v-9.354h0.868v4.193h5.101v-4.193h0.868v9.354H346.806z"/>
			<path fill="#FFFFFF" d="M356.16,21.596l-1.031-2.766h-4.012l-1.004,2.766h-0.966l3.562-9.354h0.874l3.542,9.354H356.16z
				 M353.31,13.879c-0.03-0.082-0.063-0.178-0.095-0.287c-0.032-0.108-0.06-0.232-0.082-0.371h-0.025
				c-0.026,0.139-0.056,0.263-0.088,0.371c-0.033,0.109-0.064,0.205-0.095,0.287l-1.514,4.162h3.425L353.31,13.879z"/>
			<path fill="#FFFFFF" d="M357.765,21.596l1.572-2.896c0.104-0.195,0.204-0.369,0.3-0.521s0.193-0.287,0.291-0.404
				s0.2-0.218,0.307-0.301c0.106-0.082,0.221-0.149,0.342-0.201v-0.027c-0.33-0.073-0.627-0.186-0.89-0.336
				c-0.264-0.149-0.487-0.332-0.672-0.547c-0.186-0.216-0.328-0.463-0.428-0.74c-0.1-0.279-0.15-0.584-0.15-0.914
				c0-0.408,0.077-0.768,0.232-1.076c0.154-0.309,0.359-0.564,0.616-0.77c0.256-0.205,0.549-0.359,0.877-0.463
				c0.328-0.104,0.669-0.156,1.021-0.156h2.693v9.354h-0.867v-4.07h-1.031c-0.195,0-0.372,0.023-0.531,0.068
				c-0.159,0.046-0.308,0.121-0.446,0.229c-0.14,0.106-0.274,0.249-0.405,0.428c-0.13,0.178-0.265,0.399-0.404,0.664l-1.409,2.682
				H357.765z M361.386,13.037c-0.661,0-1.167,0.156-1.517,0.467c-0.351,0.311-0.525,0.738-0.525,1.281
				c0,0.301,0.051,0.57,0.153,0.809c0.102,0.24,0.245,0.444,0.431,0.613c0.185,0.17,0.407,0.301,0.668,0.393
				c0.262,0.091,0.548,0.137,0.861,0.137h1.553v-3.699H361.386z"/>
			<path fill="#FFFFFF" d="M292.319,42.971l-3.803-4.377c-0.104-0.126-0.172-0.215-0.202-0.268h-0.026v4.645h-0.868v-9.354h0.868
				v4.402h0.026c0.03-0.048,0.063-0.094,0.098-0.137c0.034-0.043,0.071-0.09,0.11-0.137l3.641-4.129h1.102l-4.057,4.514l4.324,4.84
				H292.319z"/>
			<path fill="#FFFFFF" d="M294.81,42.971v-9.354h2.558c0.387,0,0.736,0.052,1.047,0.156c0.311,0.104,0.576,0.251,0.796,0.439
				c0.22,0.189,0.388,0.417,0.506,0.682c0.117,0.266,0.176,0.557,0.176,0.875c0,0.27-0.037,0.521-0.111,0.756
				c-0.073,0.235-0.18,0.449-0.319,0.643s-0.31,0.361-0.512,0.503s-0.432,0.253-0.688,0.336v0.026
				c0.313,0.029,0.598,0.105,0.854,0.229c0.257,0.121,0.477,0.279,0.659,0.476s0.323,0.425,0.424,0.688
				c0.1,0.263,0.149,0.551,0.149,0.863c0,0.396-0.071,0.758-0.215,1.087c-0.144,0.328-0.345,0.61-0.604,0.848
				s-0.566,0.421-0.923,0.552c-0.356,0.13-0.75,0.195-1.181,0.195H294.81z M295.678,34.412v3.32h1.213
				c0.317,0,0.604-0.041,0.861-0.123c0.257-0.083,0.477-0.203,0.659-0.359s0.322-0.346,0.42-0.567
				c0.099-0.222,0.147-0.472,0.147-0.751c0-1.013-0.631-1.52-1.892-1.52H295.678z M295.678,38.516v3.666h1.611
				c0.691,0,1.223-0.162,1.595-0.486s0.558-0.783,0.558-1.379c0-1.201-0.815-1.801-2.446-1.801H295.678z"/>
			<path fill="#FFFFFF" d="M308.333,42.971l-1.031-2.766h-4.012l-1.004,2.766h-0.966l3.562-9.354h0.874l3.542,9.354H308.333z
				 M305.483,35.254c-0.03-0.082-0.063-0.178-0.095-0.287c-0.032-0.108-0.06-0.232-0.082-0.371h-0.025
				c-0.026,0.139-0.056,0.263-0.088,0.371c-0.033,0.109-0.064,0.205-0.095,0.287l-1.514,4.162h3.425L305.483,35.254z"/>
			<path fill="#FFFFFF" d="M311.64,39.33v3.641h-0.868v-9.354h2.414c0.491,0,0.926,0.061,1.305,0.182
				c0.378,0.122,0.698,0.299,0.959,0.529s0.459,0.513,0.594,0.848c0.135,0.334,0.202,0.717,0.202,1.148
				c0,0.434-0.076,0.836-0.229,1.203s-0.371,0.685-0.655,0.952c-0.285,0.268-0.632,0.476-1.041,0.626
				c-0.408,0.15-0.872,0.225-1.39,0.225H311.64z M311.64,34.412v4.123h1.239c0.805,0,1.415-0.188,1.833-0.561
				c0.417-0.375,0.626-0.902,0.626-1.586c0-1.317-0.77-1.977-2.309-1.977H311.64z"/>
			<path fill="#FFFFFF" d="M320.818,34.412v8.559h-0.867v-8.559h-2.694v-0.795h6.262v0.795H320.818z"/>
			<path fill="#FFFFFF" d="M331.49,42.971v-7.039c0-0.213,0.003-0.411,0.01-0.596c0.006-0.186,0.016-0.339,0.029-0.461h-0.033
				c-0.039,0.092-0.092,0.193-0.159,0.304s-0.128,0.206-0.18,0.284l-5.192,7.508h-0.907v-9.354h0.868v6.953
				c0,0.23-0.004,0.439-0.01,0.626c-0.007,0.187-0.017,0.337-0.029,0.45h0.025c0.048-0.087,0.107-0.186,0.177-0.297
				s0.139-0.217,0.209-0.316l5.113-7.416h0.953v9.354H331.49z"/>
			<path fill="#FFFFFF" d="M335.665,39.33v3.641h-0.868v-9.354h2.414c0.491,0,0.926,0.061,1.305,0.182
				c0.378,0.122,0.698,0.299,0.959,0.529s0.459,0.513,0.594,0.848c0.135,0.334,0.202,0.717,0.202,1.148
				c0,0.434-0.076,0.836-0.229,1.203s-0.371,0.685-0.655,0.952c-0.285,0.268-0.632,0.476-1.041,0.626
				c-0.408,0.15-0.872,0.225-1.39,0.225H335.665z M335.665,34.412v4.123h1.239c0.805,0,1.415-0.188,1.833-0.561
				c0.417-0.375,0.626-0.902,0.626-1.586c0-1.317-0.77-1.977-2.309-1.977H335.665z"/>
			<path fill="#FFFFFF" d="M347.185,42.971l-1.031-2.766h-4.012l-1.004,2.766h-0.966l3.562-9.354h0.874l3.542,9.354H347.185z
				 M344.334,35.254c-0.03-0.082-0.063-0.178-0.095-0.287c-0.032-0.108-0.06-0.232-0.082-0.371h-0.025
				c-0.026,0.139-0.056,0.263-0.088,0.371c-0.033,0.109-0.064,0.205-0.095,0.287l-1.514,4.162h3.425L344.334,35.254z"/>
		</g>
		<g>
			<path fill="#FFFFFF" d="M637.555,21.068v-9.354h2.558c0.387,0,0.736,0.052,1.047,0.156c0.311,0.104,0.576,0.251,0.796,0.439
				c0.22,0.189,0.388,0.417,0.506,0.682c0.117,0.266,0.176,0.557,0.176,0.875c0,0.27-0.037,0.521-0.111,0.756
				c-0.073,0.235-0.18,0.449-0.319,0.643s-0.31,0.361-0.512,0.503s-0.432,0.253-0.688,0.336v0.026
				c0.313,0.029,0.598,0.105,0.854,0.229c0.257,0.121,0.477,0.279,0.659,0.476s0.323,0.425,0.424,0.688
				c0.1,0.263,0.149,0.551,0.149,0.863c0,0.396-0.071,0.758-0.215,1.087c-0.144,0.328-0.345,0.61-0.604,0.848
				s-0.566,0.421-0.923,0.552c-0.356,0.13-0.75,0.195-1.181,0.195H637.555z M638.424,12.51v3.32h1.213
				c0.317,0,0.604-0.041,0.861-0.123c0.257-0.083,0.477-0.203,0.659-0.359s0.322-0.346,0.42-0.567
				c0.099-0.222,0.147-0.472,0.147-0.751c0-1.013-0.631-1.52-1.892-1.52H638.424z M638.424,16.613v3.666h1.611
				c0.691,0,1.223-0.162,1.595-0.486s0.558-0.783,0.558-1.379c0-1.201-0.815-1.801-2.446-1.801H638.424z"/>
			<path fill="#FFFFFF" d="M650.113,21.068l-2.152-3.574c-0.048-0.083-0.098-0.174-0.15-0.271c-0.052-0.098-0.096-0.191-0.13-0.283
				h-0.033c-0.043,0.087-0.088,0.176-0.134,0.268c-0.045,0.091-0.099,0.187-0.159,0.287l-2.205,3.574h-1.063l3.047-4.709
				l-2.831-4.645h1.057l2.002,3.404c0.062,0.1,0.119,0.203,0.173,0.311c0.055,0.105,0.11,0.216,0.167,0.328h0.025
				c0.062-0.125,0.121-0.242,0.18-0.352c0.059-0.108,0.116-0.209,0.173-0.3l2.035-3.392h1.005l-2.87,4.631l2.922,4.723H650.113z"/>
			<path fill="#FFFFFF" d="M656.362,21.231c-0.674,0-1.28-0.123-1.819-0.368c-0.539-0.246-0.997-0.582-1.373-1.008
				c-0.377-0.427-0.666-0.928-0.868-1.504s-0.303-1.195-0.303-1.855c0-0.73,0.101-1.4,0.303-2.006
				c0.202-0.607,0.497-1.127,0.884-1.56c0.388-0.433,0.861-0.77,1.423-1.011c0.561-0.242,1.2-0.362,1.917-0.362
				c0.661,0,1.255,0.118,1.781,0.355s0.974,0.565,1.344,0.985c0.369,0.42,0.653,0.916,0.852,1.49
				c0.197,0.574,0.297,1.198,0.297,1.872c0,0.709-0.098,1.366-0.291,1.974c-0.193,0.606-0.479,1.131-0.854,1.575
				c-0.376,0.443-0.839,0.792-1.39,1.044C657.714,21.105,657.08,21.231,656.362,21.231z M656.434,12.348
				c-0.565,0-1.066,0.107-1.504,0.322c-0.437,0.215-0.806,0.506-1.105,0.874s-0.527,0.798-0.682,1.292
				c-0.154,0.493-0.233,1.018-0.238,1.574c-0.004,0.531,0.064,1.039,0.206,1.523c0.141,0.485,0.354,0.914,0.639,1.285
				c0.285,0.372,0.645,0.669,1.08,0.891c0.435,0.222,0.943,0.333,1.526,0.333c0.582,0,1.095-0.102,1.536-0.304
				s0.81-0.482,1.105-0.842c0.296-0.358,0.519-0.785,0.669-1.281c0.149-0.496,0.225-1.037,0.225-1.625
				c0-0.547-0.066-1.066-0.199-1.559c-0.133-0.491-0.339-0.92-0.619-1.288s-0.639-0.659-1.073-0.874S657.043,12.348,656.434,12.348z
				"/>
			<path fill="#FFFFFF" d="M669.323,23.573v-2.505h-6.985v2.505h-0.835v-3.294h0.743c0.209-0.392,0.41-0.813,0.604-1.263
				s0.377-0.917,0.551-1.399s0.334-0.976,0.479-1.48c0.146-0.504,0.272-1.009,0.379-1.514c0.106-0.504,0.193-1.002,0.261-1.493
				s0.107-0.964,0.12-1.415h4.215v8.564h1.284v3.294H669.323z M667.986,12.51h-2.583c-0.018,0.348-0.059,0.732-0.124,1.151
				c-0.065,0.42-0.15,0.858-0.254,1.317c-0.104,0.459-0.225,0.927-0.359,1.402c-0.135,0.477-0.281,0.944-0.44,1.403
				c-0.158,0.458-0.325,0.899-0.499,1.324c-0.174,0.424-0.352,0.813-0.534,1.171h4.794V12.51z"/>
			<path fill="#FFFFFF" d="M675.299,21.068v-9.354h2.558c0.387,0,0.736,0.052,1.047,0.156c0.311,0.104,0.576,0.251,0.796,0.439
				c0.22,0.189,0.388,0.417,0.506,0.682c0.117,0.266,0.176,0.557,0.176,0.875c0,0.27-0.037,0.521-0.111,0.756
				c-0.073,0.235-0.18,0.449-0.319,0.643s-0.31,0.361-0.512,0.503s-0.432,0.253-0.688,0.336v0.026
				c0.313,0.029,0.598,0.105,0.854,0.229c0.257,0.121,0.477,0.279,0.659,0.476s0.323,0.425,0.424,0.688
				c0.1,0.263,0.149,0.551,0.149,0.863c0,0.396-0.071,0.758-0.215,1.087c-0.144,0.328-0.345,0.61-0.604,0.848
				s-0.566,0.421-0.923,0.552c-0.356,0.13-0.75,0.195-1.181,0.195H675.299z M676.167,12.51v3.32h1.213
				c0.317,0,0.604-0.041,0.861-0.123c0.257-0.083,0.477-0.203,0.659-0.359s0.322-0.346,0.42-0.567
				c0.099-0.222,0.147-0.472,0.147-0.751c0-1.013-0.631-1.52-1.892-1.52H676.167z M676.167,16.613v3.666h1.611
				c0.691,0,1.223-0.162,1.595-0.486s0.558-0.783,0.558-1.379c0-1.201-0.815-1.801-2.446-1.801H676.167z"/>
			<path fill="#FFFFFF" d="M642.455,42.443l-3.803-4.377c-0.104-0.126-0.172-0.215-0.202-0.268h-0.026v4.645h-0.868V33.09h0.868
				v4.402h0.026c0.03-0.048,0.063-0.094,0.098-0.137c0.034-0.043,0.071-0.09,0.11-0.137l3.641-4.129h1.102l-4.057,4.514l4.324,4.84
				H642.455z"/>
			<path fill="#FFFFFF" d="M644.946,42.443V33.09h2.558c0.387,0,0.736,0.052,1.047,0.156c0.311,0.104,0.576,0.251,0.796,0.439
				c0.22,0.189,0.388,0.417,0.506,0.682c0.117,0.266,0.176,0.557,0.176,0.875c0,0.27-0.037,0.521-0.111,0.756
				c-0.073,0.235-0.18,0.449-0.319,0.643s-0.31,0.361-0.512,0.503s-0.432,0.253-0.688,0.336v0.026
				c0.313,0.029,0.598,0.105,0.854,0.229c0.257,0.121,0.477,0.279,0.659,0.476s0.323,0.425,0.424,0.688
				c0.1,0.263,0.149,0.551,0.149,0.863c0,0.396-0.071,0.758-0.215,1.087c-0.144,0.328-0.345,0.61-0.604,0.848
				s-0.566,0.421-0.923,0.552c-0.356,0.13-0.75,0.195-1.181,0.195H644.946z M645.814,33.885v3.32h1.213
				c0.317,0,0.604-0.041,0.861-0.123c0.257-0.083,0.477-0.203,0.659-0.359s0.322-0.346,0.42-0.567
				c0.099-0.222,0.147-0.472,0.147-0.751c0-1.013-0.631-1.52-1.892-1.52H645.814z M645.814,37.988v3.666h1.611
				c0.691,0,1.223-0.162,1.595-0.486s0.558-0.783,0.558-1.379c0-1.201-0.815-1.801-2.446-1.801H645.814z"/>
			<path fill="#FFFFFF" d="M658.469,42.443l-1.031-2.766h-4.012l-1.004,2.766h-0.966l3.562-9.354h0.874l3.542,9.354H658.469z
				 M655.619,34.727c-0.03-0.082-0.063-0.178-0.095-0.287c-0.032-0.108-0.06-0.232-0.082-0.371h-0.025
				c-0.026,0.139-0.056,0.263-0.088,0.371c-0.033,0.109-0.064,0.205-0.095,0.287l-1.514,4.162h3.425L655.619,34.727z"/>
			<path fill="#FFFFFF" d="M661.776,38.803v3.641h-0.868V33.09h2.414c0.491,0,0.926,0.061,1.305,0.182
				c0.378,0.122,0.698,0.299,0.959,0.529s0.459,0.513,0.594,0.848c0.135,0.334,0.202,0.717,0.202,1.148
				c0,0.434-0.076,0.836-0.229,1.203s-0.371,0.685-0.655,0.952c-0.285,0.268-0.632,0.476-1.041,0.626
				c-0.408,0.15-0.872,0.225-1.39,0.225H661.776z M661.776,33.885v4.123h1.239c0.805,0,1.415-0.188,1.833-0.561
				c0.417-0.375,0.626-0.902,0.626-1.586c0-1.317-0.77-1.977-2.309-1.977H661.776z"/>
			<path fill="#FFFFFF" d="M670.954,33.885v8.559h-0.867v-8.559h-2.694V33.09h6.262v0.795H670.954z"/>
			<path fill="#FFFFFF" d="M681.627,42.443v-7.039c0-0.213,0.003-0.411,0.01-0.596c0.006-0.186,0.016-0.339,0.029-0.461h-0.033
				c-0.039,0.092-0.092,0.193-0.159,0.304s-0.128,0.206-0.18,0.284l-5.192,7.508h-0.907V33.09h0.868v6.953
				c0,0.23-0.004,0.439-0.01,0.626c-0.007,0.187-0.017,0.337-0.029,0.45h0.025c0.048-0.087,0.107-0.186,0.177-0.297
				s0.139-0.217,0.209-0.316l5.113-7.416h0.953v9.354H681.627z"/>
			<path fill="#FFFFFF" d="M685.802,38.803v3.641h-0.868V33.09h2.414c0.491,0,0.926,0.061,1.305,0.182
				c0.378,0.122,0.698,0.299,0.959,0.529s0.459,0.513,0.594,0.848c0.135,0.334,0.202,0.717,0.202,1.148
				c0,0.434-0.076,0.836-0.229,1.203s-0.371,0.685-0.655,0.952c-0.285,0.268-0.632,0.476-1.041,0.626
				c-0.408,0.15-0.872,0.225-1.39,0.225H685.802z M685.802,33.885v4.123h1.239c0.805,0,1.415-0.188,1.833-0.561
				c0.417-0.375,0.626-0.902,0.626-1.586c0-1.317-0.77-1.977-2.309-1.977H685.802z"/>
			<path fill="#FFFFFF" d="M695.371,39.801c-0.209,0.479-0.417,0.895-0.623,1.246c-0.207,0.354-0.424,0.645-0.652,0.875
				s-0.473,0.402-0.733,0.516c-0.262,0.112-0.549,0.169-0.861,0.169c-0.209,0-0.402-0.018-0.581-0.052
				c-0.178-0.035-0.337-0.083-0.476-0.145v-0.899c0.165,0.096,0.336,0.171,0.512,0.226c0.176,0.054,0.343,0.081,0.499,0.081
				c0.213,0,0.408-0.042,0.584-0.124s0.343-0.207,0.499-0.372s0.309-0.37,0.456-0.613c0.148-0.243,0.301-0.528,0.457-0.854
				l-3.131-6.764h0.984l2.29,5.146c0.035,0.074,0.079,0.177,0.134,0.31s0.112,0.272,0.173,0.421h0.02
				c0.048-0.127,0.098-0.25,0.15-0.372c0.052-0.122,0.1-0.232,0.144-0.333l2.159-5.172h0.926L695.371,39.801z"/>
		</g>
		<g>
			<path fill="#FFFFFF" d="M453.732,9.511l-3.816-4.377c-0.039-0.044-0.076-0.087-0.111-0.13c-0.034-0.044-0.064-0.09-0.091-0.138
				h-0.033v4.645h-0.835V4.866h-0.025c-0.035,0.048-0.068,0.095-0.102,0.14c-0.032,0.047-0.066,0.089-0.101,0.128l-3.823,4.377
				h-1.193l4.318-4.833l-4.051-4.521h1.096l3.646,4.116c0.035,0.04,0.07,0.083,0.107,0.131s0.071,0.096,0.102,0.144h0.025V0.156
				h0.835v4.391h0.033c0.034-0.057,0.07-0.107,0.107-0.153s0.07-0.086,0.102-0.121l3.64-4.116h1.089l-4.044,4.521l4.312,4.833
				H453.732z"/>
			<path fill="#FFFFFF" d="M462.564,9.511V2.473c0-0.213,0.003-0.412,0.01-0.598c0.006-0.185,0.016-0.338,0.029-0.459h-0.033
				c-0.039,0.091-0.092,0.191-0.159,0.303s-0.128,0.205-0.18,0.283l-5.192,7.509h-0.907V0.156H457V7.11
				c0,0.23-0.004,0.438-0.01,0.626c-0.007,0.188-0.017,0.338-0.029,0.45h0.025C457.034,8.1,457.094,8,457.163,7.89
				s0.139-0.216,0.209-0.316l5.113-7.417h0.953v9.354H462.564z"/>
			<path fill="#FFFFFF" d="M471.384,9.511V0.959h-2.779c-0.065,0.526-0.133,1.037-0.202,1.533s-0.137,0.967-0.202,1.412
				s-0.128,0.861-0.189,1.246c-0.061,0.385-0.119,0.729-0.176,1.033c-0.1,0.549-0.207,1.037-0.319,1.469
				c-0.113,0.43-0.255,0.792-0.424,1.086c-0.17,0.293-0.376,0.518-0.617,0.672s-0.542,0.23-0.903,0.23
				c-0.156,0-0.297-0.01-0.421-0.029s-0.237-0.047-0.342-0.081V8.689c0.204,0.107,0.428,0.162,0.672,0.162
				c0.199,0,0.372-0.064,0.519-0.195c0.146-0.131,0.281-0.315,0.407-0.555c0.096-0.183,0.201-0.5,0.316-0.952
				s0.236-1.021,0.362-1.702c0.126-0.684,0.257-1.471,0.392-2.361c0.135-0.893,0.27-1.868,0.404-2.93h4.37v9.354H471.384z"/>
			<path fill="#FFFFFF" d="M480.738,9.511l-1.031-2.766h-4.012l-1.004,2.766h-0.966l3.562-9.354h0.874l3.542,9.354H480.738z
				 M477.887,1.794c-0.03-0.083-0.063-0.179-0.095-0.287s-0.06-0.232-0.082-0.372h-0.025c-0.026,0.14-0.056,0.264-0.088,0.372
				c-0.033,0.108-0.064,0.204-0.095,0.287l-1.514,4.161h3.425L477.887,1.794z"/>
			<path fill="#FFFFFF" d="M482.342,9.511l1.572-2.896c0.104-0.195,0.204-0.369,0.3-0.521s0.193-0.287,0.291-0.405
				c0.098-0.117,0.2-0.217,0.307-0.299c0.106-0.083,0.221-0.15,0.342-0.203V5.16c-0.33-0.074-0.627-0.186-0.89-0.336
				c-0.264-0.15-0.487-0.333-0.672-0.549c-0.186-0.215-0.328-0.461-0.428-0.74c-0.1-0.277-0.15-0.582-0.15-0.912
				c0-0.41,0.077-0.768,0.232-1.077c0.154-0.309,0.359-0.565,0.616-0.77c0.256-0.204,0.549-0.358,0.877-0.464
				c0.328-0.104,0.669-0.156,1.021-0.156h2.693v9.354h-0.867V5.44h-1.031c-0.195,0-0.372,0.022-0.531,0.068
				s-0.308,0.122-0.446,0.229c-0.14,0.106-0.274,0.249-0.405,0.427c-0.13,0.179-0.265,0.4-0.404,0.666l-1.409,2.681H482.342z
				 M485.963,0.953c-0.661,0-1.167,0.154-1.517,0.466c-0.351,0.312-0.525,0.738-0.525,1.282c0,0.299,0.051,0.569,0.153,0.809
				c0.102,0.238,0.245,0.443,0.431,0.613c0.185,0.17,0.407,0.3,0.668,0.391c0.262,0.092,0.548,0.137,0.861,0.137h1.553V0.953
				H485.963z"/>
			<path fill="#FFFFFF" d="M499.439,9.511l-3.803-4.377c-0.104-0.126-0.172-0.216-0.202-0.268h-0.026v4.645h-0.868V0.156h0.868V4.56
				h0.026c0.03-0.048,0.063-0.093,0.098-0.137c0.034-0.044,0.071-0.089,0.11-0.138l3.641-4.129h1.102l-4.057,4.514l4.324,4.841
				H499.439z"/>
			<path fill="#FFFFFF" d="M505.14,9.674c-0.674,0-1.28-0.123-1.819-0.369c-0.539-0.245-0.997-0.581-1.373-1.008
				c-0.377-0.426-0.666-0.927-0.868-1.503s-0.303-1.194-0.303-1.856c0-0.73,0.101-1.398,0.303-2.006
				c0.202-0.605,0.497-1.126,0.884-1.559c0.388-0.433,0.861-0.77,1.423-1.012c0.561-0.24,1.2-0.361,1.917-0.361
				c0.661,0,1.255,0.119,1.781,0.355c0.526,0.237,0.974,0.565,1.344,0.984c0.369,0.42,0.653,0.917,0.852,1.491
				c0.197,0.574,0.297,1.198,0.297,1.872c0,0.709-0.098,1.367-0.291,1.973c-0.193,0.607-0.479,1.133-0.854,1.576
				s-0.839,0.791-1.39,1.043C506.492,9.548,505.858,9.674,505.14,9.674z M505.213,0.789c-0.565,0-1.066,0.107-1.504,0.323
				c-0.437,0.216-0.806,0.507-1.105,0.874s-0.527,0.798-0.682,1.291c-0.154,0.494-0.233,1.02-0.238,1.576
				c-0.004,0.53,0.064,1.038,0.206,1.523c0.141,0.484,0.354,0.912,0.639,1.285c0.285,0.371,0.645,0.668,1.08,0.89
				c0.435,0.222,0.943,0.333,1.526,0.333c0.582,0,1.095-0.102,1.536-0.304s0.81-0.482,1.105-0.841
				c0.296-0.359,0.519-0.787,0.669-1.282c0.149-0.495,0.225-1.037,0.225-1.624c0-0.549-0.066-1.068-0.199-1.56
				s-0.339-0.921-0.619-1.288s-0.639-0.658-1.073-0.874S505.821,0.789,505.213,0.789z"/>
			<path fill="#FFFFFF" d="M519.726,9.511V3.053c0-0.33,0.026-0.863,0.078-1.598h-0.026c-0.061,0.195-0.116,0.365-0.166,0.508
				c-0.05,0.145-0.097,0.262-0.141,0.354l-3.261,7.194h-0.372l-3.269-7.149c-0.096-0.217-0.193-0.523-0.293-0.92h-0.026
				c0.018,0.2,0.029,0.429,0.036,0.686c0.006,0.256,0.01,0.541,0.01,0.854v6.53h-0.849V0.156h1.024l3.177,7.032
				c0.065,0.147,0.13,0.3,0.192,0.454c0.063,0.154,0.121,0.318,0.173,0.492h0.039c0.062-0.174,0.116-0.333,0.167-0.477
				c0.05-0.144,0.111-0.298,0.186-0.463l3.203-7.039h0.972v9.354H519.726z"/>
			<path fill="#FFFFFF" d="M528.975,9.511V5.134h-5.101v4.377h-0.868V0.156h0.868v4.195h5.101V0.156h0.868v9.354H528.975z"/>
			<path fill="#FFFFFF" d="M538.331,9.511L537.3,6.745h-4.012l-1.004,2.766h-0.966l3.562-9.354h0.874l3.542,9.354H538.331z
				 M535.48,1.794c-0.03-0.083-0.063-0.179-0.095-0.287s-0.06-0.232-0.082-0.372h-0.025c-0.026,0.14-0.056,0.264-0.088,0.372
				c-0.033,0.108-0.064,0.204-0.095,0.287l-1.514,4.161h3.425L535.48,1.794z"/>
			<path fill="#FFFFFF" d="M542.485,0.953v8.558h-0.867V0.953h-2.694V0.156h6.262v0.797H542.485z"/>
			<path fill="#FFFFFF" d="M551.781,9.511l-1.031-2.766h-4.012l-1.004,2.766h-0.966l3.562-9.354h0.874l3.542,9.354H551.781z
				 M548.93,1.794c-0.03-0.083-0.063-0.179-0.095-0.287s-0.06-0.232-0.082-0.372h-0.025c-0.026,0.14-0.056,0.264-0.088,0.372
				c-0.033,0.108-0.064,0.204-0.095,0.287l-1.514,4.161h3.425L548.93,1.794z"/>
		</g>
		<g>
			<path fill="#FFFFFF" d="M444.814,33.037v-9.354h2.558c0.387,0,0.736,0.052,1.047,0.156c0.311,0.104,0.576,0.251,0.796,0.439
				c0.22,0.189,0.388,0.417,0.506,0.682c0.117,0.266,0.176,0.557,0.176,0.875c0,0.27-0.037,0.521-0.111,0.756
				c-0.073,0.235-0.18,0.449-0.319,0.643s-0.31,0.361-0.512,0.503s-0.432,0.253-0.688,0.336V28.1
				c0.313,0.029,0.598,0.105,0.854,0.229c0.257,0.121,0.477,0.279,0.659,0.476s0.323,0.425,0.424,0.688
				c0.1,0.263,0.149,0.551,0.149,0.863c0,0.396-0.071,0.758-0.215,1.087c-0.144,0.328-0.345,0.61-0.604,0.848
				s-0.566,0.421-0.923,0.552c-0.356,0.13-0.75,0.195-1.181,0.195H444.814z M445.682,24.479v3.32h1.213
				c0.317,0,0.604-0.041,0.861-0.123c0.257-0.083,0.477-0.203,0.659-0.359s0.322-0.346,0.42-0.567
				c0.099-0.222,0.147-0.472,0.147-0.751c0-1.013-0.631-1.52-1.892-1.52H445.682z M445.682,28.582v3.666h1.611
				c0.691,0,1.223-0.162,1.595-0.486s0.558-0.783,0.558-1.379c0-1.201-0.815-1.801-2.446-1.801H445.682z"/>
			<path fill="#FFFFFF" d="M458.338,33.037l-1.031-2.766h-4.012l-1.004,2.766h-0.966l3.562-9.354h0.874l3.542,9.354H458.338z
				 M455.487,25.32c-0.03-0.082-0.063-0.178-0.095-0.287c-0.032-0.108-0.06-0.232-0.082-0.371h-0.025
				c-0.026,0.139-0.056,0.263-0.088,0.371c-0.033,0.109-0.064,0.205-0.095,0.287l-1.514,4.162h3.425L455.487,25.32z"/>
			<path fill="#FFFFFF" d="M466.745,33.037V28.66h-5.101v4.377h-0.868v-9.354h0.868v4.193h5.101v-4.193h0.868v9.354H466.745z"/>
			<path fill="#FFFFFF" d="M476.008,33.037V28.66h-5.101v4.377h-0.868v-9.354h0.868v4.193h5.101v-4.193h0.868v9.354H476.008z"/>
			<path fill="#FFFFFF" d="M485.363,33.037l-1.031-2.766h-4.012l-1.004,2.766h-0.966l3.562-9.354h0.874l3.542,9.354H485.363z
				 M482.512,25.32c-0.03-0.082-0.063-0.178-0.095-0.287c-0.032-0.108-0.06-0.232-0.082-0.371h-0.025
				c-0.026,0.139-0.056,0.263-0.088,0.371c-0.033,0.109-0.064,0.205-0.095,0.287l-1.514,4.162h3.425L482.512,25.32z"/>
			<path fill="#FFFFFF" d="M486.967,33.037l1.572-2.896c0.104-0.195,0.204-0.369,0.3-0.521s0.193-0.287,0.291-0.404
				s0.2-0.218,0.307-0.301c0.106-0.082,0.221-0.149,0.342-0.201v-0.027c-0.33-0.073-0.627-0.186-0.89-0.336
				c-0.264-0.149-0.487-0.332-0.672-0.547c-0.186-0.216-0.328-0.463-0.428-0.74c-0.1-0.279-0.15-0.584-0.15-0.914
				c0-0.408,0.077-0.768,0.232-1.076c0.154-0.309,0.359-0.564,0.616-0.77c0.256-0.205,0.549-0.359,0.877-0.463
				c0.328-0.104,0.669-0.156,1.021-0.156h2.693v9.354h-0.867v-4.07h-1.031c-0.195,0-0.372,0.023-0.531,0.068
				c-0.159,0.046-0.308,0.121-0.446,0.229c-0.14,0.106-0.274,0.249-0.405,0.428c-0.13,0.178-0.265,0.399-0.404,0.664l-1.409,2.682
				H486.967z M490.588,24.479c-0.661,0-1.167,0.156-1.517,0.467c-0.351,0.311-0.525,0.738-0.525,1.281
				c0,0.301,0.051,0.57,0.153,0.809c0.102,0.24,0.245,0.444,0.431,0.613c0.185,0.17,0.407,0.301,0.668,0.393
				c0.262,0.091,0.548,0.137,0.861,0.137h1.553v-3.699H490.588z"/>
			<path fill="#FFFFFF" d="M498.558,34.59h-0.796l4.521-10.906h0.815L498.558,34.59z"/>
			<path fill="#FFFFFF" d="M510.548,24.479v8.559h-0.867v-8.559h-2.694v-0.795h6.262v0.795H510.548z"/>
			<path fill="#FFFFFF" d="M518.017,30.395c-0.209,0.479-0.417,0.895-0.623,1.246c-0.207,0.354-0.424,0.645-0.652,0.875
				s-0.473,0.402-0.733,0.516c-0.262,0.112-0.549,0.169-0.861,0.169c-0.209,0-0.402-0.018-0.581-0.052
				c-0.178-0.035-0.337-0.083-0.476-0.145v-0.899c0.165,0.096,0.336,0.171,0.512,0.226c0.176,0.054,0.343,0.081,0.499,0.081
				c0.213,0,0.408-0.042,0.584-0.124s0.343-0.207,0.499-0.372s0.309-0.37,0.456-0.613c0.148-0.243,0.301-0.528,0.457-0.854
				l-3.131-6.764h0.984l2.29,5.146c0.035,0.074,0.079,0.177,0.134,0.31s0.112,0.272,0.173,0.421h0.02
				c0.048-0.127,0.098-0.25,0.15-0.372c0.052-0.122,0.1-0.232,0.144-0.333l2.159-5.172h0.926L518.017,30.395z"/>
			<path fill="#FFFFFF" d="M526.883,33.037l-1.031-2.766h-4.012l-1.004,2.766h-0.966l3.562-9.354h0.874l3.542,9.354H526.883z
				 M524.032,25.32c-0.03-0.082-0.063-0.178-0.095-0.287c-0.032-0.108-0.06-0.232-0.082-0.371h-0.025
				c-0.026,0.139-0.056,0.263-0.088,0.371c-0.033,0.109-0.064,0.205-0.095,0.287l-1.514,4.162h3.425L524.032,25.32z"/>
			<path fill="#FFFFFF" d="M535.461,33.037v-8.552h-2.779c-0.065,0.526-0.133,1.037-0.202,1.532
				c-0.069,0.496-0.137,0.967-0.202,1.413s-0.128,0.86-0.189,1.245c-0.061,0.385-0.119,0.73-0.176,1.035
				c-0.1,0.547-0.207,1.037-0.319,1.467c-0.113,0.431-0.255,0.793-0.424,1.086c-0.17,0.294-0.376,0.518-0.617,0.672
				s-0.542,0.232-0.903,0.232c-0.156,0-0.297-0.01-0.421-0.029s-0.237-0.047-0.342-0.082v-0.842
				c0.204,0.109,0.428,0.164,0.672,0.164c0.199,0,0.372-0.066,0.519-0.196c0.146-0.13,0.281-0.315,0.407-0.555
				c0.096-0.183,0.201-0.5,0.316-0.952s0.236-1.02,0.362-1.703c0.126-0.682,0.257-1.469,0.392-2.361
				c0.135-0.891,0.27-1.867,0.404-2.928h4.37v9.354H535.461z"/>
			<path fill="#FFFFFF" d="M538.754,33.037v-9.354h4.561v0.795h-3.692v3.432h3.418v0.783h-3.418v3.555h3.9v0.789H538.754z"/>
			<path fill="#FFFFFF" d="M548.147,24.479v8.559h-0.867v-8.559h-2.694v-0.795h6.262v0.795H548.147z"/>
		</g>
		<g>
			<path fill="#FFFFFF" d="M449.714,56.564l-3.803-4.377c-0.104-0.126-0.172-0.215-0.202-0.268h-0.026v4.645h-0.868v-9.354h0.868
				v4.402h0.026c0.03-0.048,0.063-0.094,0.098-0.137c0.034-0.043,0.071-0.09,0.11-0.137l3.641-4.129h1.102l-4.057,4.514l4.324,4.84
				H449.714z"/>
			<path fill="#FFFFFF" d="M455.434,53.922c-0.209,0.479-0.417,0.895-0.623,1.246c-0.207,0.354-0.424,0.645-0.652,0.875
				s-0.473,0.402-0.733,0.516c-0.262,0.112-0.549,0.169-0.861,0.169c-0.209,0-0.402-0.018-0.581-0.052
				c-0.178-0.035-0.337-0.083-0.476-0.145v-0.899c0.165,0.096,0.336,0.171,0.512,0.226c0.176,0.054,0.343,0.081,0.499,0.081
				c0.213,0,0.408-0.042,0.584-0.124s0.343-0.207,0.499-0.372s0.309-0.37,0.456-0.613c0.148-0.243,0.301-0.528,0.457-0.854
				l-3.131-6.764h0.984l2.29,5.146c0.035,0.074,0.079,0.177,0.134,0.31s0.112,0.272,0.173,0.421h0.02
				c0.048-0.127,0.098-0.25,0.15-0.372c0.052-0.122,0.1-0.232,0.144-0.333l2.159-5.172h0.926L455.434,53.922z"/>
			<path fill="#FFFFFF" d="M464.671,56.564l-2.152-3.574c-0.048-0.083-0.098-0.174-0.15-0.271c-0.052-0.098-0.096-0.191-0.13-0.283
				h-0.033c-0.043,0.087-0.088,0.176-0.134,0.268c-0.045,0.091-0.099,0.187-0.159,0.287l-2.205,3.574h-1.063l3.047-4.709
				l-2.831-4.645h1.057l2.002,3.404c0.062,0.1,0.119,0.203,0.173,0.311c0.055,0.105,0.11,0.216,0.167,0.328h0.025
				c0.062-0.125,0.121-0.242,0.18-0.352c0.059-0.108,0.116-0.209,0.173-0.3l2.035-3.392h1.005l-2.87,4.631l2.922,4.723H464.671z"/>
			<path fill="#FFFFFF" d="M473.242,56.564v-4.377h-5.101v4.377h-0.868v-9.354h0.868v4.193h5.101v-4.193h0.868v9.354H473.242z"/>
			<path fill="#FFFFFF" d="M475.701,56.564l1.572-2.896c0.104-0.195,0.204-0.369,0.3-0.521s0.193-0.287,0.291-0.404
				s0.2-0.218,0.307-0.301c0.106-0.082,0.221-0.149,0.342-0.201v-0.027c-0.33-0.073-0.627-0.186-0.89-0.336
				c-0.264-0.149-0.487-0.332-0.672-0.547c-0.186-0.216-0.328-0.463-0.428-0.74c-0.1-0.279-0.15-0.584-0.15-0.914
				c0-0.408,0.077-0.768,0.232-1.076c0.154-0.309,0.359-0.564,0.616-0.77c0.256-0.205,0.549-0.359,0.877-0.463
				c0.328-0.104,0.669-0.156,1.021-0.156h2.693v9.354h-0.867v-4.07h-1.031c-0.195,0-0.372,0.023-0.531,0.068
				c-0.159,0.046-0.308,0.121-0.446,0.229c-0.14,0.106-0.274,0.249-0.405,0.428c-0.13,0.178-0.265,0.399-0.404,0.664l-1.409,2.682
				H475.701z M479.322,48.006c-0.661,0-1.167,0.156-1.517,0.467c-0.351,0.311-0.525,0.738-0.525,1.281
				c0,0.301,0.051,0.57,0.153,0.809c0.102,0.24,0.245,0.444,0.431,0.613c0.185,0.17,0.407,0.301,0.668,0.393
				c0.262,0.091,0.548,0.137,0.861,0.137h1.553v-3.699H479.322z"/>
		</g>
		<g>
			<path fill="#FFFFFF" d="M414.542,32.705c-0.683,0.33-1.574,0.495-2.674,0.495c-1.436,0-2.564-0.422-3.386-1.266
				c-0.822-0.843-1.233-1.968-1.233-3.372c0-1.496,0.462-2.709,1.387-3.641c0.924-0.93,2.123-1.396,3.598-1.396
				c0.913,0,1.683,0.115,2.309,0.346V25.9c-0.626-0.373-1.339-0.561-2.14-0.561c-0.878,0-1.587,0.276-2.126,0.828
				c-0.54,0.553-0.81,1.301-0.81,2.244c0,0.904,0.255,1.625,0.764,2.162s1.193,0.807,2.055,0.807c0.822,0,1.574-0.201,2.257-0.601
				V32.705z"/>
			<path fill="#FFFFFF" d="M423.375,23.684l-2.929,6.412c-0.548,1.199-1.065,2.018-1.553,2.452s-1.104,0.652-1.853,0.652
				c-0.496,0-0.9-0.071-1.214-0.216v-1.924c0.357,0.23,0.727,0.346,1.109,0.346c0.526,0,0.989-0.426,1.39-1.278l-3.072-6.444h2.4
				l1.553,3.744c0.091,0.226,0.163,0.48,0.215,0.763h0.013c0.048-0.235,0.122-0.48,0.222-0.737l1.501-3.77H423.375z"/>
		</g>
		<g>
			<path fill="#FFFFFF" d="M414.588,9.511h-2.622l-2.76-4.031c-0.074-0.104-0.158-0.261-0.254-0.47h-0.026v4.501h-2.062V5.01h-0.026
				c-0.043,0.1-0.128,0.257-0.254,0.47l-2.766,4.031h-2.616l3.568-4.88l-3.301-4.475h2.512l2.603,3.914
				c0.108,0.166,0.193,0.309,0.254,0.431h0.026V0.156h2.062v4.345h0.026c0.061-0.126,0.146-0.27,0.254-0.431l2.603-3.914h2.512
				l-3.301,4.475L414.588,9.511z"/>
			<path fill="#FFFFFF" d="M423.375,9.511h-2.662l-2.727-4.063c-0.052-0.078-0.135-0.25-0.248-0.516h-0.032v4.579h-2.107V0.156
				h2.107v4.423h0.032c0.053-0.122,0.14-0.296,0.262-0.521l2.583-3.901h2.511l-3.261,4.462L423.375,9.511z"/>
		</g>
		<g>
			<path fill="#FFFFFF" d="M423.375,56.564h-2.662l-2.727-4.064c-0.052-0.078-0.135-0.25-0.248-0.515h-0.032v4.579h-2.107v-9.354
				h2.107v4.422h0.032c0.053-0.121,0.14-0.295,0.262-0.521l2.583-3.9h2.511l-3.261,4.461L423.375,56.564z"/>
		</g>

			<rect x="231.489" y="10.083" fill="#1A1A1A" stroke="#FFFFFF" stroke-width="7" stroke-miterlimit="10" width="38.107" height="38.107"/>
	</g>
</g>
<g id="ann" display="none">
</g>
<g id="logo">
</g>
</svg>