<?xml version="1.0" encoding="utf-8"?>
<!-- Generator: Adobe Illustrator 17.0.1, SVG Export Plug-In . SVG Version: 6.00 Build 0)  -->
<!DOCTYPE svg PUBLIC "-//W3C//DTD SVG 1.1//EN" "http://www.w3.org/Graphics/SVG/1.1/DTD/svg11.dtd">
<svg version="1.1" xmlns="http://www.w3.org/2000/svg" xmlns:xlink="http://www.w3.org/1999/xlink" x="0px" y="0px"
	 width="70.803px" height="70.803px" viewBox="0 0 70.803 70.803" enable-background="new 0 0 70.803 70.803" xml:space="preserve">
<g id="Layer_1">
	<g id="New_Symbol_1_">
	</g>
	<g id="New_Symbol_2_">
	</g>
	<g id="New_Symbol">
	</g>
	<g id="Arrow">
	</g>
	<circle fill="none" stroke="#939393" stroke-width="2" stroke-miterlimit="10" cx="35.401" cy="35.402" r="34.401"/>
	<g id="Ebene_3_7_">
		<g>
			<path fill="#4D4D4D" d="M40.445,36.611c-0.636,0-1.429,0.106-2.303,0.307c-0.915-0.701-1.844-1.555-2.642-2.428
				c0.264-2.608-0.159-3.696-0.566-4.149c-0.32-0.356-0.765-0.48-1.258-0.345c-0.565,0.155-0.778,0.51-0.857,0.78
				c-0.329,1.119,1.036,2.907,1.955,3.948c-0.141,1.199-0.408,2.483-0.759,3.651c-0.833,0.403-1.547,0.834-2.071,1.249
				c-0.66,0.523-1.036,1.033-1.116,1.515c-0.066,0.396,0.065,0.767,0.379,1.073c0.242,0.236,0.51,0.356,0.795,0.356h0
				c1.215,0,2.127-2.248,2.587-3.694c1.071-0.495,2.265-0.918,3.396-1.202c0.971,0.715,2.279,1.519,3.248,1.519
				c0.64,0,1.066-0.346,1.198-0.973c0.107-0.505-0.053-0.836-0.205-1.024C41.914,36.807,41.314,36.611,40.445,36.611z
				 M32.002,41.871c-0.099,0-0.2-0.052-0.31-0.158c-0.194-0.189-0.197-0.345-0.178-0.46c0.087-0.524,0.906-1.24,2.19-1.937
				C33.066,41.074,32.409,41.871,32.002,41.871z M33.487,30.972c0.03-0.102,0.1-0.229,0.373-0.305c0.072-0.02,0.139-0.03,0.2-0.03
				c0.14,0,0.253,0.053,0.356,0.168c0.372,0.415,0.529,1.488,0.445,2.941C34.036,32.725,33.315,31.558,33.487,30.972z
				 M37.277,37.141c-0.809,0.229-1.634,0.52-2.414,0.851l0.006-0.021l-0.018,0.009c0.226-0.84,0.408-1.719,0.534-2.573l0.013,0.015
				l0.002-0.02c0.59,0.609,1.232,1.198,1.879,1.724l-0.018,0.004L37.277,37.141z M41.751,38.074
				c-0.064,0.303-0.209,0.421-0.517,0.421c-0.523,0-1.35-0.367-2.327-1.024c0.579-0.107,1.101-0.163,1.537-0.163
				c0.851,0,1.143,0.204,1.242,0.325C41.718,37.67,41.812,37.787,41.751,38.074z"/>
			<path fill="#4D4D4D" d="M41.89,24.418H26.543v22.977h19.264v-19.06L41.89,24.418z M42.094,25.607l2.525,2.525h-2.525V25.607z
				 M27.24,46.699V25.114h14.158v3.713h3.713v17.871H27.24z"/>
		</g>
	</g>
</g>
<g id="Layer_6">
</g>
</svg>
