<svg version="1.1" xmlns="http://www.w3.org/2000/svg" xmlns:xlink="http://www.w3.org/1999/xlink" x="0px" y="0px"
	 width="70px" height="70px" viewBox="0 0 68.821 68.821" enable-background="new 0 0 70 70" xml:space="preserve">
	<circle fill="#00B8E4" stroke="#00B8E4" stroke-width="2" stroke-miterlimit="10" cx="34.41" cy="34.411" r="33.41"/>
	<path fill="#FFFFFF" d="M42.804,30.638h-0.938v-2.063c0-4.094-3.331-7.425-7.425-7.425c-4.094,0-7.425,3.331-7.425,7.425v2.063h-1
		c-0.663,0-1.2,0.537-1.2,1.2v11.988c0,0.663,0.537,1.2,1.2,1.2h16.787c0.663,0,1.2-0.537,1.2-1.2V31.838
		C44.004,31.175,43.467,30.638,42.804,30.638z M29.417,28.575c0-2.771,2.254-5.025,5.025-5.025s5.025,2.254,5.025,5.025v2.063
		h-10.05V28.575z M41.604,42.626H27.217v-9.588h1h12.45h0.938V42.626z"/>
</svg>
