<?xml version="1.0" encoding="utf-8"?>
<!-- Generator: Adobe Illustrator 17.0.1, SVG Export Plug-In . SVG Version: 6.00 Build 0)  -->
<!DOCTYPE svg PUBLIC "-//W3C//DTD SVG 1.1//EN" "http://www.w3.org/Graphics/SVG/1.1/DTD/svg11.dtd">
<svg version="1.1" xmlns="http://www.w3.org/2000/svg" xmlns:xlink="http://www.w3.org/1999/xlink" x="0px" y="0px"
	 width="70.803px" height="70.803px" viewBox="0 0 70.803 70.803" enable-background="new 0 0 70.803 70.803" xml:space="preserve">
<g id="Layer_1">
	<g id="New_Symbol_1_">
	</g>
	<g id="New_Symbol_2_">
	</g>
	<g id="New_Symbol">
	</g>
	<g id="Arrow">
	</g>
	<circle fill="none" stroke="#939393" stroke-width="2" stroke-miterlimit="10" cx="35.401" cy="35.402" r="34.401"/>
	<path fill="#4D4D4D" d="M42.826,33.184h-0.829v-1.824c0-3.622-2.947-6.568-6.568-6.568c-3.622,0-6.568,2.947-6.568,6.568v1.824
		h-0.884c-0.586,0-1.062,0.475-1.062,1.062V44.85c0,0.586,0.475,1.062,1.062,1.062h14.85c0.586,0,1.062-0.475,1.062-1.062V34.245
		C43.888,33.659,43.413,33.184,42.826,33.184z M30.984,31.359c0-2.451,1.994-4.445,4.445-4.445s4.445,1.994,4.445,4.445v1.824h-8.89
		V31.359z M41.765,43.788H29.038v-8.481h0.884h11.013h0.829V43.788z"/>
</g>
<g id="Layer_6">
</g>
</svg>
