<svg version="1.1" xmlns="http://www.w3.org/2000/svg" xmlns:xlink="http://www.w3.org/1999/xlink" x="0px" y="0px"
	 width="70px" height="70px" viewBox="0 0 98.527 98.527" enable-background="new 0 0 98.527 98.527" xml:space="preserve">
<g id="Layer_1">
	<g id="Arrow">
	</g>
	<circle fill="#00B8E4" stroke="#00B8E4" stroke-width="2" stroke-miterlimit="10" cx="49.263" cy="49.264" r="48.263"/>
	<path fill="#EFEFEF" d="M57.885,50.546c-1.158,0-2.603,0.193-4.194,0.56c-1.667-1.277-3.359-2.831-4.811-4.422
		c0.48-4.75-0.29-6.731-1.03-7.557c-0.582-0.649-1.393-0.875-2.292-0.628c-1.028,0.282-1.417,0.928-1.561,1.42
		c-0.598,2.038,1.887,5.294,3.561,7.19c-0.256,2.183-0.743,4.522-1.383,6.65c-1.517,0.734-2.817,1.518-3.772,2.275
		c-1.203,0.953-1.887,1.881-2.033,2.758c-0.12,0.721,0.119,1.397,0.69,1.954c0.442,0.43,0.929,0.648,1.449,0.648h0
		c2.213,0,3.874-4.094,4.712-6.728c1.95-0.902,4.125-1.671,6.186-2.189c1.769,1.303,4.15,2.766,5.916,2.766
		c1.166,0,1.941-0.629,2.182-1.772c0.194-0.921-0.096-1.522-0.374-1.865C60.56,50.903,59.468,50.546,57.885,50.546z M42.509,60.127
		c-0.18,0-0.365-0.094-0.564-0.288c-0.354-0.344-0.359-0.628-0.324-0.837c0.159-0.955,1.65-2.258,3.988-3.527
		C44.445,58.675,43.25,60.127,42.509,60.127z M45.212,40.277c0.055-0.186,0.181-0.418,0.68-0.555
		c0.131-0.036,0.253-0.054,0.364-0.054c0.255,0,0.461,0.097,0.648,0.306c0.677,0.755,0.964,2.709,0.811,5.357
		C46.212,43.469,44.899,41.344,45.212,40.277z M52.116,51.511c-1.473,0.417-2.975,0.947-4.397,1.549l0.012-0.038l-0.033,0.016
		c0.411-1.529,0.744-3.13,0.973-4.686l0.024,0.027l0.004-0.036c1.075,1.109,2.244,2.182,3.422,3.139l-0.033,0.008L52.116,51.511z
		 M60.264,53.21c-0.116,0.551-0.38,0.766-0.941,0.766c-0.952,0-2.459-0.669-4.238-1.866c1.054-0.195,2.006-0.296,2.8-0.296
		c1.55,0,2.082,0.371,2.261,0.592C60.203,52.476,60.374,52.688,60.264,53.21z"/>
	<path fill="#EFEFEF" d="M60.516,28.34h-27.95v41.848h35.084V35.474L60.516,28.34z M60.887,30.504l4.598,4.598h-4.598V30.504z
		 M33.834,68.919V29.608h25.785v6.763h6.763v32.548H33.834z"/>
</g>
</svg>
