<svg version="1.1" xmlns="http://www.w3.org/2000/svg" xmlns:xlink="http://www.w3.org/1999/xlink" x="0px" y="0px" width="24px"
	 height="24px" viewBox="0 0 24 24" enable-background="new 0 0 24 24" xml:space="preserve">
<symbol  id="help_1_" viewBox="-12 -12 24 24">
	<path fill="#939393" d="M0,12c-6.627,0-12-5.373-12-12c0-6.627,5.373-12,12-12S12-6.627,12,0C12,6.628,6.628,12,0,12z M0.796-6.772
		C0.458-7.078,0.028-7.231-0.493-7.231s-0.954,0.156-1.299,0.469C-2.137-6.437-2.309-6.053-2.309-5.61
		c0,0.456,0.172,0.836,0.518,1.143s0.778,0.459,1.299,0.459c0.514,0,0.941-0.153,1.279-0.459c0.338-0.299,0.508-0.68,0.508-1.143
		C1.294-6.079,1.128-6.466,0.796-6.772z M3.745,2.617c-0.091-0.322-0.225-0.626-0.4-0.913S2.951,1.143,2.691,0.879
		s-0.56-0.536-0.898-0.815C1.564-0.125,1.364-0.301,1.192-0.464s-0.316-0.324-0.43-0.483s-0.2-0.329-0.259-0.508
		s-0.088-0.382-0.088-0.61c0-0.156,0.021-0.316,0.063-0.479s0.099-0.299,0.171-0.41h-2.568c-0.065,0.169-0.116,0.36-0.151,0.571
		s-0.054,0.412-0.054,0.601c0,0.299,0.029,0.573,0.088,0.82s0.146,0.48,0.264,0.698s0.264,0.426,0.439,0.625
		s0.381,0.396,0.615,0.591c0.248,0.208,0.464,0.402,0.649,0.581S0.275,1.891,0.406,2.07s0.228,0.365,0.293,0.557
		s0.098,0.405,0.098,0.64c0,0.202-0.036,0.389-0.107,0.562S0.515,4.149,0.381,4.273S0.085,4.494-0.107,4.566
		s-0.405,0.107-0.64,0.107c-0.508,0-1.035-0.106-1.582-0.317s-1.064-0.532-1.553-0.962v2.939c0.501,0.299,1.048,0.524,1.641,0.674
		s1.205,0.225,1.836,0.225c0.605,0,1.168-0.067,1.689-0.2s0.975-0.343,1.362-0.63s0.69-0.653,0.908-1.099s0.327-0.981,0.327-1.606
		C3.882,3.299,3.837,2.94,3.745,2.617z"/>
</symbol>
		<use xlink:href="#help_1_"  width="24" height="24" id="XMLID_16_" x="-12" y="-12" transform="matrix(1 0 0 -1 11.9998 12)" overflow="visible"/>
</svg>
