<svg  id="Слой_1" data-name="Слой 1" xmlns="http://www.w3.org/2000/svg" viewBox="0 0 71.37 71.37">
    <path class="circle-but" d="M35.69.5A35.19,35.19,0,1,0,70.87,35.69,35.22,35.22,0,0,0,35.69.5Z" style="fill: #d2d2d2;opacity: 0"/>
    <path class="circle-but" d="M35.69,71.37A35.69,35.69,0,1,1,71.37,35.69,35.73,35.73,0,0,1,35.69,71.37ZM35.69,1A34.69,34.69,0,1,0,70.37,35.69,34.72,34.72,0,0,0,35.69,1Z" style="fill: #d3d3d3"/>
    <g>
        <path class="inner-but" d="M46.16,56.4H25.21A5.45,5.45,0,0,1,19.77,51V20.41A5.45,5.45,0,0,1,25.21,15H46.16a5.45,5.45,0,0,1,5.44,5.44V51A5.45,5.45,0,0,1,46.16,56.4ZM25.21,16.6a3.82,3.82,0,0,0-3.81,3.81V51a3.82,3.82,0,0,0,3.81,3.81H46.16A3.82,3.82,0,0,0,50,51V20.41a3.82,3.82,0,0,0-3.81-3.81Z" style="fill: #4d4d4d"/>
        <path  class="inner-but" d="M46,26.68H25.39a.82.82,0,0,1-.82-.82V20.49a.82.82,0,0,1,.82-.82H46a.82.82,0,0,1,.82.82v5.37A.82.82,0,0,1,46,26.68ZM26.21,25h19V21.31h-19Z" style="fill: #4d4d4d"/>
        <path class="inner-but" d="M30.51,36.06H25.39a.82.82,0,0,1-.82-.82V30.13a.82.82,0,0,1,.82-.82h5.12a.82.82,0,0,1,.82.82v5.12A.82.82,0,0,1,30.51,36.06Zm-4.3-1.63h3.48V30.95H26.21Z" style="fill: #4d4d4d"/>
        <path class="inner-but"  d="M38.24,36.06H33.13a.82.82,0,0,1-.82-.82V30.13a.82.82,0,0,1,.82-.82h5.12a.82.82,0,0,1,.82.82v5.12A.82.82,0,0,1,38.24,36.06Zm-4.3-1.63h3.48V30.95H33.94Z" style="fill: #4d4d4d"/>
        <path class="inner-but"  d="M46,36.06H40.86a.82.82,0,0,1-.82-.82V30.13a.82.82,0,0,1,.82-.82H46a.82.82,0,0,1,.82.82v5.12A.82.82,0,0,1,46,36.06Zm-4.3-1.63h3.48V30.95H41.68Z" style="fill: #4d4d4d"/>
        <path class="inner-but"  d="M30.51,43.69H25.39a.82.82,0,0,1-.82-.82V37.75a.82.82,0,0,1,.82-.82h5.12a.82.82,0,0,1,.82.82v5.12A.82.82,0,0,1,30.51,43.69Zm-4.3-1.63h3.48V38.57H26.21Z" style="fill: #4d4d4d"/>
        <path class="inner-but" d="M38.24,43.69H33.13a.82.82,0,0,1-.82-.82V37.75a.82.82,0,0,1,.82-.82h5.12a.82.82,0,0,1,.82.82v5.12A.82.82,0,0,1,38.24,43.69Zm-4.3-1.63h3.48V38.57H33.94Z" style="fill: #4d4d4d"/>
        <path class="inner-but" d="M46,43.69H40.86a.82.82,0,0,1-.82-.82V37.75a.82.82,0,0,1,.82-.82H46a.82.82,0,0,1,.82.82v5.12A.82.82,0,0,1,46,43.69Zm-4.3-1.63h3.48V38.57H41.68Z" style="fill: #4d4d4d"/>
        <path class="inner-but" d="M30.51,51.2H25.39a.82.82,0,0,1-.82-.82V45.27a.82.82,0,0,1,.82-.82h5.12a.82.82,0,0,1,.82.82v5.12A.82.82,0,0,1,30.51,51.2Zm-4.3-1.63h3.48V46.08H26.21Z" style="fill: #4d4d4d"/>
        <path class="inner-but" d="M38.24,51.2H33.13a.82.82,0,0,1-.82-.82V45.27a.82.82,0,0,1,.82-.82h5.12a.82.82,0,0,1,.82.82v5.12A.82.82,0,0,1,38.24,51.2Zm-4.3-1.63h3.48V46.08H33.94Z" style="fill: #4d4d4d"/>
        <path class="inner-but" d="M46,51.2H40.86a.82.82,0,0,1-.82-.82V45.27a.82.82,0,0,1,.82-.82H46a.82.82,0,0,1,.82.82v5.12A.82.82,0,0,1,46,51.2Zm-4.3-1.63h3.48V46.08H41.68Z" style="fill: #4d4d4d"/>
    </g>
</svg>