<svg id="Capa_1" data-name="Capa 1" xmlns="http://www.w3.org/2000/svg" viewBox="0 0 40.83 50.77">
    <title>calcb</title>
    <g>
        <path d="M33.21,50.77H7.55A6.68,6.68,0,0,1,.88,44.1V6.67A6.68,6.68,0,0,1,7.55,0H33.21a6.68,6.68,0,0,1,6.67,6.67V44.1A6.68,6.68,0,0,1,33.21,50.77ZM7.55,2A4.68,4.68,0,0,0,2.88,6.67V44.1a4.67,4.67,0,0,0,4.67,4.67H33.21a4.67,4.67,0,0,0,4.67-4.67V6.67A4.68,4.68,0,0,0,33.21,2Z" style="fill: #00b7e4"/>
        <path d="M33,14.35H7.77a1,1,0,0,1-1-1V6.77a1,1,0,0,1,1-1H33a1,1,0,0,1,1,1v6.58A1,1,0,0,1,33,14.35Zm-24.22-2H32V7.77H8.77Z" style="fill: #00b7e4"/>
        <path d="M14,25.85H7.77a1,1,0,0,1-1-1V18.58a1,1,0,0,1,1-1H14a1,1,0,0,1,1,1v6.27A1,1,0,0,1,14,25.85Zm-5.27-2H13V19.58H8.77Z" style="fill: #00b7e4"/>
        <path d="M23.52,25.85H17.25a1,1,0,0,1-1-1V18.58a1,1,0,0,1,1-1h6.27a1,1,0,0,1,1,1v6.27A1,1,0,0,1,23.52,25.85Zm-5.27-2h4.27V19.58H18.25Z" style="fill: #00b7e4"/>
        <path d="M33,25.85H26.73a1,1,0,0,1-1-1V18.58a1,1,0,0,1,1-1H33a1,1,0,0,1,1,1v6.27A1,1,0,0,1,33,25.85Zm-5.27-2H32V19.58H27.73Z" style="fill: #00b7e4"/>
        <path d="M14,35.19H7.77a1,1,0,0,1-1-1V27.92a1,1,0,0,1,1-1H14a1,1,0,0,1,1,1v6.27A1,1,0,0,1,14,35.19Zm-5.27-2H13V28.92H8.77Z" style="fill: #00b7e4"/>
        <path d="M23.52,35.19H17.25a1,1,0,0,1-1-1V27.92a1,1,0,0,1,1-1h6.27a1,1,0,0,1,1,1v6.27A1,1,0,0,1,23.52,35.19Zm-5.27-2h4.27V28.92H18.25Z" style="fill: #00b7e4"/>
        <path d="M33,35.19H26.73a1,1,0,0,1-1-1V27.92a1,1,0,0,1,1-1H33a1,1,0,0,1,1,1v6.27A1,1,0,0,1,33,35.19Zm-5.27-2H32V28.92H27.73Z" style="fill: #00b7e4"/>
        <path d="M14,44.4H7.77a1,1,0,0,1-1-1V37.13a1,1,0,0,1,1-1H14a1,1,0,0,1,1,1V43.4A1,1,0,0,1,14,44.4Zm-5.27-2H13V38.13H8.77Z" style="fill: #00b7e4"/>
        <path d="M23.52,44.4H17.25a1,1,0,0,1-1-1V37.13a1,1,0,0,1,1-1h6.27a1,1,0,0,1,1,1V43.4A1,1,0,0,1,23.52,44.4Zm-5.27-2h4.27V38.13H18.25Z" style="fill: #00b7e4"/>
        <path d="M33,44.4H26.73a1,1,0,0,1-1-1V37.13a1,1,0,0,1,1-1H33a1,1,0,0,1,1,1V43.4A1,1,0,0,1,33,44.4Zm-5.27-2H32V38.13H27.73Z" style="fill: #00b7e4"/>
    </g>
</svg>