<svg version="1.1" xmlns="http://www.w3.org/2000/svg" xmlns:xlink="http://www.w3.org/1999/xlink" x="0px" y="0px" width="25px"
	 height="25px" viewBox="0 0 12 13" enable-background="new 0 0 12 13" xml:space="preserve">
	<path class="hi" fill="#D3D3D3" d="M6,0.812c-2.124,0-3.846,1.722-3.846,3.846c0,1.268,0.654,2.362,1.563,3.126
		C5.823,9.555,5.99,11.663,6,12.188c0.01-0.525,0.177-2.633,2.283-4.403c0.909-0.764,1.563-1.858,1.563-3.126
		C9.846,2.534,8.124,0.812,6,0.812z M6,6.604c-1.075,0-1.946-0.871-1.946-1.946S4.925,2.713,6,2.713
		c1.075,0,1.946,0.871,1.946,1.946S7.075,6.604,6,6.604z"/>
</svg>