<svg class="menu-icon3" version="1.1" xmlns="http://www.w3.org/2000/svg" xmlns:xlink="http://www.w3.org/1999/xlink" x="0px" y="0px"
								 width="45.027px" height="43.059px" viewBox="0 0 45.027 43.059" enable-background="new 0 0 45.027 43.059" xml:space="preserve">
									<polygon class="menu-icon-fill" fill="#A5A5A5" points="17.303,6.561 10.742,6.561 10.742,0 6.561,0 6.561,6.561 0,6.561 0,10.742 6.561,10.742 
										6.561,17.303 10.742,17.303 10.742,10.742 17.303,10.742 		"/>
									<path class="menu-icon-fill" fill="#A5A5A5" d="M8.069,25.552c-1.178-1.178-2.884-1.49-4.354-0.962L6.624,27.5l-0.735,1.763l-1.763,0.735l-2.909-2.909
										c-0.529,1.47-0.216,3.176,0.962,4.354c1.235,1.235,3.052,1.527,4.567,0.886l10.273,10.273c0.61,0.61,1.599,0.61,2.209,0
										c0.61-0.61,0.61-1.599,0-2.209L8.955,30.12C9.596,28.604,9.304,26.788,8.069,25.552z M18.53,41.904
										c-0.225,0.225-0.589,0.225-0.814,0c-0.225-0.225-0.225-0.589,0-0.814c0.225-0.225,0.589-0.225,0.814,0
										C18.755,41.315,18.755,41.679,18.53,41.904z"/>
										<path class="menu-icon-fill" fill="#A5A5A5" d="M41.248,39.435c-0.532,0-0.963,0.431-0.963,0.963s0.431,0.962,0.963,0.962
											c0.531,0,0.963-0.431,0.963-0.962C42.21,39.866,41.779,39.435,41.248,39.435z"/>
										<circle class="menu-icon-fill" fill="#A5A5A5" cx="33.062" cy="40.398" r="0.963"/>
										<polygon class="menu-icon-fill" fill="#A5A5A5" points="32.346,38.458 32.346,38.472 41.936,38.472 41.936,37.536 33.151,37.536 32.794,35.803 
											42.03,35.803 44.918,28.58 31.312,28.58 30.792,26.04 30.737,26.041 30.737,26.04 28.077,26.04 28.077,27.004 30.021,27.004 
											"/>
									<path class="menu-icon-fill" fill="#A5A5A5" d="M33.784,14.986c0.125,0.669,0.302,1.31,0.533,1.913c0.696,0.183,1.427,0.282,2.18,0.282
										c0.99,0,1.939-0.17,2.823-0.48c-1.244-0.281-2.161-0.63-2.986-0.944C35.486,15.434,34.728,15.145,33.784,14.986z"/>
									<path class="menu-icon-fill" fill="#A5A5A5" d="M30.72,14.925c0.889,0.82,1.953,1.451,3.129,1.835c-0.205-0.585-0.362-1.199-0.476-1.833
										C32.643,14.838,31.795,14.825,30.72,14.925z"/>
									<path class="menu-icon-fill" fill="#A5A5A5" d="M33.307,14.53c-0.06-0.395-0.103-0.797-0.133-1.203c-2.164-0.425-3.879-1.207-4.844-2.213
										c0.396,1.314,1.101,2.494,2.029,3.457C31.556,14.441,32.503,14.442,33.307,14.53z"/>
									<path class="menu-icon-fill" fill="#A5A5A5" d="M32.469,10.852c0.196,0.102,0.421,0.192,0.677,0.254c0.203-4.707,1.955-9.467,3.376-10.983
										c-0.008,0-0.016-0.001-0.024-0.001c-2.55,0-4.837,1.12-6.4,2.894C29.302,5.232,30.022,9.576,32.469,10.852z"/>
									<path class="menu-icon-fill" fill="#A5A5A5" d="M33.149,12.921c-0.023-0.47-0.028-0.944-0.017-1.42c-0.322-0.07-0.603-0.179-0.843-0.304
										c-2.358-1.229-3.222-4.93-2.788-7.422c-0.966,1.382-1.534,3.063-1.534,4.877c0,0.509,0.047,1.006,0.133,1.491
										C28.739,11.39,30.631,12.405,33.149,12.921z"/>
									<path class="menu-icon-fill" fill="#A5A5A5" d="M33.548,11.176c1.837,0.196,4.934-1.088,9.415-8.083c-1.447-1.682-3.538-2.793-5.891-2.949
										C35.698,1.109,33.757,6.208,33.548,11.176z"/>
									<path class="menu-icon-fill" fill="#A5A5A5" d="M35.751,13.646c-0.758-0.044-1.485-0.126-2.171-0.244c0.031,0.4,0.075,0.794,0.136,1.182
										c1.056,0.161,1.874,0.473,2.757,0.809c0.933,0.355,1.987,0.755,3.502,1.047c2.158-0.965,3.842-2.801,4.604-5.061
										C42.608,13.294,38.751,13.82,35.751,13.646z"/>
									<path class="menu-icon-fill" fill="#A5A5A5" d="M33.536,11.563c-0.011,0.482-0.006,0.962,0.019,1.435c0.7,0.125,1.444,0.214,2.218,0.259
										c3.222,0.186,7.451-0.437,9.053-2.767c0.13-0.592,0.201-1.207,0.201-1.839c0-1.977-0.675-3.796-1.804-5.243
										C38.712,10.412,35.495,11.75,33.536,11.563z"/>
								</svg>
