<svg class="menu-icon1" version="1.1" xmlns="http://www.w3.org/2000/svg" xmlns:xlink="http://www.w3.org/1999/xlink" x="0px" y="0px"
								width="15.054px" height="34.067px" viewBox="0 0 15.054 34.067" enable-background="new 0 0 15.054 34.067" xml:space="preserve">
								<path class="menu-icon-fill" fill="#FFFFFF" d="M14.602,30.391l-0.476,1.946c-1.427,0.564-2.568,0.993-3.418,1.288c-0.85,0.296-1.838,0.442-2.964,0.442
								c-1.729,0-3.074-0.423-4.033-1.265c-0.959-0.844-1.439-1.915-1.439-3.213c0-0.503,0.035-1.02,0.108-1.547
								c0.072-0.527,0.188-1.122,0.347-1.785l1.785-6.315c0.159-0.605,0.294-1.179,0.401-1.721c0.11-0.538,0.162-1.034,0.162-1.48
								c0-0.807-0.166-1.37-0.499-1.688c-0.333-0.317-0.967-0.478-1.909-0.478c-0.462,0-0.936,0.074-1.419,0.217
								C0.763,14.937,0.348,15.076,0,15.205l0.478-1.948c1.169-0.476,2.287-0.883,3.355-1.222s2.079-0.509,3.034-0.509
								c1.717,0,3.042,0.415,3.972,1.245s1.396,1.907,1.396,3.234c0,0.274-0.031,0.758-0.096,1.449
								c-0.065,0.693-0.184,1.327-0.358,1.905l-1.778,6.292c-0.145,0.505-0.276,1.083-0.39,1.733c-0.117,0.646-0.174,1.139-0.174,1.47
								c0,0.836,0.186,1.406,0.56,1.709c0.376,0.303,1.024,0.454,1.944,0.454c0.433,0,0.924-0.076,1.47-0.227
								C13.96,30.639,14.358,30.506,14.602,30.391z M15.054,3.978c0,1.096-0.413,2.032-1.243,2.801
								c-0.828,0.773-1.827,1.159-2.993,1.159c-1.171,0-2.171-0.386-3.009-1.159C6.973,6.01,6.554,5.074,6.554,3.978
								c0-1.094,0.419-2.032,1.255-2.811S9.647,0,10.818,0c1.167,0,2.165,0.39,2.993,1.167C14.641,1.946,15.054,2.884,15.054,3.978z"/>
								</svg>
