								<svg class="menu-icon2" version="1.1" xmlns="http://www.w3.org/2000/svg" xmlns:xlink="http://www.w3.org/1999/xlink" x="0px" y="0px"
								width="20.794px" height="30.75px" viewBox="0 0 20.794 30.75" enable-background="new 0 0 20.794 30.75" xml:space="preserve">
								<path class="menu-icon-fill" fill="#A5A5A5" d="M10.397,0C4.655,0,0,4.655,0,10.397c0,3.428,1.768,6.385,4.225,8.451
								c5.692,4.785,6.144,10.484,6.172,11.903c0.027-1.419,0.479-7.117,6.172-11.903c2.457-2.065,4.225-5.023,4.225-8.451
								C20.794,4.655,16.139,0,10.397,0z M10.397,15.656c-2.905,0-5.26-2.355-5.26-5.26s2.355-5.26,5.26-5.26
								c2.905,0,5.26,2.355,5.26,5.26S13.302,15.656,10.397,15.656z"/>
								</svg>
