<?xml version="1.0" encoding="utf-8"?>
<!-- Generator: Adobe Illustrator 17.0.1, SVG Export Plug-In . SVG Version: 6.00 Build 0)  -->
<!DOCTYPE svg PUBLIC "-//W3C//DTD SVG 1.1//EN" "http://www.w3.org/Graphics/SVG/1.1/DTD/svg11.dtd">
<svg version="1.1" id="Layer_1" xmlns="http://www.w3.org/2000/svg" xmlns:xlink="http://www.w3.org/1999/xlink" x="0px" y="0px"
	 width="25px" height="24.104px" viewBox="0 0 25 24.104" enable-background="new 0 0 25 24.104" xml:space="preserve">
<g>
	<path fill="#EFEFEF" d="M15.468,16.734c-0.592-0.094-0.606-1.723-0.606-1.723s1.74-1.723,2.119-4.039c1.02,0,1.65-2.463,0.63-3.329
		c0.043-0.912,1.311-7.16-5.112-7.16c-6.424,0-5.155,6.248-5.112,7.16c-1.02,0.866-0.39,3.329,0.63,3.329
		c0.379,2.317,2.119,4.039,2.119,4.039s-0.013,1.628-0.606,1.723C7.624,17.038,0.5,20.18,0.5,23.625h12h12
		C24.499,20.18,17.376,17.038,15.468,16.734z"/>
</g>
</svg>
