<svg class="menu-icon4" version="1.1" xmlns="http://www.w3.org/2000/svg" xmlns:xlink="http://www.w3.org/1999/xlink" x="0px" y="0px"
								width="53.051px" height="44.187px" viewBox="0 0 53.051 44.187" enable-background="new 0 0 53.051 44.187" xml:space="preserve">
								<path class="menu-icon-fill" fill="#A5A5A5" d="M37.525,27.621v-7.478c-0.237,0.078-0.467,0.141-0.688,0.186c-0.11,0.023-0.24,0.06-0.368,0.095v6.143
								H2.69V12.845h15.21c0.157-0.371,0.332-0.727,0.534-1.056H1.634v15.834h3.004L0,29.346l5.519,14.842l33.64-12.508l-1.508-4.058
								H37.525z M22.693,27.621c0.295,0.442,0.562,0.916,0.76,1.452c1.05,2.824,0.166,5.756-1.973,6.552
								c-2.141,0.798-4.727-0.847-5.775-3.671c-0.571-1.537-0.553-3.093-0.088-4.333L22.693,27.621z M6.14,42.829L1.356,29.968
								l6.311-2.347h3.029l-7.982,2.967L6.76,41.473l29.684-11.036l-1.047-2.815h1.126l1.279,3.436L6.14,42.829z M7.949,36.338
								c-0.729,0.271-1.54-0.101-1.811-0.828c-0.271-0.729,0.101-1.542,0.829-1.811c0.729-0.271,1.54,0.101,1.811,0.829
								S8.679,36.067,7.949,36.338z"/>
								<path class="menu-icon-fill" fill="#A5A5A5" d="M17.517,13.899H3.745V25.51h22.966c-0.762-0.095-1.438-0.462-1.917-1.086
								c-0.575-0.744-0.621-1.443-0.557-1.899c0.152-1.114,1.05-1.917,1.816-2.492c1.369-1.026,4.771-3.816,5.814-4.932
								c-0.35-0.331-1.006-0.798-1.712-1.202h-6.295c-0.467,0.419-0.844,0.971-1.121,1.657c-0.057,0.143-0.108,0.274-0.161,0.41
								c0.7,0.976,1.137,2.286,1.137,3.738c0,3.013-1.851,5.454-4.134,5.454c-2.285,0-4.134-2.442-4.134-5.454
								c0-1.828,0.688-3.438,1.735-4.426C17.27,14.813,17.38,14.35,17.517,13.899z M6.647,21.112c-0.776,0-1.408-0.631-1.408-1.408
								s0.631-1.408,1.408-1.408c0.778,0,1.408,0.63,1.408,1.408C8.055,20.483,7.425,21.112,6.647,21.112z"/>
								<path class="menu-icon-fill" fill="#A5A5A5" d="M29.099,24.843c-0.179,0.143-0.295,0.23-0.332,0.256c-0.251,0.168-0.676,0.334-1.16,0.41h7.809v-4.714
								C34.02,21.376,31.997,22.536,29.099,24.843z"/>
								<path class="menu-icon-fill" fill="#A5A5A5" d="M33.942,5.054c-6.334,0.177-11.523,3.871-14.074,6.421c-2.552,2.552-2.198,9.164-1.846,9.148
								c2.198-0.088,1.935-1.319,3.606-5.454c1.673-4.134,5.894-3.431,7.39-2.904c1.496,0.527,4.046,2.2,3.959,2.904
								c-0.088,0.704-5.367,4.927-6.421,5.717c-1.056,0.792-1.936,1.76-1.056,2.904c0.881,1.144,2.286,0.615,2.55,0.44
								c0.263-0.177,5.013-4.223,8.444-4.927c3.431-0.704,9.677-6.481,9.677-6.481l-5.454-7.33C40.715,5.494,40.276,4.878,33.942,5.054
								z"/>
								<rect class="menu-icon-fill" x="44.761" y="0.259" transform="matrix(0.8146 -0.5801 0.5801 0.8146 4.8754 28.6631)" fill="#A5A5A5" width="5.015" height="12.894"/>
								</svg>
