<?xml version="1.0" encoding="utf-8"?>
<!-- Generator: Adobe Illustrator 17.0.1, SVG Export Plug-In . SVG Version: 6.00 Build 0)  -->
<!DOCTYPE svg PUBLIC "-//W3C//DTD SVG 1.1//EN" "http://www.w3.org/Graphics/SVG/1.1/DTD/svg11.dtd">
<svg version="1.1" xmlns="http://www.w3.org/2000/svg" xmlns:xlink="http://www.w3.org/1999/xlink" x="0px" y="0px"
	 width="30.631px" height="30.631px" viewBox="0 0 30.631 30.631" enable-background="new 0 0 30.631 30.631" xml:space="preserve">
<g id="backgrounds">
</g>
<g id="back_x5F_img" display="none" opacity="0.5">
</g>
<g id="main">
	<g id="question">
		<g>
			<circle fill="none" stroke="#999999" stroke-miterlimit="10" cx="15.315" cy="15.315" r="14.816"/>
			<g>
				<g>
					<path fill="#999999" d="M14.594,19.392c-0.072-0.188-0.134-0.431-0.185-0.726c-0.052-0.294-0.077-0.591-0.077-0.889
						c0-0.371,0.059-0.707,0.175-1.009s0.27-0.587,0.458-0.856c0.189-0.269,0.409-0.527,0.66-0.774s0.511-0.498,0.78-0.753
						c0.218-0.203,0.427-0.41,0.627-0.622c0.2-0.21,0.376-0.436,0.529-0.676c0.152-0.24,0.276-0.496,0.37-0.77
						c0.095-0.272,0.143-0.564,0.143-0.878c0-0.378-0.067-0.712-0.202-1.003s-0.32-0.536-0.557-0.736s-0.516-0.353-0.84-0.458
						c-0.323-0.105-0.671-0.158-1.041-0.158c-0.655,0-1.259,0.118-1.812,0.354s-1.068,0.583-1.549,1.041V8.931
						c0.538-0.371,1.093-0.646,1.664-0.829c0.57-0.182,1.18-0.272,1.827-0.272c0.545,0,1.056,0.074,1.532,0.224
						c0.477,0.149,0.889,0.369,1.238,0.66c0.349,0.291,0.625,0.648,0.829,1.074c0.203,0.426,0.305,0.918,0.305,1.479
						c0,0.407-0.056,0.781-0.169,1.123c-0.112,0.342-0.262,0.658-0.447,0.949s-0.395,0.563-0.627,0.818
						c-0.232,0.254-0.473,0.498-0.72,0.73c-0.313,0.298-0.588,0.565-0.823,0.802c-0.237,0.236-0.436,0.464-0.595,0.682
						c-0.16,0.218-0.282,0.44-0.365,0.665c-0.084,0.226-0.126,0.477-0.126,0.753c0,0.335,0.034,0.639,0.104,0.911
						s0.141,0.504,0.213,0.692H14.594z M15.271,23.93c-0.139,0-0.27-0.025-0.393-0.076c-0.124-0.052-0.233-0.124-0.327-0.219
						c-0.095-0.094-0.171-0.205-0.229-0.332c-0.058-0.128-0.087-0.264-0.087-0.409c0-0.153,0.027-0.293,0.082-0.42
						c0.054-0.128,0.129-0.236,0.224-0.327c0.094-0.091,0.205-0.164,0.332-0.219c0.128-0.055,0.26-0.082,0.398-0.082
						c0.138,0,0.271,0.026,0.398,0.077c0.127,0.051,0.239,0.123,0.338,0.218c0.099,0.095,0.176,0.205,0.234,0.333
						c0.059,0.127,0.087,0.267,0.087,0.42c0,0.146-0.028,0.281-0.087,0.409c-0.059,0.127-0.136,0.238-0.234,0.332
						c-0.099,0.095-0.211,0.167-0.338,0.219C15.541,23.905,15.408,23.93,15.271,23.93z"/>
				</g>
			</g>
		</g>
	</g>
</g>
<g id="help" display="none">
</g>
</svg>
