<svg version="1.1" id="Layer_1" xmlns="http://www.w3.org/2000/svg" xmlns:xlink="http://www.w3.org/1999/xlink" x="0px" y="0px"
	 width="54px" height="70px" viewBox="0 0 65.393 84.918" enable-background="new 0 0 65.393 84.918" xml:space="preserve">
<g>
	<defs>
		<rect id="SVGID_45_" x="-2871.29" y="53.577" width="2560" height="904.68"/>
	</defs>
	<clipPath id="SVGID_2_">
		<use xlink:href="#SVGID_45_"  overflow="visible"/>
	</clipPath>
</g>
<g>
			<path fill="#FFFFFF" d="M15.184,23.289c-2.931,0-2.931,4.554,0,4.554c11.675,0,23.348,0,35.022,0c2.937,0,2.937-4.554,0-4.554
				C38.532,23.289,26.859,23.289,15.184,23.289z"/>
			<path fill="#FFFFFF" d="M50.206,34.056c-11.674,0-23.347,0-35.022,0c-2.931,0-2.931,4.549,0,4.549c11.675,0,23.348,0,35.022,0
				C53.143,38.605,53.143,34.056,50.206,34.056z"/>
			<path fill="#FFFFFF" d="M50.206,44.029c-11.674,0-23.347,0-35.022,0c-2.931,0-2.931,4.548,0,4.548c11.675,0,23.348,0,35.022,0
				C53.143,48.577,53.143,44.029,50.206,44.029z"/>
			<path fill="#FFFFFF" d="M50.206,54.793c-11.674,0-23.347,0-35.022,0c-2.931,0-2.931,4.547,0,4.547c11.675,0,23.348,0,35.022,0
				C53.143,59.34,53.143,54.793,50.206,54.793z"/>
			<path fill="#FFFFFF" d="M49.537,64.953c-11.678,0-23.356,0-35.028,0c-2.929,0-2.929,4.548,0,4.548c11.673,0,23.35,0,35.028,0
				C52.465,69.5,52.465,64.953,49.537,64.953z"/>
			<path fill="#FFFFFF" d="M0,0v84.918h65.393V11.782L53.242,0L0,0z M59.741,79.265H5.656V5.654h44.675v8.97h9.405v64.641H59.741z"
				/>
</g>
</svg>
