<svg version="1.1" xmlns="http://www.w3.org/2000/svg" xmlns:xlink="http://www.w3.org/1999/xlink" x="0px" y="0px"
                   width="31.646px" height="31.646px" viewBox="0 0 31.646 31.646" enable-background="new 0 0 31.646 31.646" xml:space="preserve">
<path class="social-hover" fill="#FFFFFF" d="M29.898,0H1.747C0.783,0,0,0.781,0,1.747v28.151c0,0.966,0.783,1.748,1.747,1.748h15.156V19.391h-4.124
v-4.777h4.124v-3.522c0-4.087,2.495-6.313,6.142-6.313c1.748,0,3.247,0.131,3.684,0.188v4.272l-2.529,0.001
c-1.983,0-2.365,0.943-2.365,2.325v3.049h4.73l-0.619,4.776h-4.112v12.256h8.064c0.965,0,1.748-0.783,1.748-1.746V1.746
C31.645,0.781,30.863,0,29.898,0z"/>
</svg>
