<?xml version="1.0" encoding="utf-8"?>
<!-- Generator: Adobe Illustrator 17.0.1, SVG Export Plug-In . SVG Version: 6.00 Build 0)  -->
<!DOCTYPE svg PUBLIC "-//W3C//DTD SVG 1.1//EN" "http://www.w3.org/Graphics/SVG/1.1/DTD/svg11.dtd">
<svg version="1.1" xmlns="http://www.w3.org/2000/svg" xmlns:xlink="http://www.w3.org/1999/xlink" x="0px" y="0px"
	 width="322.375px" height="242.291px" viewBox="0 0 322.375 242.291" enable-background="new 0 0 322.375 242.291"
	 xml:space="preserve">
<g id="img">
</g>
<g id="main">
	<g id="FIND_x5F_logo_2">
	</g>
	<g>
		<rect x="20.709" y="1.251" opacity="0.9" fill="#FFFFFF" width="300.416" height="38.916"/>
		<rect x="20.709" y="51.469" opacity="0.4" fill="#FFFFFF" width="300.416" height="38.916"/>
		
			<rect x="20.709" y="101.688" fill="#00AFE1" stroke="#00AFE1" stroke-width="2.5017" stroke-miterlimit="10" width="300.416" height="38.916"/>
		<rect x="20.709" y="151.906" opacity="0.9" fill="#FFFFFF" width="300.416" height="38.916"/>
		<rect x="20.709" y="202.125" opacity="0.4" fill="#FFFFFF" width="300.416" height="38.916"/>
		<circle fill="#FFFFFF" stroke="#00AFE1" stroke-width="2.5017" stroke-miterlimit="10" cx="20.709" cy="221.583" r="19.458"/>
		<circle fill="#FFFFFF" stroke="#00AFE1" stroke-width="2.5017" stroke-miterlimit="10" cx="20.709" cy="171.364" r="19.458"/>
		<circle fill="#FFFFFF" stroke="#00AFE1" stroke-width="2.5017" stroke-miterlimit="10" cx="20.709" cy="121.146" r="19.458"/>
		<circle fill="#FFFFFF" stroke="#00AFE1" stroke-width="2.5017" stroke-miterlimit="10" cx="20.709" cy="70.927" r="19.458"/>
		<g>
			<path fill="#878A8B" d="M16.583,73.431h3.342v1.44h-5.244v-0.594c0-0.403,0.068-0.765,0.203-1.086
				c0.136-0.32,0.306-0.608,0.511-0.862c0.205-0.255,0.43-0.48,0.673-0.677c0.244-0.195,0.475-0.373,0.695-0.53
				c0.231-0.165,0.433-0.322,0.607-0.473s0.321-0.299,0.44-0.448c0.119-0.148,0.208-0.298,0.267-0.451
				c0.059-0.151,0.088-0.314,0.088-0.486c0-0.337-0.095-0.592-0.286-0.764s-0.482-0.258-0.874-0.258
				c-0.678,0-1.327,0.269-1.946,0.808v-1.528c0.685-0.443,1.458-0.665,2.32-0.665c0.399,0,0.758,0.053,1.075,0.156
				c0.317,0.105,0.585,0.254,0.805,0.448s0.388,0.43,0.503,0.706c0.115,0.277,0.173,0.586,0.173,0.927
				c0,0.363-0.056,0.685-0.168,0.967c-0.112,0.282-0.26,0.539-0.445,0.77s-0.399,0.443-0.64,0.635
				c-0.242,0.193-0.493,0.379-0.753,0.558c-0.176,0.125-0.345,0.249-0.508,0.371c-0.163,0.123-0.307,0.244-0.432,0.363
				c-0.125,0.119-0.224,0.235-0.297,0.349C16.62,73.22,16.583,73.328,16.583,73.431z"/>
			<path fill="#878A8B" d="M21.14,72.749c0-0.22,0.032-0.431,0.096-0.635c0.064-0.203,0.16-0.392,0.289-0.566
				s0.289-0.33,0.481-0.468c0.192-0.137,0.419-0.25,0.679-0.338c-0.399-0.198-0.709-0.451-0.929-0.762
				c-0.22-0.309-0.33-0.653-0.33-1.03c0-0.3,0.063-0.579,0.19-0.836c0.126-0.257,0.301-0.478,0.525-0.665
				c0.224-0.187,0.49-0.332,0.8-0.437c0.31-0.104,0.648-0.156,1.014-0.156c0.374,0,0.716,0.053,1.028,0.156
				c0.311,0.105,0.58,0.25,0.805,0.435c0.225,0.185,0.4,0.404,0.525,0.657c0.125,0.253,0.187,0.528,0.187,0.825
				c0,0.374-0.117,0.714-0.352,1.019c-0.235,0.307-0.559,0.558-0.973,0.756c0.257,0.088,0.482,0.2,0.676,0.338
				c0.194,0.137,0.357,0.294,0.489,0.47c0.132,0.176,0.231,0.368,0.297,0.575s0.099,0.422,0.099,0.646
				c0,0.337-0.068,0.644-0.203,0.92c-0.136,0.277-0.327,0.515-0.574,0.715c-0.247,0.2-0.542,0.355-0.885,0.465
				c-0.343,0.11-0.721,0.165-1.135,0.165c-0.407,0-0.781-0.054-1.124-0.162c-0.343-0.108-0.638-0.261-0.885-0.459
				c-0.247-0.198-0.441-0.435-0.58-0.712C21.21,73.388,21.14,73.083,21.14,72.749z M22.784,72.601c0,0.18,0.027,0.341,0.082,0.484
				c0.055,0.143,0.134,0.264,0.236,0.363c0.103,0.099,0.224,0.175,0.366,0.228c0.141,0.054,0.3,0.08,0.475,0.08
				c0.169,0,0.323-0.027,0.464-0.082c0.141-0.055,0.263-0.132,0.366-0.231c0.103-0.099,0.183-0.22,0.242-0.363
				c0.059-0.143,0.088-0.302,0.088-0.478c0-0.158-0.027-0.308-0.082-0.451c-0.055-0.143-0.134-0.267-0.236-0.371
				c-0.103-0.105-0.224-0.188-0.366-0.25c-0.141-0.062-0.3-0.093-0.475-0.093c-0.165,0-0.319,0.029-0.462,0.085
				c-0.143,0.057-0.266,0.138-0.368,0.242c-0.103,0.105-0.183,0.228-0.242,0.371C22.813,72.277,22.784,72.432,22.784,72.601z
				 M23.026,69.111c0,0.139,0.025,0.271,0.074,0.393c0.049,0.123,0.116,0.229,0.201,0.319c0.084,0.09,0.184,0.16,0.3,0.211
				c0.115,0.051,0.237,0.077,0.366,0.077c0.132,0,0.255-0.026,0.368-0.077c0.114-0.051,0.213-0.123,0.3-0.214
				s0.154-0.198,0.203-0.319c0.049-0.121,0.074-0.251,0.074-0.39c0-0.143-0.024-0.275-0.071-0.398
				c-0.048-0.123-0.115-0.229-0.201-0.319s-0.187-0.161-0.302-0.212c-0.115-0.051-0.239-0.077-0.371-0.077
				c-0.139,0-0.267,0.027-0.382,0.08c-0.115,0.053-0.214,0.125-0.297,0.214c-0.082,0.09-0.147,0.197-0.192,0.319
				C23.049,68.841,23.026,68.971,23.026,69.111z"/>
		</g>
		<g>
			<path fill="#878A8B" d="M20.143,120.764c0,0.7-0.077,1.326-0.231,1.877c-0.154,0.552-0.378,1.018-0.673,1.399
				c-0.295,0.381-0.655,0.673-1.08,0.877c-0.425,0.203-0.907,0.305-1.446,0.305c-0.645,0-1.2-0.103-1.666-0.308v-1.429
				c0.414,0.271,0.912,0.407,1.495,0.407c0.597,0,1.065-0.203,1.402-0.61c0.337-0.407,0.508-0.995,0.511-1.764l-0.033-0.011
				c-0.348,0.517-0.878,0.775-1.589,0.775c-0.322,0-0.62-0.06-0.893-0.181c-0.273-0.121-0.509-0.289-0.709-0.503
				c-0.2-0.215-0.355-0.47-0.467-0.767c-0.112-0.297-0.168-0.623-0.168-0.978c0-0.414,0.068-0.792,0.203-1.132
				c0.136-0.341,0.325-0.634,0.569-0.88c0.244-0.246,0.536-0.435,0.877-0.569c0.341-0.133,0.718-0.2,1.132-0.2
				c0.429,0,0.814,0.084,1.154,0.25c0.341,0.167,0.631,0.407,0.871,0.723c0.24,0.315,0.423,0.702,0.55,1.16
				C20.079,119.661,20.143,120.181,20.143,120.764z M18.389,119.84c0-0.202-0.026-0.391-0.077-0.569
				c-0.051-0.177-0.123-0.33-0.214-0.459s-0.203-0.23-0.335-0.305c-0.132-0.075-0.277-0.113-0.434-0.113
				c-0.15,0-0.289,0.033-0.415,0.099c-0.126,0.066-0.235,0.157-0.327,0.272c-0.092,0.116-0.163,0.254-0.214,0.415
				s-0.077,0.335-0.077,0.522c0,0.205,0.026,0.388,0.077,0.547c0.051,0.16,0.124,0.294,0.217,0.404
				c0.093,0.11,0.206,0.194,0.338,0.25c0.132,0.057,0.279,0.085,0.44,0.085c0.154,0,0.293-0.03,0.418-0.091
				c0.125-0.06,0.232-0.142,0.322-0.244c0.09-0.103,0.159-0.224,0.209-0.363C18.364,120.152,18.389,120.001,18.389,119.84z"/>
			<path fill="#878A8B" d="M25.876,117.202v4.969h0.945v1.297h-0.945v1.616h-1.583v-1.616h-3.436v-1.358
				c0.304-0.341,0.619-0.713,0.945-1.118c0.326-0.405,0.641-0.822,0.945-1.251c0.304-0.429,0.587-0.86,0.849-1.295
				c0.262-0.434,0.485-0.849,0.668-1.245H25.876z M22.413,122.171h1.88v-2.754c-0.128,0.238-0.268,0.479-0.418,0.723
				c-0.15,0.244-0.308,0.484-0.473,0.721c-0.165,0.236-0.332,0.465-0.5,0.686C22.733,121.769,22.57,121.977,22.413,122.171z"/>
		</g>
		<g>
			<path fill="#878A8B" d="M15.506,175.066v-1.512c0.528,0.385,1.143,0.577,1.847,0.577c0.443,0,0.789-0.095,1.036-0.286
				c0.247-0.191,0.371-0.456,0.371-0.797c0-0.352-0.153-0.623-0.459-0.814c-0.306-0.191-0.727-0.286-1.262-0.286h-0.731v-1.33h0.676
				c1.026,0,1.539-0.341,1.539-1.022c0-0.641-0.394-0.962-1.182-0.962c-0.528,0-1.041,0.17-1.539,0.511v-1.418
				c0.553-0.279,1.198-0.418,1.935-0.418c0.806,0,1.434,0.181,1.883,0.544c0.449,0.363,0.673,0.834,0.673,1.413
				c0,1.03-0.522,1.675-1.567,1.935v0.027c0.557,0.07,0.997,0.272,1.319,0.608c0.322,0.335,0.484,0.746,0.484,1.234
				c0,0.737-0.269,1.319-0.808,1.748c-0.539,0.429-1.283,0.643-2.232,0.643C16.677,175.462,16.015,175.33,15.506,175.066z"/>
			<path fill="#878A8B" d="M25.911,167.266v8.058H24.18v-6.102c-0.095,0.084-0.208,0.164-0.338,0.239s-0.268,0.143-0.415,0.203
				c-0.147,0.061-0.299,0.112-0.456,0.154c-0.158,0.043-0.313,0.073-0.467,0.091v-1.462c0.451-0.132,0.876-0.301,1.275-0.506
				c0.399-0.205,0.76-0.431,1.083-0.676H25.911z"/>
		</g>
		<g>
			<path fill="#878A8B" d="M14.673,223.405c0-0.22,0.032-0.431,0.096-0.635c0.064-0.203,0.16-0.392,0.289-0.566
				c0.128-0.174,0.289-0.33,0.481-0.468c0.192-0.137,0.419-0.25,0.679-0.338c-0.399-0.198-0.709-0.451-0.929-0.762
				c-0.22-0.309-0.33-0.653-0.33-1.03c0-0.301,0.063-0.579,0.19-0.836s0.301-0.478,0.525-0.665c0.224-0.187,0.49-0.332,0.8-0.437
				c0.31-0.104,0.648-0.156,1.014-0.156c0.374,0,0.716,0.053,1.028,0.156c0.311,0.105,0.58,0.25,0.805,0.435s0.4,0.404,0.525,0.657
				c0.125,0.253,0.187,0.528,0.187,0.825c0,0.374-0.117,0.714-0.352,1.019c-0.235,0.307-0.559,0.558-0.973,0.756
				c0.257,0.088,0.482,0.2,0.676,0.338c0.194,0.137,0.357,0.294,0.489,0.47c0.132,0.176,0.231,0.368,0.297,0.575
				c0.066,0.207,0.099,0.422,0.099,0.646c0,0.337-0.068,0.644-0.203,0.92c-0.136,0.277-0.327,0.515-0.574,0.715
				c-0.247,0.2-0.542,0.355-0.885,0.465c-0.343,0.11-0.721,0.165-1.135,0.165c-0.407,0-0.781-0.054-1.124-0.162
				c-0.343-0.108-0.638-0.261-0.885-0.459s-0.441-0.435-0.58-0.712C14.743,224.044,14.673,223.738,14.673,223.405z M16.317,223.257
				c0,0.18,0.027,0.341,0.082,0.484c0.055,0.143,0.134,0.264,0.236,0.363c0.103,0.099,0.224,0.175,0.366,0.228
				c0.141,0.054,0.3,0.08,0.475,0.08c0.169,0,0.323-0.027,0.464-0.082c0.141-0.055,0.263-0.132,0.366-0.231s0.183-0.22,0.242-0.363
				c0.059-0.143,0.088-0.302,0.088-0.478c0-0.158-0.027-0.308-0.082-0.451c-0.055-0.143-0.134-0.267-0.236-0.371
				c-0.103-0.105-0.224-0.188-0.366-0.25s-0.3-0.093-0.475-0.093c-0.165,0-0.319,0.029-0.462,0.085
				c-0.143,0.057-0.266,0.138-0.368,0.242c-0.103,0.105-0.183,0.228-0.242,0.371C16.346,222.932,16.317,223.088,16.317,223.257z
				 M16.559,219.766c0,0.139,0.025,0.271,0.074,0.393c0.049,0.123,0.116,0.229,0.201,0.319s0.184,0.16,0.3,0.211
				c0.115,0.051,0.237,0.077,0.366,0.077c0.132,0,0.255-0.026,0.368-0.077c0.114-0.051,0.213-0.123,0.3-0.214
				c0.086-0.092,0.154-0.198,0.203-0.319c0.049-0.121,0.074-0.251,0.074-0.39c0-0.143-0.024-0.275-0.071-0.398
				c-0.048-0.123-0.115-0.229-0.201-0.319c-0.086-0.09-0.187-0.161-0.302-0.212s-0.239-0.077-0.371-0.077
				c-0.139,0-0.267,0.027-0.382,0.08c-0.115,0.053-0.214,0.125-0.297,0.214c-0.082,0.09-0.147,0.197-0.192,0.319
				C16.582,219.496,16.559,219.627,16.559,219.766z"/>
			<path fill="#878A8B" d="M21.148,223.405c0-0.22,0.032-0.431,0.096-0.635c0.064-0.203,0.16-0.392,0.289-0.566
				c0.128-0.174,0.289-0.33,0.481-0.468c0.192-0.137,0.419-0.25,0.679-0.338c-0.399-0.198-0.709-0.451-0.929-0.762
				c-0.22-0.309-0.33-0.653-0.33-1.03c0-0.301,0.063-0.579,0.19-0.836c0.126-0.257,0.301-0.478,0.525-0.665s0.49-0.332,0.8-0.437
				c0.31-0.104,0.648-0.156,1.014-0.156c0.374,0,0.716,0.053,1.028,0.156c0.311,0.105,0.58,0.25,0.805,0.435
				c0.225,0.185,0.4,0.404,0.525,0.657c0.125,0.253,0.187,0.528,0.187,0.825c0,0.374-0.117,0.714-0.352,1.019
				c-0.235,0.307-0.559,0.558-0.973,0.756c0.257,0.088,0.482,0.2,0.676,0.338c0.194,0.137,0.357,0.294,0.489,0.47
				c0.132,0.176,0.231,0.368,0.297,0.575c0.066,0.207,0.099,0.422,0.099,0.646c0,0.337-0.068,0.644-0.203,0.92
				c-0.136,0.277-0.327,0.515-0.574,0.715c-0.247,0.2-0.542,0.355-0.885,0.465c-0.343,0.11-0.721,0.165-1.135,0.165
				c-0.407,0-0.781-0.054-1.124-0.162c-0.343-0.108-0.638-0.261-0.885-0.459s-0.441-0.435-0.58-0.712
				C21.218,224.044,21.148,223.738,21.148,223.405z M22.792,223.257c0,0.18,0.027,0.341,0.082,0.484
				c0.055,0.143,0.134,0.264,0.236,0.363c0.103,0.099,0.224,0.175,0.366,0.228c0.141,0.054,0.3,0.08,0.475,0.08
				c0.169,0,0.323-0.027,0.464-0.082c0.141-0.055,0.263-0.132,0.366-0.231s0.183-0.22,0.242-0.363
				c0.059-0.143,0.088-0.302,0.088-0.478c0-0.158-0.027-0.308-0.082-0.451c-0.055-0.143-0.134-0.267-0.236-0.371
				c-0.103-0.105-0.224-0.188-0.366-0.25c-0.141-0.062-0.3-0.093-0.475-0.093c-0.165,0-0.319,0.029-0.462,0.085
				c-0.143,0.057-0.266,0.138-0.368,0.242c-0.103,0.105-0.183,0.228-0.242,0.371C22.821,222.932,22.792,223.088,22.792,223.257z
				 M23.034,219.766c0,0.139,0.025,0.271,0.074,0.393s0.116,0.229,0.201,0.319c0.084,0.09,0.184,0.16,0.3,0.211
				c0.115,0.051,0.237,0.077,0.366,0.077c0.132,0,0.255-0.026,0.368-0.077c0.114-0.051,0.213-0.123,0.3-0.214
				s0.154-0.198,0.203-0.319c0.049-0.121,0.074-0.251,0.074-0.39c0-0.143-0.024-0.275-0.071-0.398
				c-0.048-0.123-0.115-0.229-0.201-0.319s-0.187-0.161-0.302-0.212c-0.115-0.051-0.239-0.077-0.371-0.077
				c-0.139,0-0.267,0.027-0.382,0.08s-0.214,0.125-0.297,0.214c-0.082,0.09-0.147,0.197-0.192,0.319
				C23.057,219.496,23.034,219.627,23.034,219.766z"/>
		</g>
		<circle fill="#FFFFFF" stroke="#00AFE1" stroke-width="2.5017" stroke-miterlimit="10" cx="20.709" cy="20.709" r="19.458"/>
		<g>
			<path fill="#878A8B" d="M12.268,24.411v-1.512c0.528,0.385,1.143,0.577,1.847,0.577c0.443,0,0.789-0.095,1.036-0.286
				c0.247-0.191,0.371-0.456,0.371-0.797c0-0.352-0.153-0.623-0.459-0.814s-0.727-0.286-1.262-0.286h-0.731v-1.33h0.676
				c1.026,0,1.539-0.341,1.539-1.022c0-0.641-0.394-0.962-1.182-0.962c-0.528,0-1.041,0.17-1.539,0.511v-1.418
				c0.553-0.279,1.198-0.418,1.935-0.418c0.806,0,1.434,0.181,1.883,0.544c0.449,0.363,0.673,0.834,0.673,1.413
				c0,1.03-0.522,1.675-1.567,1.935v0.027c0.557,0.07,0.997,0.272,1.319,0.608c0.322,0.335,0.484,0.746,0.484,1.234
				c0,0.737-0.269,1.319-0.808,1.748c-0.539,0.429-1.283,0.643-2.232,0.643C13.439,24.807,12.778,24.675,12.268,24.411z"/>
			<path fill="#878A8B" d="M18.881,24.466v-1.484c0.539,0.33,1.112,0.495,1.721,0.495c0.458,0,0.816-0.109,1.075-0.327
				c0.258-0.218,0.388-0.514,0.388-0.888c0-0.781-0.552-1.171-1.655-1.171c-0.407,0-0.876,0.031-1.407,0.093l0.297-4.397h4.172
				v1.418h-2.847l-0.11,1.578c0.282-0.022,0.526-0.033,0.731-0.033c0.81,0,1.444,0.213,1.902,0.638s0.687,0.997,0.687,1.715
				c0,0.795-0.273,1.445-0.819,1.949s-1.286,0.756-2.221,0.756C20.035,24.807,19.398,24.693,18.881,24.466z"/>
			<path fill="#878A8B" d="M29.149,16.611v8.058h-1.732v-6.102c-0.095,0.084-0.208,0.164-0.338,0.239
				c-0.13,0.075-0.268,0.143-0.415,0.203c-0.147,0.061-0.299,0.112-0.456,0.154c-0.158,0.043-0.313,0.073-0.467,0.091v-1.462
				c0.451-0.132,0.876-0.3,1.275-0.506c0.399-0.205,0.76-0.431,1.083-0.676H29.149z"/>
		</g>
		<g>
			<g>
				<g>
					<path fill="#4D4D4D" d="M53.769,23.006h3.859v1.663h-6.056v-0.686c0-0.465,0.079-0.883,0.235-1.254
						c0.156-0.37,0.353-0.702,0.59-0.996c0.237-0.294,0.496-0.555,0.778-0.781c0.282-0.226,0.549-0.43,0.803-0.612
						c0.267-0.19,0.5-0.372,0.701-0.546c0.201-0.173,0.37-0.346,0.508-0.518c0.138-0.171,0.24-0.345,0.308-0.521
						c0.068-0.175,0.102-0.362,0.102-0.562c0-0.389-0.11-0.684-0.33-0.882c-0.22-0.199-0.556-0.298-1.009-0.298
						c-0.783,0-1.532,0.311-2.247,0.933v-1.765c0.791-0.512,1.684-0.768,2.679-0.768c0.461,0,0.875,0.061,1.241,0.181
						c0.366,0.121,0.676,0.293,0.93,0.518c0.254,0.225,0.447,0.496,0.581,0.815c0.133,0.32,0.2,0.676,0.2,1.07
						c0,0.419-0.064,0.792-0.193,1.117s-0.301,0.622-0.514,0.889s-0.46,0.511-0.74,0.733c-0.279,0.223-0.569,0.438-0.869,0.645
						c-0.203,0.144-0.399,0.287-0.587,0.429c-0.188,0.142-0.354,0.281-0.499,0.419c-0.144,0.137-0.258,0.271-0.343,0.403
						C53.811,22.763,53.769,22.888,53.769,23.006z"/>
					<path fill="#4D4D4D" d="M63.367,24.67l-2.958-3.155h-0.025v3.155h-0.813v-6.5h0.813v3.041h0.025l2.869-3.041h1.061
						l-3.079,3.155l3.25,3.345H63.367z"/>
					<path fill="#4D4D4D" d="M71.422,24.67v-5.484c-0.013,0.034-0.034,0.094-0.063,0.181c-0.03,0.087-0.066,0.187-0.108,0.299
						c-0.042,0.112-0.086,0.23-0.133,0.355c-0.047,0.125-0.093,0.244-0.14,0.358l-1.688,4.291h-0.705l-1.79-4.291
						c-0.029-0.072-0.064-0.161-0.104-0.267c-0.04-0.105-0.082-0.216-0.124-0.33c-0.042-0.114-0.082-0.224-0.12-0.33
						c-0.038-0.105-0.07-0.194-0.096-0.267v5.484h-0.724v-6.5h1.01l1.847,4.374c0.038,0.089,0.08,0.19,0.124,0.305
						s0.089,0.229,0.133,0.346c0.044,0.116,0.084,0.228,0.121,0.333c0.036,0.106,0.066,0.192,0.092,0.26
						c0.021-0.051,0.049-0.125,0.083-0.222c0.034-0.097,0.073-0.203,0.117-0.317s0.09-0.23,0.137-0.349
						c0.046-0.119,0.089-0.229,0.127-0.33l1.758-4.399h1.048v6.5H71.422z"/>
					<path fill="#4D4D4D" d="M78.702,24.67v-3.028h-3.573v3.028h-0.813v-6.5h0.813v2.768h3.573V18.17h0.813v6.5H78.702z"/>
				</g>
			</g>
			<g>
				<g>
					<path fill="#4D4D4D" d="M109.55,15.364v9.306h-1.999v-7.046c-0.11,0.098-0.24,0.189-0.391,0.276
						c-0.15,0.086-0.31,0.165-0.479,0.234c-0.169,0.07-0.345,0.129-0.526,0.178c-0.182,0.049-0.362,0.084-0.54,0.105v-1.688
						c0.521-0.152,1.012-0.347,1.473-0.584c0.461-0.237,0.878-0.497,1.251-0.781H109.55z"/>
					<path fill="#4D4D4D" d="M117.789,15.567v5.738h1.092v1.498h-1.092v1.866h-1.828v-1.866h-3.967v-1.568
						c0.351-0.394,0.715-0.824,1.092-1.292c0.376-0.468,0.74-0.949,1.092-1.444c0.351-0.495,0.678-0.993,0.98-1.495
						c0.303-0.501,0.56-0.98,0.771-1.438H117.789z M113.79,21.305h2.171v-3.18c-0.148,0.275-0.309,0.553-0.482,0.834
						c-0.173,0.282-0.355,0.559-0.546,0.832c-0.19,0.272-0.383,0.537-0.577,0.793C114.161,20.841,113.972,21.081,113.79,21.305z"/>
					<path fill="#4D4D4D" d="M124.569,21.451c0,0.491-0.072,0.943-0.216,1.355c-0.144,0.413-0.35,0.769-0.619,1.066
						c-0.269,0.299-0.592,0.531-0.971,0.698c-0.379,0.167-0.803,0.251-1.272,0.251c-0.373,0-0.699-0.038-0.981-0.114
						s-0.524-0.178-0.727-0.305v-0.8c0.212,0.161,0.461,0.288,0.749,0.381c0.288,0.093,0.605,0.14,0.952,0.14
						c0.317,0,0.61-0.055,0.879-0.165c0.269-0.11,0.501-0.268,0.698-0.473c0.197-0.206,0.353-0.454,0.47-0.746
						s0.181-0.618,0.194-0.978h-2.983v-0.698h2.983c-0.025-0.343-0.093-0.658-0.203-0.946c-0.11-0.288-0.262-0.535-0.454-0.743
						c-0.192-0.207-0.428-0.368-0.705-0.482s-0.596-0.171-0.956-0.171c-0.321,0-0.616,0.042-0.885,0.124
						c-0.269,0.083-0.499,0.192-0.689,0.327v-0.8c0.203-0.105,0.447-0.191,0.73-0.257c0.283-0.066,0.575-0.099,0.876-0.099
						c0.491,0,0.93,0.078,1.317,0.235s0.715,0.382,0.984,0.676c0.269,0.294,0.474,0.653,0.616,1.079
						C124.498,20.432,124.569,20.914,124.569,21.451z"/>
					<path fill="#4D4D4D" d="M127.869,18.88v5.789h-0.813V18.88h-1.955V18.17h4.717v0.711H127.869z"/>
					<path fill="#4D4D4D" d="M134.783,24.67v-1.155h-0.025c-0.212,0.415-0.501,0.736-0.867,0.965s-0.78,0.343-1.241,0.343
						c-0.313,0-0.596-0.044-0.848-0.133s-0.466-0.215-0.641-0.377c-0.175-0.163-0.311-0.359-0.406-0.587s-0.143-0.48-0.143-0.755
						c0-0.588,0.182-1.057,0.546-1.406c0.364-0.349,0.914-0.576,1.65-0.682l1.975-0.286c0-1.248-0.485-1.873-1.454-1.873
						c-0.757,0-1.46,0.277-2.107,0.832v-0.889c0.136-0.097,0.289-0.185,0.46-0.264c0.171-0.078,0.352-0.146,0.542-0.203
						c0.19-0.057,0.387-0.102,0.587-0.133c0.201-0.032,0.397-0.048,0.587-0.048c0.724,0,1.271,0.203,1.641,0.609
						s0.556,1.012,0.556,1.815v4.228H134.783z M133.107,21.515c-0.292,0.042-0.542,0.095-0.749,0.159
						c-0.208,0.063-0.379,0.149-0.515,0.257c-0.135,0.108-0.234,0.241-0.298,0.4c-0.063,0.158-0.096,0.354-0.096,0.587
						c0,0.174,0.031,0.334,0.092,0.482c0.061,0.148,0.15,0.276,0.267,0.384c0.117,0.108,0.258,0.192,0.425,0.251
						c0.167,0.06,0.356,0.089,0.568,0.089c0.288,0,0.552-0.055,0.793-0.165c0.241-0.11,0.45-0.262,0.625-0.457
						c0.175-0.194,0.313-0.427,0.413-0.698c0.1-0.271,0.149-0.565,0.149-0.882V21.28L133.107,21.515z"/>
					<path fill="#4D4D4D" d="M144.488,24.67l-2.983-3.199h-0.025v3.199h-0.787V21.47h-0.025l-2.983,3.199h-1.104l3.237-3.339
						l-3.085-3.161h1.041l2.895,3.072h0.025V18.17h0.787v3.072h0.025l2.901-3.072h1.047l-3.098,3.161l3.244,3.339H144.488z"/>
				</g>
			</g>
			<g>
				<g>
					<path fill="#4D4D4D" d="M212.86,23.006h3.859v1.663h-6.056v-0.686c0-0.465,0.079-0.883,0.235-1.254
						c0.156-0.37,0.353-0.702,0.59-0.996c0.237-0.294,0.496-0.555,0.778-0.781c0.282-0.226,0.549-0.43,0.803-0.612
						c0.267-0.19,0.5-0.372,0.701-0.546c0.201-0.173,0.37-0.346,0.508-0.518c0.138-0.171,0.24-0.345,0.308-0.521
						c0.068-0.175,0.102-0.362,0.102-0.562c0-0.389-0.11-0.684-0.33-0.882c-0.22-0.199-0.556-0.298-1.009-0.298
						c-0.783,0-1.532,0.311-2.247,0.933v-1.765c0.791-0.512,1.684-0.768,2.679-0.768c0.461,0,0.875,0.061,1.241,0.181
						c0.366,0.121,0.676,0.293,0.93,0.518c0.254,0.225,0.447,0.496,0.581,0.815c0.133,0.32,0.2,0.676,0.2,1.07
						c0,0.419-0.064,0.792-0.193,1.117s-0.301,0.622-0.514,0.889s-0.46,0.511-0.74,0.733c-0.279,0.223-0.569,0.438-0.869,0.645
						c-0.203,0.144-0.399,0.287-0.587,0.429c-0.188,0.142-0.354,0.281-0.499,0.419c-0.144,0.137-0.258,0.271-0.343,0.403
						C212.902,22.763,212.86,22.888,212.86,23.006z"/>
					<path fill="#4D4D4D" d="M221.708,22.219c0-0.254,0.037-0.498,0.111-0.733c0.074-0.234,0.185-0.453,0.333-0.653
						c0.148-0.201,0.333-0.381,0.556-0.54c0.222-0.158,0.483-0.289,0.784-0.39c-0.461-0.229-0.819-0.521-1.073-0.879
						c-0.254-0.357-0.381-0.754-0.381-1.19c0-0.347,0.073-0.668,0.219-0.965s0.348-0.552,0.606-0.768
						c0.258-0.216,0.566-0.384,0.924-0.505c0.357-0.12,0.748-0.181,1.171-0.181c0.432,0,0.828,0.061,1.188,0.181
						c0.359,0.121,0.669,0.288,0.93,0.502c0.26,0.213,0.462,0.466,0.606,0.758c0.144,0.292,0.216,0.609,0.216,0.952
						c0,0.432-0.136,0.824-0.406,1.177c-0.271,0.354-0.646,0.645-1.124,0.873c0.296,0.102,0.557,0.231,0.781,0.391
						c0.224,0.158,0.412,0.339,0.564,0.542s0.267,0.424,0.343,0.664c0.076,0.239,0.114,0.487,0.114,0.746
						c0,0.389-0.078,0.744-0.234,1.063c-0.157,0.32-0.378,0.595-0.664,0.825c-0.286,0.231-0.626,0.41-1.022,0.537
						s-0.833,0.19-1.311,0.19c-0.47,0-0.902-0.063-1.298-0.187c-0.396-0.125-0.736-0.302-1.022-0.53s-0.509-0.502-0.67-0.822
						C221.789,22.957,221.708,22.605,221.708,22.219z M223.607,22.048c0,0.208,0.031,0.394,0.095,0.559s0.155,0.305,0.273,0.419
						c0.118,0.114,0.259,0.202,0.422,0.263c0.163,0.062,0.346,0.092,0.549,0.092c0.195,0,0.374-0.032,0.537-0.095
						s0.304-0.152,0.422-0.267c0.118-0.114,0.211-0.254,0.279-0.419c0.067-0.165,0.102-0.349,0.102-0.552
						c0-0.182-0.032-0.355-0.096-0.521s-0.154-0.308-0.272-0.428c-0.119-0.121-0.26-0.217-0.422-0.289
						c-0.163-0.072-0.346-0.108-0.549-0.108c-0.19,0-0.368,0.033-0.533,0.098c-0.165,0.066-0.307,0.159-0.425,0.279
						c-0.119,0.121-0.212,0.264-0.279,0.429C223.64,21.673,223.607,21.853,223.607,22.048z M223.886,18.017
						c0,0.161,0.028,0.312,0.085,0.454c0.057,0.142,0.134,0.264,0.232,0.368c0.097,0.104,0.212,0.185,0.346,0.244
						c0.133,0.06,0.274,0.089,0.422,0.089c0.152,0,0.294-0.029,0.426-0.089c0.131-0.059,0.246-0.142,0.346-0.248
						s0.178-0.229,0.235-0.368s0.085-0.29,0.085-0.451c0-0.165-0.027-0.318-0.082-0.46c-0.055-0.142-0.133-0.265-0.232-0.368
						c-0.099-0.104-0.216-0.186-0.349-0.245s-0.276-0.089-0.429-0.089c-0.161,0-0.308,0.031-0.441,0.092
						c-0.133,0.061-0.248,0.144-0.343,0.247c-0.095,0.104-0.169,0.227-0.222,0.368C223.912,17.705,223.886,17.857,223.886,18.017z"
						/>
					<path fill="#4D4D4D" d="M232.367,24.828c-2.167,0-3.25-1.521-3.25-4.564c0-1.578,0.293-2.781,0.879-3.608
						c0.586-0.828,1.436-1.241,2.549-1.241c2.116,0,3.174,1.547,3.174,4.64c0,1.541-0.289,2.721-0.867,3.542
						S233.446,24.828,232.367,24.828z M232.455,16.944c-0.868,0-1.302,1.09-1.302,3.269c0,2.053,0.426,3.079,1.276,3.079
						c0.829,0,1.244-1.058,1.244-3.174S233.268,16.944,232.455,16.944z"/>
					<path fill="#4D4D4D" d="M239.844,24.828c-2.167,0-3.25-1.521-3.25-4.564c0-1.578,0.293-2.781,0.879-3.608
						c0.586-0.828,1.436-1.241,2.549-1.241c2.116,0,3.174,1.547,3.174,4.64c0,1.541-0.289,2.721-0.867,3.542
						S240.923,24.828,239.844,24.828z M239.933,16.944c-0.868,0-1.302,1.09-1.302,3.269c0,2.053,0.426,3.079,1.276,3.079
						c0.829,0,1.244-1.058,1.244-3.174S240.745,16.944,239.933,16.944z"/>
					<path fill="#4D4D4D" d="M250.908,24.828c-2.167,0-3.25-1.521-3.25-4.564c0-1.578,0.293-2.781,0.879-3.608
						c0.586-0.828,1.436-1.241,2.548-1.241c2.116,0,3.174,1.547,3.174,4.64c0,1.541-0.289,2.721-0.866,3.542
						S251.987,24.828,250.908,24.828z M250.996,16.944c-0.867,0-1.301,1.09-1.301,3.269c0,2.053,0.425,3.079,1.275,3.079
						c0.83,0,1.244-1.058,1.244-3.174S251.809,16.944,250.996,16.944z"/>
					<path fill="#4D4D4D" d="M258.385,24.828c-2.167,0-3.25-1.521-3.25-4.564c0-1.578,0.293-2.781,0.879-3.608
						c0.586-0.828,1.436-1.241,2.548-1.241c2.116,0,3.174,1.547,3.174,4.64c0,1.541-0.289,2.721-0.866,3.542
						S259.464,24.828,258.385,24.828z M258.474,16.944c-0.867,0-1.301,1.09-1.301,3.269c0,2.053,0.425,3.079,1.275,3.079
						c0.83,0,1.244-1.058,1.244-3.174S259.286,16.944,258.474,16.944z"/>
					<path fill="#4D4D4D" d="M265.863,24.828c-2.167,0-3.25-1.521-3.25-4.564c0-1.578,0.293-2.781,0.879-3.608
						c0.586-0.828,1.436-1.241,2.548-1.241c2.116,0,3.174,1.547,3.174,4.64c0,1.541-0.289,2.721-0.866,3.542
						S266.942,24.828,265.863,24.828z M265.952,16.944c-0.867,0-1.301,1.09-1.301,3.269c0,2.053,0.425,3.079,1.275,3.079
						c0.83,0,1.244-1.058,1.244-3.174S266.764,16.944,265.952,16.944z"/>
					<path fill="#4D4D4D" d="M271.512,23.622v4.037H270.7v-9.49h0.813v1.244h0.025c0.241-0.453,0.564-0.799,0.968-1.038
						c0.404-0.239,0.86-0.358,1.368-0.358c0.415,0,0.786,0.075,1.114,0.226c0.328,0.15,0.605,0.363,0.832,0.638
						c0.226,0.275,0.4,0.609,0.521,1.003s0.181,0.836,0.181,1.327c0,0.538-0.068,1.027-0.203,1.469
						c-0.136,0.442-0.33,0.822-0.584,1.14s-0.562,0.564-0.924,0.739c-0.362,0.176-0.769,0.264-1.222,0.264
						c-0.914,0-1.598-0.4-2.051-1.2H271.512z M271.512,21.965c0,0.296,0.05,0.574,0.149,0.835c0.1,0.26,0.238,0.488,0.416,0.686
						c0.178,0.196,0.393,0.352,0.644,0.466s0.53,0.171,0.834,0.171c0.326,0,0.62-0.069,0.883-0.206
						c0.262-0.138,0.485-0.333,0.669-0.587s0.326-0.561,0.425-0.92c0.1-0.359,0.149-0.762,0.149-1.206
						c0-0.381-0.047-0.725-0.14-1.031c-0.093-0.307-0.226-0.568-0.397-0.784s-0.378-0.381-0.622-0.495s-0.515-0.171-0.816-0.171
						c-0.338,0-0.643,0.063-0.914,0.187c-0.271,0.125-0.501,0.295-0.691,0.511s-0.337,0.469-0.438,0.758
						c-0.102,0.29-0.152,0.598-0.152,0.924V21.965z"/>
					<path fill="#4D4D4D" d="M280.043,25.85c-0.254,0.635-0.546,1.105-0.876,1.412c-0.33,0.307-0.729,0.46-1.199,0.46
						c-0.233,0-0.43-0.028-0.591-0.083v-0.762c0.093,0.034,0.188,0.059,0.283,0.076c0.095,0.017,0.191,0.025,0.289,0.025
						c0.267,0,0.499-0.083,0.695-0.251c0.197-0.167,0.367-0.42,0.511-0.758l0.565-1.333l-2.501-6.468h0.901l1.859,5.148
						c0.025,0.068,0.05,0.145,0.073,0.232c0.023,0.086,0.045,0.172,0.066,0.257h0.032c0.021-0.072,0.041-0.145,0.06-0.219
						c0.019-0.074,0.045-0.156,0.08-0.245l1.974-5.173h0.857L280.043,25.85z"/>
					<path fill="#4D4D4D" d="M289.94,21.546c0,0.436-0.062,0.852-0.185,1.247c-0.123,0.396-0.307,0.744-0.552,1.044
						c-0.246,0.3-0.552,0.54-0.917,0.717s-0.792,0.267-1.279,0.267c-0.491,0-0.924-0.091-1.298-0.273s-0.689-0.446-0.943-0.793
						c-0.254-0.347-0.445-0.772-0.574-1.276s-0.193-1.077-0.193-1.72c0-1.037,0.093-1.902,0.279-2.596
						c0.186-0.694,0.442-1.225,0.768-1.593c0.178-0.203,0.371-0.369,0.578-0.498c0.207-0.129,0.436-0.236,0.686-0.321
						c0.25-0.084,0.522-0.157,0.818-0.216c0.296-0.059,0.62-0.121,0.972-0.184c0.19-0.034,0.377-0.075,0.562-0.124
						c0.184-0.048,0.369-0.125,0.556-0.231v0.8c-0.089,0.06-0.208,0.114-0.355,0.165c-0.148,0.051-0.32,0.093-0.515,0.127
						c-0.211,0.034-0.419,0.069-0.622,0.104c-0.203,0.036-0.396,0.074-0.577,0.114c-0.182,0.041-0.352,0.083-0.508,0.127
						c-0.157,0.045-0.292,0.095-0.406,0.149c-0.377,0.174-0.682,0.5-0.914,0.978c-0.233,0.479-0.381,1.145-0.444,2h0.025
						c0.11-0.186,0.242-0.354,0.396-0.504c0.154-0.15,0.327-0.28,0.518-0.391c0.19-0.11,0.398-0.194,0.625-0.254
						c0.227-0.059,0.467-0.089,0.721-0.089c0.448,0,0.846,0.082,1.193,0.244c0.347,0.163,0.638,0.39,0.873,0.68
						c0.235,0.29,0.413,0.631,0.533,1.025S289.94,21.089,289.94,21.546z M289.082,21.635c0-0.394-0.046-0.75-0.14-1.069
						c-0.093-0.32-0.229-0.592-0.406-0.816s-0.396-0.398-0.657-0.521s-0.558-0.184-0.892-0.184c-0.232,0-0.455,0.033-0.666,0.099
						c-0.212,0.065-0.406,0.16-0.584,0.282c-0.178,0.123-0.34,0.269-0.486,0.438s-0.274,0.36-0.384,0.571
						c0,0.11-0.001,0.235-0.003,0.375s-0.003,0.277-0.003,0.413c0,0.381,0.045,0.747,0.136,1.098
						c0.091,0.352,0.226,0.66,0.406,0.927s0.406,0.479,0.679,0.638c0.273,0.159,0.591,0.238,0.955,0.238
						c0.326,0,0.615-0.065,0.867-0.197s0.465-0.309,0.641-0.533s0.309-0.488,0.4-0.791
						C289.037,22.301,289.082,21.978,289.082,21.635z"/>
				</g>
			</g>
			<g>
				<g>
					<path fill="#4D4D4D" d="M160.837,24.435v-1.714c0.622,0.381,1.285,0.571,1.987,0.571c0.529,0,0.942-0.126,1.241-0.377
						c0.298-0.252,0.448-0.594,0.448-1.025c0-0.901-0.637-1.352-1.911-1.352c-0.47,0-1.011,0.036-1.625,0.108l0.343-5.078h4.818
						v1.638h-3.288l-0.127,1.822c0.326-0.025,0.607-0.038,0.844-0.038c0.936,0,1.667,0.246,2.196,0.736
						c0.529,0.491,0.794,1.151,0.794,1.98c0,0.918-0.315,1.668-0.946,2.25c-0.63,0.582-1.485,0.873-2.564,0.873
						C162.17,24.828,161.434,24.697,160.837,24.435z"/>
					<path fill="#4D4D4D" d="M170.137,23.006h3.859v1.663h-6.056v-0.686c0-0.465,0.078-0.883,0.234-1.254
						c0.157-0.37,0.354-0.702,0.591-0.996c0.237-0.294,0.496-0.555,0.777-0.781c0.281-0.226,0.549-0.43,0.803-0.612
						c0.267-0.19,0.501-0.372,0.702-0.546c0.201-0.173,0.371-0.346,0.508-0.518c0.137-0.171,0.24-0.345,0.308-0.521
						c0.067-0.175,0.102-0.362,0.102-0.562c0-0.389-0.11-0.684-0.33-0.882c-0.22-0.199-0.557-0.298-1.01-0.298
						c-0.783,0-1.532,0.311-2.247,0.933v-1.765c0.792-0.512,1.685-0.768,2.679-0.768c0.461,0,0.875,0.061,1.241,0.181
						c0.366,0.121,0.676,0.293,0.93,0.518c0.254,0.225,0.448,0.496,0.581,0.815c0.133,0.32,0.2,0.676,0.2,1.07
						c0,0.419-0.064,0.792-0.194,1.117s-0.3,0.622-0.514,0.889s-0.46,0.511-0.739,0.733c-0.279,0.223-0.569,0.438-0.87,0.645
						c-0.203,0.144-0.398,0.287-0.587,0.429c-0.188,0.142-0.354,0.281-0.498,0.419c-0.144,0.137-0.258,0.271-0.343,0.403
						C170.179,22.763,170.137,22.888,170.137,23.006z"/>
					<path fill="#4D4D4D" d="M181.734,24.67v-5.484c-0.013,0.034-0.034,0.094-0.063,0.181c-0.029,0.087-0.065,0.187-0.107,0.299
						c-0.042,0.112-0.087,0.23-0.134,0.355c-0.046,0.125-0.093,0.244-0.14,0.358l-1.688,4.291h-0.704l-1.79-4.291
						c-0.03-0.072-0.064-0.161-0.105-0.267c-0.041-0.105-0.082-0.216-0.124-0.33c-0.042-0.114-0.083-0.224-0.121-0.33
						c-0.038-0.105-0.069-0.194-0.095-0.267v5.484h-0.724v-6.5h1.009l1.848,4.374c0.038,0.089,0.079,0.19,0.124,0.305
						s0.089,0.229,0.133,0.346c0.044,0.116,0.085,0.228,0.121,0.333c0.036,0.106,0.067,0.192,0.092,0.26
						c0.021-0.051,0.048-0.125,0.082-0.222c0.034-0.097,0.073-0.203,0.118-0.317s0.09-0.23,0.136-0.349
						c0.047-0.119,0.089-0.229,0.127-0.33l1.759-4.399h1.047v6.5H181.734z"/>
					<path fill="#4D4D4D" d="M188.602,17.903c0-0.288-0.043-0.543-0.13-0.765c-0.087-0.223-0.208-0.409-0.365-0.559
						c-0.156-0.15-0.345-0.264-0.564-0.34c-0.22-0.076-0.464-0.114-0.73-0.114c-0.406,0-0.796,0.096-1.171,0.289
						c-0.375,0.192-0.727,0.449-1.057,0.771v-0.901c0.321-0.275,0.673-0.489,1.054-0.641s0.81-0.229,1.288-0.229
						c0.076,0,0.149,0.004,0.219,0.013c0.07,0.009,0.139,0.021,0.207,0.038c0.313,0.034,0.598,0.113,0.854,0.238
						c0.256,0.125,0.475,0.287,0.657,0.485c0.182,0.199,0.322,0.435,0.422,0.708c0.1,0.272,0.149,0.576,0.149,0.911
						c0,0.389-0.051,0.739-0.152,1.047c-0.102,0.309-0.247,0.594-0.435,0.854c-0.188,0.261-0.415,0.506-0.679,0.736
						c-0.265,0.231-0.56,0.463-0.886,0.695c-0.364,0.263-0.676,0.494-0.936,0.695c-0.26,0.201-0.476,0.393-0.647,0.574
						c-0.171,0.182-0.301,0.364-0.39,0.546c-0.089,0.182-0.146,0.385-0.172,0.609c-0.021,0.06-0.035,0.119-0.041,0.178
						c-0.006,0.06-0.01,0.125-0.01,0.197h4.532v0.73h-5.389v-0.438c0-0.406,0.047-0.758,0.143-1.057
						c0.095-0.298,0.244-0.577,0.447-0.838c0.203-0.26,0.464-0.519,0.781-0.777c0.317-0.258,0.698-0.548,1.143-0.87
						c0.3-0.22,0.567-0.433,0.8-0.638c0.232-0.205,0.427-0.417,0.584-0.635c0.156-0.218,0.275-0.449,0.355-0.695
						C188.562,18.476,188.602,18.204,188.602,17.903z"/>
				</g>
			</g>
		</g>
		<g>
			<g>
				<g>
					<path fill="#4D4D4D" d="M56.327,65.692v9.306h-2v-7.046c-0.11,0.097-0.24,0.189-0.39,0.276c-0.15,0.087-0.31,0.165-0.479,0.235
						c-0.169,0.069-0.345,0.129-0.527,0.178c-0.182,0.048-0.361,0.083-0.539,0.104v-1.688c0.521-0.152,1.011-0.347,1.473-0.584
						c0.461-0.237,0.878-0.497,1.25-0.781H56.327z"/>
					<path fill="#4D4D4D" d="M63.367,74.998l-2.958-3.155h-0.025v3.155h-0.813v-6.5h0.813v3.041h0.025l2.869-3.041h1.061
						l-3.079,3.155l3.25,3.345H63.367z"/>
					<path fill="#4D4D4D" d="M71.422,74.998v-5.484c-0.013,0.034-0.034,0.094-0.063,0.181c-0.03,0.086-0.066,0.186-0.108,0.298
						c-0.042,0.112-0.086,0.231-0.133,0.355c-0.047,0.125-0.093,0.245-0.14,0.359l-1.688,4.291h-0.705l-1.79-4.291
						c-0.029-0.072-0.064-0.161-0.104-0.267s-0.082-0.216-0.124-0.33c-0.042-0.114-0.082-0.224-0.12-0.33s-0.07-0.195-0.096-0.267
						v5.484h-0.724v-6.5h1.01l1.847,4.374c0.038,0.089,0.08,0.19,0.124,0.305s0.089,0.229,0.133,0.346
						c0.044,0.117,0.084,0.228,0.121,0.333s0.066,0.193,0.092,0.26c0.021-0.051,0.049-0.125,0.083-0.222
						c0.034-0.097,0.073-0.203,0.117-0.317s0.09-0.23,0.137-0.349c0.046-0.118,0.089-0.229,0.127-0.33l1.758-4.399h1.048v6.5H71.422
						z"/>
					<path fill="#4D4D4D" d="M78.702,74.998V71.97h-3.573v3.028h-0.813v-6.5h0.813v2.768h3.573v-2.768h0.813v6.5H78.702z"/>
				</g>
			</g>
			<g>
				<g>
					<path fill="#4D4D4D" d="M109.55,65.692v9.306h-1.999v-7.046c-0.11,0.097-0.24,0.189-0.391,0.276
						c-0.15,0.087-0.31,0.165-0.479,0.235c-0.169,0.069-0.345,0.129-0.526,0.178c-0.182,0.048-0.362,0.083-0.54,0.104v-1.688
						c0.521-0.152,1.012-0.347,1.473-0.584c0.461-0.237,0.878-0.497,1.251-0.781H109.55z"/>
					<path fill="#4D4D4D" d="M117.091,71.78c0,0.491-0.072,0.942-0.216,1.355c-0.144,0.412-0.35,0.768-0.619,1.066
						c-0.269,0.298-0.592,0.531-0.971,0.698c-0.379,0.167-0.803,0.25-1.272,0.25c-0.373,0-0.699-0.038-0.981-0.114
						s-0.524-0.178-0.727-0.305v-0.8c0.212,0.161,0.461,0.288,0.749,0.381c0.288,0.093,0.605,0.14,0.952,0.14
						c0.317,0,0.61-0.055,0.879-0.165s0.501-0.268,0.698-0.473c0.197-0.205,0.353-0.454,0.47-0.746s0.181-0.618,0.194-0.978h-2.983
						v-0.698h2.983c-0.025-0.343-0.093-0.658-0.203-0.946c-0.11-0.288-0.262-0.535-0.454-0.743s-0.428-0.368-0.705-0.482
						s-0.596-0.171-0.956-0.171c-0.321,0-0.616,0.041-0.885,0.124c-0.269,0.082-0.499,0.191-0.689,0.327v-0.8
						c0.203-0.106,0.447-0.191,0.73-0.257c0.283-0.065,0.575-0.098,0.876-0.098c0.491,0,0.93,0.079,1.317,0.235
						c0.387,0.157,0.715,0.382,0.984,0.676c0.269,0.294,0.474,0.654,0.616,1.079C117.021,70.761,117.091,71.243,117.091,71.78z"/>
					<path fill="#4D4D4D" d="M120.392,69.209v5.789h-0.813v-5.789h-1.955v-0.711h4.717v0.711H120.392z"/>
					<path fill="#4D4D4D" d="M127.305,74.998v-1.155h-0.025c-0.212,0.415-0.501,0.736-0.867,0.965s-0.78,0.343-1.241,0.343
						c-0.313,0-0.596-0.044-0.848-0.133s-0.466-0.215-0.641-0.378c-0.175-0.163-0.311-0.358-0.406-0.587s-0.143-0.48-0.143-0.755
						c0-0.588,0.182-1.057,0.546-1.406c0.364-0.35,0.914-0.577,1.65-0.683l1.975-0.286c0-1.249-0.485-1.873-1.454-1.873
						c-0.757,0-1.46,0.277-2.107,0.832v-0.889c0.136-0.097,0.289-0.185,0.46-0.263c0.171-0.079,0.352-0.146,0.542-0.203
						c0.19-0.058,0.387-0.102,0.587-0.134c0.201-0.031,0.397-0.047,0.587-0.047c0.724,0,1.271,0.203,1.641,0.609
						s0.556,1.011,0.556,1.815v4.228H127.305z M125.629,71.843c-0.292,0.042-0.542,0.095-0.749,0.159
						c-0.208,0.063-0.379,0.149-0.515,0.257c-0.135,0.107-0.234,0.241-0.298,0.399c-0.063,0.159-0.096,0.354-0.096,0.587
						c0,0.173,0.031,0.334,0.092,0.482s0.15,0.276,0.267,0.384c0.117,0.107,0.258,0.191,0.425,0.25s0.356,0.089,0.568,0.089
						c0.288,0,0.552-0.055,0.793-0.165s0.45-0.262,0.625-0.457s0.313-0.427,0.413-0.698s0.149-0.565,0.149-0.882v-0.641
						L125.629,71.843z"/>
					<path fill="#4D4D4D" d="M137.01,74.998l-2.983-3.199h-0.025v3.199h-0.787v-3.199h-0.025l-2.983,3.199h-1.104l3.237-3.339
						l-3.085-3.161h1.041l2.895,3.072h0.025v-3.072h0.787v3.072h0.025l2.901-3.072h1.047l-3.098,3.161l3.244,3.339H137.01z"/>
				</g>
			</g>
			<g>
				<g>
					<path fill="#4D4D4D" d="M212.86,73.335h3.859v1.663h-6.056v-0.686c0-0.465,0.079-0.883,0.235-1.253
						c0.156-0.371,0.353-0.703,0.59-0.997c0.237-0.294,0.496-0.554,0.778-0.78c0.282-0.227,0.549-0.431,0.803-0.613
						c0.267-0.19,0.5-0.373,0.701-0.546s0.37-0.346,0.508-0.517c0.138-0.172,0.24-0.345,0.308-0.521
						c0.068-0.176,0.102-0.363,0.102-0.562c0-0.389-0.11-0.683-0.33-0.882c-0.22-0.199-0.556-0.298-1.009-0.298
						c-0.783,0-1.532,0.311-2.247,0.933v-1.765c0.791-0.512,1.684-0.768,2.679-0.768c0.461,0,0.875,0.06,1.241,0.181
						c0.366,0.12,0.676,0.293,0.93,0.517s0.447,0.496,0.581,0.816c0.133,0.319,0.2,0.676,0.2,1.069c0,0.419-0.064,0.792-0.193,1.117
						c-0.129,0.326-0.301,0.622-0.514,0.889s-0.46,0.511-0.74,0.733c-0.279,0.222-0.569,0.437-0.869,0.644
						c-0.203,0.144-0.399,0.287-0.587,0.428c-0.188,0.142-0.354,0.282-0.499,0.419c-0.144,0.138-0.258,0.272-0.343,0.403
						C212.902,73.092,212.86,73.216,212.86,73.335z"/>
					<path fill="#4D4D4D" d="M226.482,65.692v9.306h-1.999v-7.046c-0.11,0.097-0.24,0.189-0.391,0.276
						c-0.15,0.087-0.31,0.165-0.479,0.235c-0.169,0.069-0.345,0.129-0.526,0.178c-0.182,0.048-0.362,0.083-0.54,0.104v-1.688
						c0.521-0.152,1.012-0.347,1.473-0.584c0.461-0.237,0.878-0.497,1.251-0.781H226.482z"/>
					<path fill="#4D4D4D" d="M229.186,72.548c0-0.254,0.037-0.499,0.111-0.733c0.074-0.235,0.185-0.453,0.333-0.654
						c0.148-0.201,0.333-0.381,0.556-0.539c0.222-0.159,0.483-0.289,0.784-0.391c-0.461-0.229-0.819-0.521-1.073-0.879
						c-0.254-0.358-0.381-0.754-0.381-1.19c0-0.347,0.073-0.668,0.219-0.965c0.146-0.296,0.348-0.552,0.606-0.768
						c0.258-0.216,0.566-0.384,0.924-0.504c0.357-0.121,0.748-0.181,1.171-0.181c0.432,0,0.828,0.06,1.188,0.181
						c0.359,0.12,0.669,0.288,0.93,0.501c0.26,0.214,0.462,0.467,0.606,0.759c0.144,0.292,0.216,0.609,0.216,0.952
						c0,0.432-0.136,0.824-0.406,1.178c-0.271,0.353-0.646,0.644-1.124,0.873c0.296,0.102,0.557,0.232,0.781,0.39
						c0.224,0.159,0.412,0.34,0.564,0.543s0.267,0.424,0.343,0.663c0.076,0.239,0.114,0.488,0.114,0.746
						c0,0.39-0.078,0.744-0.234,1.063c-0.157,0.319-0.378,0.594-0.664,0.825c-0.286,0.23-0.626,0.409-1.022,0.536
						s-0.833,0.19-1.311,0.19c-0.47,0-0.902-0.063-1.298-0.188c-0.396-0.125-0.736-0.301-1.022-0.53s-0.509-0.502-0.67-0.822
						C229.266,73.285,229.186,72.933,229.186,72.548z M231.084,72.377c0,0.208,0.031,0.394,0.095,0.559s0.155,0.305,0.273,0.419
						c0.118,0.114,0.259,0.202,0.422,0.264c0.163,0.061,0.346,0.092,0.549,0.092c0.195,0,0.374-0.032,0.537-0.095
						s0.304-0.152,0.422-0.267c0.118-0.114,0.211-0.254,0.279-0.419c0.067-0.165,0.102-0.349,0.102-0.552
						c0-0.182-0.032-0.355-0.096-0.521s-0.154-0.308-0.272-0.429c-0.119-0.12-0.26-0.217-0.422-0.289s-0.346-0.108-0.549-0.108
						c-0.19,0-0.368,0.033-0.533,0.099c-0.165,0.065-0.307,0.158-0.425,0.279c-0.119,0.12-0.212,0.263-0.279,0.428
						C231.118,72.002,231.084,72.182,231.084,72.377z M231.364,68.346c0,0.161,0.028,0.312,0.085,0.454
						c0.057,0.142,0.134,0.265,0.232,0.368c0.097,0.104,0.212,0.186,0.346,0.245s0.274,0.089,0.422,0.089
						c0.152,0,0.294-0.03,0.426-0.089c0.131-0.059,0.246-0.142,0.346-0.248c0.1-0.105,0.178-0.229,0.235-0.368
						s0.085-0.29,0.085-0.451c0-0.165-0.027-0.318-0.082-0.46c-0.055-0.142-0.133-0.264-0.232-0.368
						c-0.099-0.104-0.216-0.185-0.349-0.244c-0.133-0.059-0.276-0.089-0.429-0.089c-0.161,0-0.308,0.031-0.441,0.092
						c-0.133,0.062-0.248,0.144-0.343,0.248c-0.095,0.104-0.169,0.226-0.222,0.368C231.39,68.034,231.364,68.185,231.364,68.346z"/>
					<path fill="#4D4D4D" d="M237.057,74.763v-1.714c0.622,0.381,1.285,0.571,1.987,0.571c0.529,0,0.942-0.126,1.241-0.378
						c0.298-0.251,0.448-0.593,0.448-1.025c0-0.901-0.637-1.352-1.911-1.352c-0.47,0-1.011,0.036-1.625,0.108l0.343-5.078h4.818
						v1.638h-3.288l-0.127,1.822c0.326-0.025,0.607-0.038,0.844-0.038c0.936,0,1.667,0.246,2.196,0.736
						c0.529,0.491,0.794,1.151,0.794,1.98c0,0.918-0.315,1.668-0.946,2.25c-0.63,0.582-1.485,0.873-2.564,0.873
						C238.39,75.157,237.654,75.026,237.057,74.763z"/>
					<path fill="#4D4D4D" d="M250.908,75.157c-2.167,0-3.25-1.521-3.25-4.564c0-1.579,0.293-2.781,0.879-3.609
						c0.586-0.827,1.436-1.241,2.548-1.241c2.116,0,3.174,1.547,3.174,4.64c0,1.541-0.289,2.721-0.866,3.542
						C252.815,74.747,251.987,75.157,250.908,75.157z M250.996,67.273c-0.867,0-1.301,1.09-1.301,3.269
						c0,2.052,0.425,3.079,1.275,3.079c0.83,0,1.244-1.058,1.244-3.174C252.215,68.331,251.809,67.273,250.996,67.273z"/>
					<path fill="#4D4D4D" d="M258.385,75.157c-2.167,0-3.25-1.521-3.25-4.564c0-1.579,0.293-2.781,0.879-3.609
						c0.586-0.827,1.436-1.241,2.548-1.241c2.116,0,3.174,1.547,3.174,4.64c0,1.541-0.289,2.721-0.866,3.542
						C260.293,74.747,259.464,75.157,258.385,75.157z M258.474,67.273c-0.867,0-1.301,1.09-1.301,3.269
						c0,2.052,0.425,3.079,1.275,3.079c0.83,0,1.244-1.058,1.244-3.174C259.693,68.331,259.286,67.273,258.474,67.273z"/>
					<path fill="#4D4D4D" d="M265.863,75.157c-2.167,0-3.25-1.521-3.25-4.564c0-1.579,0.293-2.781,0.879-3.609
						c0.586-0.827,1.436-1.241,2.548-1.241c2.116,0,3.174,1.547,3.174,4.64c0,1.541-0.289,2.721-0.866,3.542
						C267.77,74.747,266.942,75.157,265.863,75.157z M265.952,67.273c-0.867,0-1.301,1.09-1.301,3.269
						c0,2.052,0.425,3.079,1.275,3.079c0.83,0,1.244-1.058,1.244-3.174C267.17,68.331,266.764,67.273,265.952,67.273z"/>
					<path fill="#4D4D4D" d="M271.512,73.951v4.037H270.7v-9.49h0.813v1.244h0.025c0.241-0.453,0.564-0.799,0.968-1.038
						c0.404-0.239,0.86-0.359,1.368-0.359c0.415,0,0.786,0.075,1.114,0.225c0.328,0.15,0.605,0.363,0.832,0.638
						s0.4,0.609,0.521,1.003s0.181,0.836,0.181,1.327c0,0.538-0.068,1.027-0.203,1.47c-0.136,0.442-0.33,0.822-0.584,1.139
						s-0.562,0.564-0.924,0.74c-0.362,0.175-0.769,0.263-1.222,0.263c-0.914,0-1.598-0.4-2.051-1.2H271.512z M271.512,72.294
						c0,0.296,0.05,0.575,0.149,0.834c0.1,0.261,0.238,0.489,0.416,0.686c0.178,0.197,0.393,0.353,0.644,0.467
						s0.53,0.171,0.834,0.171c0.326,0,0.62-0.069,0.883-0.207c0.262-0.137,0.485-0.333,0.669-0.587s0.326-0.561,0.425-0.92
						s0.149-0.762,0.149-1.206c0-0.381-0.047-0.725-0.14-1.032c-0.093-0.307-0.226-0.568-0.397-0.784s-0.378-0.381-0.622-0.495
						s-0.515-0.171-0.816-0.171c-0.338,0-0.643,0.063-0.914,0.188c-0.271,0.125-0.501,0.295-0.691,0.511s-0.337,0.469-0.438,0.759
						c-0.102,0.29-0.152,0.598-0.152,0.923V72.294z"/>
					<path fill="#4D4D4D" d="M280.043,76.179c-0.254,0.635-0.546,1.105-0.876,1.413c-0.33,0.307-0.729,0.46-1.199,0.46
						c-0.233,0-0.43-0.027-0.591-0.083v-0.762c0.093,0.034,0.188,0.059,0.283,0.076s0.191,0.025,0.289,0.025
						c0.267,0,0.499-0.083,0.695-0.25c0.197-0.167,0.367-0.42,0.511-0.759l0.565-1.333l-2.501-6.468h0.901l1.859,5.148
						c0.025,0.068,0.05,0.145,0.073,0.231c0.023,0.087,0.045,0.173,0.066,0.257h0.032c0.021-0.072,0.041-0.145,0.06-0.219
						c0.019-0.074,0.045-0.155,0.08-0.244l1.974-5.173h0.857L280.043,76.179z"/>
					<path fill="#4D4D4D" d="M289.94,71.875c0,0.436-0.062,0.852-0.185,1.248c-0.123,0.396-0.307,0.744-0.552,1.044
						c-0.246,0.301-0.552,0.54-0.917,0.717s-0.792,0.267-1.279,0.267c-0.491,0-0.924-0.091-1.298-0.273s-0.689-0.446-0.943-0.793
						s-0.445-0.772-0.574-1.276c-0.129-0.503-0.193-1.077-0.193-1.72c0-1.037,0.093-1.902,0.279-2.596
						c0.186-0.694,0.442-1.225,0.768-1.593c0.178-0.203,0.371-0.369,0.578-0.499c0.207-0.129,0.436-0.235,0.686-0.32
						c0.25-0.084,0.522-0.156,0.818-0.216c0.296-0.059,0.62-0.121,0.972-0.184c0.19-0.034,0.377-0.075,0.562-0.124
						c0.184-0.049,0.369-0.126,0.556-0.232v0.8c-0.089,0.059-0.208,0.114-0.355,0.165c-0.148,0.051-0.32,0.093-0.515,0.127
						c-0.211,0.034-0.419,0.069-0.622,0.105c-0.203,0.036-0.396,0.074-0.577,0.114c-0.182,0.04-0.352,0.082-0.508,0.127
						c-0.157,0.044-0.292,0.094-0.406,0.149c-0.377,0.173-0.682,0.5-0.914,0.978c-0.233,0.478-0.381,1.145-0.444,2h0.025
						c0.11-0.186,0.242-0.354,0.396-0.505c0.154-0.15,0.327-0.28,0.518-0.39s0.398-0.195,0.625-0.254s0.467-0.089,0.721-0.089
						c0.448,0,0.846,0.082,1.193,0.245c0.347,0.163,0.638,0.389,0.873,0.679c0.235,0.29,0.413,0.632,0.533,1.025
						S289.94,71.418,289.94,71.875z M289.082,71.964c0-0.394-0.046-0.75-0.14-1.07c-0.093-0.319-0.229-0.591-0.406-0.815
						c-0.178-0.224-0.396-0.397-0.657-0.521c-0.26-0.123-0.558-0.184-0.892-0.184c-0.232,0-0.455,0.033-0.666,0.098
						c-0.212,0.066-0.406,0.16-0.584,0.283s-0.34,0.269-0.486,0.438c-0.146,0.169-0.274,0.36-0.384,0.571
						c0,0.11-0.001,0.235-0.003,0.375s-0.003,0.277-0.003,0.413c0,0.381,0.045,0.747,0.136,1.098s0.226,0.66,0.406,0.927
						s0.406,0.479,0.679,0.638c0.273,0.158,0.591,0.238,0.955,0.238c0.326,0,0.615-0.065,0.867-0.197
						c0.251-0.131,0.465-0.309,0.641-0.533c0.176-0.224,0.309-0.488,0.4-0.79C289.037,72.63,289.082,72.307,289.082,71.964z"/>
				</g>
			</g>
			<g>
				<g>
					<path fill="#4D4D4D" d="M160.679,74.7v-1.746c0.609,0.444,1.32,0.667,2.133,0.667c0.512,0,0.911-0.11,1.196-0.33
						c0.286-0.22,0.429-0.527,0.429-0.92c0-0.406-0.177-0.719-0.53-0.939s-0.839-0.33-1.457-0.33h-0.844v-1.536h0.78
						c1.185,0,1.777-0.394,1.777-1.181c0-0.741-0.455-1.111-1.364-1.111c-0.609,0-1.202,0.197-1.777,0.59v-1.638
						c0.639-0.322,1.384-0.482,2.234-0.482c0.931,0,1.655,0.209,2.174,0.628s0.777,0.963,0.777,1.631
						c0,1.189-0.603,1.934-1.809,2.234v0.032c0.643,0.081,1.151,0.314,1.523,0.701c0.372,0.388,0.559,0.862,0.559,1.425
						c0,0.851-0.312,1.523-0.934,2.019s-1.481,0.743-2.577,0.743C162.031,75.157,161.267,75.005,160.679,74.7z"/>
					<path fill="#4D4D4D" d="M174.358,67.051c-0.406,0.732-0.77,1.418-1.092,2.06c-0.321,0.641-0.605,1.273-0.851,1.897
						c-0.245,0.625-0.455,1.259-0.628,1.904c-0.174,0.646-0.315,1.341-0.426,2.085h-2.095c0.119-0.707,0.275-1.388,0.47-2.044
						c0.195-0.656,0.42-1.292,0.676-1.908c0.256-0.615,0.54-1.215,0.851-1.799s0.64-1.155,0.987-1.714h-4.228v-1.638h6.335V67.051z"
						/>
					<path fill="#4D4D4D" d="M181.734,74.998v-5.484c-0.013,0.034-0.034,0.094-0.063,0.181c-0.029,0.086-0.065,0.186-0.107,0.298
						c-0.042,0.112-0.087,0.231-0.134,0.355c-0.046,0.125-0.093,0.245-0.14,0.359l-1.688,4.291h-0.704l-1.79-4.291
						c-0.03-0.072-0.064-0.161-0.105-0.267s-0.082-0.216-0.124-0.33c-0.042-0.114-0.083-0.224-0.121-0.33s-0.069-0.195-0.095-0.267
						v5.484h-0.724v-6.5h1.009l1.848,4.374c0.038,0.089,0.079,0.19,0.124,0.305s0.089,0.229,0.133,0.346
						c0.044,0.117,0.085,0.228,0.121,0.333s0.067,0.193,0.092,0.26c0.021-0.051,0.048-0.125,0.082-0.222
						c0.034-0.097,0.073-0.203,0.118-0.317s0.09-0.23,0.136-0.349c0.047-0.118,0.089-0.229,0.127-0.33l1.759-4.399h1.047v6.5
						H181.734z"/>
					<path fill="#4D4D4D" d="M188.602,68.232c0-0.288-0.043-0.542-0.13-0.765c-0.087-0.222-0.208-0.408-0.365-0.559
						c-0.156-0.15-0.345-0.263-0.564-0.339c-0.22-0.076-0.464-0.114-0.73-0.114c-0.406,0-0.796,0.096-1.171,0.289
						c-0.375,0.193-0.727,0.45-1.057,0.771v-0.901c0.321-0.275,0.673-0.489,1.054-0.641s0.81-0.229,1.288-0.229
						c0.076,0,0.149,0.004,0.219,0.013s0.139,0.021,0.207,0.038c0.313,0.034,0.598,0.113,0.854,0.238
						c0.256,0.125,0.475,0.287,0.657,0.486c0.182,0.199,0.322,0.435,0.422,0.708c0.1,0.273,0.149,0.577,0.149,0.911
						c0,0.39-0.051,0.738-0.152,1.047s-0.247,0.593-0.435,0.854c-0.188,0.26-0.415,0.505-0.679,0.736
						c-0.265,0.23-0.56,0.462-0.886,0.695c-0.364,0.262-0.676,0.494-0.936,0.695c-0.26,0.201-0.476,0.393-0.647,0.575
						s-0.301,0.364-0.39,0.546s-0.146,0.385-0.172,0.609c-0.021,0.059-0.035,0.119-0.041,0.178s-0.01,0.125-0.01,0.197h4.532v0.73
						h-5.389V74.56c0-0.406,0.047-0.759,0.143-1.057c0.095-0.299,0.244-0.578,0.447-0.838c0.203-0.261,0.464-0.52,0.781-0.778
						s0.698-0.548,1.143-0.87c0.3-0.22,0.567-0.433,0.8-0.638c0.232-0.206,0.427-0.417,0.584-0.635
						c0.156-0.218,0.275-0.45,0.355-0.695C188.562,68.805,188.602,68.532,188.602,68.232z"/>
				</g>
			</g>
		</g>
		<g>
			<g>
				<g>
					<path fill="#FFFFFF" d="M51.788,124.786v-1.746c0.609,0.444,1.32,0.667,2.133,0.667c0.512,0,0.911-0.11,1.197-0.33
						s0.428-0.527,0.428-0.92c0-0.406-0.177-0.719-0.53-0.939c-0.353-0.22-0.839-0.33-1.457-0.33h-0.845v-1.536h0.781
						c1.185,0,1.777-0.394,1.777-1.181c0-0.74-0.455-1.111-1.365-1.111c-0.609,0-1.202,0.197-1.777,0.59v-1.638
						c0.639-0.321,1.384-0.482,2.234-0.482c0.931,0,1.656,0.209,2.174,0.628s0.778,0.963,0.778,1.631
						c0,1.189-0.604,1.934-1.81,2.234v0.032c0.644,0.081,1.151,0.314,1.523,0.702c0.373,0.387,0.559,0.862,0.559,1.425
						c0,0.851-0.311,1.523-0.933,2.019s-1.481,0.743-2.577,0.743C53.141,125.243,52.377,125.091,51.788,124.786z"/>
					<path fill="#FFFFFF" d="M63.367,125.085l-2.958-3.155h-0.025v3.155h-0.813v-6.5h0.813v3.041h0.025l2.869-3.041h1.061
						l-3.079,3.155l3.25,3.345H63.367z"/>
					<path fill="#FFFFFF" d="M71.422,125.085V119.6c-0.013,0.034-0.034,0.094-0.063,0.181c-0.03,0.087-0.066,0.187-0.108,0.299
						c-0.042,0.112-0.086,0.23-0.133,0.355c-0.047,0.125-0.093,0.244-0.14,0.358l-1.688,4.291h-0.705l-1.79-4.291
						c-0.029-0.072-0.064-0.161-0.104-0.267c-0.04-0.105-0.082-0.216-0.124-0.33c-0.042-0.114-0.082-0.224-0.12-0.33
						c-0.038-0.105-0.07-0.194-0.096-0.267v5.484h-0.724v-6.5h1.01l1.847,4.374c0.038,0.089,0.08,0.19,0.124,0.305
						s0.089,0.229,0.133,0.346c0.044,0.116,0.084,0.228,0.121,0.333c0.036,0.106,0.066,0.192,0.092,0.26
						c0.021-0.051,0.049-0.125,0.083-0.222c0.034-0.097,0.073-0.203,0.117-0.317s0.09-0.23,0.137-0.349
						c0.046-0.119,0.089-0.229,0.127-0.33l1.758-4.399h1.048v6.5H71.422z"/>
					<path fill="#FFFFFF" d="M78.702,125.085v-3.028h-3.573v3.028h-0.813v-6.5h0.813v2.768h3.573v-2.768h0.813v6.5H78.702z"/>
				</g>
			</g>
			<g>
				<g>
					<path fill="#FFFFFF" d="M110.312,115.982v5.738h1.092v1.498h-1.092v1.866h-1.828v-1.866h-3.967v-1.568
						c0.351-0.394,0.715-0.824,1.092-1.292c0.376-0.468,0.74-0.949,1.092-1.444c0.351-0.495,0.678-0.993,0.98-1.495
						c0.303-0.501,0.56-0.98,0.771-1.438H110.312z M106.313,121.72h2.171v-3.18c-0.148,0.275-0.309,0.553-0.482,0.834
						c-0.173,0.282-0.355,0.559-0.546,0.832c-0.19,0.272-0.383,0.537-0.577,0.793C106.683,121.256,106.495,121.496,106.313,121.72z"
						/>
					<path fill="#FFFFFF" d="M117.091,121.866c0,0.491-0.072,0.943-0.216,1.355c-0.144,0.413-0.35,0.769-0.619,1.066
						c-0.269,0.299-0.592,0.531-0.971,0.698c-0.379,0.167-0.803,0.251-1.272,0.251c-0.373,0-0.699-0.038-0.981-0.114
						s-0.524-0.178-0.727-0.305v-0.8c0.212,0.161,0.461,0.288,0.749,0.381c0.288,0.093,0.605,0.14,0.952,0.14
						c0.317,0,0.61-0.055,0.879-0.165c0.269-0.11,0.501-0.268,0.698-0.473c0.197-0.206,0.353-0.454,0.47-0.746
						s0.181-0.618,0.194-0.978h-2.983v-0.698h2.983c-0.025-0.343-0.093-0.658-0.203-0.946c-0.11-0.288-0.262-0.535-0.454-0.743
						c-0.192-0.207-0.428-0.368-0.705-0.482s-0.596-0.171-0.956-0.171c-0.321,0-0.616,0.042-0.885,0.124
						c-0.269,0.083-0.499,0.192-0.689,0.327v-0.8c0.203-0.105,0.447-0.191,0.73-0.257c0.283-0.066,0.575-0.099,0.876-0.099
						c0.491,0,0.93,0.078,1.317,0.235s0.715,0.382,0.984,0.676c0.269,0.294,0.474,0.653,0.616,1.079
						C117.021,120.847,117.091,121.329,117.091,121.866z"/>
					<path fill="#FFFFFF" d="M120.392,119.296v5.789h-0.813v-5.789h-1.955v-0.711h4.717v0.711H120.392z"/>
					<path fill="#FFFFFF" d="M127.305,125.085v-1.155h-0.025c-0.212,0.415-0.501,0.736-0.867,0.965s-0.78,0.343-1.241,0.343
						c-0.313,0-0.596-0.044-0.848-0.133s-0.466-0.215-0.641-0.377c-0.175-0.163-0.311-0.359-0.406-0.587s-0.143-0.48-0.143-0.755
						c0-0.588,0.182-1.057,0.546-1.406c0.364-0.349,0.914-0.576,1.65-0.682l1.975-0.286c0-1.248-0.485-1.873-1.454-1.873
						c-0.757,0-1.46,0.277-2.107,0.832v-0.889c0.136-0.097,0.289-0.185,0.46-0.264c0.171-0.078,0.352-0.146,0.542-0.203
						c0.19-0.057,0.387-0.102,0.587-0.133c0.201-0.032,0.397-0.048,0.587-0.048c0.724,0,1.271,0.203,1.641,0.609
						s0.556,1.012,0.556,1.815v4.228H127.305z M125.629,121.93c-0.292,0.042-0.542,0.095-0.749,0.159
						c-0.208,0.063-0.379,0.149-0.515,0.257c-0.135,0.108-0.234,0.241-0.298,0.4c-0.063,0.158-0.096,0.354-0.096,0.587
						c0,0.174,0.031,0.334,0.092,0.482c0.061,0.148,0.15,0.276,0.267,0.384c0.117,0.108,0.258,0.192,0.425,0.251
						c0.167,0.06,0.356,0.089,0.568,0.089c0.288,0,0.552-0.055,0.793-0.165c0.241-0.11,0.45-0.262,0.625-0.457
						c0.175-0.194,0.313-0.427,0.413-0.698c0.1-0.271,0.149-0.565,0.149-0.882v-0.641L125.629,121.93z"/>
					<path fill="#FFFFFF" d="M137.01,125.085l-2.983-3.199h-0.025v3.199h-0.787v-3.199h-0.025l-2.983,3.199h-1.104l3.237-3.339
						l-3.085-3.161h1.041l2.895,3.072h0.025v-3.072h0.787v3.072h0.025l2.901-3.072h1.047l-3.098,3.161l3.244,3.339H137.01z"/>
				</g>
			</g>
			<g>
				<g>
					<path fill="#FFFFFF" d="M216.18,115.982v5.738h1.092v1.498h-1.092v1.866h-1.828v-1.866h-3.968v-1.568
						c0.352-0.394,0.715-0.824,1.092-1.292c0.377-0.468,0.741-0.949,1.092-1.444c0.352-0.495,0.679-0.993,0.981-1.495
						c0.302-0.501,0.56-0.98,0.771-1.438H216.18z M212.181,121.72h2.171v-3.18c-0.148,0.275-0.309,0.553-0.482,0.834
						c-0.174,0.282-0.355,0.559-0.546,0.832c-0.19,0.272-0.383,0.537-0.578,0.793C212.551,121.256,212.363,121.496,212.181,121.72z"
						/>
					<path fill="#FFFFFF" d="M221.944,124.786v-1.746c0.609,0.444,1.32,0.667,2.133,0.667c0.512,0,0.911-0.11,1.196-0.33
						s0.429-0.527,0.429-0.92c0-0.406-0.177-0.719-0.53-0.939c-0.354-0.22-0.839-0.33-1.457-0.33h-0.844v-1.536h0.78
						c1.185,0,1.777-0.394,1.777-1.181c0-0.74-0.455-1.111-1.364-1.111c-0.609,0-1.202,0.197-1.777,0.59v-1.638
						c0.639-0.321,1.384-0.482,2.234-0.482c0.931,0,1.655,0.209,2.174,0.628s0.777,0.963,0.777,1.631
						c0,1.189-0.603,1.934-1.809,2.234v0.032c0.643,0.081,1.151,0.314,1.523,0.702c0.372,0.387,0.559,0.862,0.559,1.425
						c0,0.851-0.312,1.523-0.934,2.019s-1.481,0.743-2.577,0.743C223.295,125.243,222.532,125.091,221.944,124.786z"/>
					<path fill="#FFFFFF" d="M235.622,117.137c-0.406,0.732-0.77,1.419-1.092,2.06c-0.321,0.642-0.605,1.274-0.851,1.898
						c-0.245,0.624-0.455,1.259-0.628,1.904c-0.174,0.645-0.315,1.34-0.426,2.085h-2.095c0.119-0.707,0.275-1.388,0.47-2.044
						c0.195-0.656,0.42-1.292,0.676-1.907c0.256-0.616,0.54-1.216,0.851-1.8s0.64-1.155,0.987-1.714h-4.228v-1.638h6.335V117.137z"
						/>
					<path fill="#FFFFFF" d="M238.879,123.422h3.859v1.663h-6.056v-0.686c0-0.465,0.078-0.883,0.234-1.254
						c0.157-0.37,0.354-0.702,0.591-0.996c0.237-0.294,0.496-0.555,0.777-0.781c0.281-0.226,0.549-0.43,0.803-0.612
						c0.267-0.19,0.501-0.372,0.702-0.546c0.201-0.173,0.371-0.346,0.508-0.518c0.137-0.171,0.24-0.345,0.308-0.521
						c0.067-0.175,0.102-0.362,0.102-0.562c0-0.389-0.11-0.684-0.33-0.882c-0.22-0.199-0.557-0.298-1.01-0.298
						c-0.783,0-1.532,0.311-2.247,0.933v-1.765c0.792-0.512,1.685-0.768,2.679-0.768c0.461,0,0.875,0.061,1.241,0.181
						c0.366,0.121,0.676,0.293,0.93,0.518c0.254,0.225,0.448,0.496,0.581,0.815c0.133,0.32,0.2,0.676,0.2,1.07
						c0,0.419-0.064,0.792-0.194,1.117s-0.3,0.622-0.514,0.889s-0.46,0.511-0.739,0.733c-0.279,0.223-0.569,0.438-0.87,0.645
						c-0.203,0.144-0.398,0.287-0.587,0.429c-0.188,0.142-0.354,0.281-0.498,0.419c-0.144,0.137-0.258,0.271-0.343,0.403
						C238.921,123.178,238.879,123.303,238.879,123.422z"/>
					<path fill="#FFFFFF" d="M249.943,123.422h3.859v1.663h-6.056v-0.686c0-0.465,0.079-0.883,0.235-1.254
						c0.156-0.37,0.353-0.702,0.59-0.996c0.237-0.294,0.496-0.555,0.778-0.781c0.282-0.226,0.549-0.43,0.803-0.612
						c0.267-0.19,0.5-0.372,0.701-0.546c0.201-0.173,0.37-0.346,0.508-0.518c0.138-0.171,0.24-0.345,0.308-0.521
						c0.068-0.175,0.102-0.362,0.102-0.562c0-0.389-0.11-0.684-0.33-0.882c-0.22-0.199-0.556-0.298-1.009-0.298
						c-0.783,0-1.532,0.311-2.247,0.933v-1.765c0.791-0.512,1.684-0.768,2.679-0.768c0.461,0,0.875,0.061,1.241,0.181
						c0.366,0.121,0.676,0.293,0.93,0.518c0.254,0.225,0.447,0.496,0.581,0.815c0.133,0.32,0.2,0.676,0.2,1.07
						c0,0.419-0.064,0.792-0.193,1.117s-0.301,0.622-0.514,0.889s-0.46,0.511-0.74,0.733c-0.279,0.223-0.569,0.438-0.869,0.645
						c-0.203,0.144-0.399,0.287-0.587,0.429c-0.188,0.142-0.354,0.281-0.499,0.419c-0.144,0.137-0.258,0.271-0.343,0.403
						C249.985,123.178,249.943,123.303,249.943,123.422z"/>
					<path fill="#FFFFFF" d="M255.44,124.786v-1.746c0.609,0.444,1.32,0.667,2.133,0.667c0.512,0,0.911-0.11,1.197-0.33
						s0.428-0.527,0.428-0.92c0-0.406-0.177-0.719-0.53-0.939c-0.353-0.22-0.839-0.33-1.457-0.33h-0.845v-1.536h0.781
						c1.185,0,1.777-0.394,1.777-1.181c0-0.74-0.455-1.111-1.365-1.111c-0.609,0-1.202,0.197-1.777,0.59v-1.638
						c0.639-0.321,1.384-0.482,2.234-0.482c0.931,0,1.656,0.209,2.174,0.628s0.778,0.963,0.778,1.631
						c0,1.189-0.604,1.934-1.81,2.234v0.032c0.644,0.081,1.151,0.314,1.523,0.702c0.373,0.387,0.559,0.862,0.559,1.425
						c0,0.851-0.311,1.523-0.933,2.019s-1.481,0.743-2.577,0.743C256.792,125.243,256.028,125.091,255.44,124.786z"/>
					<path fill="#FFFFFF" d="M265.863,125.243c-2.167,0-3.25-1.521-3.25-4.564c0-1.578,0.293-2.781,0.879-3.608
						c0.586-0.828,1.436-1.241,2.548-1.241c2.116,0,3.174,1.547,3.174,4.64c0,1.541-0.289,2.721-0.866,3.542
						S266.942,125.243,265.863,125.243z M265.952,117.359c-0.867,0-1.301,1.09-1.301,3.269c0,2.053,0.425,3.079,1.275,3.079
						c0.83,0,1.244-1.058,1.244-3.174S266.764,117.359,265.952,117.359z"/>
					<path fill="#FFFFFF" d="M271.512,124.037v4.037H270.7v-9.49h0.813v1.244h0.025c0.241-0.453,0.564-0.799,0.968-1.038
						c0.404-0.239,0.86-0.358,1.368-0.358c0.415,0,0.786,0.075,1.114,0.226c0.328,0.15,0.605,0.363,0.832,0.638
						c0.226,0.275,0.4,0.609,0.521,1.003s0.181,0.836,0.181,1.327c0,0.538-0.068,1.027-0.203,1.469
						c-0.136,0.442-0.33,0.822-0.584,1.14s-0.562,0.564-0.924,0.739c-0.362,0.176-0.769,0.264-1.222,0.264
						c-0.914,0-1.598-0.4-2.051-1.2H271.512z M271.512,122.38c0,0.296,0.05,0.574,0.149,0.835c0.1,0.26,0.238,0.488,0.416,0.686
						c0.178,0.196,0.393,0.352,0.644,0.466s0.53,0.171,0.834,0.171c0.326,0,0.62-0.069,0.883-0.206
						c0.262-0.138,0.485-0.333,0.669-0.587s0.326-0.561,0.425-0.92c0.1-0.359,0.149-0.762,0.149-1.206
						c0-0.381-0.047-0.725-0.14-1.031c-0.093-0.307-0.226-0.568-0.397-0.784s-0.378-0.381-0.622-0.495s-0.515-0.171-0.816-0.171
						c-0.338,0-0.643,0.063-0.914,0.187c-0.271,0.125-0.501,0.295-0.691,0.511s-0.337,0.469-0.438,0.758
						c-0.102,0.29-0.152,0.598-0.152,0.924V122.38z"/>
					<path fill="#FFFFFF" d="M280.043,126.265c-0.254,0.635-0.546,1.105-0.876,1.412c-0.33,0.307-0.729,0.46-1.199,0.46
						c-0.233,0-0.43-0.028-0.591-0.083v-0.762c0.093,0.034,0.188,0.059,0.283,0.076c0.095,0.017,0.191,0.025,0.289,0.025
						c0.267,0,0.499-0.083,0.695-0.251c0.197-0.167,0.367-0.42,0.511-0.758l0.565-1.333l-2.501-6.468h0.901l1.859,5.148
						c0.025,0.068,0.05,0.145,0.073,0.232c0.023,0.086,0.045,0.172,0.066,0.257h0.032c0.021-0.072,0.041-0.145,0.06-0.219
						c0.019-0.074,0.045-0.156,0.08-0.245l1.974-5.173h0.857L280.043,126.265z"/>
					<path fill="#FFFFFF" d="M289.94,121.962c0,0.436-0.062,0.852-0.185,1.247c-0.123,0.396-0.307,0.744-0.552,1.044
						c-0.246,0.3-0.552,0.54-0.917,0.717s-0.792,0.267-1.279,0.267c-0.491,0-0.924-0.091-1.298-0.273s-0.689-0.446-0.943-0.793
						c-0.254-0.347-0.445-0.772-0.574-1.276s-0.193-1.077-0.193-1.72c0-1.037,0.093-1.902,0.279-2.596
						c0.186-0.694,0.442-1.225,0.768-1.593c0.178-0.203,0.371-0.369,0.578-0.498c0.207-0.129,0.436-0.236,0.686-0.321
						c0.25-0.084,0.522-0.157,0.818-0.216c0.296-0.059,0.62-0.121,0.972-0.184c0.19-0.034,0.377-0.075,0.562-0.124
						c0.184-0.048,0.369-0.125,0.556-0.231v0.8c-0.089,0.06-0.208,0.114-0.355,0.165c-0.148,0.051-0.32,0.093-0.515,0.127
						c-0.211,0.034-0.419,0.069-0.622,0.104c-0.203,0.036-0.396,0.074-0.577,0.114c-0.182,0.041-0.352,0.083-0.508,0.127
						c-0.157,0.045-0.292,0.095-0.406,0.149c-0.377,0.174-0.682,0.5-0.914,0.978c-0.233,0.479-0.381,1.145-0.444,2h0.025
						c0.11-0.186,0.242-0.354,0.396-0.504c0.154-0.15,0.327-0.28,0.518-0.391c0.19-0.11,0.398-0.194,0.625-0.254
						c0.227-0.059,0.467-0.089,0.721-0.089c0.448,0,0.846,0.082,1.193,0.244c0.347,0.163,0.638,0.39,0.873,0.68
						c0.235,0.29,0.413,0.631,0.533,1.025S289.94,121.505,289.94,121.962z M289.082,122.05c0-0.394-0.046-0.75-0.14-1.069
						c-0.093-0.32-0.229-0.592-0.406-0.816s-0.396-0.398-0.657-0.521s-0.558-0.184-0.892-0.184c-0.232,0-0.455,0.033-0.666,0.099
						c-0.212,0.065-0.406,0.16-0.584,0.282c-0.178,0.123-0.34,0.269-0.486,0.438s-0.274,0.36-0.384,0.571
						c0,0.11-0.001,0.235-0.003,0.375s-0.003,0.277-0.003,0.413c0,0.381,0.045,0.747,0.136,1.098
						c0.091,0.352,0.226,0.66,0.406,0.927s0.406,0.479,0.679,0.638c0.273,0.159,0.591,0.238,0.955,0.238
						c0.326,0,0.615-0.065,0.867-0.197s0.465-0.309,0.641-0.533s0.309-0.488,0.4-0.791
						C289.037,122.716,289.082,122.393,289.082,122.05z"/>
				</g>
			</g>
			<g>
				<g>
					<path fill="#FFFFFF" d="M166.88,117.137c-0.406,0.732-0.77,1.419-1.092,2.06c-0.321,0.642-0.605,1.274-0.851,1.898
						c-0.245,0.624-0.455,1.259-0.628,1.904c-0.174,0.645-0.315,1.34-0.426,2.085h-2.095c0.119-0.707,0.275-1.388,0.47-2.044
						c0.195-0.656,0.42-1.292,0.676-1.907c0.256-0.616,0.54-1.216,0.851-1.8s0.64-1.155,0.987-1.714h-4.228v-1.638h6.335V117.137z"
						/>
					<path fill="#FFFFFF" d="M168.157,124.786v-1.746c0.609,0.444,1.32,0.667,2.133,0.667c0.512,0,0.911-0.11,1.196-0.33
						s0.429-0.527,0.429-0.92c0-0.406-0.177-0.719-0.53-0.939c-0.354-0.22-0.839-0.33-1.457-0.33h-0.844v-1.536h0.78
						c1.185,0,1.777-0.394,1.777-1.181c0-0.74-0.455-1.111-1.364-1.111c-0.609,0-1.202,0.197-1.777,0.59v-1.638
						c0.639-0.321,1.384-0.482,2.234-0.482c0.931,0,1.655,0.209,2.174,0.628s0.777,0.963,0.777,1.631
						c0,1.189-0.603,1.934-1.809,2.234v0.032c0.643,0.081,1.151,0.314,1.523,0.702c0.372,0.387,0.559,0.862,0.559,1.425
						c0,0.851-0.312,1.523-0.934,2.019s-1.481,0.743-2.577,0.743C169.508,125.243,168.744,125.091,168.157,124.786z"/>
					<path fill="#FFFFFF" d="M181.734,125.085V119.6c-0.013,0.034-0.034,0.094-0.063,0.181c-0.029,0.087-0.065,0.187-0.107,0.299
						c-0.042,0.112-0.087,0.23-0.134,0.355c-0.046,0.125-0.093,0.244-0.14,0.358l-1.688,4.291h-0.704l-1.79-4.291
						c-0.03-0.072-0.064-0.161-0.105-0.267c-0.041-0.105-0.082-0.216-0.124-0.33c-0.042-0.114-0.083-0.224-0.121-0.33
						c-0.038-0.105-0.069-0.194-0.095-0.267v5.484h-0.724v-6.5h1.009l1.848,4.374c0.038,0.089,0.079,0.19,0.124,0.305
						s0.089,0.229,0.133,0.346c0.044,0.116,0.085,0.228,0.121,0.333c0.036,0.106,0.067,0.192,0.092,0.26
						c0.021-0.051,0.048-0.125,0.082-0.222c0.034-0.097,0.073-0.203,0.118-0.317s0.09-0.23,0.136-0.349
						c0.047-0.119,0.089-0.229,0.127-0.33l1.759-4.399h1.047v6.5H181.734z"/>
					<path fill="#FFFFFF" d="M188.602,118.318c0-0.288-0.043-0.543-0.13-0.765c-0.087-0.223-0.208-0.409-0.365-0.559
						c-0.156-0.15-0.345-0.264-0.564-0.34c-0.22-0.076-0.464-0.114-0.73-0.114c-0.406,0-0.796,0.096-1.171,0.289
						c-0.375,0.192-0.727,0.449-1.057,0.771v-0.901c0.321-0.275,0.673-0.489,1.054-0.641s0.81-0.229,1.288-0.229
						c0.076,0,0.149,0.004,0.219,0.013c0.07,0.009,0.139,0.021,0.207,0.038c0.313,0.034,0.598,0.113,0.854,0.238
						c0.256,0.125,0.475,0.287,0.657,0.485c0.182,0.199,0.322,0.435,0.422,0.708c0.1,0.272,0.149,0.576,0.149,0.911
						c0,0.389-0.051,0.739-0.152,1.047c-0.102,0.309-0.247,0.594-0.435,0.854c-0.188,0.261-0.415,0.506-0.679,0.736
						c-0.265,0.231-0.56,0.463-0.886,0.695c-0.364,0.263-0.676,0.494-0.936,0.695c-0.26,0.201-0.476,0.393-0.647,0.574
						c-0.171,0.182-0.301,0.364-0.39,0.546c-0.089,0.182-0.146,0.385-0.172,0.609c-0.021,0.06-0.035,0.119-0.041,0.178
						c-0.006,0.06-0.01,0.125-0.01,0.197h4.532v0.73h-5.389v-0.438c0-0.406,0.047-0.758,0.143-1.057
						c0.095-0.298,0.244-0.577,0.447-0.838c0.203-0.26,0.464-0.519,0.781-0.777c0.317-0.258,0.698-0.548,1.143-0.87
						c0.3-0.22,0.567-0.433,0.8-0.638c0.232-0.205,0.427-0.417,0.584-0.635c0.156-0.218,0.275-0.449,0.355-0.695
						C188.562,118.891,188.602,118.619,188.602,118.318z"/>
				</g>
			</g>
		</g>
		<g>
			<g>
				<g>
					<path fill="#4D4D4D" d="M53.769,173.662h3.859v1.663h-6.056v-0.686c0-0.465,0.079-0.883,0.235-1.253
						c0.156-0.371,0.353-0.703,0.59-0.997c0.237-0.294,0.496-0.554,0.778-0.78c0.282-0.227,0.549-0.431,0.803-0.613
						c0.267-0.19,0.5-0.373,0.701-0.546s0.37-0.346,0.508-0.517c0.138-0.172,0.24-0.345,0.308-0.521
						c0.068-0.176,0.102-0.363,0.102-0.562c0-0.389-0.11-0.683-0.33-0.882c-0.22-0.199-0.556-0.298-1.009-0.298
						c-0.783,0-1.532,0.311-2.247,0.933v-1.765c0.791-0.512,1.684-0.768,2.679-0.768c0.461,0,0.875,0.06,1.241,0.181
						c0.366,0.12,0.676,0.293,0.93,0.517s0.447,0.496,0.581,0.816c0.133,0.319,0.2,0.676,0.2,1.069c0,0.419-0.064,0.792-0.193,1.117
						c-0.129,0.326-0.301,0.622-0.514,0.889s-0.46,0.511-0.74,0.733c-0.279,0.222-0.569,0.437-0.869,0.644
						c-0.203,0.144-0.399,0.287-0.587,0.428c-0.188,0.142-0.354,0.282-0.499,0.419c-0.144,0.138-0.258,0.272-0.343,0.403
						C53.811,173.419,53.769,173.544,53.769,173.662z"/>
					<path fill="#4D4D4D" d="M63.367,175.325l-2.958-3.155h-0.025v3.155h-0.813v-6.5h0.813v3.041h0.025l2.869-3.041h1.061
						l-3.079,3.155l3.25,3.345H63.367z"/>
					<path fill="#4D4D4D" d="M71.422,175.325v-5.484c-0.013,0.034-0.034,0.094-0.063,0.181c-0.03,0.086-0.066,0.186-0.108,0.298
						c-0.042,0.112-0.086,0.231-0.133,0.355c-0.047,0.125-0.093,0.245-0.14,0.359l-1.688,4.291h-0.705l-1.79-4.291
						c-0.029-0.072-0.064-0.161-0.104-0.267s-0.082-0.216-0.124-0.33c-0.042-0.114-0.082-0.224-0.12-0.33s-0.07-0.195-0.096-0.267
						v5.484h-0.724v-6.5h1.01l1.847,4.374c0.038,0.089,0.08,0.19,0.124,0.305s0.089,0.229,0.133,0.346
						c0.044,0.117,0.084,0.228,0.121,0.333s0.066,0.193,0.092,0.26c0.021-0.051,0.049-0.125,0.083-0.222
						c0.034-0.097,0.073-0.203,0.117-0.317s0.09-0.23,0.137-0.349c0.046-0.118,0.089-0.229,0.127-0.33l1.758-4.399h1.048v6.5H71.422
						z"/>
					<path fill="#4D4D4D" d="M78.702,175.325v-3.028h-3.573v3.028h-0.813v-6.5h0.813v2.768h3.573v-2.768h0.813v6.5H78.702z"/>
				</g>
			</g>
			<g>
				<g>
					<path fill="#4D4D4D" d="M104.777,172.875c0-0.254,0.037-0.499,0.111-0.733c0.074-0.235,0.185-0.453,0.333-0.654
						c0.148-0.201,0.333-0.381,0.556-0.539c0.222-0.159,0.483-0.289,0.784-0.391c-0.461-0.229-0.819-0.521-1.073-0.879
						c-0.254-0.358-0.381-0.754-0.381-1.19c0-0.347,0.073-0.668,0.219-0.965c0.146-0.296,0.348-0.552,0.606-0.768
						c0.258-0.216,0.566-0.384,0.924-0.504c0.357-0.121,0.748-0.181,1.171-0.181c0.432,0,0.828,0.06,1.188,0.181
						c0.359,0.12,0.669,0.288,0.93,0.501c0.26,0.214,0.462,0.467,0.606,0.759c0.144,0.292,0.216,0.609,0.216,0.952
						c0,0.432-0.136,0.824-0.406,1.178c-0.271,0.353-0.646,0.644-1.124,0.873c0.296,0.102,0.557,0.232,0.781,0.39
						c0.224,0.159,0.412,0.34,0.564,0.543s0.267,0.424,0.343,0.663c0.076,0.239,0.114,0.488,0.114,0.746
						c0,0.39-0.078,0.744-0.234,1.063c-0.157,0.319-0.378,0.594-0.664,0.825c-0.286,0.23-0.626,0.409-1.022,0.536
						s-0.833,0.19-1.311,0.19c-0.47,0-0.902-0.063-1.298-0.188c-0.396-0.125-0.736-0.301-1.022-0.53s-0.509-0.502-0.67-0.822
						C104.857,173.612,104.777,173.26,104.777,172.875z M106.675,172.704c0,0.208,0.031,0.394,0.095,0.559s0.155,0.305,0.273,0.419
						c0.118,0.114,0.259,0.202,0.422,0.264c0.163,0.061,0.346,0.092,0.549,0.092c0.195,0,0.374-0.032,0.537-0.095
						s0.304-0.152,0.422-0.267c0.118-0.114,0.211-0.254,0.279-0.419c0.067-0.165,0.102-0.349,0.102-0.552
						c0-0.182-0.032-0.355-0.096-0.521s-0.154-0.308-0.272-0.429c-0.119-0.12-0.26-0.217-0.422-0.289s-0.346-0.108-0.549-0.108
						c-0.19,0-0.368,0.033-0.533,0.099c-0.165,0.065-0.307,0.158-0.425,0.279c-0.119,0.12-0.212,0.263-0.279,0.428
						C106.709,172.329,106.675,172.509,106.675,172.704z M106.954,168.673c0,0.161,0.028,0.312,0.085,0.454
						c0.057,0.142,0.134,0.265,0.232,0.368c0.097,0.104,0.212,0.186,0.346,0.245s0.274,0.089,0.422,0.089
						c0.152,0,0.294-0.03,0.426-0.089c0.131-0.059,0.246-0.142,0.346-0.248c0.1-0.105,0.178-0.229,0.235-0.368
						s0.085-0.29,0.085-0.451c0-0.165-0.027-0.318-0.082-0.46c-0.055-0.142-0.133-0.264-0.232-0.368
						c-0.099-0.104-0.216-0.185-0.349-0.244c-0.133-0.059-0.276-0.089-0.429-0.089c-0.161,0-0.308,0.031-0.441,0.092
						c-0.133,0.062-0.248,0.144-0.343,0.248c-0.095,0.104-0.169,0.226-0.222,0.368C106.981,168.361,106.954,168.512,106.954,168.673
						z"/>
					<path fill="#4D4D4D" d="M117.091,172.107c0,0.491-0.072,0.942-0.216,1.355c-0.144,0.412-0.35,0.768-0.619,1.066
						c-0.269,0.298-0.592,0.531-0.971,0.698c-0.379,0.167-0.803,0.25-1.272,0.25c-0.373,0-0.699-0.038-0.981-0.114
						s-0.524-0.178-0.727-0.305v-0.8c0.212,0.161,0.461,0.288,0.749,0.381c0.288,0.093,0.605,0.14,0.952,0.14
						c0.317,0,0.61-0.055,0.879-0.165s0.501-0.268,0.698-0.473c0.197-0.205,0.353-0.454,0.47-0.746s0.181-0.618,0.194-0.978h-2.983
						v-0.698h2.983c-0.025-0.343-0.093-0.658-0.203-0.946c-0.11-0.288-0.262-0.535-0.454-0.743s-0.428-0.368-0.705-0.482
						s-0.596-0.171-0.956-0.171c-0.321,0-0.616,0.041-0.885,0.124c-0.269,0.082-0.499,0.191-0.689,0.327v-0.8
						c0.203-0.106,0.447-0.191,0.73-0.257c0.283-0.065,0.575-0.098,0.876-0.098c0.491,0,0.93,0.079,1.317,0.235
						c0.387,0.157,0.715,0.382,0.984,0.676c0.269,0.294,0.474,0.654,0.616,1.079C117.021,171.088,117.091,171.57,117.091,172.107z"
						/>
					<path fill="#4D4D4D" d="M120.392,169.536v5.789h-0.813v-5.789h-1.955v-0.711h4.717v0.711H120.392z"/>
					<path fill="#4D4D4D" d="M127.305,175.325v-1.155h-0.025c-0.212,0.415-0.501,0.736-0.867,0.965s-0.78,0.343-1.241,0.343
						c-0.313,0-0.596-0.044-0.848-0.133s-0.466-0.215-0.641-0.378c-0.175-0.163-0.311-0.358-0.406-0.587s-0.143-0.48-0.143-0.755
						c0-0.588,0.182-1.057,0.546-1.406c0.364-0.35,0.914-0.577,1.65-0.683l1.975-0.286c0-1.249-0.485-1.873-1.454-1.873
						c-0.757,0-1.46,0.277-2.107,0.832v-0.889c0.136-0.097,0.289-0.185,0.46-0.263c0.171-0.079,0.352-0.146,0.542-0.203
						c0.19-0.058,0.387-0.102,0.587-0.134c0.201-0.031,0.397-0.047,0.587-0.047c0.724,0,1.271,0.203,1.641,0.609
						s0.556,1.011,0.556,1.815v4.228H127.305z M125.629,172.171c-0.292,0.042-0.542,0.095-0.749,0.159
						c-0.208,0.063-0.379,0.149-0.515,0.257c-0.135,0.107-0.234,0.241-0.298,0.399c-0.063,0.159-0.096,0.354-0.096,0.587
						c0,0.173,0.031,0.334,0.092,0.482s0.15,0.276,0.267,0.384c0.117,0.107,0.258,0.191,0.425,0.25s0.356,0.089,0.568,0.089
						c0.288,0,0.552-0.055,0.793-0.165s0.45-0.262,0.625-0.457s0.313-0.427,0.413-0.698s0.149-0.565,0.149-0.882v-0.641
						L125.629,172.171z"/>
					<path fill="#4D4D4D" d="M137.01,175.325l-2.983-3.199h-0.025v3.199h-0.787v-3.199h-0.025l-2.983,3.199h-1.104l3.237-3.339
						l-3.085-3.161h1.041l2.895,3.072h0.025v-3.072h0.787v3.072h0.025l2.901-3.072h1.047l-3.098,3.161l3.244,3.339H137.01z"/>
				</g>
			</g>
			<g>
				<g>
					<path fill="#4D4D4D" d="M210.879,175.027v-1.746c0.609,0.444,1.32,0.667,2.133,0.667c0.512,0,0.911-0.11,1.197-0.33
						c0.286-0.22,0.428-0.527,0.428-0.92c0-0.406-0.177-0.719-0.53-0.939s-0.839-0.33-1.457-0.33h-0.845v-1.536h0.781
						c1.185,0,1.777-0.394,1.777-1.181c0-0.741-0.455-1.111-1.365-1.111c-0.609,0-1.202,0.197-1.777,0.59v-1.638
						c0.639-0.322,1.384-0.482,2.234-0.482c0.931,0,1.656,0.209,2.174,0.628s0.778,0.963,0.778,1.631
						c0,1.189-0.604,1.934-1.81,2.234v0.032c0.644,0.081,1.151,0.314,1.523,0.701c0.373,0.388,0.559,0.862,0.559,1.425
						c0,0.851-0.311,1.523-0.933,2.019s-1.481,0.743-2.577,0.743C212.232,175.484,211.468,175.332,210.879,175.027z"/>
					<path fill="#4D4D4D" d="M224.889,175.484c-2.167,0-3.25-1.521-3.25-4.564c0-1.579,0.293-2.781,0.879-3.609
						c0.586-0.827,1.436-1.241,2.549-1.241c2.116,0,3.174,1.547,3.174,4.64c0,1.541-0.289,2.721-0.867,3.542
						C226.796,175.074,225.968,175.484,224.889,175.484z M224.978,167.6c-0.868,0-1.302,1.09-1.302,3.269
						c0,2.052,0.426,3.079,1.276,3.079c0.829,0,1.244-1.058,1.244-3.174C226.197,168.658,225.79,167.6,224.978,167.6z"/>
					<path fill="#4D4D4D" d="M233.959,166.02v9.306h-1.999v-7.046c-0.11,0.097-0.24,0.189-0.391,0.276
						c-0.15,0.087-0.31,0.165-0.479,0.235c-0.169,0.069-0.345,0.129-0.526,0.178c-0.182,0.048-0.362,0.083-0.54,0.104v-1.688
						c0.521-0.152,1.012-0.347,1.473-0.584c0.461-0.237,0.878-0.497,1.251-0.781H233.959z"/>
					<path fill="#4D4D4D" d="M239.844,175.484c-2.167,0-3.25-1.521-3.25-4.564c0-1.579,0.293-2.781,0.879-3.609
						c0.586-0.827,1.436-1.241,2.549-1.241c2.116,0,3.174,1.547,3.174,4.64c0,1.541-0.289,2.721-0.867,3.542
						C241.751,175.074,240.923,175.484,239.844,175.484z M239.933,167.6c-0.868,0-1.302,1.09-1.302,3.269
						c0,2.052,0.426,3.079,1.276,3.079c0.829,0,1.244-1.058,1.244-3.174C241.152,168.658,240.745,167.6,239.933,167.6z"/>
					<path fill="#4D4D4D" d="M250.908,175.484c-2.167,0-3.25-1.521-3.25-4.564c0-1.579,0.293-2.781,0.879-3.609
						c0.586-0.827,1.436-1.241,2.548-1.241c2.116,0,3.174,1.547,3.174,4.64c0,1.541-0.289,2.721-0.866,3.542
						C252.815,175.074,251.987,175.484,250.908,175.484z M250.996,167.6c-0.867,0-1.301,1.09-1.301,3.269
						c0,2.052,0.425,3.079,1.275,3.079c0.83,0,1.244-1.058,1.244-3.174C252.215,168.658,251.809,167.6,250.996,167.6z"/>
					<path fill="#4D4D4D" d="M258.385,175.484c-2.167,0-3.25-1.521-3.25-4.564c0-1.579,0.293-2.781,0.879-3.609
						c0.586-0.827,1.436-1.241,2.548-1.241c2.116,0,3.174,1.547,3.174,4.64c0,1.541-0.289,2.721-0.866,3.542
						C260.293,175.074,259.464,175.484,258.385,175.484z M258.474,167.6c-0.867,0-1.301,1.09-1.301,3.269
						c0,2.052,0.425,3.079,1.275,3.079c0.83,0,1.244-1.058,1.244-3.174C259.693,168.658,259.286,167.6,258.474,167.6z"/>
					<path fill="#4D4D4D" d="M265.863,175.484c-2.167,0-3.25-1.521-3.25-4.564c0-1.579,0.293-2.781,0.879-3.609
						c0.586-0.827,1.436-1.241,2.548-1.241c2.116,0,3.174,1.547,3.174,4.64c0,1.541-0.289,2.721-0.866,3.542
						C267.77,175.074,266.942,175.484,265.863,175.484z M265.952,167.6c-0.867,0-1.301,1.09-1.301,3.269
						c0,2.052,0.425,3.079,1.275,3.079c0.83,0,1.244-1.058,1.244-3.174C267.17,168.658,266.764,167.6,265.952,167.6z"/>
					<path fill="#4D4D4D" d="M271.512,174.278v4.037H270.7v-9.49h0.813v1.244h0.025c0.241-0.453,0.564-0.799,0.968-1.038
						c0.404-0.239,0.86-0.359,1.368-0.359c0.415,0,0.786,0.075,1.114,0.225c0.328,0.15,0.605,0.363,0.832,0.638
						s0.4,0.609,0.521,1.003s0.181,0.836,0.181,1.327c0,0.538-0.068,1.027-0.203,1.47c-0.136,0.442-0.33,0.822-0.584,1.139
						s-0.562,0.564-0.924,0.74c-0.362,0.175-0.769,0.263-1.222,0.263c-0.914,0-1.598-0.4-2.051-1.2H271.512z M271.512,172.621
						c0,0.296,0.05,0.575,0.149,0.834c0.1,0.261,0.238,0.489,0.416,0.686c0.178,0.197,0.393,0.353,0.644,0.467
						s0.53,0.171,0.834,0.171c0.326,0,0.62-0.069,0.883-0.207c0.262-0.137,0.485-0.333,0.669-0.587s0.326-0.561,0.425-0.92
						s0.149-0.762,0.149-1.206c0-0.381-0.047-0.725-0.14-1.032c-0.093-0.307-0.226-0.568-0.397-0.784s-0.378-0.381-0.622-0.495
						s-0.515-0.171-0.816-0.171c-0.338,0-0.643,0.063-0.914,0.188c-0.271,0.125-0.501,0.295-0.691,0.511s-0.337,0.469-0.438,0.759
						c-0.102,0.29-0.152,0.598-0.152,0.923V172.621z"/>
					<path fill="#4D4D4D" d="M280.043,176.506c-0.254,0.635-0.546,1.105-0.876,1.413c-0.33,0.307-0.729,0.46-1.199,0.46
						c-0.233,0-0.43-0.027-0.591-0.083v-0.762c0.093,0.034,0.188,0.059,0.283,0.076s0.191,0.025,0.289,0.025
						c0.267,0,0.499-0.083,0.695-0.25c0.197-0.167,0.367-0.42,0.511-0.759l0.565-1.333l-2.501-6.468h0.901l1.859,5.148
						c0.025,0.068,0.05,0.145,0.073,0.231c0.023,0.087,0.045,0.173,0.066,0.257h0.032c0.021-0.072,0.041-0.145,0.06-0.219
						c0.019-0.074,0.045-0.155,0.08-0.244l1.974-5.173h0.857L280.043,176.506z"/>
					<path fill="#4D4D4D" d="M289.94,172.202c0,0.436-0.062,0.852-0.185,1.248c-0.123,0.396-0.307,0.744-0.552,1.044
						c-0.246,0.301-0.552,0.54-0.917,0.717s-0.792,0.267-1.279,0.267c-0.491,0-0.924-0.091-1.298-0.273s-0.689-0.446-0.943-0.793
						s-0.445-0.772-0.574-1.276c-0.129-0.503-0.193-1.077-0.193-1.72c0-1.037,0.093-1.902,0.279-2.596
						c0.186-0.694,0.442-1.225,0.768-1.593c0.178-0.203,0.371-0.369,0.578-0.499c0.207-0.129,0.436-0.235,0.686-0.32
						c0.25-0.084,0.522-0.156,0.818-0.216c0.296-0.059,0.62-0.121,0.972-0.184c0.19-0.034,0.377-0.075,0.562-0.124
						c0.184-0.049,0.369-0.126,0.556-0.232v0.8c-0.089,0.059-0.208,0.114-0.355,0.165c-0.148,0.051-0.32,0.093-0.515,0.127
						c-0.211,0.034-0.419,0.069-0.622,0.105c-0.203,0.036-0.396,0.074-0.577,0.114c-0.182,0.04-0.352,0.082-0.508,0.127
						c-0.157,0.044-0.292,0.094-0.406,0.149c-0.377,0.173-0.682,0.5-0.914,0.978c-0.233,0.478-0.381,1.145-0.444,2h0.025
						c0.11-0.186,0.242-0.354,0.396-0.505c0.154-0.15,0.327-0.28,0.518-0.39s0.398-0.195,0.625-0.254s0.467-0.089,0.721-0.089
						c0.448,0,0.846,0.082,1.193,0.245c0.347,0.163,0.638,0.389,0.873,0.679c0.235,0.29,0.413,0.632,0.533,1.025
						S289.94,171.745,289.94,172.202z M289.082,172.291c0-0.394-0.046-0.75-0.14-1.07c-0.093-0.319-0.229-0.591-0.406-0.815
						c-0.178-0.224-0.396-0.397-0.657-0.521c-0.26-0.123-0.558-0.184-0.892-0.184c-0.232,0-0.455,0.033-0.666,0.098
						c-0.212,0.066-0.406,0.16-0.584,0.283s-0.34,0.269-0.486,0.438c-0.146,0.169-0.274,0.36-0.384,0.571
						c0,0.11-0.001,0.235-0.003,0.375s-0.003,0.277-0.003,0.413c0,0.381,0.045,0.747,0.136,1.098s0.226,0.66,0.406,0.927
						s0.406,0.479,0.679,0.638c0.273,0.158,0.591,0.238,0.955,0.238c0.326,0,0.615-0.065,0.867-0.197
						c0.251-0.131,0.465-0.309,0.641-0.533c0.176-0.224,0.309-0.488,0.4-0.79C289.037,172.957,289.082,172.634,289.082,172.291z"/>
				</g>
			</g>
			<g>
				<g>
					<path fill="#4D4D4D" d="M160.837,175.09v-1.714c0.622,0.381,1.285,0.571,1.987,0.571c0.529,0,0.942-0.126,1.241-0.378
						c0.298-0.251,0.448-0.593,0.448-1.025c0-0.901-0.637-1.352-1.911-1.352c-0.47,0-1.011,0.036-1.625,0.108l0.343-5.078h4.818
						v1.638h-3.288l-0.127,1.822c0.326-0.025,0.607-0.038,0.844-0.038c0.936,0,1.667,0.246,2.196,0.736
						c0.529,0.491,0.794,1.151,0.794,1.98c0,0.918-0.315,1.668-0.946,2.25c-0.63,0.582-1.485,0.873-2.564,0.873
						C162.17,175.484,161.434,175.353,160.837,175.09z"/>
					<path fill="#4D4D4D" d="M173.456,166.223v5.738h1.092v1.498h-1.092v1.866h-1.828v-1.866h-3.967v-1.568
						c0.351-0.394,0.715-0.824,1.092-1.292c0.376-0.467,0.74-0.949,1.092-1.444c0.351-0.495,0.678-0.994,0.98-1.495
						c0.303-0.502,0.56-0.981,0.771-1.438H173.456z M169.457,171.961h2.171v-3.18c-0.148,0.275-0.309,0.553-0.482,0.835
						c-0.173,0.281-0.355,0.559-0.546,0.831c-0.19,0.273-0.383,0.538-0.577,0.794C169.828,171.497,169.639,171.737,169.457,171.961z
						"/>
					<path fill="#4D4D4D" d="M181.734,175.325v-5.484c-0.013,0.034-0.034,0.094-0.063,0.181c-0.029,0.086-0.065,0.186-0.107,0.298
						c-0.042,0.112-0.087,0.231-0.134,0.355c-0.046,0.125-0.093,0.245-0.14,0.359l-1.688,4.291h-0.704l-1.79-4.291
						c-0.03-0.072-0.064-0.161-0.105-0.267s-0.082-0.216-0.124-0.33c-0.042-0.114-0.083-0.224-0.121-0.33s-0.069-0.195-0.095-0.267
						v5.484h-0.724v-6.5h1.009l1.848,4.374c0.038,0.089,0.079,0.19,0.124,0.305s0.089,0.229,0.133,0.346
						c0.044,0.117,0.085,0.228,0.121,0.333s0.067,0.193,0.092,0.26c0.021-0.051,0.048-0.125,0.082-0.222
						c0.034-0.097,0.073-0.203,0.118-0.317s0.09-0.23,0.136-0.349c0.047-0.118,0.089-0.229,0.127-0.33l1.759-4.399h1.047v6.5
						H181.734z"/>
					<path fill="#4D4D4D" d="M188.602,168.559c0-0.288-0.043-0.542-0.13-0.765c-0.087-0.222-0.208-0.408-0.365-0.559
						c-0.156-0.15-0.345-0.263-0.564-0.339c-0.22-0.076-0.464-0.114-0.73-0.114c-0.406,0-0.796,0.096-1.171,0.289
						c-0.375,0.193-0.727,0.45-1.057,0.771v-0.901c0.321-0.275,0.673-0.489,1.054-0.641s0.81-0.229,1.288-0.229
						c0.076,0,0.149,0.004,0.219,0.013s0.139,0.021,0.207,0.038c0.313,0.034,0.598,0.113,0.854,0.238
						c0.256,0.125,0.475,0.287,0.657,0.486c0.182,0.199,0.322,0.435,0.422,0.708c0.1,0.273,0.149,0.577,0.149,0.911
						c0,0.39-0.051,0.738-0.152,1.047s-0.247,0.593-0.435,0.854c-0.188,0.26-0.415,0.505-0.679,0.736
						c-0.265,0.23-0.56,0.462-0.886,0.695c-0.364,0.262-0.676,0.494-0.936,0.695c-0.26,0.201-0.476,0.393-0.647,0.575
						s-0.301,0.364-0.39,0.546s-0.146,0.385-0.172,0.609c-0.021,0.059-0.035,0.119-0.041,0.178s-0.01,0.125-0.01,0.197h4.532v0.73
						h-5.389v-0.438c0-0.406,0.047-0.759,0.143-1.057c0.095-0.299,0.244-0.578,0.447-0.838c0.203-0.261,0.464-0.52,0.781-0.778
						s0.698-0.548,1.143-0.87c0.3-0.22,0.567-0.433,0.8-0.638c0.232-0.206,0.427-0.417,0.584-0.635
						c0.156-0.218,0.275-0.45,0.355-0.695C188.562,169.132,188.602,168.859,188.602,168.559z"/>
				</g>
			</g>
		</g>
		<g>
			<g>
				<g>
					<path fill="#4D4D4D" d="M56.327,216.348v9.306h-2v-7.046c-0.11,0.098-0.24,0.189-0.39,0.276
						c-0.15,0.086-0.31,0.165-0.479,0.234c-0.169,0.07-0.345,0.129-0.527,0.178c-0.182,0.049-0.361,0.084-0.539,0.105v-1.688
						c0.521-0.152,1.011-0.347,1.473-0.584c0.461-0.237,0.878-0.497,1.25-0.781H56.327z"/>
					<path fill="#4D4D4D" d="M63.367,225.654l-2.958-3.155h-0.025v3.155h-0.813v-6.5h0.813v3.041h0.025l2.869-3.041h1.061
						l-3.079,3.155l3.25,3.345H63.367z"/>
					<path fill="#4D4D4D" d="M71.422,225.654v-5.484c-0.013,0.034-0.034,0.094-0.063,0.181c-0.03,0.087-0.066,0.187-0.108,0.299
						c-0.042,0.112-0.086,0.23-0.133,0.355c-0.047,0.125-0.093,0.244-0.14,0.358l-1.688,4.291h-0.705l-1.79-4.291
						c-0.029-0.072-0.064-0.161-0.104-0.267c-0.04-0.105-0.082-0.216-0.124-0.33c-0.042-0.114-0.082-0.224-0.12-0.33
						c-0.038-0.105-0.07-0.194-0.096-0.267v5.484h-0.724v-6.5h1.01l1.847,4.374c0.038,0.089,0.08,0.19,0.124,0.305
						s0.089,0.229,0.133,0.346c0.044,0.116,0.084,0.228,0.121,0.333c0.036,0.106,0.066,0.192,0.092,0.26
						c0.021-0.051,0.049-0.125,0.083-0.222c0.034-0.097,0.073-0.203,0.117-0.317s0.09-0.23,0.137-0.349
						c0.046-0.119,0.089-0.229,0.127-0.33l1.758-4.399h1.048v6.5H71.422z"/>
					<path fill="#4D4D4D" d="M78.702,225.654v-3.028h-3.573v3.028h-0.813v-6.5h0.813v2.768h3.573v-2.768h0.813v6.5H78.702z"/>
				</g>
			</g>
			<g>
				<g>
					<path fill="#4D4D4D" d="M105.17,225.419v-1.714c0.622,0.381,1.285,0.571,1.987,0.571c0.529,0,0.942-0.126,1.241-0.377
						c0.298-0.252,0.448-0.594,0.448-1.025c0-0.901-0.637-1.352-1.911-1.352c-0.47,0-1.011,0.036-1.625,0.108l0.343-5.078h4.818
						v1.638h-3.288l-0.127,1.822c0.326-0.025,0.607-0.038,0.844-0.038c0.936,0,1.667,0.246,2.196,0.736
						c0.529,0.491,0.794,1.151,0.794,1.98c0,0.918-0.315,1.668-0.946,2.25c-0.63,0.582-1.485,0.873-2.564,0.873
						C106.503,225.813,105.767,225.681,105.17,225.419z"/>
					<path fill="#4D4D4D" d="M117.091,222.436c0,0.491-0.072,0.943-0.216,1.355c-0.144,0.413-0.35,0.769-0.619,1.066
						c-0.269,0.299-0.592,0.531-0.971,0.698c-0.379,0.167-0.803,0.251-1.272,0.251c-0.373,0-0.699-0.038-0.981-0.114
						s-0.524-0.178-0.727-0.305v-0.8c0.212,0.161,0.461,0.288,0.749,0.381c0.288,0.093,0.605,0.14,0.952,0.14
						c0.317,0,0.61-0.055,0.879-0.165c0.269-0.11,0.501-0.268,0.698-0.473c0.197-0.206,0.353-0.454,0.47-0.746
						s0.181-0.618,0.194-0.978h-2.983v-0.698h2.983c-0.025-0.343-0.093-0.658-0.203-0.946c-0.11-0.288-0.262-0.535-0.454-0.743
						c-0.192-0.207-0.428-0.368-0.705-0.482s-0.596-0.171-0.956-0.171c-0.321,0-0.616,0.042-0.885,0.124
						c-0.269,0.083-0.499,0.192-0.689,0.327v-0.8c0.203-0.105,0.447-0.191,0.73-0.257c0.283-0.066,0.575-0.099,0.876-0.099
						c0.491,0,0.93,0.078,1.317,0.235s0.715,0.382,0.984,0.676c0.269,0.294,0.474,0.653,0.616,1.079
						C117.021,221.417,117.091,221.898,117.091,222.436z"/>
					<path fill="#4D4D4D" d="M120.392,219.865v5.789h-0.813v-5.789h-1.955v-0.711h4.717v0.711H120.392z"/>
					<path fill="#4D4D4D" d="M127.305,225.654v-1.155h-0.025c-0.212,0.415-0.501,0.736-0.867,0.965s-0.78,0.343-1.241,0.343
						c-0.313,0-0.596-0.044-0.848-0.133s-0.466-0.215-0.641-0.377c-0.175-0.163-0.311-0.359-0.406-0.587s-0.143-0.48-0.143-0.755
						c0-0.588,0.182-1.057,0.546-1.406c0.364-0.349,0.914-0.576,1.65-0.682l1.975-0.286c0-1.248-0.485-1.873-1.454-1.873
						c-0.757,0-1.46,0.277-2.107,0.832v-0.889c0.136-0.097,0.289-0.185,0.46-0.264c0.171-0.078,0.352-0.146,0.542-0.203
						c0.19-0.057,0.387-0.102,0.587-0.133c0.201-0.032,0.397-0.048,0.587-0.048c0.724,0,1.271,0.203,1.641,0.609
						s0.556,1.012,0.556,1.815v4.228H127.305z M125.629,222.499c-0.292,0.042-0.542,0.095-0.749,0.159
						c-0.208,0.063-0.379,0.149-0.515,0.257c-0.135,0.108-0.234,0.241-0.298,0.4c-0.063,0.158-0.096,0.354-0.096,0.587
						c0,0.174,0.031,0.334,0.092,0.482c0.061,0.148,0.15,0.276,0.267,0.384c0.117,0.108,0.258,0.192,0.425,0.251
						c0.167,0.06,0.356,0.089,0.568,0.089c0.288,0,0.552-0.055,0.793-0.165c0.241-0.11,0.45-0.262,0.625-0.457
						c0.175-0.194,0.313-0.427,0.413-0.698c0.1-0.271,0.149-0.565,0.149-0.882v-0.641L125.629,222.499z"/>
					<path fill="#4D4D4D" d="M137.01,225.654l-2.983-3.199h-0.025v3.199h-0.787v-3.199h-0.025l-2.983,3.199h-1.104l3.237-3.339
						l-3.085-3.161h1.041l2.895,3.072h0.025v-3.072h0.787v3.072h0.025l2.901-3.072h1.047l-3.098,3.161l3.244,3.339H137.01z"/>
				</g>
			</g>
			<g>
				<g>
					<path fill="#4D4D4D" d="M212.86,223.991h3.859v1.663h-6.056v-0.686c0-0.465,0.079-0.883,0.235-1.254
						c0.156-0.37,0.353-0.702,0.59-0.996c0.237-0.294,0.496-0.555,0.778-0.781c0.282-0.226,0.549-0.43,0.803-0.612
						c0.267-0.19,0.5-0.372,0.701-0.546c0.201-0.173,0.37-0.346,0.508-0.518c0.138-0.171,0.24-0.345,0.308-0.521
						c0.068-0.175,0.102-0.362,0.102-0.562c0-0.389-0.11-0.684-0.33-0.882c-0.22-0.199-0.556-0.298-1.009-0.298
						c-0.783,0-1.532,0.311-2.247,0.933v-1.765c0.791-0.512,1.684-0.768,2.679-0.768c0.461,0,0.875,0.061,1.241,0.181
						c0.366,0.121,0.676,0.293,0.93,0.518c0.254,0.225,0.447,0.496,0.581,0.815c0.133,0.32,0.2,0.676,0.2,1.07
						c0,0.419-0.064,0.792-0.193,1.117s-0.301,0.622-0.514,0.889s-0.46,0.511-0.74,0.733c-0.279,0.223-0.569,0.438-0.869,0.645
						c-0.203,0.144-0.399,0.287-0.587,0.429c-0.188,0.142-0.354,0.281-0.499,0.419c-0.144,0.137-0.258,0.271-0.343,0.403
						C212.902,223.748,212.86,223.873,212.86,223.991z"/>
					<path fill="#4D4D4D" d="M226.482,216.348v9.306h-1.999v-7.046c-0.11,0.098-0.24,0.189-0.391,0.276
						c-0.15,0.086-0.31,0.165-0.479,0.234c-0.169,0.07-0.345,0.129-0.526,0.178c-0.182,0.049-0.362,0.084-0.54,0.105v-1.688
						c0.521-0.152,1.012-0.347,1.473-0.584c0.461-0.237,0.878-0.497,1.251-0.781H226.482z"/>
					<path fill="#4D4D4D" d="M231.402,223.991h3.859v1.663h-6.056v-0.686c0-0.465,0.078-0.883,0.234-1.254
						c0.157-0.37,0.354-0.702,0.591-0.996c0.237-0.294,0.496-0.555,0.777-0.781c0.281-0.226,0.549-0.43,0.803-0.612
						c0.267-0.19,0.501-0.372,0.702-0.546c0.201-0.173,0.371-0.346,0.508-0.518c0.137-0.171,0.24-0.345,0.308-0.521
						c0.067-0.175,0.102-0.362,0.102-0.562c0-0.389-0.11-0.684-0.33-0.882c-0.22-0.199-0.557-0.298-1.01-0.298
						c-0.783,0-1.532,0.311-2.247,0.933v-1.765c0.792-0.512,1.685-0.768,2.679-0.768c0.461,0,0.875,0.061,1.241,0.181
						c0.366,0.121,0.676,0.293,0.93,0.518c0.254,0.225,0.448,0.496,0.581,0.815c0.133,0.32,0.2,0.676,0.2,1.07
						c0,0.419-0.064,0.792-0.194,1.117s-0.3,0.622-0.514,0.889s-0.46,0.511-0.739,0.733c-0.279,0.223-0.569,0.438-0.87,0.645
						c-0.203,0.144-0.398,0.287-0.587,0.429c-0.188,0.142-0.354,0.281-0.498,0.419c-0.144,0.137-0.258,0.271-0.343,0.403
						C231.444,223.748,231.402,223.873,231.402,223.991z"/>
					<path fill="#4D4D4D" d="M237.057,225.419v-1.714c0.622,0.381,1.285,0.571,1.987,0.571c0.529,0,0.942-0.126,1.241-0.377
						c0.298-0.252,0.448-0.594,0.448-1.025c0-0.901-0.637-1.352-1.911-1.352c-0.47,0-1.011,0.036-1.625,0.108l0.343-5.078h4.818
						v1.638h-3.288l-0.127,1.822c0.326-0.025,0.607-0.038,0.844-0.038c0.936,0,1.667,0.246,2.196,0.736
						c0.529,0.491,0.794,1.151,0.794,1.98c0,0.918-0.315,1.668-0.946,2.25c-0.63,0.582-1.485,0.873-2.564,0.873
						C238.39,225.813,237.654,225.681,237.057,225.419z"/>
					<path fill="#4D4D4D" d="M250.908,225.813c-2.167,0-3.25-1.521-3.25-4.564c0-1.578,0.293-2.781,0.879-3.608
						c0.586-0.828,1.436-1.241,2.548-1.241c2.116,0,3.174,1.547,3.174,4.64c0,1.541-0.289,2.721-0.866,3.542
						S251.987,225.813,250.908,225.813z M250.996,217.929c-0.867,0-1.301,1.09-1.301,3.269c0,2.053,0.425,3.079,1.275,3.079
						c0.83,0,1.244-1.058,1.244-3.174S251.809,217.929,250.996,217.929z"/>
					<path fill="#4D4D4D" d="M258.385,225.813c-2.167,0-3.25-1.521-3.25-4.564c0-1.578,0.293-2.781,0.879-3.608
						c0.586-0.828,1.436-1.241,2.548-1.241c2.116,0,3.174,1.547,3.174,4.64c0,1.541-0.289,2.721-0.866,3.542
						S259.464,225.813,258.385,225.813z M258.474,217.929c-0.867,0-1.301,1.09-1.301,3.269c0,2.053,0.425,3.079,1.275,3.079
						c0.83,0,1.244-1.058,1.244-3.174S259.286,217.929,258.474,217.929z"/>
					<path fill="#4D4D4D" d="M265.863,225.813c-2.167,0-3.25-1.521-3.25-4.564c0-1.578,0.293-2.781,0.879-3.608
						c0.586-0.828,1.436-1.241,2.548-1.241c2.116,0,3.174,1.547,3.174,4.64c0,1.541-0.289,2.721-0.866,3.542
						S266.942,225.813,265.863,225.813z M265.952,217.929c-0.867,0-1.301,1.09-1.301,3.269c0,2.053,0.425,3.079,1.275,3.079
						c0.83,0,1.244-1.058,1.244-3.174S266.764,217.929,265.952,217.929z"/>
					<path fill="#4D4D4D" d="M271.512,224.607v4.037H270.7v-9.49h0.813v1.244h0.025c0.241-0.453,0.564-0.799,0.968-1.038
						c0.404-0.239,0.86-0.358,1.368-0.358c0.415,0,0.786,0.075,1.114,0.226c0.328,0.15,0.605,0.363,0.832,0.638
						c0.226,0.275,0.4,0.609,0.521,1.003s0.181,0.836,0.181,1.327c0,0.538-0.068,1.027-0.203,1.469
						c-0.136,0.442-0.33,0.822-0.584,1.14s-0.562,0.564-0.924,0.739c-0.362,0.176-0.769,0.264-1.222,0.264
						c-0.914,0-1.598-0.4-2.051-1.2H271.512z M271.512,222.95c0,0.296,0.05,0.574,0.149,0.835c0.1,0.26,0.238,0.488,0.416,0.686
						c0.178,0.196,0.393,0.352,0.644,0.466s0.53,0.171,0.834,0.171c0.326,0,0.62-0.069,0.883-0.206
						c0.262-0.138,0.485-0.333,0.669-0.587s0.326-0.561,0.425-0.92c0.1-0.359,0.149-0.762,0.149-1.206
						c0-0.381-0.047-0.725-0.14-1.031c-0.093-0.307-0.226-0.568-0.397-0.784s-0.378-0.381-0.622-0.495s-0.515-0.171-0.816-0.171
						c-0.338,0-0.643,0.063-0.914,0.187c-0.271,0.125-0.501,0.295-0.691,0.511s-0.337,0.469-0.438,0.758
						c-0.102,0.29-0.152,0.598-0.152,0.924V222.95z"/>
					<path fill="#4D4D4D" d="M280.043,226.835c-0.254,0.635-0.546,1.105-0.876,1.412c-0.33,0.307-0.729,0.46-1.199,0.46
						c-0.233,0-0.43-0.028-0.591-0.083v-0.762c0.093,0.034,0.188,0.059,0.283,0.076c0.095,0.017,0.191,0.025,0.289,0.025
						c0.267,0,0.499-0.083,0.695-0.251c0.197-0.167,0.367-0.42,0.511-0.758l0.565-1.333l-2.501-6.468h0.901l1.859,5.148
						c0.025,0.068,0.05,0.145,0.073,0.232c0.023,0.086,0.045,0.172,0.066,0.257h0.032c0.021-0.072,0.041-0.145,0.06-0.219
						c0.019-0.074,0.045-0.156,0.08-0.245l1.974-5.173h0.857L280.043,226.835z"/>
					<path fill="#4D4D4D" d="M289.94,222.531c0,0.436-0.062,0.852-0.185,1.247c-0.123,0.396-0.307,0.744-0.552,1.044
						c-0.246,0.3-0.552,0.54-0.917,0.717s-0.792,0.267-1.279,0.267c-0.491,0-0.924-0.091-1.298-0.273s-0.689-0.446-0.943-0.793
						c-0.254-0.347-0.445-0.772-0.574-1.276s-0.193-1.077-0.193-1.72c0-1.037,0.093-1.902,0.279-2.596
						c0.186-0.694,0.442-1.225,0.768-1.593c0.178-0.203,0.371-0.369,0.578-0.498c0.207-0.129,0.436-0.236,0.686-0.321
						c0.25-0.084,0.522-0.157,0.818-0.216c0.296-0.059,0.62-0.121,0.972-0.184c0.19-0.034,0.377-0.075,0.562-0.124
						c0.184-0.048,0.369-0.125,0.556-0.231v0.8c-0.089,0.06-0.208,0.114-0.355,0.165c-0.148,0.051-0.32,0.093-0.515,0.127
						c-0.211,0.034-0.419,0.069-0.622,0.104c-0.203,0.036-0.396,0.074-0.577,0.114c-0.182,0.041-0.352,0.083-0.508,0.127
						c-0.157,0.045-0.292,0.095-0.406,0.149c-0.377,0.174-0.682,0.5-0.914,0.978c-0.233,0.479-0.381,1.145-0.444,2h0.025
						c0.11-0.186,0.242-0.354,0.396-0.504c0.154-0.15,0.327-0.28,0.518-0.391c0.19-0.11,0.398-0.194,0.625-0.254
						c0.227-0.059,0.467-0.089,0.721-0.089c0.448,0,0.846,0.082,1.193,0.244c0.347,0.163,0.638,0.39,0.873,0.68
						c0.235,0.29,0.413,0.631,0.533,1.025S289.94,222.074,289.94,222.531z M289.082,222.62c0-0.394-0.046-0.75-0.14-1.069
						c-0.093-0.32-0.229-0.592-0.406-0.816s-0.396-0.398-0.657-0.521s-0.558-0.184-0.892-0.184c-0.232,0-0.455,0.033-0.666,0.099
						c-0.212,0.065-0.406,0.16-0.584,0.282c-0.178,0.123-0.34,0.269-0.486,0.438s-0.274,0.36-0.384,0.571
						c0,0.11-0.001,0.235-0.003,0.375s-0.003,0.277-0.003,0.413c0,0.381,0.045,0.747,0.136,1.098
						c0.091,0.352,0.226,0.66,0.406,0.927s0.406,0.479,0.679,0.638c0.273,0.159,0.591,0.238,0.955,0.238
						c0.326,0,0.615-0.065,0.867-0.197s0.465-0.309,0.641-0.533s0.309-0.488,0.4-0.791
						C289.037,223.285,289.082,222.963,289.082,222.62z"/>
				</g>
			</g>
			<g>
				<g>
					<path fill="#4D4D4D" d="M160.679,225.356v-1.746c0.609,0.444,1.32,0.667,2.133,0.667c0.512,0,0.911-0.11,1.196-0.33
						s0.429-0.527,0.429-0.92c0-0.406-0.177-0.719-0.53-0.939c-0.354-0.22-0.839-0.33-1.457-0.33h-0.844v-1.536h0.78
						c1.185,0,1.777-0.394,1.777-1.181c0-0.74-0.455-1.111-1.364-1.111c-0.609,0-1.202,0.197-1.777,0.59v-1.638
						c0.639-0.321,1.384-0.482,2.234-0.482c0.931,0,1.655,0.209,2.174,0.628s0.777,0.963,0.777,1.631
						c0,1.189-0.603,1.934-1.809,2.234v0.032c0.643,0.081,1.151,0.314,1.523,0.702c0.372,0.387,0.559,0.862,0.559,1.425
						c0,0.851-0.312,1.523-0.934,2.019s-1.481,0.743-2.577,0.743C162.031,225.813,161.267,225.66,160.679,225.356z"/>
					<path fill="#4D4D4D" d="M167.921,223.204c0-0.254,0.037-0.498,0.111-0.733c0.074-0.234,0.185-0.453,0.333-0.653
						c0.148-0.201,0.333-0.381,0.556-0.54c0.222-0.158,0.483-0.289,0.784-0.39c-0.461-0.229-0.819-0.521-1.073-0.879
						c-0.254-0.357-0.381-0.754-0.381-1.19c0-0.347,0.073-0.668,0.219-0.965s0.348-0.552,0.606-0.768
						c0.258-0.216,0.566-0.384,0.924-0.505c0.357-0.12,0.748-0.181,1.171-0.181c0.432,0,0.828,0.061,1.188,0.181
						c0.359,0.121,0.669,0.288,0.93,0.502c0.26,0.213,0.462,0.466,0.606,0.758c0.144,0.292,0.216,0.609,0.216,0.952
						c0,0.432-0.136,0.824-0.406,1.177c-0.271,0.354-0.646,0.645-1.124,0.873c0.296,0.102,0.557,0.231,0.781,0.391
						c0.224,0.158,0.412,0.339,0.564,0.542s0.267,0.424,0.343,0.664c0.076,0.239,0.114,0.487,0.114,0.746
						c0,0.389-0.078,0.744-0.234,1.063c-0.157,0.32-0.378,0.595-0.664,0.825c-0.286,0.231-0.626,0.41-1.022,0.537
						s-0.833,0.19-1.311,0.19c-0.47,0-0.902-0.063-1.298-0.187c-0.396-0.125-0.736-0.302-1.022-0.53s-0.509-0.502-0.67-0.822
						C168.002,223.941,167.921,223.589,167.921,223.204z M169.82,223.032c0,0.208,0.031,0.394,0.095,0.559s0.155,0.305,0.273,0.419
						c0.118,0.114,0.259,0.202,0.422,0.263c0.163,0.062,0.346,0.092,0.549,0.092c0.195,0,0.374-0.032,0.537-0.095
						s0.304-0.152,0.422-0.267c0.118-0.114,0.211-0.254,0.279-0.419c0.067-0.165,0.102-0.349,0.102-0.552
						c0-0.182-0.032-0.355-0.096-0.521s-0.154-0.308-0.272-0.428c-0.119-0.121-0.26-0.217-0.422-0.289
						c-0.163-0.072-0.346-0.108-0.549-0.108c-0.19,0-0.368,0.033-0.533,0.098c-0.165,0.066-0.307,0.159-0.425,0.279
						c-0.119,0.121-0.212,0.264-0.279,0.429C169.853,222.658,169.82,222.838,169.82,223.032z M170.099,219.002
						c0,0.161,0.028,0.312,0.085,0.454c0.057,0.142,0.134,0.264,0.232,0.368c0.097,0.104,0.212,0.185,0.346,0.244
						c0.133,0.06,0.274,0.089,0.422,0.089c0.152,0,0.294-0.029,0.426-0.089c0.131-0.059,0.246-0.142,0.346-0.248
						s0.178-0.229,0.235-0.368s0.085-0.29,0.085-0.451c0-0.165-0.027-0.318-0.082-0.46c-0.055-0.142-0.133-0.265-0.232-0.368
						c-0.099-0.104-0.216-0.186-0.349-0.245s-0.276-0.089-0.429-0.089c-0.161,0-0.308,0.031-0.441,0.092
						c-0.133,0.061-0.248,0.144-0.343,0.247c-0.095,0.104-0.169,0.227-0.222,0.368C170.125,218.69,170.099,218.841,170.099,219.002z
						"/>
					<path fill="#4D4D4D" d="M181.734,225.654v-5.484c-0.013,0.034-0.034,0.094-0.063,0.181c-0.029,0.087-0.065,0.187-0.107,0.299
						c-0.042,0.112-0.087,0.23-0.134,0.355c-0.046,0.125-0.093,0.244-0.14,0.358l-1.688,4.291h-0.704l-1.79-4.291
						c-0.03-0.072-0.064-0.161-0.105-0.267c-0.041-0.105-0.082-0.216-0.124-0.33c-0.042-0.114-0.083-0.224-0.121-0.33
						c-0.038-0.105-0.069-0.194-0.095-0.267v5.484h-0.724v-6.5h1.009l1.848,4.374c0.038,0.089,0.079,0.19,0.124,0.305
						s0.089,0.229,0.133,0.346c0.044,0.116,0.085,0.228,0.121,0.333c0.036,0.106,0.067,0.192,0.092,0.26
						c0.021-0.051,0.048-0.125,0.082-0.222c0.034-0.097,0.073-0.203,0.118-0.317s0.09-0.23,0.136-0.349
						c0.047-0.119,0.089-0.229,0.127-0.33l1.759-4.399h1.047v6.5H181.734z"/>
					<path fill="#4D4D4D" d="M188.602,218.887c0-0.288-0.043-0.543-0.13-0.765c-0.087-0.223-0.208-0.409-0.365-0.559
						c-0.156-0.15-0.345-0.264-0.564-0.34c-0.22-0.076-0.464-0.114-0.73-0.114c-0.406,0-0.796,0.096-1.171,0.289
						c-0.375,0.192-0.727,0.449-1.057,0.771v-0.901c0.321-0.275,0.673-0.489,1.054-0.641s0.81-0.229,1.288-0.229
						c0.076,0,0.149,0.004,0.219,0.013c0.07,0.009,0.139,0.021,0.207,0.038c0.313,0.034,0.598,0.113,0.854,0.238
						c0.256,0.125,0.475,0.287,0.657,0.485c0.182,0.199,0.322,0.435,0.422,0.708c0.1,0.272,0.149,0.576,0.149,0.911
						c0,0.389-0.051,0.739-0.152,1.047c-0.102,0.309-0.247,0.594-0.435,0.854c-0.188,0.261-0.415,0.506-0.679,0.736
						c-0.265,0.231-0.56,0.463-0.886,0.695c-0.364,0.263-0.676,0.494-0.936,0.695c-0.26,0.201-0.476,0.393-0.647,0.574
						c-0.171,0.182-0.301,0.364-0.39,0.546c-0.089,0.182-0.146,0.385-0.172,0.609c-0.021,0.06-0.035,0.119-0.041,0.178
						c-0.006,0.06-0.01,0.125-0.01,0.197h4.532v0.73h-5.389v-0.438c0-0.406,0.047-0.758,0.143-1.057
						c0.095-0.298,0.244-0.577,0.447-0.838c0.203-0.26,0.464-0.519,0.781-0.777c0.317-0.258,0.698-0.548,1.143-0.87
						c0.3-0.22,0.567-0.433,0.8-0.638c0.232-0.205,0.427-0.417,0.584-0.635c0.156-0.218,0.275-0.449,0.355-0.695
						C188.562,219.461,188.602,219.188,188.602,218.887z"/>
				</g>
			</g>
		</g>
	</g>
</g>
</svg>
