<?xml version="1.0" encoding="utf-8"?>
<!-- Generator: Adobe Illustrator 17.0.1, SVG Export Plug-In . SVG Version: 6.00 Build 0)  -->
<!DOCTYPE svg PUBLIC "-//W3C//DTD SVG 1.1//EN" "http://www.w3.org/Graphics/SVG/1.1/DTD/svg11.dtd">
<svg version="1.1" xmlns="http://www.w3.org/2000/svg" xmlns:xlink="http://www.w3.org/1999/xlink" x="0px" y="0px"
	 width="353.098px" height="56.728px" viewBox="0 0 353.098 56.728" enable-background="new 0 0 353.098 56.728"
	 xml:space="preserve">
<g id="back">
</g>
<g id="text">
</g>
<g id="img">
</g>
<g id="main">
	<g id="enter">
	</g>
	<g>
		<g>
			<polygon fill="#00B8E4" points="271.39,21.069 263.601,34.856 255.812,21.069 			"/>
		</g>
		<g>
			<path fill="#FFFFFF" d="M292.354,21.069v-9.354h2.558c0.387,0,0.736,0.053,1.047,0.156c0.311,0.104,0.576,0.252,0.796,0.44
				c0.22,0.189,0.388,0.417,0.506,0.682c0.117,0.266,0.176,0.557,0.176,0.874c0,0.271-0.037,0.522-0.111,0.757
				c-0.073,0.235-0.18,0.449-0.319,0.643s-0.31,0.361-0.512,0.503c-0.202,0.141-0.432,0.253-0.688,0.336v0.025
				c0.313,0.03,0.598,0.106,0.854,0.229s0.477,0.28,0.659,0.477c0.183,0.195,0.323,0.425,0.424,0.688
				c0.1,0.264,0.149,0.552,0.149,0.864c0,0.396-0.071,0.758-0.215,1.087c-0.144,0.328-0.345,0.61-0.604,0.848
				s-0.566,0.421-0.923,0.551c-0.356,0.131-0.75,0.196-1.181,0.196H292.354z M293.222,12.511v3.32h1.213
				c0.317,0,0.604-0.041,0.861-0.124c0.257-0.082,0.477-0.202,0.659-0.358c0.183-0.157,0.322-0.346,0.42-0.567
				c0.099-0.223,0.147-0.473,0.147-0.751c0-1.013-0.631-1.52-1.892-1.52H293.222z M293.222,16.614v3.666h1.611
				c0.691,0,1.223-0.162,1.595-0.486s0.558-0.784,0.558-1.38c0-1.2-0.815-1.8-2.446-1.8H293.222z"/>
			<path fill="#FFFFFF" d="M304.911,21.069l-2.152-3.575c-0.048-0.082-0.098-0.173-0.15-0.271c-0.052-0.098-0.096-0.192-0.13-0.283
				h-0.033c-0.043,0.087-0.088,0.176-0.134,0.267c-0.045,0.092-0.099,0.188-0.159,0.287l-2.205,3.575h-1.063l3.047-4.71
				l-2.831-4.645h1.057l2.002,3.405c0.062,0.1,0.119,0.203,0.173,0.31c0.055,0.106,0.11,0.217,0.167,0.329h0.025
				c0.062-0.126,0.121-0.243,0.18-0.352s0.116-0.209,0.173-0.3l2.035-3.393h1.005l-2.87,4.632l2.922,4.723H304.911z"/>
			<path fill="#FFFFFF" d="M311.16,21.232c-0.674,0-1.28-0.123-1.819-0.369c-0.539-0.245-0.997-0.581-1.373-1.008
				c-0.377-0.426-0.666-0.927-0.868-1.503s-0.303-1.195-0.303-1.856c0-0.73,0.101-1.399,0.303-2.006s0.497-1.126,0.884-1.559
				c0.388-0.433,0.861-0.77,1.423-1.012c0.561-0.241,1.2-0.361,1.917-0.361c0.661,0,1.255,0.118,1.781,0.355
				s0.974,0.565,1.344,0.984c0.369,0.42,0.653,0.917,0.852,1.491c0.197,0.574,0.297,1.198,0.297,1.872
				c0,0.709-0.098,1.366-0.291,1.973c-0.193,0.607-0.479,1.132-0.854,1.576c-0.376,0.443-0.839,0.791-1.39,1.043
				C312.512,21.106,311.878,21.232,311.16,21.232z M311.232,12.348c-0.565,0-1.066,0.107-1.504,0.323
				c-0.437,0.215-0.806,0.506-1.105,0.874c-0.3,0.367-0.527,0.798-0.682,1.291c-0.154,0.494-0.233,1.019-0.238,1.575
				c-0.004,0.531,0.064,1.039,0.206,1.523c0.141,0.485,0.354,0.913,0.639,1.285s0.645,0.669,1.08,0.891
				c0.435,0.222,0.943,0.333,1.526,0.333c0.582,0,1.095-0.102,1.536-0.304s0.81-0.482,1.105-0.842
				c0.296-0.358,0.519-0.786,0.669-1.281c0.149-0.496,0.225-1.037,0.225-1.625c0-0.548-0.066-1.067-0.199-1.559
				s-0.339-0.921-0.619-1.288c-0.28-0.368-0.639-0.659-1.073-0.874C312.363,12.455,311.841,12.348,311.232,12.348z"/>
			<path fill="#FFFFFF" d="M324.121,23.574v-2.505h-6.985v2.505h-0.835V20.28h0.743c0.209-0.392,0.41-0.813,0.604-1.263
				s0.377-0.917,0.551-1.399s0.334-0.976,0.479-1.48s0.272-1.009,0.379-1.514c0.106-0.504,0.193-1.002,0.261-1.493
				c0.067-0.492,0.107-0.964,0.12-1.416h4.215v8.565h1.284v3.294H324.121z M322.784,12.511h-2.583
				c-0.018,0.348-0.059,0.731-0.124,1.151s-0.15,0.858-0.254,1.317c-0.104,0.459-0.225,0.927-0.359,1.402
				c-0.135,0.477-0.281,0.944-0.44,1.403c-0.158,0.458-0.325,0.899-0.499,1.324c-0.174,0.424-0.352,0.813-0.534,1.171h4.794V12.511z
				"/>
			<path fill="#FFFFFF" d="M330.097,21.069v-9.354h2.558c0.387,0,0.736,0.053,1.047,0.156c0.311,0.104,0.576,0.252,0.796,0.44
				c0.22,0.189,0.388,0.417,0.506,0.682c0.117,0.266,0.176,0.557,0.176,0.874c0,0.271-0.037,0.522-0.111,0.757
				c-0.073,0.235-0.18,0.449-0.319,0.643s-0.31,0.361-0.512,0.503c-0.202,0.141-0.432,0.253-0.688,0.336v0.025
				c0.313,0.03,0.598,0.106,0.854,0.229s0.477,0.28,0.659,0.477c0.183,0.195,0.323,0.425,0.424,0.688
				c0.1,0.264,0.149,0.552,0.149,0.864c0,0.396-0.071,0.758-0.215,1.087c-0.144,0.328-0.345,0.61-0.604,0.848
				s-0.566,0.421-0.923,0.551c-0.356,0.131-0.75,0.196-1.181,0.196H330.097z M330.965,12.511v3.32h1.213
				c0.317,0,0.604-0.041,0.861-0.124c0.257-0.082,0.477-0.202,0.659-0.358c0.183-0.157,0.322-0.346,0.42-0.567
				c0.099-0.223,0.147-0.473,0.147-0.751c0-1.013-0.631-1.52-1.892-1.52H330.965z M330.965,16.614v3.666h1.611
				c0.691,0,1.223-0.162,1.595-0.486s0.558-0.784,0.558-1.38c0-1.2-0.815-1.8-2.446-1.8H330.965z"/>
			<path fill="#FFFFFF" d="M297.253,42.444l-3.803-4.377c-0.104-0.126-0.172-0.216-0.202-0.268h-0.026v4.645h-0.868V33.09h0.868
				v4.403h0.026c0.03-0.048,0.063-0.094,0.098-0.137c0.034-0.044,0.071-0.09,0.11-0.138l3.641-4.129h1.102l-4.057,4.514l4.324,4.841
				H297.253z"/>
			<path fill="#FFFFFF" d="M299.744,42.444V33.09h2.558c0.387,0,0.736,0.053,1.047,0.156c0.311,0.104,0.576,0.252,0.796,0.44
				c0.22,0.189,0.388,0.417,0.506,0.682c0.117,0.266,0.176,0.557,0.176,0.874c0,0.271-0.037,0.522-0.111,0.757
				c-0.073,0.235-0.18,0.449-0.319,0.643s-0.31,0.361-0.512,0.503c-0.202,0.141-0.432,0.253-0.688,0.336v0.025
				c0.313,0.03,0.598,0.106,0.854,0.229s0.477,0.28,0.659,0.477c0.183,0.195,0.323,0.425,0.424,0.688
				c0.1,0.264,0.149,0.552,0.149,0.864c0,0.396-0.071,0.758-0.215,1.087c-0.144,0.328-0.345,0.61-0.604,0.848
				s-0.566,0.421-0.923,0.551c-0.356,0.131-0.75,0.196-1.181,0.196H299.744z M300.612,33.886v3.32h1.213
				c0.317,0,0.604-0.041,0.861-0.124c0.257-0.082,0.477-0.202,0.659-0.358c0.183-0.157,0.322-0.346,0.42-0.567
				c0.099-0.223,0.147-0.473,0.147-0.751c0-1.013-0.631-1.52-1.892-1.52H300.612z M300.612,37.989v3.666h1.611
				c0.691,0,1.223-0.162,1.595-0.486s0.558-0.784,0.558-1.38c0-1.2-0.815-1.8-2.446-1.8H300.612z"/>
			<path fill="#FFFFFF" d="M313.268,42.444l-1.031-2.766h-4.012l-1.004,2.766h-0.966l3.562-9.354h0.874l3.542,9.354H313.268z
				 M310.417,34.728c-0.03-0.083-0.063-0.179-0.095-0.287s-0.06-0.232-0.082-0.372h-0.025c-0.026,0.14-0.056,0.264-0.088,0.372
				c-0.033,0.108-0.064,0.204-0.095,0.287l-1.514,4.161h3.425L310.417,34.728z"/>
			<path fill="#FFFFFF" d="M316.574,38.804v3.641h-0.868V33.09h2.414c0.491,0,0.926,0.061,1.305,0.183
				c0.378,0.122,0.698,0.298,0.959,0.528s0.459,0.514,0.594,0.849c0.135,0.334,0.202,0.717,0.202,1.147
				c0,0.435-0.076,0.836-0.229,1.204c-0.152,0.367-0.371,0.685-0.655,0.952c-0.285,0.268-0.632,0.476-1.041,0.626
				c-0.408,0.15-0.872,0.225-1.39,0.225H316.574z M316.574,33.886v4.123h1.239c0.805,0,1.415-0.188,1.833-0.562
				c0.417-0.374,0.626-0.902,0.626-1.585c0-1.317-0.77-1.977-2.309-1.977H316.574z"/>
			<path fill="#FFFFFF" d="M325.752,33.886v8.559h-0.867v-8.559h-2.694V33.09h6.262v0.796H325.752z"/>
			<path fill="#FFFFFF" d="M336.425,42.444v-7.039c0-0.213,0.003-0.411,0.01-0.597c0.006-0.185,0.016-0.338,0.029-0.46h-0.033
				c-0.039,0.092-0.092,0.192-0.159,0.304c-0.067,0.11-0.128,0.205-0.18,0.283l-5.192,7.509h-0.907V33.09h0.868v6.954
				c0,0.23-0.004,0.438-0.01,0.626c-0.007,0.187-0.017,0.337-0.029,0.45h0.025c0.048-0.087,0.107-0.187,0.177-0.297
				c0.069-0.111,0.139-0.217,0.209-0.316l5.113-7.417h0.953v9.354H336.425z"/>
			<path fill="#FFFFFF" d="M340.6,38.804v3.641h-0.868V33.09h2.414c0.491,0,0.926,0.061,1.305,0.183
				c0.378,0.122,0.698,0.298,0.959,0.528s0.459,0.514,0.594,0.849c0.135,0.334,0.202,0.717,0.202,1.147
				c0,0.435-0.076,0.836-0.229,1.204c-0.152,0.367-0.371,0.685-0.655,0.952c-0.285,0.268-0.632,0.476-1.041,0.626
				c-0.408,0.15-0.872,0.225-1.39,0.225H340.6z M340.6,33.886v4.123h1.239c0.805,0,1.415-0.188,1.833-0.562
				c0.417-0.374,0.626-0.902,0.626-1.585c0-1.317-0.77-1.977-2.309-1.977H340.6z"/>
			<path fill="#FFFFFF" d="M350.169,39.802c-0.209,0.479-0.417,0.895-0.623,1.246c-0.207,0.353-0.424,0.644-0.652,0.874
				s-0.473,0.402-0.733,0.516c-0.262,0.113-0.549,0.17-0.861,0.17c-0.209,0-0.402-0.018-0.581-0.053
				c-0.178-0.034-0.337-0.082-0.476-0.144v-0.899c0.165,0.096,0.336,0.17,0.512,0.225s0.343,0.082,0.499,0.082
				c0.213,0,0.408-0.042,0.584-0.124c0.176-0.083,0.343-0.207,0.499-0.372s0.309-0.37,0.456-0.613
				c0.148-0.243,0.301-0.528,0.457-0.854l-3.131-6.765h0.984l2.29,5.146c0.035,0.074,0.079,0.178,0.134,0.311
				s0.112,0.272,0.173,0.42h0.02c0.048-0.126,0.098-0.25,0.15-0.371c0.052-0.122,0.1-0.232,0.144-0.333l2.159-5.173h0.926
				L350.169,39.802z"/>
		</g>
		<g>
			<path fill="#FFFFFF" d="M52.53,9.511l-3.816-4.377c-0.039-0.043-0.076-0.087-0.111-0.13c-0.034-0.044-0.064-0.09-0.091-0.138
				h-0.033v4.645h-0.835V4.866h-0.025c-0.035,0.048-0.068,0.095-0.102,0.141c-0.032,0.046-0.066,0.088-0.101,0.127l-3.823,4.377
				h-1.193l4.318-4.833l-4.051-4.521h1.096l3.646,4.115c0.035,0.04,0.07,0.083,0.107,0.131s0.071,0.096,0.102,0.144h0.025v-4.39
				h0.835v4.39h0.033c0.034-0.057,0.07-0.107,0.107-0.153s0.07-0.086,0.102-0.121l3.64-4.115h1.089l-4.044,4.521l4.312,4.833H52.53z
				"/>
			<path fill="#FFFFFF" d="M61.362,9.511V2.473c0-0.213,0.003-0.412,0.01-0.597c0.006-0.186,0.016-0.339,0.029-0.46h-0.033
				c-0.039,0.091-0.092,0.192-0.159,0.303c-0.067,0.111-0.128,0.206-0.18,0.284l-5.192,7.508H54.93V0.157h0.868V7.11
				c0,0.23-0.004,0.439-0.01,0.626c-0.007,0.188-0.017,0.338-0.029,0.45h0.025c0.048-0.087,0.107-0.186,0.177-0.297
				c0.069-0.11,0.139-0.216,0.209-0.316l5.113-7.416h0.953v9.354H61.362z"/>
			<path fill="#FFFFFF" d="M70.182,9.511V0.959h-2.779C67.337,1.485,67.27,1.996,67.2,2.492s-0.137,0.967-0.202,1.412
				c-0.065,0.446-0.128,0.861-0.189,1.246c-0.061,0.385-0.119,0.729-0.176,1.034c-0.1,0.548-0.207,1.037-0.319,1.468
				c-0.113,0.43-0.255,0.792-0.424,1.086c-0.17,0.293-0.376,0.518-0.617,0.672s-0.542,0.231-0.903,0.231
				c-0.156,0-0.297-0.01-0.421-0.029s-0.237-0.047-0.342-0.082V8.689c0.204,0.108,0.428,0.163,0.672,0.163
				c0.199,0,0.372-0.065,0.519-0.196c0.146-0.13,0.281-0.315,0.407-0.555c0.096-0.183,0.201-0.5,0.316-0.952s0.236-1.02,0.362-1.702
				s0.257-1.47,0.392-2.361s0.27-1.868,0.404-2.929h4.37v9.354H70.182z"/>
			<path fill="#FFFFFF" d="M79.536,9.511l-1.031-2.766h-4.012l-1.004,2.766h-0.966l3.562-9.354h0.874l3.542,9.354H79.536z
				 M76.686,1.794c-0.03-0.082-0.063-0.178-0.095-0.287c-0.032-0.108-0.06-0.232-0.082-0.371h-0.025
				c-0.026,0.139-0.056,0.263-0.088,0.371c-0.033,0.109-0.064,0.205-0.095,0.287l-1.514,4.162h3.425L76.686,1.794z"/>
			<path fill="#FFFFFF" d="M81.14,9.511l1.572-2.896c0.104-0.195,0.204-0.369,0.3-0.521s0.193-0.287,0.291-0.404
				s0.2-0.218,0.307-0.3c0.106-0.083,0.221-0.15,0.342-0.202V5.16c-0.33-0.074-0.627-0.186-0.89-0.336
				c-0.264-0.15-0.487-0.333-0.672-0.548c-0.186-0.216-0.328-0.462-0.428-0.74s-0.15-0.583-0.15-0.913
				c0-0.409,0.077-0.768,0.232-1.077c0.154-0.309,0.359-0.564,0.616-0.77c0.256-0.204,0.549-0.358,0.877-0.463
				s0.669-0.156,1.021-0.156h2.693v9.354h-0.867V5.44h-1.031c-0.195,0-0.372,0.023-0.531,0.068
				c-0.159,0.046-0.308,0.122-0.446,0.229c-0.14,0.106-0.274,0.249-0.405,0.428c-0.13,0.178-0.265,0.399-0.404,0.665l-1.409,2.681
				H81.14z M84.761,0.953c-0.661,0-1.167,0.155-1.517,0.466c-0.351,0.312-0.525,0.738-0.525,1.282c0,0.3,0.051,0.569,0.153,0.809
				c0.102,0.239,0.245,0.443,0.431,0.613c0.185,0.17,0.407,0.3,0.668,0.392c0.262,0.091,0.548,0.137,0.861,0.137h1.553V0.953H84.761
				z"/>
			<path fill="#FFFFFF" d="M98.237,9.511l-3.803-4.377c-0.104-0.126-0.172-0.215-0.202-0.268h-0.026v4.645h-0.868V0.157h0.868V4.56
				h0.026c0.03-0.048,0.063-0.093,0.098-0.137c0.034-0.043,0.071-0.089,0.11-0.137l3.641-4.129h1.102l-4.057,4.514l4.324,4.84
				H98.237z"/>
			<path fill="#FFFFFF" d="M103.938,9.674c-0.674,0-1.28-0.123-1.819-0.368c-0.539-0.246-0.997-0.582-1.373-1.008
				c-0.377-0.427-0.666-0.928-0.868-1.504S99.575,5.6,99.575,4.938c0-0.73,0.101-1.399,0.303-2.006s0.497-1.127,0.884-1.56
				c0.388-0.433,0.861-0.77,1.423-1.011c0.561-0.241,1.2-0.362,1.917-0.362c0.661,0,1.255,0.119,1.781,0.355
				c0.526,0.237,0.974,0.565,1.344,0.985c0.369,0.42,0.653,0.916,0.852,1.49c0.197,0.574,0.297,1.198,0.297,1.872
				c0,0.709-0.098,1.367-0.291,1.974s-0.479,1.132-0.854,1.575s-0.839,0.792-1.39,1.044C105.29,9.548,104.656,9.674,103.938,9.674z
				 M104.011,0.79c-0.565,0-1.066,0.107-1.504,0.322c-0.437,0.216-0.806,0.507-1.105,0.874c-0.3,0.368-0.527,0.798-0.682,1.292
				c-0.154,0.493-0.233,1.019-0.238,1.575c-0.004,0.53,0.064,1.038,0.206,1.523c0.141,0.484,0.354,0.913,0.639,1.285
				c0.285,0.371,0.645,0.668,1.08,0.89c0.435,0.222,0.943,0.333,1.526,0.333c0.582,0,1.095-0.102,1.536-0.304
				s0.81-0.482,1.105-0.841c0.296-0.359,0.519-0.786,0.669-1.282c0.149-0.495,0.225-1.037,0.225-1.624
				c0-0.548-0.066-1.067-0.199-1.56c-0.133-0.491-0.339-0.92-0.619-1.288c-0.28-0.367-0.639-0.658-1.073-0.874
				C105.142,0.897,104.619,0.79,104.011,0.79z"/>
			<path fill="#FFFFFF" d="M118.524,9.511V3.053c0-0.33,0.026-0.863,0.078-1.598h-0.026c-0.061,0.195-0.116,0.365-0.166,0.509
				s-0.097,0.261-0.141,0.353l-3.261,7.194h-0.372l-3.269-7.149c-0.096-0.217-0.193-0.523-0.293-0.92h-0.026
				c0.018,0.2,0.029,0.429,0.036,0.686c0.006,0.257,0.01,0.541,0.01,0.854v6.529h-0.849V0.157h1.024l3.177,7.031
				c0.065,0.148,0.13,0.3,0.192,0.454c0.063,0.154,0.121,0.318,0.173,0.492h0.039c0.062-0.174,0.116-0.333,0.167-0.477
				c0.05-0.144,0.111-0.298,0.186-0.463l3.203-7.038h0.972v9.354H118.524z"/>
			<path fill="#FFFFFF" d="M127.773,9.511V5.134h-5.101v4.377h-0.868V0.157h0.868v4.194h5.101V0.157h0.868v9.354H127.773z"/>
			<path fill="#FFFFFF" d="M137.129,9.511l-1.031-2.766h-4.012l-1.004,2.766h-0.966l3.562-9.354h0.874l3.542,9.354H137.129z
				 M134.278,1.794c-0.03-0.082-0.063-0.178-0.095-0.287c-0.032-0.108-0.06-0.232-0.082-0.371h-0.025
				c-0.026,0.139-0.056,0.263-0.088,0.371c-0.033,0.109-0.064,0.205-0.095,0.287l-1.514,4.162h3.425L134.278,1.794z"/>
			<path fill="#FFFFFF" d="M141.283,0.953v8.558h-0.867V0.953h-2.694V0.157h6.262v0.796H141.283z"/>
			<path fill="#FFFFFF" d="M150.579,9.511l-1.031-2.766h-4.012l-1.004,2.766h-0.966l3.562-9.354h0.874l3.542,9.354H150.579z
				 M147.729,1.794c-0.03-0.082-0.063-0.178-0.095-0.287c-0.032-0.108-0.06-0.232-0.082-0.371h-0.025
				c-0.026,0.139-0.056,0.263-0.088,0.371c-0.033,0.109-0.064,0.205-0.095,0.287l-1.514,4.162h3.425L147.729,1.794z"/>
		</g>
		<g>
			<path fill="#FFFFFF" d="M43.612,33.038v-9.354h2.558c0.387,0,0.736,0.053,1.047,0.156c0.311,0.104,0.576,0.252,0.796,0.44
				c0.22,0.189,0.388,0.417,0.506,0.682c0.117,0.266,0.176,0.557,0.176,0.874c0,0.271-0.037,0.522-0.111,0.757
				c-0.073,0.235-0.18,0.449-0.319,0.643s-0.31,0.361-0.512,0.503c-0.202,0.141-0.432,0.253-0.688,0.336V28.1
				c0.313,0.03,0.598,0.106,0.854,0.229s0.477,0.28,0.659,0.477C48.76,29,48.9,29.229,49.001,29.492
				c0.1,0.264,0.149,0.552,0.149,0.864c0,0.396-0.071,0.758-0.215,1.087c-0.144,0.328-0.345,0.61-0.604,0.848
				s-0.566,0.421-0.923,0.551c-0.356,0.131-0.75,0.196-1.181,0.196H43.612z M44.48,24.479v3.32h1.213
				c0.317,0,0.604-0.041,0.861-0.124c0.257-0.082,0.477-0.202,0.659-0.358c0.183-0.157,0.322-0.346,0.42-0.567
				c0.099-0.223,0.147-0.473,0.147-0.751c0-1.013-0.631-1.52-1.892-1.52H44.48z M44.48,28.583v3.666h1.611
				c0.691,0,1.223-0.162,1.595-0.486s0.558-0.784,0.558-1.38c0-1.2-0.815-1.8-2.446-1.8H44.48z"/>
			<path fill="#FFFFFF" d="M57.136,33.038l-1.031-2.766h-4.012l-1.004,2.766h-0.966l3.562-9.354h0.874l3.542,9.354H57.136z
				 M54.285,25.321c-0.03-0.083-0.063-0.179-0.095-0.287s-0.06-0.232-0.082-0.372h-0.025c-0.026,0.14-0.056,0.264-0.088,0.372
				c-0.033,0.108-0.064,0.204-0.095,0.287l-1.514,4.161h3.425L54.285,25.321z"/>
			<path fill="#FFFFFF" d="M65.543,33.038v-4.377h-5.101v4.377h-0.868v-9.354h0.868v4.194h5.101v-4.194h0.868v9.354H65.543z"/>
			<path fill="#FFFFFF" d="M74.806,33.038v-4.377h-5.101v4.377h-0.868v-9.354h0.868v4.194h5.101v-4.194h0.868v9.354H74.806z"/>
			<path fill="#FFFFFF" d="M84.161,33.038l-1.031-2.766h-4.012l-1.004,2.766h-0.966l3.562-9.354h0.874l3.542,9.354H84.161z
				 M81.311,25.321c-0.03-0.083-0.063-0.179-0.095-0.287s-0.06-0.232-0.082-0.372h-0.025c-0.026,0.14-0.056,0.264-0.088,0.372
				c-0.033,0.108-0.064,0.204-0.095,0.287l-1.514,4.161h3.425L81.311,25.321z"/>
			<path fill="#FFFFFF" d="M85.765,33.038l1.572-2.896c0.104-0.195,0.204-0.369,0.3-0.521s0.193-0.287,0.291-0.405
				c0.098-0.117,0.2-0.217,0.307-0.3c0.106-0.082,0.221-0.149,0.342-0.202v-0.026c-0.33-0.073-0.627-0.186-0.89-0.336
				c-0.264-0.149-0.487-0.332-0.672-0.548c-0.186-0.215-0.328-0.462-0.428-0.74s-0.15-0.583-0.15-0.913
				c0-0.409,0.077-0.768,0.232-1.076c0.154-0.309,0.359-0.565,0.616-0.77c0.256-0.205,0.549-0.359,0.877-0.464
				c0.328-0.104,0.669-0.156,1.021-0.156h2.693v9.354H91.01v-4.07h-1.031c-0.195,0-0.372,0.022-0.531,0.068
				s-0.308,0.121-0.446,0.229c-0.14,0.106-0.274,0.249-0.405,0.427c-0.13,0.179-0.265,0.4-0.404,0.665l-1.409,2.682H85.765z
				 M89.386,24.479c-0.661,0-1.167,0.155-1.517,0.467c-0.351,0.311-0.525,0.738-0.525,1.281c0,0.3,0.051,0.57,0.153,0.809
				c0.102,0.239,0.245,0.444,0.431,0.613c0.185,0.17,0.407,0.301,0.668,0.392c0.262,0.092,0.548,0.137,0.861,0.137h1.553v-3.698
				H89.386z"/>
			<path fill="#FFFFFF" d="M97.356,34.591h-0.796l4.521-10.907h0.815L97.356,34.591z"/>
			<path fill="#FFFFFF" d="M109.346,24.479v8.559h-0.867v-8.559h-2.694v-0.796h6.262v0.796H109.346z"/>
			<path fill="#FFFFFF" d="M116.815,30.396c-0.209,0.479-0.417,0.895-0.623,1.246c-0.207,0.353-0.424,0.644-0.652,0.874
				s-0.473,0.402-0.733,0.516c-0.262,0.113-0.549,0.17-0.861,0.17c-0.209,0-0.402-0.018-0.581-0.053
				c-0.178-0.034-0.337-0.082-0.476-0.144v-0.899c0.165,0.096,0.336,0.17,0.512,0.225s0.343,0.082,0.499,0.082
				c0.213,0,0.408-0.042,0.584-0.124c0.176-0.083,0.343-0.207,0.499-0.372s0.309-0.37,0.456-0.613
				c0.148-0.243,0.301-0.528,0.457-0.854l-3.131-6.765h0.984l2.29,5.146c0.035,0.074,0.079,0.178,0.134,0.311
				s0.112,0.272,0.173,0.42h0.02c0.048-0.126,0.098-0.25,0.15-0.371c0.052-0.122,0.1-0.232,0.144-0.333l2.159-5.173h0.926
				L116.815,30.396z"/>
			<path fill="#FFFFFF" d="M125.681,33.038l-1.031-2.766h-4.012l-1.004,2.766h-0.966l3.562-9.354h0.874l3.542,9.354H125.681z
				 M122.83,25.321c-0.03-0.083-0.063-0.179-0.095-0.287s-0.06-0.232-0.082-0.372h-0.025c-0.026,0.14-0.056,0.264-0.088,0.372
				c-0.033,0.108-0.064,0.204-0.095,0.287l-1.514,4.161h3.425L122.83,25.321z"/>
			<path fill="#FFFFFF" d="M134.259,33.038v-8.552h-2.779c-0.065,0.526-0.133,1.037-0.202,1.532
				c-0.069,0.496-0.137,0.967-0.202,1.413c-0.065,0.445-0.128,0.86-0.189,1.245c-0.061,0.385-0.119,0.729-0.176,1.034
				c-0.1,0.548-0.207,1.037-0.319,1.468c-0.113,0.431-0.255,0.793-0.424,1.086c-0.17,0.294-0.376,0.518-0.617,0.672
				s-0.542,0.231-0.903,0.231c-0.156,0-0.297-0.01-0.421-0.029s-0.237-0.047-0.342-0.081v-0.842
				c0.204,0.108,0.428,0.163,0.672,0.163c0.199,0,0.372-0.065,0.519-0.195c0.146-0.131,0.281-0.315,0.407-0.555
				c0.096-0.183,0.201-0.5,0.316-0.952s0.236-1.021,0.362-1.703s0.257-1.47,0.392-2.361s0.27-1.867,0.404-2.929h4.37v9.354H134.259z
				"/>
			<path fill="#FFFFFF" d="M137.552,33.038v-9.354h4.561v0.796h-3.692v3.432h3.418v0.782h-3.418v3.556h3.9v0.789H137.552z"/>
			<path fill="#FFFFFF" d="M146.945,24.479v8.559h-0.867v-8.559h-2.694v-0.796h6.262v0.796H146.945z"/>
		</g>
		<g>
			<path fill="#FFFFFF" d="M48.512,56.564l-3.803-4.377c-0.104-0.126-0.172-0.215-0.202-0.268H44.48v4.645h-0.868v-9.354h0.868
				v4.402h0.026c0.03-0.048,0.063-0.093,0.098-0.137c0.034-0.043,0.071-0.089,0.11-0.137l3.641-4.129h1.102L45.4,51.725l4.324,4.84
				H48.512z"/>
			<path fill="#FFFFFF" d="M54.232,53.923c-0.209,0.479-0.417,0.894-0.623,1.246c-0.207,0.353-0.424,0.644-0.652,0.874
				s-0.473,0.402-0.733,0.516c-0.262,0.112-0.549,0.169-0.861,0.169c-0.209,0-0.402-0.018-0.581-0.052
				c-0.178-0.035-0.337-0.083-0.476-0.144v-0.9c0.165,0.096,0.336,0.171,0.512,0.226c0.176,0.054,0.343,0.081,0.499,0.081
				c0.213,0,0.408-0.041,0.584-0.124c0.176-0.082,0.343-0.206,0.499-0.372c0.156-0.165,0.309-0.369,0.456-0.613
				c0.148-0.243,0.301-0.528,0.457-0.854l-3.131-6.764h0.984l2.29,5.146c0.035,0.074,0.079,0.177,0.134,0.31
				s0.112,0.273,0.173,0.421h0.02c0.048-0.126,0.098-0.25,0.15-0.372c0.052-0.121,0.1-0.232,0.144-0.332l2.159-5.173h0.926
				L54.232,53.923z"/>
			<path fill="#FFFFFF" d="M63.469,56.564l-2.152-3.574c-0.048-0.083-0.098-0.173-0.15-0.271c-0.052-0.099-0.096-0.192-0.13-0.284
				h-0.033c-0.043,0.087-0.088,0.176-0.134,0.268c-0.045,0.091-0.099,0.187-0.159,0.287l-2.205,3.574h-1.063l3.047-4.709
				l-2.831-4.645h1.057l2.002,3.404c0.062,0.101,0.119,0.204,0.173,0.311c0.055,0.106,0.11,0.216,0.167,0.329h0.025
				c0.062-0.126,0.121-0.243,0.18-0.353c0.059-0.108,0.116-0.208,0.173-0.3l2.035-3.392h1.005l-2.87,4.631l2.922,4.723H63.469z"/>
			<path fill="#FFFFFF" d="M72.04,56.564v-4.377h-5.101v4.377h-0.868v-9.354h0.868v4.194h5.101v-4.194h0.868v9.354H72.04z"/>
			<path fill="#FFFFFF" d="M74.499,56.564l1.572-2.896c0.104-0.195,0.204-0.369,0.3-0.521s0.193-0.287,0.291-0.404
				s0.2-0.218,0.307-0.3c0.106-0.083,0.221-0.15,0.342-0.202v-0.026c-0.33-0.074-0.627-0.186-0.89-0.336
				c-0.264-0.15-0.487-0.333-0.672-0.548c-0.186-0.216-0.328-0.462-0.428-0.74s-0.15-0.583-0.15-0.913
				c0-0.409,0.077-0.768,0.232-1.077c0.154-0.309,0.359-0.564,0.616-0.77c0.256-0.204,0.549-0.358,0.877-0.463
				c0.328-0.104,0.669-0.156,1.022-0.156h2.693v9.354h-0.867v-4.07h-1.031c-0.195,0-0.372,0.023-0.531,0.068
				c-0.159,0.046-0.308,0.122-0.446,0.229c-0.14,0.106-0.274,0.249-0.405,0.428c-0.13,0.178-0.265,0.399-0.404,0.665l-1.409,2.681
				H74.499z M78.12,48.007c-0.661,0-1.167,0.155-1.517,0.466c-0.351,0.312-0.525,0.738-0.525,1.282c0,0.3,0.051,0.569,0.153,0.809
				c0.102,0.239,0.245,0.443,0.431,0.613c0.185,0.17,0.407,0.3,0.668,0.392c0.262,0.091,0.548,0.137,0.861,0.137h1.553v-3.698H78.12
				z"/>
		</g>
		<g>
			<path fill="#FFFFFF" d="M13.34,32.705c-0.683,0.331-1.574,0.496-2.674,0.496c-1.436,0-2.564-0.422-3.386-1.266
				c-0.822-0.844-1.233-1.968-1.233-3.373c0-1.495,0.462-2.709,1.387-3.64c0.924-0.931,2.123-1.396,3.598-1.396
				c0.913,0,1.683,0.115,2.309,0.346v2.028c-0.626-0.374-1.339-0.561-2.14-0.561c-0.878,0-1.587,0.276-2.126,0.828
				c-0.54,0.553-0.81,1.301-0.81,2.244c0,0.904,0.255,1.625,0.764,2.162s1.193,0.806,2.055,0.806c0.822,0,1.574-0.2,2.257-0.6
				V32.705z"/>
			<path fill="#FFFFFF" d="M22.173,23.684l-2.929,6.412c-0.548,1.2-1.065,2.019-1.553,2.453s-1.104,0.652-1.853,0.652
				c-0.496,0-0.9-0.072-1.214-0.216v-1.924c0.357,0.23,0.727,0.346,1.109,0.346c0.526,0,0.989-0.427,1.39-1.278l-3.072-6.445h2.4
				l1.553,3.744c0.091,0.227,0.163,0.48,0.215,0.764h0.013c0.048-0.235,0.122-0.48,0.222-0.737l1.501-3.771H22.173z"/>
		</g>
		<g>
			<path fill="#FFFFFF" d="M13.386,9.511h-2.622l-2.76-4.031C7.93,5.375,7.846,5.219,7.75,5.01H7.724v4.501H5.662V5.01H5.636
				C5.593,5.11,5.508,5.267,5.382,5.479L2.616,9.511H0l3.568-4.879L0.268,0.157h2.512L5.382,4.07C5.49,4.236,5.575,4.38,5.636,4.501
				h0.026V0.157h2.062v4.344H7.75c0.061-0.126,0.146-0.27,0.254-0.431l2.603-3.913h2.512L9.817,4.632L13.386,9.511z"/>
			<path fill="#FFFFFF" d="M22.173,9.511h-2.662l-2.727-4.063c-0.052-0.078-0.135-0.25-0.248-0.516h-0.032v4.579h-2.107V0.157h2.107
				v4.422h0.032c0.053-0.121,0.14-0.295,0.262-0.521l2.583-3.9h2.511l-3.261,4.461L22.173,9.511z"/>
		</g>
		<g>
			<path fill="#FFFFFF" d="M22.173,56.564h-2.662l-2.727-4.063c-0.052-0.078-0.135-0.25-0.248-0.516h-0.032v4.579h-2.107v-9.354
				h2.107v4.422h0.032c0.053-0.121,0.14-0.295,0.262-0.521l2.583-3.9h2.511l-3.261,4.461L22.173,56.564z"/>
		</g>
	</g>
</g>
</svg>
