<?xml version="1.0" encoding="utf-8"?>
<!-- Generator: Adobe Illustrator 17.0.1, SVG Export Plug-In . SVG Version: 6.00 Build 0)  -->
<!DOCTYPE svg PUBLIC "-//W3C//DTD SVG 1.1//EN" "http://www.w3.org/Graphics/SVG/1.1/DTD/svg11.dtd">
<svg version="1.1" xmlns="http://www.w3.org/2000/svg" xmlns:xlink="http://www.w3.org/1999/xlink" x="0px" y="0px"
	 width="56.333px" height="28.47px" viewBox="0 0 56.333 28.47" enable-background="new 0 0 56.333 28.47" xml:space="preserve">
<g id="img">
</g>
<g id="main">
	<g id="FIND_x5F_logo_2">
	</g>
	<g>
		<defs>
			<rect id="SVGID_3_" x="-1050.795" y="-340.648" width="640" height="291.546"/>
		</defs>
		<clipPath id="SVGID_2_">
			<use xlink:href="#SVGID_3_"  overflow="visible"/>
		</clipPath>
		<g clip-path="url(#SVGID_2_)">
			<polygon fill="#FFFFFF" points="-565.278,-160.326 -565.278,-205.405 -596.463,-205.405 -596.463,-170.442 -606.36,-170.442 
				-606.36,-223.741 -637.545,-223.741 -637.545,-170.442 -649.61,-170.442 -649.61,-198.637 -664.041,-198.637 -664.041,-214.523 
				-738.564,-214.523 -738.564,-186.043 -766.365,-186.043 -766.365,-255.043 -788.456,-255.043 -788.456,-186.043 
				-796.342,-186.043 -796.342,-291.265 -829.211,-291.265 -829.211,-302.161 -855.345,-302.161 -855.345,-215.308 
				-860.237,-215.308 -860.237,-323.913 -888.228,-323.913 -888.228,-186.043 -895.103,-186.043 -895.103,-302.162 
				-923.095,-302.162 -923.095,-186.043 -936.237,-186.043 -936.237,-224.959 -942.279,-224.959 -942.279,-255.043 
				-976.751,-255.043 -976.751,-279.627 -1012.75,-279.627 -1012.75,-186.043 -1016.102,-186.043 -1016.102,-249.692 
				-1044.094,-249.692 -1044.094,-218.093 -1062.833,-218.093 -1062.833,-255.265 -1085.875,-255.265 -1085.875,-270.865 
				-1110.071,-270.865 -1110.071,-194.645 -1137.302,-194.645 -1137.302,-257.732 -1155.685,-257.732 -1155.685,-203.746 
				-1169.932,-203.746 -1169.932,-220.533 -1202.103,-220.533 -1202.103,-194.645 -1212.214,-194.645 -1212.214,-240.268 
				-1235.653,-240.268 -1235.653,-194.645 -1260.758,-194.645 -1260.758,-57.553 62.852,33.41 62.852,-137.087 			"/>
			<polygon fill="#E6E6E6" points="62.852,-95.866 -878.447,-164.653 -1260.758,-156.604 -1260.758,-57.553 62.852,33.41 			"/>
		</g>
	</g>
	<g>
		
			<line fill="none" stroke="#333333" stroke-width="1.4584" stroke-miterlimit="10" x1="12.851" y1="3.262" x2="56.333" y2="3.262"/>
		<circle fill="#333333" cx="3.262" cy="3.262" r="3.262"/>
		
			<line fill="none" stroke="#333333" stroke-width="1.4584" stroke-miterlimit="10" x1="12.851" y1="14.235" x2="56.333" y2="14.235"/>
		<circle fill="#333333" cx="3.262" cy="14.235" r="3.262"/>
		
			<line fill="none" stroke="#333333" stroke-width="1.4584" stroke-miterlimit="10" x1="12.851" y1="25.208" x2="56.333" y2="25.208"/>
		<circle fill="#333333" cx="3.262" cy="25.208" r="3.262"/>
	</g>
</g>
</svg>
