<svg version="1.1" xmlns="http://www.w3.org/2000/svg" xmlns:xlink="http://www.w3.org/1999/xlink" x="0px" y="0px" width="19px"
									 height="19px" viewBox="0 0 19 19" style="enable-background:new 0 0 19 19;" xml:space="preserve">
										<path style="fill:#00B7E4;" d="M14.5,9.9c-0.8,0-1.7,0.1-2.8,0.4c-1.1-0.9-2.2-1.9-3.2-2.9c0.3-3.2-0.2-4.5-0.7-5
											C7.4,1.9,6.9,1.7,6.3,1.9c-0.7,0.2-0.9,0.6-1,0.9C4.8,4.2,6.5,6.4,7.6,7.6c-0.2,1.5-0.5,3-0.9,4.4c-1,0.5-1.9,1-2.5,1.5
											c-0.8,0.6-1.3,1.3-1.4,1.8c-0.1,0.5,0.1,0.9,0.5,1.3c0.3,0.3,0.6,0.4,1,0.4h0c1.5,0,2.6-2.7,3.1-4.5c1.3-0.6,2.8-1.1,4.1-1.5
											c1.2,0.9,2.8,1.8,3.9,1.8c0.8,0,1.3-0.4,1.5-1.2c0.1-0.6-0.1-1-0.2-1.2C16.3,10.2,15.5,9.9,14.5,9.9z M4.2,16.3
											c-0.1,0-0.2-0.1-0.4-0.2c-0.2-0.2-0.2-0.4-0.2-0.6c0.1-0.6,1.1-1.5,2.7-2.4C5.5,15.4,4.7,16.3,4.2,16.3z M6,3.1
											c0-0.1,0.1-0.3,0.5-0.4c0.1,0,0.2,0,0.2,0c0.2,0,0.3,0.1,0.4,0.2c0.5,0.5,0.6,1.8,0.5,3.6C6.7,5.2,5.8,3.8,6,3.1z M10.6,10.6
											c-1,0.3-2,0.6-2.9,1l0,0l0,0c0.3-1,0.5-2.1,0.6-3.1l0,0l0,0C9.1,9.2,9.8,9.9,10.6,10.6L10.6,10.6L10.6,10.6z M16.1,11.7
											c-0.1,0.4-0.3,0.5-0.6,0.5c-0.6,0-1.6-0.4-2.8-1.2c0.7-0.1,1.3-0.2,1.9-0.2c1,0,1.4,0.2,1.5,0.4C16,11.2,16.1,11.4,16.1,11.7z"/>
								</svg>