<?xml version="1.0" encoding="utf-8"?>
<!-- Generator: Adobe Illustrator 17.0.1, SVG Export Plug-In . SVG Version: 6.00 Build 0)  -->
<!DOCTYPE svg PUBLIC "-//W3C//DTD SVG 1.1//EN" "http://www.w3.org/Graphics/SVG/1.1/DTD/svg11.dtd">
<svg version="1.1" id="Layer_1" xmlns="http://www.w3.org/2000/svg" xmlns:xlink="http://www.w3.org/1999/xlink" x="0px" y="0px"
	 width="200px" height="200px" viewBox="0 0 200 200" enable-background="new 0 0 200 200" xml:space="preserve">
<path fill="#00B8E4" d="M179.088,116.103c-6.348-10.871,8.839-16.104-4.262-26.266C158.32,77.035,159.39,79.032,123.69,78.629
	c-5.643-0.063-12.613,0.569-10.794-11.149c7.292-46.992-4.728-55.716-12.7-57.91c-16.784-4.618,3.531,14.646-17.484,50.721
	c-1.854,3.182-7.44,6.839-11.208,12.959c-7.778,12.633-15.256,32.572-21.714,32.572c-4.612,0-16.538,0-26.623,0v80.04
	c15.091-1.193,36.578-2.895,41.945-3.336c8.493-0.7,15.498,5.142,28.108,5.142c11.208,0,18.311,6.95,56.501,1.092
	c5.395-0.827,15.414-11.193,13.421-19.604c-1.537-6.494,16.795-11.597,12.839-23.464
	C171.331,131.743,187.994,131.354,179.088,116.103z"/>
</svg>
