<svg version="1.1" xmlns="http://www.w3.org/2000/svg" xmlns:xlink="http://www.w3.org/1999/xlink" x="0px" y="0px"
                   width="31.641px" height="31.641px" viewBox="0 0 31.641 31.641" enable-background="new 0 0 31.641 31.641" xml:space="preserve">
								<path class="social-hover" fill="#FFFFFF" d="M19.825,3.93h-5.672c-2.527,0-4.277,0.554-5.852,1.855C7.063,6.853,6.324,8.406,6.324,9.938
								c0,2.361,1.8,4.871,5.137,4.871c0.321,0,0.676-0.033,0.989-0.062l-0.046,0.112c-0.134,0.321-0.261,0.624-0.261,1.097
								c0,0.921,0.444,1.489,0.874,2.038l0.054,0.07l-0.096,0.007c-1.378,0.094-3.942,0.27-5.815,1.421
								c-2.212,1.315-2.384,3.229-2.384,3.783c0,2.208,2.057,4.436,6.654,4.436c5.345,0,8.141-2.949,8.141-5.861
								c0-2.154-1.263-3.218-2.604-4.347l-1.131-0.88c-0.35-0.29-0.785-0.65-0.785-1.317c0-0.656,0.435-1.09,0.819-1.472l0.04-0.041
								c1.221-0.962,2.606-2.053,2.606-4.412c0-2.372-1.482-3.598-2.195-4.187h1.882c0.023,0,0.046-0.006,0.065-0.019l1.621-1.019
								c0.046-0.029,0.068-0.085,0.053-0.138C19.928,3.966,19.879,3.93,19.825,3.93z M12.947,26.412c-3.258,0-5.447-1.522-5.447-3.786
								c0-1.479,0.895-2.553,2.659-3.192c1.412-0.475,3.235-0.499,3.253-0.499c0.309,0,0.464,0,0.711,0.031
								c2.28,1.622,3.376,2.474,3.376,4.096C17.497,25.129,15.753,26.412,12.947,26.412z M12.916,13.94
								c-2.734,0-3.869-3.594-3.869-5.519c0-0.979,0.223-1.73,0.68-2.297c0.497-0.622,1.348-1.023,2.168-1.023
								c2.51,0,3.899,3.374,3.899,5.706c0,0.368,0,1.487-0.773,2.265C14.5,13.591,13.655,13.94,12.916,13.94z"/>
                <path class="social-hover" fill="#FFFFFF" d="M27.774,15.037h-2.989v-2.978c0-0.068-0.055-0.123-0.123-0.123h-1.286c-0.068,0-0.123,0.055-0.123,0.123
								v2.978H20.28c-0.068,0-0.123,0.055-0.123,0.123v1.303c0,0.068,0.055,0.123,0.123,0.123h2.974v2.997
								c0,0.068,0.055,0.123,0.123,0.123h1.286c0.068,0,0.123-0.055,0.123-0.123v-2.998h2.989c0.068,0,0.123-0.055,0.123-0.123V15.16
								C27.897,15.092,27.842,15.037,27.774,15.037z"/>
								</svg>
