<svg version="1.1" xmlns="http://www.w3.org/2000/svg" xmlns:xlink="http://www.w3.org/1999/xlink" x="0px" y="0px" width="25px"
	 height="25px" viewBox="0 0 12 13" enable-background="new 0 0 12 13" xml:space="preserve">
		<path class="hi" fill="#D3D3D3" d="M2.479,1.895C3.58,1.161,4.716,0.794,5.904,0.794c1.066,0,1.922,0.297,2.604,0.891
			s1.014,1.363,1.014,2.289c0,2.516-2.534,3.268-2.709,4.736L6.795,9.075h-1.87v-0.54c0-2.079,2.359-2.673,2.359-4.246
			c0-0.961-0.734-1.608-1.73-1.608c-0.612,0-1.346,0.262-2.219,0.804L2.479,1.895z M5.852,10.336c0.546,0,0.947,0.364,0.947,0.898
			c0,0.546-0.401,0.971-0.935,0.971c-0.534,0-0.934-0.425-0.934-0.971C4.93,10.7,5.318,10.336,5.852,10.336z"/>
</svg>