<?xml version="1.0" encoding="utf-8"?>
<!-- Generator: Adobe Illustrator 17.0.1, SVG Export Plug-In . SVG Version: 6.00 Build 0)  -->
<!DOCTYPE svg PUBLIC "-//W3C//DTD SVG 1.1//EN" "http://www.w3.org/Graphics/SVG/1.1/DTD/svg11.dtd">
<svg version="1.1" xmlns="http://www.w3.org/2000/svg" xmlns:xlink="http://www.w3.org/1999/xlink" x="0px" y="0px"
	 width="106.328px" height="104.186px" viewBox="0 0 106.328 104.186" enable-background="new 0 0 106.328 104.186"
	 xml:space="preserve">
<g id="back">
</g>
<g id="text">
</g>
<g id="img">
</g>
<g id="main">
	<g>
		<path fill="none" d="M63.726,45.523c0-9.143-7.438-16.582-16.582-16.582S30.563,36.38,30.563,45.523s7.438,16.582,16.582,16.582
			S63.726,54.667,63.726,45.523z"/>
		<path fill="#EFEFEF" d="M61.678,71.685c0.47,0.88,0.976,1.835,1.535,2.831c0.556,0.997,1.129,2.057,1.755,3.131
			c0.623,1.076,1.25,2.199,1.918,3.32c0.667,1.121,1.344,2.26,2.022,3.399c0.693,1.128,1.386,2.257,2.069,3.368
			c0.676,1.115,1.379,2.187,2.043,3.235c1.335,2.092,2.615,4.021,3.739,5.657c2.233,3.282,3.854,5.379,3.854,5.379l6.61-4.481
			c0,0-1.349-2.282-3.571-5.571c-1.103-1.65-2.422-3.553-3.87-5.568c-0.728-1.005-1.463-2.055-2.249-3.096
			c-0.779-1.045-1.571-2.107-2.362-3.168c-0.807-1.051-1.615-2.102-2.41-3.137c-0.794-1.035-1.605-2.033-2.374-3.01
			c-0.766-0.979-1.539-1.904-2.259-2.79c-0.717-0.887-1.418-1.711-2.061-2.474c-0.755-0.897-1.444-1.695-2.045-2.38
			c6.053-4.919,9.929-12.417,9.929-20.806c0-14.781-12.025-26.806-26.806-26.806c-14.781,0-26.806,12.025-26.806,26.806
			c0,14.781,12.025,26.806,26.806,26.806c4.749,0,9.209-1.247,13.082-3.421C60.64,69.718,61.125,70.653,61.678,71.685z
			 M27.563,45.523c0-10.797,8.784-19.582,19.582-19.582s19.582,8.784,19.582,19.582s-8.784,19.582-19.582,19.582
			S27.563,56.321,27.563,45.523z"/>
		<g>
			<path fill="#D3D3D3" d="M37.683,31.925c-4.297,2.999-7.12,7.972-7.12,13.598c0,1.506,0.219,2.958,0.597,4.346h6.523V31.925z"/>
			<path fill="#D3D3D3" d="M22.927,16.263c0.871-0.359,1.692-0.762,2.465-1.208s1.441-0.919,2.008-1.42v9.587
				c2.963-2.626,6.45-4.669,10.283-5.957V2.014h-6.235c-1.915,1.458-4.06,2.797-6.431,4.015c-2.373,1.22-4.896,2.22-7.574,3.004
				v8.683c0.914-0.108,1.84-0.288,2.775-0.538S22.057,16.622,22.927,16.263z"/>
		</g>
	</g>
	<g id="enter">
	</g>
</g>
</svg>
