<?xml version="1.0" encoding="utf-8"?>
<!-- Generator: Adobe Illustrator 17.0.1, SVG Export Plug-In . SVG Version: 6.00 Build 0)  -->
<!DOCTYPE svg PUBLIC "-//W3C//DTD SVG 1.1//EN" "http://www.w3.org/Graphics/SVG/1.1/DTD/svg11.dtd">
<svg version="1.1" xmlns="http://www.w3.org/2000/svg" xmlns:xlink="http://www.w3.org/1999/xlink" x="0px" y="0px"
	 width="106.328px" height="104.186px" viewBox="0 0 106.328 104.186" enable-background="new 0 0 106.328 104.186"
	 xml:space="preserve">
<g id="back">
</g>
<g id="text">
</g>
<g id="img">
</g>
<g id="main">
	<g>
		<path fill="#D3D3D3" d="M26.382,82.572c1.437-1.143,2.704-2.399,3.803-3.771c1.099-1.371,1.98-2.894,2.644-4.57
			c0.664-1.675,0.996-3.591,0.996-5.745c0-2.024-0.343-3.857-1.028-5.5c-0.686-1.643-1.681-3.041-2.987-4.195
			c-1.306-1.153-2.9-2.041-4.782-2.661c-1.883-0.62-4.01-0.93-6.382-0.93c-5.115,0-9.707,1.317-13.776,3.95v9.075
			c3.678-3.199,7.529-4.799,11.556-4.799c2.329,0,4.059,0.512,5.19,1.534c1.131,1.023,1.698,2.536,1.698,4.538
			c0,1.023-0.174,1.986-0.522,2.889c-0.348,0.903-0.876,1.795-1.583,2.677c-0.708,0.881-1.578,1.769-2.612,2.661
			c-1.034,0.893-2.236,1.828-3.607,2.807c-1.306,0.936-2.683,1.986-4.129,3.15c-1.448,1.164-2.78,2.502-3.999,4.015
			c-1.219,1.513-2.231,3.221-3.036,5.125c-0.806,1.904-1.208,4.053-1.208,6.447v3.525h31.142v-8.553H13.912
			c0-0.609,0.217-1.251,0.653-1.926c0.435-0.674,1.022-1.366,1.763-2.073c0.74-0.707,1.594-1.425,2.563-2.154
			c0.968-0.729,1.975-1.463,3.02-2.204C23.454,84.819,24.946,83.714,26.382,82.572z"/>
		<g>
			<path fill="#EFEFEF" d="M32.911,30.251l-5.63,23.531c1.71,0.708,3.23,1.626,4.515,2.761c1.643,1.452,2.911,3.23,3.769,5.288
				c0.836,2.003,1.26,4.243,1.26,6.656c0,2.014-0.27,3.88-0.781,5.583l58.215,13.929l9.746-40.736L62.397,64.087L32.911,30.251z"/>
		</g>
		<polygon fill="#EFEFEF" points="63.309,60.272 104.918,43.444 104.919,43.442 33.825,26.432 33.825,26.434 		"/>
	</g>
	<g id="enter">
	</g>
</g>
</svg>
