<?xml version="1.0" encoding="utf-8"?>
<!-- Generator: Adobe Illustrator 17.0.1, SVG Export Plug-In . SVG Version: 6.00 Build 0)  -->
<!DOCTYPE svg PUBLIC "-//W3C//DTD SVG 1.1//EN" "http://www.w3.org/Graphics/SVG/1.1/DTD/svg11.dtd">
<svg version="1.1" xmlns="http://www.w3.org/2000/svg" xmlns:xlink="http://www.w3.org/1999/xlink" x="0px" y="0px"
	 width="106.328px" height="104.186px" viewBox="0 0 106.328 104.186" enable-background="new 0 0 106.328 104.186"
	 xml:space="preserve">
<g id="back">
</g>
<g id="text">
</g>
<g id="img">
</g>
<g id="main">
	<g>
		<path fill="#D3D3D3" d="M32.182,53.504c0-2.895-0.958-5.337-2.873-7.329c-1.916-1.991-4.527-3.194-7.834-3.607v-0.163
			c6.202-1.545,9.303-5.375,9.303-11.491c0-3.438-1.333-6.235-3.999-8.39c-2.666-2.154-6.393-3.231-11.181-3.231
			c-4.375,0-8.205,0.827-11.491,2.481v8.422c2.959-2.024,6.006-3.036,9.14-3.036c4.679,0,7.019,1.904,7.019,5.712
			c0,4.048-3.047,6.072-9.14,6.072H7.111v7.9h4.341c3.177,0,5.675,0.566,7.492,1.698c1.816,1.132,2.726,2.742,2.726,4.831
			c0,2.024-0.734,3.602-2.204,4.733c-1.469,1.132-3.521,1.698-6.153,1.698c-4.178,0-7.834-1.143-10.968-3.428v8.977
			c3.025,1.567,6.953,2.35,11.785,2.35c5.636,0,10.054-1.273,13.253-3.819C30.582,61.339,32.182,57.878,32.182,53.504z"/>
		<g>
			<path fill="#EFEFEF" d="M95.232,53.057c0,0-13.263,6.14-21.527-0.433c-2.548-1.958-7.128-2.936-11.51-2.893
				c-2.293,0.019-4.542,0.323-6.425,0.914c-2.318,1.678-13.909,10.072-15.742,11.905c-2.044,2.045,4.197,6.748,10.201,3.989
				c5.338-2.455,8.954-6.541,11.296-6.82c0.497-0.081,0.81-0.102,1.431,0.426l24.143,27.658c1.125-0.609,6.167-4.598,6.167-4.598
				l11.404-7.852L95.232,53.057z"/>
			<path fill="#EFEFEF" d="M62.56,62.885c-0.677-0.752-1.928,0.004-2.954,0.7c-1.678,1.063-3.181,2.427-4.872,3.472
				c-3.965,2.877-9.625,3.978-14.037,1.461c-2.455-1.057-4.942-5.002-3.258-6.699c2.592-2.853,5.692-5.18,8.83-7.43
				c-0.298-0.068-2.543-0.127-3.939,0.394c-3.039,1.454-3.489,2.442-5.037,3.747c0,0-1.017,0.677-2.955,0.517
				c-0.931,2.824-2.631,5.228-5.089,7.184c-3.433,2.733-8.033,4.208-13.663,4.427l-2.204,5.415c0,0,21.888,9.742,25.182,12.327
				c3.288,2.591,16.949,14.218,19.609,14.006c1.479,0.149,4.718-1.191,3.898-4.019c3.76,2.945,6.436,1.911,6.79,1.675
				c0,0,2.261-1.187,1.553-3.654c1.175,0.827,4.51,3.048,6.79,1.401c1.181-0.82,1.288-3.287,0.822-3.989
				c-0.472-0.702,8.085,3.729,7.886-3.38c0.031-0.224-0.037-0.435-0.031-0.64L62.56,62.885z"/>
		</g>
	</g>
	<g id="enter">
	</g>
</g>
</svg>
