<?xml version="1.0" encoding="utf-8"?>
<!-- Generator: Adobe Illustrator 17.0.1, SVG Export Plug-In . SVG Version: 6.00 Build 0)  -->
<!DOCTYPE svg PUBLIC "-//W3C//DTD SVG 1.1//EN" "http://www.w3.org/Graphics/SVG/1.1/DTD/svg11.dtd">
<svg version="1.1" xmlns="http://www.w3.org/2000/svg" xmlns:xlink="http://www.w3.org/1999/xlink" x="0px" y="0px" width="145px"
	 height="138.266px" viewBox="0 0 145 138.266" enable-background="new 0 0 145 138.266" xml:space="preserve">
<g id="Layer_10">
</g>
<g id="Layer_11">
</g>
<g id="Main">
	<g id="Arrow_4_">
	</g>
	<g id="Arrow_1_">
	</g>
	<g id="Arrow">
	</g>
	<g id="Arrow_3_">
	</g>
	<g id="Search_x5F_block_x5F_wt">
	</g>
	<g id="FD_x5F_HELP">
	</g>
	<g id="FD_x5F_LOGIN">
	</g>
	<g id="FIND_x5F_logo">
	</g>
	<g id="Arrow_5_">
	</g>
	<g id="Arrow_7_">
	</g>
	<g id="New_Symbol">
	</g>
	<g>
		<g>
			<g>
				<g>
					<path id="a_9_" fill="#EFEFEF" d="M19.662,44.614l6.158,67.743l36.35-3.304L56.012,41.31L19.662,44.614z M59.225,40.816
						c0,0,26.055-16.793,15.091-22.972S59.045,38.842,59.045,38.842s2.374-36.053,18.386-25.512
						c16.158,10.638-18.185,27.721-18.185,27.721s-42.183-7.606-27.734-24.708C47.072-2.074,58.249,37.435,58.249,37.435
						S46.325,10.13,37.528,20.48S59.225,40.816,59.225,40.816z M62.621,40.71l6.158,67.743l36.35-3.304l-6.158-67.743L62.621,40.71z
						"/>
				</g>
				<g>
					<path id="a_8_" fill="#EFEFEF" d="M19.662,44.614l6.158,67.743l36.35-3.304L56.012,41.31L19.662,44.614z M59.225,40.816
						c0,0,26.055-16.793,15.091-22.972S59.045,38.842,59.045,38.842s2.374-36.053,18.386-25.512
						c16.158,10.638-18.185,27.721-18.185,27.721s-42.183-7.606-27.734-24.708C47.072-2.074,58.249,37.435,58.249,37.435
						S46.325,10.13,37.528,20.48S59.225,40.816,59.225,40.816z M62.621,40.71l6.158,67.743l36.35-3.304l-6.158-67.743L62.621,40.71z
						"/>
				</g>
			</g>
		</g>
		<g>
			<g>
				<path fill="#EFEFEF" d="M109.322,129.175v-9.597H88.919v-9.444l0.254-0.285c1.787-2.002,3.665-4.224,5.582-6.604
					c1.911-2.373,3.788-4.855,5.578-7.378c1.781-2.511,3.464-5.077,5.003-7.625c1.531-2.538,2.848-4.994,3.915-7.298l0.268-0.58
					h11.204v29.51h5.615v9.704h-5.615v9.597H109.322z M109.322,109.874V98.3c-0.207,0.346-0.417,0.692-0.63,1.037
					c-0.897,1.456-1.853,2.91-2.838,4.324c-0.984,1.411-1.992,2.794-2.995,4.114c-0.546,0.718-1.088,1.42-1.623,2.1H109.322z"/>
				<path fill="#00AAE4" d="M119.723,81.364v29.51h5.615v7.704h-5.615v9.597h-9.401v-9.597H89.919v-8.063
					c1.806-2.024,3.678-4.238,5.615-6.643s3.808-4.88,5.615-7.427c1.806-2.546,3.487-5.109,5.043-7.688
					c1.556-2.579,2.878-5.043,3.966-7.394H119.723 M99.157,110.874h11.165V94.519c-0.762,1.415-1.589,2.846-2.481,4.292
					c-0.893,1.448-1.828,2.873-2.808,4.276s-1.97,2.764-2.971,4.081C101.062,108.486,100.093,109.721,99.157,110.874
					 M121.723,79.364h-2h-9.565h-1.278l-0.537,1.16c-1.052,2.271-2.352,4.694-3.864,7.201c-1.525,2.527-3.195,5.072-4.962,7.563
					c-1.778,2.507-3.643,4.973-5.541,7.329c-1.907,2.367-3.774,4.577-5.549,6.566l-0.508,0.569v0.763v8.063v2h2h18.403v7.597v2h2
					h9.401h2v-2v-7.597h3.615h2v-2v-7.704v-2h-2h-3.615v-27.51V79.364L121.723,79.364z M103.277,108.874
					c0.126-0.164,0.251-0.329,0.378-0.495c1.011-1.33,2.027-2.725,3.019-4.146c0.561-0.804,1.112-1.621,1.648-2.444v7.086H103.277
					L103.277,108.874z"/>
			</g>
		</g>
	</g>
	<g id="Arrow_6_">
	</g>
</g>
<g id="Help" display="none">
	<g display="inline">
		<defs>
			<rect id="SVGID_79_" x="-2165.292" y="-199.129" width="2560" height="890"/>
		</defs>
		<clipPath id="SVGID_2_">
			<use xlink:href="#SVGID_79_"  overflow="visible"/>
		</clipPath>
	</g>
</g>
</svg>
