<svg version="1.1" xmlns="http://www.w3.org/2000/svg" xmlns:xlink="http://www.w3.org/1999/xlink" x="0px" y="0px" width="24.89px"
height="22.625px" viewBox="0 0 24.89 22.625" enable-background="new 0 0 24.89 22.625" xml:space="preserve">
<path fill="#FFFFFF" d="M21.416,3.336c0,0-2.408-3.867-5.909-1.682C12.006,3.84,9.312,6.437,8.276,8.653
C7.239,10.869,4.49,16.61,7.001,19.724c0,0,1.369,1.454,2.953,2.224l0.745-6.05c0,0-1.502-0.751-0.938-2.129
c0.564-1.378,3.886-6.635,3.886-6.635s1.138-1.587,2.691-0.52L21.416,3.336z"/>
<path fill="#FFFFFF" d="M21.691,3.792c0,0,0.286,0.242,0.315,0.984c0.03,0.743-0.226,0.897-0.226,0.897l-3.501,2.186
c0,0-0.297-0.028-0.623-0.107c-0.327-0.079-1.032-0.551-0.889-0.776C16.911,6.751,21.691,3.792,21.691,3.792z"/>
<path fill="#FFFFFF" d="M11.283,16.011l1.277,0.768c0,0,0.204,0.222,0.193,0.782c-0.012,0.56-0.415,3.708-0.415,3.708
s-0.093,0.54-0.512,0.655c-0.419,0.116-1.34,0.326-1.34,0.326L11.283,16.011z"/>
</svg>