<svg version="1.1" xmlns="http://www.w3.org/2000/svg" xmlns:xlink="http://www.w3.org/1999/xlink" x="0px" y="0px"
             width="25.708px" height="20px" viewBox="0 0 25.708 20" enable-background="new 0 0 25.708 20" xml:space="preserve">
            <path fill="#EFEFEF" d="M19.704,12.451c-1.181-0.47-2.312-4.412-2.312-4.412c-0.678-2.294-2.883-3.718-5.184-3.501
            c0.095-0.24,0.114-0.512,0.035-0.779c-0.188-0.636-0.858-1.001-1.494-0.813c-0.636,0.188-1.001,0.858-0.813,1.494
            c0.079,0.266,0.243,0.484,0.453,0.635c-2.049,1.068-3.127,3.462-2.45,5.756c0,0,1.192,3.924,0.456,4.96
            c-0.807,1.136,2.878,0.762,6.09-0.198C17.703,14.654,20.999,12.966,19.704,12.451z M10.945,3.611
            c0.27-0.08,0.554,0.075,0.634,0.345s-0.075,0.554-0.345,0.634c-0.27,0.08-0.555-0.075-0.634-0.345S10.675,3.691,10.945,3.611z"/>
            <path fill="#EFEFEF" d="M13.468,16.907c0.339,0.49,0.965,0.732,1.568,0.554c0.611-0.18,1.008-0.735,1.016-1.34
            c-0.507,0.189-0.997,0.352-1.465,0.49C14.2,16.725,13.827,16.822,13.468,16.907z"/>
          </svg>