              <svg version="1.1" xmlns="http://www.w3.org/2000/svg" xmlns:xlink="http://www.w3.org/1999/xlink" x="0px" y="0px"
                   width="31.641px" height="31.641px" viewBox="0 0 31.641 31.641" enable-background="new 0 0 31.641 31.641" xml:space="preserve">
	<path class="social-hover" fill="#FFFFFF" d="M4.061,0H27.58c2.234,0,4.061,1.654,4.061,4.061V27.58c0,2.407-1.827,4.061-4.061,4.061H4.061
	C1.827,31.641,0,29.988,0,27.58V4.061C0,1.654,1.827,0,4.061,0L4.061,0z M23.049,3.515c-0.784,0-1.424,0.641-1.424,1.425v3.41
	c0,0.784,0.64,1.425,1.424,1.425h3.576c0.784,0,1.425-0.641,1.425-1.425V4.94c0-0.784-0.641-1.425-1.425-1.425H23.049
	L23.049,3.515z M28.065,13.381H25.28c0.263,0.86,0.406,1.772,0.406,2.714c0,5.263-4.404,9.529-9.836,9.529
	c-5.431,0-9.835-4.266-9.835-9.529c0-0.943,0.142-1.854,0.406-2.714H3.516v13.366c0,0.692,0.566,1.258,1.258,1.258h22.034
	c0.692,0,1.258-0.566,1.258-1.258L28.065,13.381L28.065,13.381z M15.85,9.595c-3.509,0-6.355,2.757-6.355,6.157
	s2.845,6.157,6.355,6.157c3.51,0,6.355-2.757,6.355-6.157S19.36,9.595,15.85,9.595z"/>
</svg>
