<?xml version="1.0" encoding="utf-8"?>
<!-- Generator: Adobe Illustrator 17.0.1, SVG Export Plug-In . SVG Version: 6.00 Build 0)  -->
<!DOCTYPE svg PUBLIC "-//W3C//DTD SVG 1.1//EN" "http://www.w3.org/Graphics/SVG/1.1/DTD/svg11.dtd">
<svg version="1.1" xmlns="http://www.w3.org/2000/svg" xmlns:xlink="http://www.w3.org/1999/xlink" x="0px" y="0px"
	 width="783.661px" height="148.316px" viewBox="0 0 783.661 148.316" enable-background="new 0 0 783.661 148.316"
	 xml:space="preserve">
<g id="img">
</g>
<g id="main">
	<g id="FIND_x5F_logo_2">
	</g>
	<g>
		<polygon fill="#C9CBCA" points="783.661,0.711 772.375,0 0,145.757 37.246,148.316 		"/>
	</g>
	<g>
		<defs>
			<rect id="SVGID_3_" x="-855.248" y="-108.155" width="640" height="291.546"/>
		</defs>
		<clipPath id="SVGID_2_">
			<use xlink:href="#SVGID_3_"  overflow="visible"/>
		</clipPath>
		<g clip-path="url(#SVGID_2_)">
			<polygon fill="#FFFFFF" points="-369.731,72.166 -369.731,27.087 -400.915,27.087 -400.915,62.05 -410.813,62.05 -410.813,8.751 
				-441.998,8.751 -441.998,62.05 -454.063,62.05 -454.063,33.855 -468.494,33.855 -468.494,17.97 -543.016,17.97 -543.016,46.45 
				-570.818,46.45 -570.818,-22.551 -592.909,-22.551 -592.909,46.45 -600.795,46.45 -600.795,-58.772 -633.663,-58.772 
				-633.663,-69.669 -659.797,-69.669 -659.797,17.185 -664.689,17.185 -664.689,-91.42 -692.681,-91.42 -692.681,46.45 
				-699.555,46.45 -699.555,-69.669 -727.547,-69.669 -727.547,46.45 -740.689,46.45 -740.689,7.533 -746.731,7.533 
				-746.731,-22.551 -781.204,-22.551 -781.204,-47.134 -817.202,-47.134 -817.202,46.45 -820.555,46.45 -820.555,-17.2 
				-848.546,-17.2 -848.546,14.4 -867.286,14.4 -867.286,-22.772 -890.328,-22.772 -890.328,-38.373 -914.524,-38.373 
				-914.524,37.847 -941.754,37.847 -941.754,-25.24 -960.138,-25.24 -960.138,28.747 -974.385,28.747 -974.385,11.96 
				-1006.556,11.96 -1006.556,37.847 -1016.667,37.847 -1016.667,-7.775 -1040.106,-7.775 -1040.106,37.847 -1065.21,37.847 
				-1065.21,174.94 258.4,265.903 258.4,95.406 			"/>
			<polygon fill="#E6E6E6" points="258.399,136.627 -682.9,67.839 -1065.211,75.888 -1065.211,174.94 258.399,265.903 			"/>
			<g>
				<polygon fill="#C9CBCA" points="-813.192,74.003 72.012,253.093 -85.577,242.263 -816.616,74.029 				"/>
			</g>
		</g>
	</g>
</g>
</svg>
