<?xml version="1.0" encoding="utf-8"?>
<!-- Generator: Adobe Illustrator 17.0.1, SVG Export Plug-In . SVG Version: 6.00 Build 0)  -->
<!DOCTYPE svg PUBLIC "-//W3C//DTD SVG 1.1//EN" "http://www.w3.org/Graphics/SVG/1.1/DTD/svg11.dtd">
<svg version="1.1" xmlns="http://www.w3.org/2000/svg" xmlns:xlink="http://www.w3.org/1999/xlink" x="0px" y="0px"
	 width="44.257px" height="55.071px" viewBox="0 0 44.257 55.071" enable-background="new 0 0 44.257 55.071" xml:space="preserve">
<g id="Layer_1">
	<g id="New_Symbol_1_">
	</g>
	<g id="New_Symbol_2_">
	</g>
	<g id="New_Symbol">
	</g>
	<g id="Arrow">
	</g>
	<path fill="#4D4D4D" d="M41.489,21.884h-2.162v-4.757C39.327,7.683,31.644,0,22.2,0C12.756,0,5.074,7.683,5.074,17.127v4.757H2.768
		C1.239,21.884,0,23.123,0,24.652v27.651c0,1.529,1.239,2.768,2.768,2.768h38.721c1.529,0,2.768-1.239,2.768-2.768V24.652
		C44.257,23.123,43.018,21.884,41.489,21.884z M10.61,17.127c0-6.391,5.2-11.591,11.591-11.591s11.591,5.2,11.591,11.591v4.757
		H10.61V17.127z M38.721,49.535H5.536V27.42h2.306h28.717h2.162V49.535z"/>
</g>
<g id="Layer_6">
</g>
</svg>
