<svg version="1.1" xmlns="http://www.w3.org/2000/svg" xmlns:xlink="http://www.w3.org/1999/xlink" x="0px" y="0px"
                     width="15.573px" height="19.378px" viewBox="0 0 15.573 19.378" enable-background="new 0 0 15.573 19.378" xml:space="preserve">
								<path class="fplus" fill="#4D4D4D" d="M14.599,7.701h-0.761V6.026C13.838,2.704,11.135,0,7.812,0C4.489,0,1.785,2.704,1.785,6.026v1.674H0.974
								C0.436,7.701,0,8.137,0,8.674v9.73c0,0.538,0.436,0.974,0.974,0.974h13.625c0.538,0,0.974-0.436,0.974-0.974v-9.73
								C15.573,8.137,15.137,7.701,14.599,7.701z M3.733,6.026c0-2.249,1.83-4.079,4.079-4.079s4.079,1.83,4.079,4.079v1.674H3.733V6.026z
								M13.625,17.43H1.948V9.648h0.811h10.105h0.761V17.43z"/>
								</svg>
