<?xml version="1.0" encoding="utf-8"?>
<!-- Generator: Adobe Illustrator 17.0.1, SVG Export Plug-In . SVG Version: 6.00 Build 0)  -->
<!DOCTYPE svg PUBLIC "-//W3C//DTD SVG 1.1//EN" "http://www.w3.org/Graphics/SVG/1.1/DTD/svg11.dtd">
<svg version="1.1" xmlns="http://www.w3.org/2000/svg" xmlns:xlink="http://www.w3.org/1999/xlink" x="0px" y="0px"
	 width="701.494px" height="553.723px" viewBox="0 0 701.494 553.723" enable-background="new 0 0 701.494 553.723"
	 xml:space="preserve">
<g id="img">
</g>
<g id="main">
	<g id="FIND_x5F_logo_2">
	</g>
	<g>
		<path fill="#00AFE1" d="M416.546,553.363l-1.999-0.048c1.011-42.597,12.904-79.255,36.359-112.07
			c20.891-29.228,48.828-52.782,75.845-75.562c55.542-46.828,112.974-95.251,112.974-195.874h2
			c0,101.552-57.793,150.28-113.684,197.403C474.324,412.502,418.779,459.334,416.546,553.363z"/>
		<path fill="#00AFE1" d="M416.547,553.339h-2c0-41.126,11.818-75.93,36.128-106.401c21.659-27.148,51.083-48.496,79.538-69.141
			c67.486-48.962,137.269-99.591,113.551-232.403l1.969-0.352c23.938,134.046-46.36,185.049-114.345,234.374
			C472.329,422.264,416.547,462.735,416.547,553.339z"/>
		<path fill="#00AFE1" d="M416.547,553.34l-2-0.002c0.032-34.133,14.066-65.013,42.904-94.402
			c25.702-26.193,60.826-49.078,94.794-71.209c63.863-41.608,129.899-84.633,144.324-153.882
			c10.498-50.396-7.197-109.495-54.097-180.674l1.67-1.101c47.208,71.646,64.998,131.239,54.385,182.183
			c-14.595,70.063-80.985,113.319-145.19,155.15C483.027,435.212,416.616,478.48,416.547,553.34z"/>
		<path fill="#00AFE1" d="M414.547,552.701c0,0,0.239-6.557,0.656-18.031c0.162-2.871,0.342-6.049,0.538-9.51
			c0.193-3.461,0.387-7.204,0.729-11.193c0.323-3.99,0.61-8.24,1.016-12.712c0.443-4.468,0.91-9.167,1.396-14.069
			c0.596-4.891,1.167-9.991,1.848-15.258c0.367-2.63,0.741-5.305,1.12-8.021c0.19-1.358,0.381-2.726,0.573-4.104
			c0.217-1.375,0.435-2.759,0.655-4.153c0.443-2.787,0.892-5.612,1.347-8.472c0.5-2.852,1.006-5.739,1.518-8.658
			c0.506-2.92,1.04-5.867,1.63-8.832c0.578-2.968,1.162-5.964,1.751-8.985c2.44-12.068,5.226-24.479,8.141-37.065
			c2.911-12.587,5.97-25.345,8.789-38.153c2.817-12.807,5.372-25.671,7.373-38.418c1.998-12.745,3.496-25.364,4.357-37.623
			c0.23-3.063,0.346-6.108,0.523-9.121c0.078-1.507,0.155-3.006,0.232-4.499c0.037-1.494,0.074-2.98,0.11-4.458
			c0.06-2.956,0.174-5.88,0.188-8.77c-0.013-2.89-0.025-5.745-0.038-8.562c-0.014-1.408,0.005-2.807-0.036-4.195
			c-0.046-1.388-0.092-2.766-0.137-4.134c-0.091-2.735-0.18-5.429-0.268-8.078c-0.276-5.293-0.623-10.404-0.917-15.313
			c-0.434-4.898-0.851-9.593-1.247-14.058c-0.463-4.458-0.983-8.679-1.429-12.65c-0.416-3.975-0.977-7.674-1.45-11.1
			c-0.479-3.425-0.92-6.571-1.317-9.413c-1.85-11.328-2.908-17.801-2.908-17.801l0.432-0.076c0,0,1.082,6.473,2.976,17.8
			c0.408,2.842,0.861,5.989,1.353,9.415c0.487,3.427,1.061,7.126,1.492,11.103c0.46,3.973,0.997,8.196,1.477,12.657
			c0.413,4.468,0.847,9.167,1.3,14.069c0.312,4.914,0.679,10.03,0.975,15.33c0.098,2.653,0.198,5.35,0.299,8.09
			c0.051,1.37,0.101,2.75,0.153,4.14c0.046,1.39,0.032,2.792,0.052,4.203c0.023,2.822,0.046,5.682,0.07,8.577
			c-0.004,2.895-0.106,5.825-0.156,8.788c-0.031,1.481-0.062,2.97-0.094,4.467c-0.071,1.495-0.143,2.999-0.215,4.509
			c-0.166,3.019-0.271,6.072-0.49,9.142c-0.817,12.289-2.272,24.943-4.227,37.724c-1.958,12.782-4.47,25.68-7.243,38.512
			c-2.774,12.833-5.787,25.607-8.65,38.199c-2.867,12.591-5.603,24.998-7.994,37.055c-0.576,3.018-1.148,6.011-1.714,8.975
			c-0.579,2.962-1.1,5.906-1.594,8.821c-0.5,2.914-0.995,5.797-1.483,8.645c-0.443,2.855-0.881,5.676-1.313,8.459
			c-0.214,1.392-0.427,2.774-0.638,4.146c-0.187,1.376-0.373,2.741-0.557,4.097c-0.368,2.711-0.731,5.38-1.088,8.006
			c-0.661,5.257-1.211,10.347-1.787,15.228c-0.467,4.892-0.915,9.581-1.341,14.04c-0.389,4.462-0.659,8.704-0.967,12.685
			c-0.326,3.981-0.505,7.712-0.685,11.161c-0.182,3.449-0.35,6.616-0.501,9.477c-0.375,11.475-0.589,18.031-0.589,18.031
			L414.547,552.701z"/>
		<path fill="#00AFE1" d="M414.548,553.296c0,0,0.081-1.848,0.233-5.312c0.076-1.732,0.17-3.869,0.28-6.381
			c0.136-2.512,0.168-5.397,0.483-8.635c0.263-3.236,0.554-6.82,0.871-10.721c0.079-0.975,0.16-1.97,0.242-2.985
			c0.097-1.013,0.235-2.04,0.354-3.088c0.248-2.096,0.505-4.267,0.771-6.51c0.268-2.243,0.545-4.557,0.83-6.94
			c0.367-2.372,0.745-4.811,1.133-7.316c0.388-2.504,0.785-5.072,1.193-7.701c0.495-2.614,1.002-5.288,1.52-8.019
			c1.988-10.942,4.828-22.655,8.033-34.978c3.362-12.284,7.276-25.129,11.637-38.308c4.382-13.172,9.156-26.69,13.849-40.472
			c4.689-13.782,9.273-27.843,13.14-42.106c3.832-14.269,6.868-28.754,8.793-43.164c1.921-14.404,2.891-28.725,2.578-42.574
			c-0.011-1.731-0.022-3.455-0.033-5.172c-0.093-1.714-0.185-3.42-0.277-5.119c-0.193-3.396-0.346-6.762-0.566-10.088
			c-0.338-3.316-0.673-6.597-1.003-9.838c-0.165-1.621-0.33-3.231-0.493-4.832c-0.199-1.596-0.462-3.174-0.688-4.745
			c-0.468-3.141-0.929-6.239-1.384-9.29c-0.114-0.763-0.227-1.523-0.339-2.28c-0.119-0.756-0.284-1.501-0.424-2.248
			c-0.29-1.491-0.578-2.97-0.863-4.437c-0.571-2.933-1.132-5.817-1.683-8.648c-0.14-0.707-0.279-1.411-0.418-2.112
			c-0.166-0.695-0.331-1.386-0.495-2.074c-0.329-1.376-0.654-2.738-0.976-4.086c-0.644-2.697-1.274-5.337-1.89-7.917
			c-0.311-1.29-0.618-2.564-0.922-3.824c-0.351-1.247-0.697-2.479-1.039-3.696c-1.367-4.866-2.664-9.482-3.883-13.819
			c-1.307-4.311-2.649-8.311-3.826-12.028c-1.217-3.704-2.235-7.141-3.333-10.185c-4.38-12.179-6.883-19.138-6.883-19.138
			l0.41-0.156c0,0,2.528,6.956,6.951,19.129c1.108,3.042,2.139,6.479,3.369,10.182c1.19,3.717,2.547,7.716,3.869,12.028
			c1.235,4.339,2.548,8.956,3.933,13.823c0.346,1.217,0.697,2.449,1.052,3.697c0.308,1.26,0.621,2.535,0.936,3.826
			c0.625,2.582,1.265,5.224,1.919,7.923c0.327,1.349,0.657,2.713,0.99,4.089c0.167,0.688,0.334,1.38,0.503,2.076
			c0.141,0.701,0.283,1.406,0.425,2.114c0.561,2.834,1.133,5.721,1.715,8.658c0.291,1.469,0.584,2.949,0.88,4.442
			c0.142,0.748,0.31,1.494,0.432,2.251c0.115,0.758,0.231,1.52,0.348,2.284c0.466,3.057,0.938,6.16,1.417,9.306
			c0.231,1.574,0.5,3.155,0.705,4.754c0.169,1.604,0.339,3.218,0.51,4.842c0.342,3.248,0.688,6.536,1.038,9.86
			c0.232,3.333,0.397,6.709,0.601,10.114c0.098,1.703,0.196,3.414,0.295,5.133c0.017,1.722,0.034,3.451,0.051,5.187
			c0.359,13.891-0.565,28.267-2.446,42.729c-1.884,14.468-4.883,29.016-8.679,43.338c-3.831,14.316-8.378,28.42-13.025,42.228
			c-4.651,13.809-9.38,27.339-13.712,40.507c-4.311,13.174-8.174,26.002-11.485,38.26c-3.155,12.295-5.947,23.976-7.89,34.881
			c-0.507,2.722-1.003,5.387-1.488,7.992c-0.397,2.62-0.784,5.179-1.162,7.674c-0.378,2.495-0.746,4.926-1.104,7.289
			c-0.276,2.374-0.543,4.68-0.803,6.915c-0.257,2.235-0.506,4.398-0.746,6.485c-0.115,1.044-0.249,2.068-0.343,3.076
			c-0.079,1.008-0.156,1.998-0.231,2.967c-0.302,3.877-0.58,7.438-0.831,10.655c-0.302,3.209-0.326,6.11-0.453,8.619
			c-0.102,2.512-0.189,4.649-0.259,6.381c-0.141,3.465-0.216,5.313-0.216,5.313L414.548,553.296z"/>
		<path fill="#00AFE1" d="M414.547,553.325c0,0,0.028-1.897,0.081-5.454c0.027-1.778,0.059-3.972,0.097-6.55
			c0.029-2.578,0.114-5.545,0.068-8.857c-0.041-6.629-0.025-14.677-0.317-23.914c-0.057-2.309-0.116-4.692-0.177-7.146
			c-0.103-2.452-0.208-4.975-0.316-7.564s-0.219-5.245-0.333-7.963c-0.152-2.717-0.308-5.497-0.467-8.336
			c-0.164-2.839-0.331-5.737-0.502-8.69c-0.21-2.951-0.423-5.958-0.64-9.016c-0.403-6.119-0.956-12.435-1.487-18.931
			c-1.116-12.988-2.433-26.675-3.882-40.828c-1.427-14.155-2.976-28.778-4.351-43.66c-1.366-14.882-2.647-30.017-3.402-45.189
			c-0.756-15.17-1.041-30.369-0.669-45.321c0.133-3.737,0.265-7.459,0.397-11.162c0.244-3.698,0.487-7.377,0.728-11.035l0.181-2.739
			l0.269-2.723c0.179-1.812,0.358-3.618,0.536-5.418c0.178-1.8,0.355-3.593,0.532-5.379c0.212-1.782,0.469-3.552,0.699-5.318
			c1.708-14.146,4.416-27.67,7.355-40.384c0.792-3.166,1.574-6.29,2.344-9.366c0.192-0.769,0.384-1.535,0.575-2.298
			c0.219-0.756,0.437-1.508,0.654-2.258c0.437-1.499,0.87-2.985,1.3-4.459c0.868-2.945,1.685-5.853,2.554-8.685
			c0.938-2.811,1.858-5.569,2.759-8.27c0.451-1.351,0.897-2.688,1.338-4.01c0.434-1.325,0.873-2.631,1.372-3.9
			c0.96-2.551,1.898-5.043,2.812-7.472c0.929-2.423,1.772-4.809,2.703-7.084c0.95-2.267,1.874-4.469,2.768-6.603
			c3.457-8.588,7.011-15.836,9.764-21.881c0.348-0.754,0.688-1.487,1.017-2.2c0.353-0.702,0.696-1.383,1.028-2.044
			c0.667-1.32,1.292-2.558,1.874-3.709c1.163-2.303,2.153-4.262,2.955-5.85c1.604-3.176,2.46-4.87,2.46-4.87l0.388,0.204
			c0,0-0.85,1.695-2.442,4.874c-0.797,1.589-1.779,3.55-2.934,5.854c-0.577,1.152-1.198,2.391-1.86,3.712
			c-0.33,0.661-0.67,1.343-1.02,2.045c-0.327,0.713-0.664,1.447-1.009,2.201c-2.73,6.048-6.258,13.3-9.682,21.888
			c-0.887,2.134-1.802,4.336-2.744,6.603c-0.922,2.275-1.757,4.66-2.677,7.083c-0.905,2.429-1.833,4.92-2.784,7.47
			c-0.494,1.268-0.928,2.575-1.357,3.899c-0.436,1.322-0.877,2.657-1.323,4.008c-0.891,2.7-1.801,5.456-2.728,8.265
			c-0.858,2.83-1.664,5.735-2.521,8.677c-0.424,1.473-0.852,2.958-1.283,4.455c-0.214,0.749-0.429,1.501-0.646,2.256
			c-0.188,0.762-0.377,1.528-0.567,2.296c-0.759,3.073-1.528,6.192-2.309,9.354c-2.892,12.698-5.551,26.199-7.209,40.318
			c-0.224,1.762-0.475,3.529-0.681,5.307c-0.17,1.783-0.342,3.572-0.514,5.368c-0.172,1.796-0.344,3.598-0.518,5.407l-0.26,2.717
			l-0.171,2.733c-0.229,3.649-0.46,7.321-0.691,11.011c-0.119,3.696-0.24,7.41-0.36,11.139c-0.324,14.92,0.01,30.087,0.813,45.23
			c0.802,15.144,2.13,30.258,3.543,45.125c1.422,14.866,3.017,29.481,4.49,43.635c1.495,14.151,2.856,27.843,4.015,40.84
			c0.552,6.501,1.126,12.823,1.549,18.949c0.227,3.062,0.451,6.072,0.67,9.026c0.18,2.957,0.357,5.859,0.531,8.702
			c0.168,2.843,0.333,5.627,0.494,8.348c0.123,2.723,0.242,5.383,0.359,7.977c0.117,2.594,0.23,5.12,0.341,7.577
			c0.069,2.458,0.135,4.846,0.2,7.159c0.322,9.251,0.332,17.33,0.394,23.98c0.056,3.328-0.019,6.289-0.04,8.868
			c-0.03,2.579-0.055,4.772-0.076,6.551c-0.042,3.557-0.063,5.454-0.063,5.454L414.547,553.325z"/>
		<path fill="#00AFE1" d="M414.547,553.701c0,0,0.022-1.974,0.064-5.676c0.021-1.851,0.047-4.134,0.077-6.818
			c0.036-2.684,0.086-5.771-0.006-9.214c-0.057-3.447-0.12-7.263-0.189-11.418c-0.082-4.155-0.353-8.648-0.542-13.449
			c-0.153-4.805-0.57-9.902-0.944-15.28c-0.213-2.687-0.336-5.451-0.637-8.266c-0.273-2.817-0.553-5.7-0.838-8.644
			c-0.501-5.895-1.356-12-2.1-18.335c-0.351-3.17-0.878-6.372-1.337-9.633c-0.488-3.257-0.928-6.572-1.475-9.917
			c-2.171-13.385-4.774-27.45-7.866-41.921c-3.126-14.463-6.65-29.347-10.469-44.414c-3.843-15.061-7.922-30.319-12.016-45.575
			c-4.103-15.254-8.179-30.519-12.004-45.595c-1.938-7.532-3.74-15.034-5.535-22.443c-1.705-7.43-3.461-14.754-4.971-22.007
			c-3.178-14.471-5.786-28.559-8.036-41.951c-1.042-6.71-2.152-13.223-2.948-19.564c-0.43-3.166-0.852-6.278-1.267-9.332
			c-0.349-3.063-0.691-6.068-1.026-9.012c-0.327-2.945-0.646-5.828-0.959-8.647c-0.249-2.825-0.493-5.584-0.73-8.275
			c-0.237-2.69-0.469-5.311-0.693-7.859c-0.164-2.553-0.323-5.032-0.477-7.434c-0.152-2.403-0.299-4.728-0.44-6.973
			c-0.071-1.122-0.141-2.224-0.209-3.306c-0.041-1.083-0.081-2.145-0.12-3.186c-0.156-4.163-0.3-7.988-0.429-11.442
			c-0.166-3.453-0.15-6.54-0.192-9.225c-0.031-2.685-0.057-4.968-0.078-6.82c-0.042-3.703-0.065-5.678-0.065-5.678h0.393
			c0,0,0.029,1.974,0.083,5.675c0.027,1.85,0.061,4.132,0.1,6.815c0.051,2.683,0.044,5.768,0.221,9.218
			c0.141,3.451,0.296,7.272,0.465,11.432c0.042,1.04,0.086,2.101,0.13,3.183c0.072,1.08,0.145,2.182,0.219,3.303
			c0.149,2.243,0.303,4.566,0.462,6.966c0.162,2.4,0.328,4.877,0.5,7.427c0.233,2.545,0.472,5.163,0.718,7.85
			c0.246,2.687,0.498,5.443,0.755,8.265c0.322,2.815,0.65,5.695,0.986,8.636c0.344,2.94,0.696,5.942,1.054,9.001
			c0.424,3.051,0.856,6.158,1.295,9.32c0.816,6.332,1.945,12.835,3.008,19.535c2.291,13.372,4.94,27.437,8.162,41.886
			c1.531,7.241,3.31,14.554,5.036,21.973c1.818,7.398,3.642,14.889,5.603,22.41c3.871,15.055,7.994,30.301,12.145,45.542
			c4.142,15.243,8.271,30.493,12.165,45.553c3.869,15.067,7.445,29.957,10.622,44.433c3.143,14.484,5.796,28.569,8.014,41.977
			c0.559,3.351,1.011,6.673,1.51,9.936c0.47,3.267,1.009,6.475,1.371,9.652c0.767,6.348,1.643,12.466,2.164,18.376
			c0.296,2.951,0.585,5.841,0.868,8.665c0.311,2.822,0.443,5.594,0.665,8.288c0.392,5.392,0.826,10.504,0.995,15.322
			c0.205,4.816,0.49,9.318,0.586,13.491c0.082,4.174,0.158,8.008,0.226,11.47c0.103,3.466,0.063,6.55,0.036,9.233
			c-0.022,2.684-0.041,4.967-0.056,6.818c-0.031,3.702-0.047,5.677-0.047,5.677L414.547,553.701z"/>
		<path fill="#00AFE1" d="M414.547,553.698c0,0,0.029-2.086,0.083-5.997c0.012-0.977,0.025-2.069,0.039-3.27
			c-0.01-1.197-0.021-2.505-0.033-3.917c-0.012-1.413-0.025-2.931-0.038-4.551c-0.047-1.621-0.097-3.344-0.15-5.164
			c-0.2-7.281-0.685-16.119-1.591-26.228c-0.898-10.109-2.239-21.49-4.153-33.84c-1.908-12.351-4.387-25.669-7.423-39.67
			c-3.018-14.005-6.66-28.675-10.699-43.779c-8.092-30.209-18.038-62.069-27.951-93.938c-4.943-15.94-9.869-31.889-14.454-47.669
			c-4.6-15.775-8.858-31.384-12.509-46.608c-3.666-15.219-6.672-30.064-8.897-44.245c-2.157-14.188-3.6-27.707-4.048-40.231
			c-0.488-12.52-0.152-24.026,0.816-34.162c0.973-10.137,2.497-18.902,4.152-26.02c0.361-1.792,0.827-3.459,1.225-5.037
			c0.42-1.572,0.751-3.063,1.171-4.419c0.829-2.715,1.461-5.047,2.099-6.898c1.264-3.706,1.939-5.682,1.939-5.682l0.37,0.134
			c0,0-0.667,1.974-1.917,5.675c-0.632,1.849-1.256,4.178-2.074,6.889c-0.415,1.354-0.741,2.843-1.155,4.412
			c-0.392,1.576-0.853,3.239-1.207,5.029c-1.63,7.106-3.124,15.854-4.064,25.969c-0.936,10.114-1.236,21.594-0.712,34.085
			c0.485,12.495,1.966,25.982,4.161,40.138c2.264,14.15,5.31,28.963,9.017,44.152c3.693,15.193,7.993,30.774,12.637,46.525
			c4.629,15.756,9.601,31.683,14.592,47.607c10.008,31.836,20.056,63.683,28.249,93.906c4.09,15.111,7.782,29.794,10.849,43.82
			c3.084,14.021,5.609,27.366,7.561,39.748c1.957,12.381,3.336,23.797,4.269,33.942c0.94,10.145,1.454,19.019,1.677,26.333
			c0.059,1.829,0.114,3.559,0.166,5.188c0.019,1.631,0.036,3.161,0.052,4.583c0.016,1.423,0.031,2.74,0.045,3.946
			c-0.011,1.202-0.021,2.294-0.029,3.272c-0.042,3.911-0.065,5.997-0.065,5.997L414.547,553.698z"/>
		<path fill="#00AFE1" d="M414.547,553.701c0,0,0.024-2.217,0.068-6.374c0.051-2.083-0.005-4.633-0.061-7.632
			c-0.038-1.5-0.029-3.111-0.111-4.832c-0.077-1.721-0.159-3.55-0.246-5.483c-0.416-7.725-1.093-17.107-2.507-27.8
			c-1.38-10.695-3.386-22.708-6.157-35.697c-2.752-12.993-6.335-26.942-10.574-41.566c-4.226-14.63-9.211-29.905-14.634-45.615
			c-10.856-31.422-23.707-64.498-35.605-97.935c-5.942-16.72-11.61-33.545-16.602-50.292c-2.508-8.37-4.791-16.734-6.915-25.031
			c-2.107-8.302-3.945-16.565-5.592-24.723c-1.594-8.17-2.936-16.247-4.012-24.188c-0.24-1.989-0.479-3.967-0.717-5.933
			c-0.117-0.984-0.233-1.964-0.349-2.942c-0.092-0.98-0.183-1.958-0.275-2.933c-0.179-1.949-0.356-3.887-0.533-5.812
			c-0.127-1.929-0.253-3.846-0.378-5.75c-0.966-15.235-0.544-29.708,0.733-42.963c1.277-13.265,3.654-25.282,6.344-35.759
			c2.669-10.493,5.852-19.397,8.667-26.631c0.722-1.803,1.405-3.509,2.048-5.115c0.666-1.596,1.352-3.066,1.957-4.448
			c0.613-1.378,1.181-2.653,1.701-3.821c0.523-1.167,1.064-2.196,1.513-3.134c1.834-3.735,2.812-5.727,2.812-5.727l0.35,0.179
			c0,0-0.971,1.992-2.791,5.726c-0.446,0.938-0.983,1.966-1.502,3.133c-0.516,1.168-1.079,2.442-1.687,3.82
			c-0.6,1.381-1.281,2.85-1.941,4.445c-0.637,1.604-1.314,3.309-2.029,5.111c-2.788,7.228-5.94,16.121-8.573,26.597
			c-2.654,10.46-4.991,22.453-6.227,35.687c-1.236,13.224-1.616,27.659-0.609,42.853c0.13,1.899,0.261,3.81,0.394,5.734
			c0.182,1.92,0.364,3.852,0.548,5.797c0.094,0.972,0.188,1.947,0.282,2.925c0.118,0.975,0.237,1.953,0.356,2.934
			c0.243,1.961,0.487,3.934,0.732,5.917c1.096,7.919,2.458,15.974,4.071,24.122c1.667,8.137,3.524,16.378,5.651,24.659
			c2.144,8.276,4.447,16.62,6.975,24.971c5.032,16.708,10.742,33.499,16.727,50.19c11.983,33.379,24.929,66.422,35.886,97.847
			c5.473,15.713,10.51,30.998,14.787,45.649c4.29,14.645,7.923,28.624,10.721,41.655c2.817,13.027,4.866,25.084,6.283,35.826
			c1.451,10.739,2.158,20.171,2.599,27.939c0.093,1.944,0.181,3.783,0.263,5.514c0.087,1.731,0.083,3.361,0.125,4.874
			c0.065,3.028,0.128,5.605,0.083,7.679c-0.032,4.157-0.05,6.375-0.05,6.375L414.547,553.701z"/>
		<path fill="#00AFE1" d="M414.547,553.702c0,0,0.019-1.763,0.055-5.068c0.07-3.316,0.006-8.128-0.213-14.27
			c-0.163-3.07-0.269-6.474-0.61-10.165c-0.164-1.845-0.263-3.773-0.497-5.76c-0.22-1.988-0.448-4.048-0.684-6.176
			c-1.077-8.494-2.688-18.036-5.175-28.28c-2.474-10.245-5.828-21.189-10.269-32.43c-2.166-5.641-4.688-11.318-7.362-17.073
			c-2.706-5.742-5.682-11.506-8.829-17.304c-3.187-5.777-6.577-11.568-10.129-17.36c-3.566-5.783-7.306-11.557-11.147-17.332
			c-7.691-11.545-15.839-23.055-23.875-34.651c-8.034-11.596-15.955-23.29-23.135-35.197c-7.215-11.88-13.623-24.013-18.865-36.18
			c-5.23-12.171-9.262-24.38-11.986-36.215c-2.804-11.82-4.261-23.25-4.924-33.818c-0.658-10.576-0.466-20.301,0.071-28.886
			c0.16-2.145,0.315-4.221,0.465-6.225c0.21-1.998,0.414-3.925,0.609-5.776c0.099-0.925,0.196-1.832,0.291-2.719
			c0.121-0.884,0.24-1.749,0.355-2.594c0.235-1.69,0.458-3.301,0.671-4.83c0.958-6.1,1.794-10.881,2.483-14.116
			c0.65-3.243,0.997-4.973,0.997-4.973l0.385,0.082c0,0-0.34,1.729-0.978,4.97c-0.676,3.234-1.495,8.011-2.429,14.104
			c-0.207,1.527-0.424,3.137-0.652,4.824c-0.113,0.844-0.228,1.708-0.346,2.59c-0.092,0.886-0.185,1.791-0.281,2.715
			c-0.188,1.848-0.384,3.771-0.587,5.767c-0.142,2-0.289,4.073-0.441,6.214c-0.505,8.568-0.662,18.269,0.031,28.811
			c0.698,10.534,2.191,21.919,5.027,33.684c2.755,11.781,6.814,23.926,12.068,36.032c5.266,12.103,11.694,24.171,18.933,35.995
			c7.204,11.85,15.152,23.497,23.222,35.057c8.072,11.56,16.266,23.047,24.012,34.586c3.868,5.772,7.638,11.546,11.236,17.334
			c3.584,5.796,7.006,11.597,10.228,17.387c3.182,5.811,6.193,11.593,8.933,17.355c2.709,5.776,5.265,11.477,7.465,17.144
			c4.508,11.294,7.925,22.302,10.453,32.61c2.542,10.308,4.198,19.913,5.313,28.465c0.245,2.142,0.482,4.216,0.711,6.218
			c0.242,2,0.349,3.941,0.521,5.799c0.357,3.716,0.477,7.143,0.651,10.234c0.243,6.188,0.323,11.077,0.265,14.37
			c-0.024,3.306-0.037,5.069-0.037,5.069L414.547,553.702z"/>
		<path fill="#00AFE1" d="M414.547,553.72c0,0-0.019-2.25-0.053-6.468c0.055-2.125-0.2-4.675-0.423-7.691
			c-0.127-3.02-0.727-6.466-1.271-10.334c-1.364-7.682-3.627-16.952-7.791-27.026c-4.132-10.074-10.154-20.896-18.139-31.696
			c-1.924-2.754-4.148-5.369-6.329-8.099c-1.071-1.382-2.269-2.679-3.443-4.018c-1.179-1.334-2.369-2.68-3.569-4.037
			c-4.986-5.26-10.241-10.615-16.015-15.73c-5.681-5.215-11.854-10.195-18.212-15.215c-6.455-4.897-13.11-9.829-20.104-14.526
			c-13.907-9.51-28.819-18.54-44.22-27.264c-15.395-8.742-31.326-17.108-47.337-25.315c-32.034-16.392-64.48-32.014-94.242-47.957
			c-14.878-7.971-29.065-16.059-42.173-24.294c-13.072-8.286-25.044-16.764-35.405-25.451
			c-10.315-8.732-18.994-17.684-25.587-26.487c-6.577-8.82-10.919-17.491-13.504-24.944c-0.585-1.885-1.199-3.653-1.668-5.346
			c-0.388-1.715-0.751-3.323-1.089-4.819c-0.084-0.374-0.167-0.741-0.249-1.101c-0.05-0.366-0.098-0.724-0.146-1.075
			c-0.094-0.703-0.185-1.376-0.271-2.021c-0.168-1.289-0.341-2.458-0.459-3.508c-0.184-4.226-0.281-6.48-0.281-6.48h0.394
			c0,0,0.104,2.241,0.298,6.443c0.121,1.044,0.296,2.206,0.467,3.487c0.088,0.64,0.179,1.31,0.275,2.008
			c0.048,0.349,0.098,0.705,0.148,1.069c0.082,0.358,0.165,0.722,0.25,1.094c0.34,1.486,0.706,3.083,1.096,4.787
			c0.471,1.682,1.087,3.437,1.674,5.309c2.591,7.401,6.931,16.011,13.502,24.772c6.588,8.744,15.259,17.639,25.568,26.317
			c10.356,8.633,22.326,17.06,35.398,25.296c13.11,8.186,27.301,16.224,42.189,24.147c29.782,15.847,62.263,31.375,94.361,47.687
			c16.043,8.167,32.012,16.496,47.455,25.209c15.45,8.695,30.419,17.701,44.397,27.203c7.028,4.692,13.723,9.624,20.219,14.523
			c6.4,5.024,12.616,10.012,18.347,15.242c5.821,5.128,11.129,10.506,16.167,15.792c1.214,1.365,2.417,2.718,3.61,4.06
			c1.187,1.347,2.398,2.652,3.483,4.043c2.21,2.748,4.459,5.381,6.412,8.158c8.096,10.885,14.226,21.825,18.445,32.029
			c4.251,10.204,6.578,19.612,7.983,27.41c0.566,3.927,1.181,7.415,1.323,10.516c0.237,3.083,0.5,5.714,0.45,7.814
			c0.046,4.218,0.071,6.468,0.071,6.468L414.547,553.72z"/>
		<path fill="#00AFE1" d="M414.547,553.719c0,0-0.017-2.489-0.047-7.155c-0.005-0.583-0.011-1.2-0.017-1.85
			c-0.045-0.642-0.092-1.318-0.142-2.025c-0.099-1.416-0.206-2.961-0.323-4.63c-0.071-1.672-0.324-3.461-0.581-5.371
			c-0.271-1.907-0.474-3.947-0.845-6.077c-1.433-8.532-3.997-18.776-8.26-30.069c-4.264-11.287-10.247-23.601-18.084-36.254
			c-7.853-12.644-17.455-25.659-28.439-38.733c-11.047-13.025-23.43-26.141-36.754-39.185
			c-13.344-13.027-27.549-26.066-42.234-39.035c-14.668-12.988-29.77-25.961-44.834-38.98c-15.07-13.013-30.08-26.104-44.593-39.287
			c-14.477-13.219-28.489-26.508-41.389-40.021c-1.608-1.693-3.21-3.378-4.805-5.056c-1.565-1.706-3.124-3.404-4.675-5.094
			c-3.13-3.355-6.067-6.825-9.047-10.19c-5.802-6.867-11.416-13.648-16.477-20.561c-10.292-13.693-18.773-27.582-25.299-41.037
			c-6.588-13.435-10.851-26.581-13.361-38.463c-2.512-11.9-3.183-22.536-3.097-31.255c0.278-8.722,1.075-15.544,1.862-20.148
			c0.836-4.598,1.282-7.049,1.282-7.049l0.385,0.082c0,0-0.438,2.446-1.26,7.033c-0.774,4.592-1.551,11.396-1.806,20.089
			c-0.063,8.69,0.632,19.286,3.165,31.136c2.531,11.832,6.811,24.919,13.411,38.294c6.539,13.396,15.03,27.224,25.333,40.86
			c5.066,6.883,10.686,13.637,16.494,20.476c2.983,3.352,5.923,6.808,9.056,10.149c1.552,1.683,3.113,3.375,4.679,5.073
			c1.596,1.672,3.2,3.351,4.81,5.036c12.915,13.46,26.944,26.698,41.443,39.87c14.535,13.136,29.57,26.182,44.671,39.156
			c15.096,12.979,30.233,25.917,44.944,38.877c14.728,12.94,28.983,25.96,42.385,38.977c13.382,13.036,25.832,26.155,36.954,39.201
			c11.06,13.096,20.745,26.153,28.684,38.862c7.923,12.719,13.992,25.124,18.329,36.518c4.336,11.401,6.959,21.764,8.432,30.405
			c0.382,2.157,0.593,4.225,0.873,6.156c0.265,1.934,0.525,3.745,0.604,5.457c0.123,1.705,0.236,3.282,0.34,4.727
			c0.052,0.723,0.101,1.412,0.148,2.068c0.008,0.651,0.015,1.268,0.021,1.852c0.042,4.666,0.065,7.155,0.065,7.155L414.547,553.719z
			"/>
		<path fill="#00AFE1" d="M414.547,553.708c0,0,0.002-0.639,0.008-1.877c0.002-0.619,0.006-1.388,0.009-2.302
			c-0.011-0.908-0.069-1.945-0.109-3.127c-0.023-1.179-0.135-2.5-0.258-3.954c-0.091-1.457-0.296-3.035-0.513-4.742
			c-0.178-1.712-0.562-3.524-0.871-5.472c-0.423-1.926-0.809-3.988-1.404-6.123c-2.199-8.568-6.158-18.717-12.767-29.186
			c-6.559-10.488-15.676-21.246-26.997-31.497c-11.294-10.289-24.705-20.128-39.53-29.491c-14.826-9.377-31.071-18.295-48.15-26.966
			c-34.17-17.352-71.699-33.666-108.707-51.106c-18.501-8.727-36.88-17.742-54.567-27.393
			c-17.673-9.661-34.689-19.932-50.194-31.269c-15.494-11.315-29.506-23.712-40.764-37.284
			c-5.597-6.799-10.541-13.838-14.596-21.073c-4.108-7.204-7.265-14.613-9.667-21.915c-2.334-7.329-3.853-14.574-4.679-21.532
			c-0.825-6.962-0.936-13.63-0.643-19.865c0.285-6.24,1.047-12.046,1.992-17.362c0.424-2.668,1.031-5.189,1.525-7.614
			c0.615-2.397,1.107-4.708,1.744-6.856c2.392-8.636,4.841-15.246,6.592-19.71c0.863-2.238,1.609-3.92,2.072-5.07
			c0.475-1.145,0.72-1.735,0.72-1.735l0.362,0.155c0,0-0.243,0.59-0.715,1.734c-0.459,1.149-1.199,2.83-2.055,5.066
			c-1.736,4.46-4.164,11.063-6.528,19.682c-0.63,2.144-1.115,4.449-1.722,6.841c-0.486,2.419-1.085,4.933-1.501,7.594
			c-0.929,5.3-1.674,11.087-1.942,17.301c-0.276,6.209-0.149,12.847,0.688,19.771c0.84,6.92,2.368,14.121,4.706,21.402
			c2.407,7.255,5.563,14.613,9.667,21.767c4.05,7.185,8.985,14.176,14.573,20.93c11.238,13.481,25.227,25.8,40.706,37.045
			c15.488,11.266,32.495,21.476,50.163,31.078c17.683,9.593,36.065,18.554,54.576,27.23c37.028,17.339,74.603,33.562,108.871,50.858
			c17.129,8.643,33.436,17.542,48.345,26.92c14.907,9.364,28.421,19.223,39.838,29.572c11.442,10.311,20.702,21.172,27.389,31.807
			c6.738,10.615,10.803,20.95,13.067,29.683c0.611,2.176,1.012,4.278,1.447,6.242c0.322,1.985,0.716,3.833,0.903,5.579
			c0.227,1.74,0.439,3.35,0.536,4.835c0.128,1.481,0.246,2.827,0.273,4.045c0.044,1.213,0.104,2.291,0.118,3.21
			c-0.001,0.914-0.003,1.683-0.004,2.302c-0.002,1.238-0.003,1.877-0.003,1.877L414.547,553.708z"/>
		<g>
			<g>
				<circle fill="#FFFFFF" cx="14.544" cy="181.221" r="7.952"/>
				<path fill="#00AFE1" d="M14.544,189.685c-4.667,0-8.463-3.797-8.463-8.463s3.797-8.463,8.463-8.463s8.463,3.797,8.463,8.463
					S19.211,189.685,14.544,189.685z M14.544,173.78c-4.103,0-7.441,3.338-7.441,7.441s3.338,7.441,7.441,7.441
					s7.441-3.338,7.441-7.441S18.647,173.78,14.544,173.78z"/>
			</g>
			<g>
				<circle fill="#FFFFFF" cx="14.544" cy="160.698" r="7.952"/>
				<path fill="#00AFE1" d="M14.544,169.161c-4.667,0-8.463-3.797-8.463-8.463s3.797-8.463,8.463-8.463s8.463,3.797,8.463,8.463
					S19.211,169.161,14.544,169.161z M14.544,153.257c-4.103,0-7.441,3.338-7.441,7.441s3.338,7.441,7.441,7.441
					s7.441-3.338,7.441-7.441S18.647,153.257,14.544,153.257z"/>
			</g>
			<g>
				<circle fill="#FFFFFF" cx="14.544" cy="140.174" r="7.952"/>
				<path fill="#00AFE1" d="M14.544,148.638c-4.667,0-8.463-3.797-8.463-8.463s3.797-8.463,8.463-8.463s8.463,3.797,8.463,8.463
					S19.211,148.638,14.544,148.638z M14.544,132.733c-4.103,0-7.441,3.338-7.441,7.441s3.338,7.441,7.441,7.441
					s7.441-3.338,7.441-7.441S18.647,132.733,14.544,132.733z"/>
			</g>
			<g>
				<circle fill="#FFFFFF" cx="14.544" cy="119.651" r="7.952"/>
				<path fill="#00AFE1" d="M14.544,128.114c-4.667,0-8.463-3.797-8.463-8.463s3.797-8.463,8.463-8.463s8.463,3.797,8.463,8.463
					S19.211,128.114,14.544,128.114z M14.544,112.209c-4.103,0-7.441,3.338-7.441,7.441s3.338,7.441,7.441,7.441
					s7.441-3.338,7.441-7.441S18.647,112.209,14.544,112.209z"/>
			</g>
			<g>
				<circle fill="#FFFFFF" cx="14.544" cy="99.127" r="7.952"/>
				<path fill="#00AFE1" d="M14.544,107.59c-4.667,0-8.463-3.797-8.463-8.463s3.797-8.463,8.463-8.463s8.463,3.797,8.463,8.463
					S19.211,107.59,14.544,107.59z M14.544,91.686c-4.103,0-7.441,3.338-7.441,7.441s3.338,7.441,7.441,7.441
					s7.441-3.338,7.441-7.441S18.647,91.686,14.544,91.686z"/>
			</g>
			<g>
				<g>
					<path fill="#878A8B" d="M11.095,100.64v-0.618c0.216,0.157,0.467,0.236,0.755,0.236c0.181,0,0.322-0.039,0.423-0.117
						s0.152-0.186,0.152-0.326c0-0.144-0.063-0.255-0.188-0.332c-0.125-0.078-0.297-0.117-0.516-0.117h-0.299v-0.544h0.276
						c0.419,0,0.629-0.139,0.629-0.418c0-0.262-0.161-0.393-0.483-0.393c-0.216,0-0.425,0.07-0.629,0.209v-0.58
						c0.226-0.114,0.49-0.171,0.791-0.171c0.329,0,0.586,0.074,0.769,0.222s0.275,0.341,0.275,0.577c0,0.421-0.213,0.684-0.64,0.791
						v0.011c0.228,0.028,0.407,0.111,0.539,0.248c0.132,0.137,0.198,0.305,0.198,0.504c0,0.301-0.11,0.539-0.33,0.714
						s-0.524,0.263-0.912,0.263C11.573,100.802,11.303,100.748,11.095,100.64z"/>
					<path fill="#878A8B" d="M13.797,100.662v-0.607c0.22,0.135,0.455,0.202,0.703,0.202c0.187,0,0.334-0.044,0.439-0.134
						s0.158-0.21,0.158-0.363c0-0.319-0.225-0.479-0.676-0.479c-0.166,0-0.358,0.013-0.575,0.038l0.121-1.797h1.705v0.58h-1.164
						l-0.045,0.645c0.115-0.009,0.215-0.013,0.299-0.013c0.331,0,0.59,0.087,0.777,0.261c0.187,0.174,0.281,0.407,0.281,0.701
						c0,0.325-0.112,0.591-0.335,0.797s-0.526,0.309-0.908,0.309C14.269,100.802,14.008,100.755,13.797,100.662z"/>
					<path fill="#878A8B" d="M17.994,97.452v3.293h-0.708v-2.494c-0.039,0.034-0.085,0.067-0.138,0.098s-0.11,0.058-0.17,0.083
						c-0.06,0.025-0.122,0.046-0.186,0.063c-0.064,0.017-0.128,0.03-0.191,0.037v-0.598c0.184-0.054,0.358-0.123,0.521-0.207
						c0.163-0.084,0.311-0.176,0.443-0.276H17.994z"/>
				</g>
			</g>
			<g>
				<g>
					<path fill="#878A8B" d="M12.858,120.674h1.366v0.589h-2.143v-0.243c0-0.165,0.028-0.313,0.083-0.444
						c0.055-0.131,0.125-0.248,0.209-0.352s0.176-0.196,0.275-0.277c0.1-0.08,0.194-0.152,0.284-0.217
						c0.094-0.067,0.177-0.132,0.248-0.193c0.071-0.061,0.131-0.122,0.18-0.183c0.049-0.06,0.085-0.122,0.109-0.184
						c0.024-0.062,0.036-0.128,0.036-0.199c0-0.138-0.039-0.242-0.117-0.312c-0.078-0.07-0.197-0.106-0.357-0.106
						c-0.277,0-0.542,0.11-0.795,0.33v-0.625c0.28-0.181,0.596-0.272,0.948-0.272c0.163,0,0.31,0.021,0.439,0.064
						c0.13,0.043,0.239,0.104,0.329,0.183c0.09,0.079,0.158,0.176,0.206,0.289c0.047,0.113,0.071,0.239,0.071,0.379
						c0,0.148-0.023,0.28-0.069,0.395c-0.046,0.115-0.106,0.22-0.182,0.315s-0.163,0.181-0.262,0.259
						c-0.099,0.079-0.201,0.155-0.308,0.228c-0.072,0.051-0.141,0.102-0.208,0.152s-0.125,0.1-0.176,0.148
						c-0.051,0.049-0.091,0.096-0.121,0.143S12.858,120.632,12.858,120.674z"/>
					<path fill="#878A8B" d="M14.72,120.395c0-0.09,0.013-0.176,0.039-0.26c0.026-0.083,0.066-0.16,0.118-0.231
						s0.118-0.135,0.197-0.191c0.079-0.056,0.171-0.102,0.277-0.138c-0.163-0.081-0.29-0.184-0.38-0.311
						c-0.09-0.126-0.135-0.267-0.135-0.421c0-0.123,0.026-0.237,0.078-0.341s0.123-0.195,0.215-0.272
						c0.091-0.076,0.2-0.136,0.327-0.179c0.127-0.042,0.265-0.064,0.414-0.064c0.153,0,0.293,0.021,0.42,0.064
						c0.127,0.043,0.237,0.102,0.329,0.178c0.092,0.076,0.164,0.165,0.215,0.268s0.076,0.216,0.076,0.337
						c0,0.153-0.048,0.292-0.144,0.417c-0.096,0.125-0.228,0.228-0.398,0.309c0.105,0.036,0.197,0.082,0.276,0.138
						c0.079,0.056,0.146,0.12,0.2,0.192c0.054,0.072,0.094,0.15,0.121,0.235c0.027,0.085,0.04,0.172,0.04,0.264
						c0,0.138-0.028,0.263-0.083,0.376c-0.055,0.113-0.134,0.211-0.235,0.292c-0.101,0.082-0.222,0.145-0.362,0.19
						c-0.14,0.045-0.295,0.067-0.464,0.067c-0.166,0-0.319-0.022-0.459-0.066c-0.14-0.044-0.261-0.107-0.362-0.188
						c-0.101-0.081-0.18-0.178-0.237-0.291C14.749,120.656,14.72,120.531,14.72,120.395z M15.392,120.335
						c0,0.073,0.011,0.139,0.034,0.198s0.055,0.108,0.097,0.148c0.042,0.04,0.092,0.072,0.149,0.093
						c0.058,0.022,0.122,0.033,0.194,0.033c0.069,0,0.132-0.011,0.19-0.034c0.058-0.022,0.107-0.054,0.149-0.094
						c0.042-0.04,0.075-0.09,0.099-0.148c0.024-0.058,0.036-0.124,0.036-0.195c0-0.064-0.011-0.126-0.034-0.184
						c-0.022-0.058-0.055-0.109-0.097-0.152c-0.042-0.043-0.092-0.077-0.149-0.102s-0.122-0.038-0.194-0.038
						c-0.067,0-0.13,0.012-0.189,0.035c-0.058,0.023-0.109,0.056-0.151,0.099c-0.042,0.043-0.075,0.093-0.099,0.152
						C15.404,120.202,15.392,120.266,15.392,120.335z M15.491,118.908c0,0.057,0.01,0.111,0.03,0.161
						c0.02,0.05,0.048,0.094,0.082,0.13c0.034,0.037,0.075,0.065,0.122,0.086c0.047,0.021,0.097,0.031,0.149,0.031
						c0.054,0,0.104-0.01,0.151-0.031c0.046-0.021,0.087-0.05,0.122-0.088c0.035-0.037,0.063-0.081,0.083-0.13s0.03-0.103,0.03-0.16
						c0-0.058-0.01-0.113-0.029-0.163s-0.047-0.094-0.082-0.13s-0.076-0.066-0.124-0.087s-0.098-0.031-0.152-0.031
						c-0.057,0-0.109,0.011-0.156,0.033c-0.047,0.022-0.088,0.051-0.121,0.087c-0.034,0.037-0.06,0.08-0.079,0.13
						C15.5,118.798,15.491,118.851,15.491,118.908z"/>
				</g>
			</g>
			<g>
				<g>
					<path fill="#878A8B" d="M14.313,140.018c0,0.286-0.031,0.542-0.094,0.767c-0.063,0.225-0.155,0.416-0.275,0.572
						c-0.121,0.156-0.268,0.275-0.441,0.358c-0.174,0.083-0.371,0.125-0.591,0.125c-0.264,0-0.49-0.042-0.681-0.126v-0.584
						c0.169,0.111,0.373,0.166,0.611,0.166c0.244,0,0.435-0.083,0.573-0.249c0.138-0.166,0.207-0.407,0.209-0.721l-0.013-0.004
						c-0.142,0.211-0.359,0.317-0.649,0.317c-0.132,0-0.253-0.025-0.365-0.074c-0.112-0.049-0.208-0.118-0.29-0.205
						c-0.082-0.088-0.145-0.192-0.191-0.314c-0.046-0.121-0.069-0.255-0.069-0.4c0-0.169,0.028-0.324,0.083-0.463
						s0.133-0.259,0.233-0.359s0.219-0.178,0.358-0.233c0.139-0.054,0.294-0.082,0.463-0.082c0.175,0,0.332,0.034,0.472,0.102
						s0.258,0.166,0.356,0.295c0.098,0.129,0.173,0.287,0.225,0.474S14.313,139.78,14.313,140.018z M13.596,139.641
						c0-0.082-0.01-0.16-0.031-0.233c-0.021-0.072-0.05-0.135-0.088-0.187c-0.037-0.052-0.083-0.094-0.137-0.125
						s-0.113-0.046-0.177-0.046c-0.061,0-0.118,0.013-0.17,0.04s-0.096,0.064-0.134,0.111c-0.037,0.047-0.067,0.104-0.088,0.17
						s-0.031,0.137-0.031,0.213c0,0.084,0.01,0.159,0.031,0.223c0.021,0.065,0.051,0.12,0.089,0.165
						c0.038,0.045,0.084,0.079,0.138,0.102c0.054,0.023,0.114,0.035,0.18,0.035c0.063,0,0.12-0.012,0.171-0.037
						c0.051-0.024,0.095-0.058,0.131-0.1c0.037-0.042,0.065-0.091,0.085-0.148C13.586,139.768,13.596,139.706,13.596,139.641z"/>
					<path fill="#878A8B" d="M16.656,138.562v2.031h0.386v0.53h-0.386v0.66h-0.647v-0.66h-1.404v-0.555
						c0.124-0.139,0.253-0.292,0.386-0.457c0.133-0.165,0.262-0.336,0.386-0.511c0.124-0.175,0.24-0.351,0.347-0.529
						c0.107-0.177,0.198-0.347,0.273-0.509H16.656z M15.24,140.593h0.768v-1.125c-0.052,0.097-0.109,0.196-0.171,0.295
						c-0.061,0.1-0.126,0.198-0.193,0.295c-0.067,0.096-0.136,0.19-0.204,0.281C15.372,140.429,15.305,140.514,15.24,140.593z"/>
				</g>
			</g>
			<g>
				<g>
					<path fill="#878A8B" d="M12.418,162.211v-0.618c0.216,0.157,0.467,0.236,0.755,0.236c0.181,0,0.322-0.039,0.423-0.117
						c0.101-0.078,0.152-0.186,0.152-0.326c0-0.144-0.063-0.255-0.188-0.332c-0.125-0.078-0.297-0.117-0.516-0.117h-0.299v-0.544
						h0.276c0.419,0,0.629-0.139,0.629-0.418c0-0.262-0.161-0.393-0.483-0.393c-0.216,0-0.425,0.07-0.629,0.209v-0.58
						c0.226-0.114,0.49-0.171,0.791-0.171c0.329,0,0.586,0.074,0.769,0.222c0.183,0.148,0.275,0.341,0.275,0.577
						c0,0.421-0.213,0.684-0.64,0.791v0.011c0.228,0.028,0.407,0.111,0.539,0.248c0.132,0.137,0.198,0.305,0.198,0.504
						c0,0.301-0.11,0.539-0.33,0.714c-0.22,0.175-0.524,0.263-0.912,0.263C12.896,162.372,12.626,162.319,12.418,162.211z"/>
					<path fill="#878A8B" d="M16.67,159.023v3.293h-0.708v-2.494c-0.039,0.034-0.085,0.067-0.138,0.098
						c-0.053,0.031-0.11,0.058-0.17,0.083c-0.06,0.025-0.122,0.046-0.186,0.063c-0.064,0.017-0.128,0.03-0.191,0.037v-0.598
						c0.184-0.054,0.358-0.123,0.521-0.207c0.163-0.084,0.311-0.176,0.443-0.276H16.67z"/>
				</g>
			</g>
			<g>
				<g>
					<path fill="#878A8B" d="M12.077,181.966c0-0.09,0.013-0.176,0.039-0.26c0.026-0.083,0.066-0.16,0.118-0.231
						c0.052-0.071,0.118-0.135,0.197-0.191c0.079-0.056,0.171-0.102,0.277-0.138c-0.163-0.081-0.29-0.184-0.38-0.311
						c-0.09-0.126-0.135-0.267-0.135-0.421c0-0.123,0.026-0.237,0.078-0.341s0.123-0.195,0.215-0.272
						c0.091-0.076,0.2-0.136,0.327-0.179c0.127-0.042,0.265-0.064,0.414-0.064c0.153,0,0.293,0.021,0.42,0.064
						c0.127,0.043,0.237,0.102,0.329,0.178c0.092,0.076,0.164,0.165,0.215,0.268c0.051,0.103,0.076,0.216,0.076,0.337
						c0,0.153-0.048,0.292-0.144,0.417c-0.096,0.125-0.228,0.228-0.398,0.309c0.105,0.036,0.197,0.082,0.276,0.138
						c0.079,0.056,0.146,0.12,0.2,0.192c0.054,0.072,0.094,0.15,0.121,0.235c0.027,0.085,0.04,0.172,0.04,0.264
						c0,0.138-0.028,0.263-0.083,0.376c-0.055,0.113-0.134,0.211-0.235,0.292c-0.101,0.082-0.222,0.145-0.362,0.19
						c-0.14,0.045-0.295,0.067-0.464,0.067c-0.166,0-0.319-0.022-0.459-0.066c-0.14-0.044-0.261-0.107-0.362-0.188
						c-0.101-0.081-0.18-0.178-0.237-0.291C12.106,182.227,12.077,182.102,12.077,181.966z M12.749,181.905
						c0,0.073,0.011,0.139,0.034,0.198s0.055,0.108,0.097,0.148c0.042,0.04,0.092,0.072,0.149,0.093
						c0.058,0.022,0.122,0.033,0.194,0.033c0.069,0,0.132-0.011,0.19-0.034c0.058-0.022,0.107-0.054,0.149-0.094
						c0.042-0.04,0.075-0.09,0.099-0.148c0.024-0.058,0.036-0.124,0.036-0.195c0-0.064-0.011-0.126-0.034-0.184
						s-0.055-0.109-0.097-0.152c-0.042-0.043-0.092-0.077-0.149-0.102c-0.058-0.025-0.122-0.038-0.194-0.038
						c-0.067,0-0.13,0.012-0.189,0.035c-0.058,0.023-0.109,0.056-0.151,0.099c-0.042,0.043-0.075,0.093-0.099,0.152
						C12.761,181.773,12.749,181.837,12.749,181.905z M12.848,180.479c0,0.057,0.01,0.111,0.03,0.161
						c0.02,0.05,0.048,0.094,0.082,0.13c0.034,0.037,0.075,0.065,0.122,0.086s0.097,0.031,0.149,0.031
						c0.054,0,0.104-0.01,0.151-0.031c0.046-0.021,0.087-0.05,0.122-0.088c0.035-0.037,0.063-0.081,0.083-0.13
						c0.02-0.049,0.03-0.103,0.03-0.16c0-0.058-0.01-0.113-0.029-0.163s-0.047-0.094-0.082-0.13
						c-0.035-0.037-0.076-0.066-0.124-0.087c-0.047-0.021-0.098-0.031-0.152-0.031c-0.057,0-0.109,0.011-0.156,0.033
						c-0.047,0.022-0.088,0.051-0.121,0.087c-0.034,0.037-0.06,0.08-0.079,0.13C12.857,180.369,12.848,180.422,12.848,180.479z"/>
					<path fill="#878A8B" d="M14.724,181.966c0-0.09,0.013-0.176,0.039-0.26c0.026-0.083,0.066-0.16,0.118-0.231
						c0.052-0.071,0.118-0.135,0.197-0.191c0.079-0.056,0.171-0.102,0.277-0.138c-0.163-0.081-0.29-0.184-0.38-0.311
						c-0.09-0.126-0.135-0.267-0.135-0.421c0-0.123,0.026-0.237,0.078-0.341s0.123-0.195,0.215-0.272
						c0.091-0.076,0.2-0.136,0.327-0.179c0.127-0.042,0.265-0.064,0.414-0.064c0.153,0,0.293,0.021,0.42,0.064
						c0.127,0.043,0.237,0.102,0.329,0.178c0.092,0.076,0.164,0.165,0.215,0.268c0.051,0.103,0.076,0.216,0.076,0.337
						c0,0.153-0.048,0.292-0.144,0.417c-0.096,0.125-0.228,0.228-0.398,0.309c0.105,0.036,0.197,0.082,0.276,0.138
						c0.079,0.056,0.146,0.12,0.2,0.192c0.054,0.072,0.094,0.15,0.121,0.235c0.027,0.085,0.04,0.172,0.04,0.264
						c0,0.138-0.028,0.263-0.083,0.376c-0.055,0.113-0.134,0.211-0.235,0.292c-0.101,0.082-0.222,0.145-0.362,0.19
						c-0.14,0.045-0.295,0.067-0.464,0.067c-0.166,0-0.319-0.022-0.459-0.066c-0.14-0.044-0.261-0.107-0.362-0.188
						c-0.101-0.081-0.18-0.178-0.237-0.291C14.752,182.227,14.724,182.102,14.724,181.966z M15.395,181.905
						c0,0.073,0.011,0.139,0.034,0.198s0.055,0.108,0.097,0.148s0.092,0.072,0.149,0.093c0.058,0.022,0.122,0.033,0.194,0.033
						c0.069,0,0.132-0.011,0.19-0.034c0.058-0.022,0.107-0.054,0.149-0.094s0.075-0.09,0.099-0.148
						c0.024-0.058,0.036-0.124,0.036-0.195c0-0.064-0.011-0.126-0.034-0.184s-0.055-0.109-0.097-0.152
						c-0.042-0.043-0.092-0.077-0.149-0.102c-0.058-0.025-0.122-0.038-0.194-0.038c-0.067,0-0.13,0.012-0.189,0.035
						c-0.058,0.023-0.109,0.056-0.151,0.099c-0.042,0.043-0.075,0.093-0.099,0.152C15.407,181.773,15.395,181.837,15.395,181.905z
						 M15.494,180.479c0,0.057,0.01,0.111,0.03,0.161c0.02,0.05,0.048,0.094,0.082,0.13c0.034,0.037,0.075,0.065,0.122,0.086
						s0.097,0.031,0.149,0.031c0.054,0,0.104-0.01,0.151-0.031c0.046-0.021,0.087-0.05,0.122-0.088s0.063-0.081,0.083-0.13
						s0.03-0.103,0.03-0.16c0-0.058-0.01-0.113-0.029-0.163c-0.019-0.05-0.047-0.094-0.082-0.13s-0.076-0.066-0.124-0.087
						c-0.047-0.021-0.098-0.031-0.152-0.031c-0.057,0-0.109,0.011-0.156,0.033c-0.047,0.022-0.088,0.051-0.121,0.087
						c-0.034,0.037-0.06,0.08-0.079,0.13C15.504,180.369,15.494,180.422,15.494,180.479z"/>
				</g>
			</g>
		</g>
		<g>
			<g>
				<circle fill="#FFFFFF" cx="449.509" cy="136.433" r="5.779"/>
				<path fill="#00AFE1" d="M449.509,142.583c-3.391,0-6.15-2.759-6.15-6.15s2.759-6.15,6.15-6.15s6.15,2.759,6.15,6.15
					S452.9,142.583,449.509,142.583z M449.509,131.026c-2.981,0-5.407,2.425-5.407,5.407s2.426,5.407,5.407,5.407
					s5.407-2.426,5.407-5.407S452.49,131.026,449.509,131.026z"/>
			</g>
			<g>
				<circle fill="#FFFFFF" cx="449.509" cy="121.519" r="5.779"/>
				<path fill="#00AFE1" d="M449.509,127.669c-3.391,0-6.15-2.759-6.15-6.15s2.759-6.15,6.15-6.15s6.15,2.759,6.15,6.15
					S452.9,127.669,449.509,127.669z M449.509,116.112c-2.981,0-5.407,2.425-5.407,5.407s2.426,5.407,5.407,5.407
					s5.407-2.426,5.407-5.407S452.49,116.112,449.509,116.112z"/>
			</g>
			<g>
				<circle fill="#FFFFFF" cx="449.509" cy="106.605" r="5.779"/>
				<path fill="#00AFE1" d="M449.509,112.755c-3.391,0-6.15-2.759-6.15-6.15s2.759-6.15,6.15-6.15s6.15,2.759,6.15,6.15
					S452.9,112.755,449.509,112.755z M449.509,101.198c-2.981,0-5.407,2.426-5.407,5.407s2.426,5.407,5.407,5.407
					s5.407-2.425,5.407-5.407S452.49,101.198,449.509,101.198z"/>
			</g>
			<g>
				<circle fill="#FFFFFF" cx="449.509" cy="91.691" r="5.779"/>
				<path fill="#00AFE1" d="M449.509,97.842c-3.391,0-6.15-2.759-6.15-6.15s2.759-6.15,6.15-6.15s6.15,2.759,6.15,6.15
					S452.9,97.842,449.509,97.842z M449.509,86.284c-2.981,0-5.407,2.426-5.407,5.407s2.426,5.407,5.407,5.407
					s5.407-2.426,5.407-5.407S452.49,86.284,449.509,86.284z"/>
			</g>
			<g>
				<circle fill="#FFFFFF" cx="449.509" cy="76.777" r="5.779"/>
				<path fill="#00AFE1" d="M449.509,82.928c-3.391,0-6.15-2.759-6.15-6.15s2.759-6.15,6.15-6.15s6.15,2.759,6.15,6.15
					S452.9,82.928,449.509,82.928z M449.509,71.371c-2.981,0-5.407,2.425-5.407,5.407s2.426,5.407,5.407,5.407
					s5.407-2.426,5.407-5.407S452.49,71.371,449.509,71.371z"/>
			</g>
			<g>
				<g>
					<path fill="#878A8B" d="M447.002,77.877v-0.449c0.157,0.114,0.34,0.171,0.548,0.171c0.132,0,0.234-0.028,0.308-0.085
						c0.073-0.057,0.11-0.135,0.11-0.237c0-0.104-0.045-0.185-0.136-0.242c-0.091-0.057-0.216-0.085-0.375-0.085h-0.217v-0.395
						h0.201c0.305,0,0.457-0.101,0.457-0.304c0-0.19-0.117-0.286-0.351-0.286c-0.157,0-0.309,0.051-0.457,0.152v-0.421
						c0.164-0.083,0.356-0.124,0.575-0.124c0.239,0,0.426,0.054,0.559,0.162c0.133,0.108,0.2,0.248,0.2,0.42
						c0,0.306-0.155,0.497-0.465,0.575v0.008c0.165,0.021,0.296,0.081,0.392,0.18c0.096,0.099,0.144,0.222,0.144,0.366
						c0,0.219-0.08,0.392-0.24,0.519c-0.16,0.127-0.381,0.191-0.663,0.191C447.35,77.994,447.153,77.955,447.002,77.877z"/>
					<path fill="#878A8B" d="M448.966,77.893v-0.441c0.16,0.098,0.33,0.147,0.511,0.147c0.136,0,0.242-0.032,0.319-0.097
						c0.077-0.065,0.115-0.153,0.115-0.264c0-0.232-0.164-0.348-0.491-0.348c-0.121,0-0.26,0.009-0.418,0.028l0.088-1.306h1.239
						v0.421h-0.846l-0.033,0.469c0.084-0.007,0.156-0.01,0.217-0.01c0.241,0,0.429,0.063,0.565,0.189
						c0.136,0.126,0.204,0.296,0.204,0.509c0,0.236-0.081,0.429-0.243,0.579c-0.162,0.15-0.382,0.224-0.659,0.224
						C449.309,77.994,449.119,77.961,448.966,77.893z"/>
					<path fill="#878A8B" d="M452.015,75.56v2.393h-0.514v-1.812c-0.028,0.025-0.062,0.049-0.1,0.071
						c-0.039,0.022-0.08,0.042-0.123,0.06c-0.044,0.018-0.089,0.033-0.135,0.046c-0.047,0.013-0.093,0.022-0.139,0.027v-0.434
						c0.134-0.039,0.26-0.089,0.379-0.15s0.226-0.128,0.322-0.201H452.015z"/>
				</g>
			</g>
			<g>
				<g>
					<path fill="#878A8B" d="M448.283,92.435h0.993v0.428h-1.557v-0.176c0-0.12,0.02-0.227,0.06-0.323
						c0.04-0.095,0.091-0.18,0.152-0.256s0.128-0.143,0.2-0.201c0.072-0.058,0.141-0.111,0.207-0.157
						c0.069-0.049,0.129-0.096,0.18-0.14c0.052-0.045,0.095-0.089,0.131-0.133c0.035-0.044,0.062-0.089,0.079-0.134
						c0.017-0.045,0.026-0.093,0.026-0.144c0-0.1-0.028-0.176-0.085-0.227c-0.057-0.051-0.143-0.077-0.26-0.077
						c-0.201,0-0.394,0.08-0.578,0.24V90.68c0.204-0.132,0.433-0.198,0.689-0.198c0.119,0,0.225,0.016,0.319,0.046
						c0.094,0.031,0.174,0.075,0.239,0.133s0.115,0.128,0.149,0.21c0.034,0.082,0.051,0.174,0.051,0.275
						c0,0.108-0.017,0.204-0.05,0.287c-0.033,0.084-0.077,0.16-0.132,0.229c-0.055,0.069-0.118,0.132-0.19,0.188
						c-0.072,0.057-0.146,0.112-0.224,0.166c-0.052,0.037-0.103,0.074-0.151,0.11c-0.048,0.036-0.091,0.072-0.128,0.108
						c-0.037,0.035-0.066,0.07-0.088,0.104S448.283,92.405,448.283,92.435z"/>
					<path fill="#878A8B" d="M449.637,92.233c0-0.065,0.01-0.128,0.029-0.189c0.019-0.06,0.048-0.116,0.086-0.168
						c0.038-0.052,0.086-0.098,0.143-0.139c0.057-0.041,0.124-0.074,0.202-0.1c-0.119-0.059-0.211-0.134-0.276-0.226
						c-0.065-0.092-0.098-0.194-0.098-0.306c0-0.089,0.019-0.172,0.056-0.248c0.038-0.076,0.09-0.142,0.156-0.198
						c0.066-0.056,0.146-0.099,0.238-0.13c0.092-0.031,0.192-0.046,0.301-0.046c0.111,0,0.213,0.016,0.305,0.046
						c0.092,0.031,0.172,0.074,0.239,0.129c0.067,0.055,0.119,0.12,0.156,0.195c0.037,0.075,0.056,0.157,0.056,0.245
						c0,0.111-0.035,0.212-0.104,0.303c-0.07,0.091-0.166,0.166-0.289,0.225c0.076,0.026,0.143,0.059,0.201,0.1
						c0.058,0.041,0.106,0.087,0.145,0.139c0.039,0.052,0.069,0.109,0.088,0.171c0.02,0.061,0.029,0.125,0.029,0.192
						c0,0.1-0.02,0.191-0.06,0.273c-0.04,0.082-0.097,0.153-0.171,0.212c-0.073,0.059-0.161,0.105-0.263,0.138
						c-0.102,0.033-0.214,0.049-0.337,0.049c-0.121,0-0.232-0.016-0.334-0.048c-0.102-0.032-0.189-0.078-0.263-0.136
						s-0.131-0.129-0.172-0.211C449.657,92.422,449.637,92.332,449.637,92.233z M450.125,92.188c0,0.053,0.008,0.101,0.024,0.144
						s0.04,0.078,0.07,0.108c0.03,0.029,0.067,0.052,0.109,0.068c0.042,0.016,0.089,0.024,0.141,0.024
						c0.05,0,0.096-0.008,0.138-0.024c0.042-0.016,0.078-0.039,0.109-0.069c0.03-0.029,0.054-0.065,0.072-0.108
						c0.017-0.042,0.026-0.09,0.026-0.142c0-0.047-0.008-0.091-0.025-0.134s-0.04-0.079-0.07-0.11
						c-0.03-0.031-0.067-0.056-0.109-0.074s-0.089-0.028-0.141-0.028c-0.049,0-0.095,0.009-0.137,0.025
						c-0.042,0.017-0.079,0.041-0.109,0.072c-0.03,0.031-0.054,0.068-0.072,0.11C450.133,92.092,450.125,92.138,450.125,92.188z
						 M450.197,91.152c0,0.041,0.007,0.08,0.022,0.117c0.015,0.036,0.035,0.068,0.06,0.095s0.055,0.048,0.089,0.063
						c0.034,0.015,0.07,0.023,0.109,0.023c0.039,0,0.076-0.008,0.109-0.023c0.034-0.015,0.063-0.036,0.089-0.064
						s0.046-0.059,0.06-0.095c0.015-0.036,0.022-0.075,0.022-0.116c0-0.042-0.007-0.082-0.021-0.118s-0.034-0.068-0.06-0.095
						c-0.026-0.027-0.055-0.048-0.09-0.063c-0.034-0.015-0.071-0.023-0.11-0.023c-0.041,0-0.079,0.008-0.113,0.024
						s-0.064,0.037-0.088,0.063c-0.024,0.027-0.044,0.058-0.057,0.095C450.203,91.072,450.197,91.111,450.197,91.152z"/>
				</g>
			</g>
			<g>
				<g>
					<path fill="#878A8B" d="M449.34,106.492c0,0.208-0.023,0.394-0.069,0.558s-0.112,0.302-0.2,0.415
						c-0.088,0.113-0.195,0.2-0.321,0.26c-0.126,0.06-0.269,0.091-0.429,0.091c-0.192,0-0.356-0.03-0.495-0.091V107.3
						c0.123,0.081,0.271,0.121,0.444,0.121c0.177,0,0.316-0.06,0.416-0.181c0.1-0.121,0.151-0.295,0.152-0.524l-0.01-0.003
						c-0.103,0.153-0.261,0.23-0.472,0.23c-0.096,0-0.184-0.018-0.265-0.054s-0.151-0.086-0.211-0.149
						c-0.059-0.064-0.106-0.14-0.139-0.228c-0.033-0.088-0.05-0.185-0.05-0.291c0-0.123,0.02-0.235,0.06-0.336
						c0.04-0.101,0.097-0.188,0.169-0.261c0.072-0.073,0.159-0.129,0.26-0.169c0.101-0.04,0.213-0.059,0.336-0.059
						c0.127,0,0.242,0.025,0.343,0.074c0.101,0.05,0.187,0.121,0.259,0.215c0.071,0.094,0.126,0.208,0.163,0.344
						C449.322,106.164,449.34,106.319,449.34,106.492z M448.82,106.218c0-0.06-0.008-0.116-0.023-0.169
						c-0.015-0.053-0.036-0.098-0.064-0.136c-0.027-0.038-0.06-0.068-0.1-0.091c-0.039-0.022-0.082-0.034-0.129-0.034
						c-0.045,0-0.086,0.01-0.123,0.029s-0.07,0.047-0.097,0.081c-0.027,0.034-0.048,0.075-0.064,0.123
						c-0.015,0.048-0.023,0.1-0.023,0.155c0,0.061,0.008,0.115,0.023,0.162c0.015,0.048,0.037,0.087,0.064,0.12
						c0.028,0.033,0.061,0.058,0.1,0.074c0.039,0.017,0.083,0.025,0.131,0.025c0.046,0,0.087-0.009,0.124-0.027
						c0.037-0.018,0.069-0.042,0.096-0.073c0.027-0.03,0.047-0.066,0.062-0.108C448.812,106.31,448.82,106.265,448.82,106.218z"/>
					<path fill="#878A8B" d="M451.043,105.434v1.476h0.281v0.385h-0.281v0.48h-0.47v-0.48h-1.02v-0.403
						c0.09-0.101,0.184-0.212,0.281-0.332c0.097-0.12,0.19-0.244,0.281-0.371c0.09-0.127,0.174-0.255,0.252-0.385
						c0.078-0.129,0.144-0.252,0.198-0.37H451.043z M450.015,106.91h0.558v-0.818c-0.038,0.071-0.079,0.142-0.124,0.215
						c-0.045,0.073-0.091,0.144-0.14,0.214c-0.049,0.07-0.099,0.138-0.149,0.204C450.11,106.79,450.061,106.852,450.015,106.91z"/>
				</g>
			</g>
			<g>
				<g>
					<path fill="#878A8B" d="M447.963,122.619v-0.449c0.157,0.114,0.34,0.171,0.548,0.171c0.132,0,0.234-0.028,0.308-0.085
						c0.073-0.057,0.11-0.135,0.11-0.237c0-0.104-0.045-0.185-0.136-0.242c-0.091-0.057-0.216-0.085-0.375-0.085h-0.217v-0.395
						h0.201c0.305,0,0.457-0.101,0.457-0.304c0-0.19-0.117-0.286-0.351-0.286c-0.157,0-0.309,0.051-0.457,0.152v-0.421
						c0.164-0.083,0.356-0.124,0.575-0.124c0.239,0,0.426,0.054,0.559,0.162c0.133,0.108,0.2,0.248,0.2,0.42
						c0,0.306-0.155,0.497-0.465,0.575v0.008c0.165,0.021,0.296,0.081,0.392,0.18c0.096,0.099,0.144,0.222,0.144,0.366
						c0,0.219-0.08,0.392-0.24,0.519c-0.16,0.127-0.381,0.191-0.663,0.191C448.311,122.736,448.115,122.697,447.963,122.619z"/>
					<path fill="#878A8B" d="M451.054,120.302v2.393h-0.514v-1.812c-0.028,0.025-0.062,0.049-0.1,0.071
						c-0.039,0.022-0.08,0.042-0.123,0.06c-0.044,0.018-0.089,0.033-0.135,0.046c-0.047,0.013-0.093,0.022-0.139,0.027v-0.434
						c0.134-0.039,0.26-0.089,0.379-0.15s0.226-0.128,0.322-0.201H451.054z"/>
				</g>
			</g>
			<g>
				<g>
					<path fill="#878A8B" d="M447.716,136.974c0-0.065,0.01-0.128,0.029-0.189c0.019-0.06,0.048-0.116,0.086-0.168
						s0.086-0.098,0.143-0.139c0.057-0.041,0.124-0.074,0.202-0.1c-0.119-0.059-0.211-0.134-0.276-0.226
						c-0.065-0.092-0.098-0.194-0.098-0.306c0-0.089,0.019-0.172,0.056-0.248s0.09-0.142,0.156-0.198
						c0.066-0.056,0.146-0.099,0.238-0.13c0.092-0.031,0.192-0.046,0.301-0.046c0.111,0,0.213,0.016,0.305,0.046
						c0.092,0.031,0.172,0.074,0.239,0.129c0.067,0.055,0.119,0.12,0.156,0.195c0.037,0.075,0.056,0.157,0.056,0.245
						c0,0.111-0.035,0.212-0.104,0.303c-0.07,0.091-0.166,0.166-0.289,0.225c0.076,0.026,0.143,0.059,0.201,0.1
						c0.058,0.041,0.106,0.087,0.145,0.139c0.039,0.052,0.069,0.109,0.088,0.171c0.02,0.061,0.029,0.125,0.029,0.192
						c0,0.1-0.02,0.191-0.06,0.273c-0.04,0.082-0.097,0.153-0.171,0.212c-0.073,0.059-0.161,0.105-0.263,0.138
						c-0.102,0.033-0.214,0.049-0.337,0.049c-0.121,0-0.232-0.016-0.334-0.048c-0.102-0.032-0.189-0.078-0.263-0.136
						c-0.073-0.059-0.131-0.129-0.172-0.212C447.737,137.164,447.716,137.073,447.716,136.974z M448.204,136.93
						c0,0.053,0.008,0.101,0.024,0.144c0.016,0.042,0.04,0.078,0.07,0.108c0.03,0.029,0.067,0.052,0.109,0.068
						c0.042,0.016,0.089,0.024,0.141,0.024c0.05,0,0.096-0.008,0.138-0.024s0.078-0.039,0.109-0.069
						c0.03-0.029,0.054-0.065,0.072-0.108c0.017-0.042,0.026-0.09,0.026-0.142c0-0.047-0.008-0.091-0.025-0.134
						s-0.04-0.079-0.07-0.11c-0.03-0.031-0.067-0.056-0.109-0.074c-0.042-0.019-0.089-0.028-0.141-0.028
						c-0.049,0-0.095,0.009-0.137,0.025c-0.042,0.017-0.079,0.041-0.109,0.072c-0.03,0.031-0.054,0.068-0.072,0.11
						C448.213,136.834,448.204,136.88,448.204,136.93z M448.276,135.894c0,0.041,0.007,0.08,0.022,0.117
						c0.015,0.036,0.035,0.068,0.06,0.095c0.025,0.027,0.055,0.048,0.089,0.063c0.034,0.015,0.07,0.023,0.109,0.023
						c0.039,0,0.076-0.008,0.109-0.023c0.034-0.015,0.063-0.036,0.089-0.064s0.046-0.059,0.06-0.095
						c0.015-0.036,0.022-0.075,0.022-0.116c0-0.042-0.007-0.082-0.021-0.118c-0.014-0.036-0.034-0.068-0.06-0.095
						c-0.026-0.027-0.056-0.048-0.09-0.063c-0.034-0.015-0.071-0.023-0.11-0.023c-0.041,0-0.079,0.008-0.113,0.024
						c-0.034,0.016-0.064,0.037-0.088,0.063c-0.025,0.027-0.044,0.058-0.057,0.095C448.283,135.813,448.276,135.852,448.276,135.894
						z"/>
					<path fill="#878A8B" d="M449.639,136.974c0-0.065,0.01-0.128,0.029-0.189c0.019-0.06,0.048-0.116,0.086-0.168
						s0.086-0.098,0.143-0.139c0.057-0.041,0.124-0.074,0.202-0.1c-0.119-0.059-0.211-0.134-0.276-0.226
						c-0.065-0.092-0.098-0.194-0.098-0.306c0-0.089,0.019-0.172,0.056-0.248s0.09-0.142,0.156-0.198
						c0.066-0.056,0.146-0.099,0.238-0.13c0.092-0.031,0.192-0.046,0.301-0.046c0.111,0,0.213,0.016,0.305,0.046
						c0.092,0.031,0.172,0.074,0.239,0.129c0.067,0.055,0.119,0.12,0.156,0.195c0.037,0.075,0.056,0.157,0.056,0.245
						c0,0.111-0.035,0.212-0.104,0.303c-0.07,0.091-0.166,0.166-0.289,0.225c0.076,0.026,0.143,0.059,0.201,0.1
						c0.058,0.041,0.106,0.087,0.145,0.139c0.039,0.052,0.069,0.109,0.088,0.171c0.02,0.061,0.029,0.125,0.029,0.192
						c0,0.1-0.02,0.191-0.06,0.273c-0.04,0.082-0.097,0.153-0.171,0.212c-0.073,0.059-0.161,0.105-0.263,0.138
						c-0.102,0.033-0.214,0.049-0.337,0.049c-0.121,0-0.232-0.016-0.334-0.048c-0.102-0.032-0.189-0.078-0.263-0.136
						c-0.073-0.059-0.131-0.129-0.172-0.212C449.66,137.164,449.639,137.073,449.639,136.974z M450.127,136.93
						c0,0.053,0.008,0.101,0.024,0.144c0.016,0.042,0.04,0.078,0.07,0.108c0.03,0.029,0.067,0.052,0.109,0.068
						c0.042,0.016,0.089,0.024,0.141,0.024c0.05,0,0.096-0.008,0.138-0.024s0.078-0.039,0.109-0.069
						c0.03-0.029,0.054-0.065,0.072-0.108c0.017-0.042,0.026-0.09,0.026-0.142c0-0.047-0.008-0.091-0.025-0.134
						c-0.016-0.042-0.04-0.079-0.07-0.11c-0.03-0.031-0.067-0.056-0.109-0.074c-0.042-0.019-0.089-0.028-0.141-0.028
						c-0.049,0-0.095,0.009-0.137,0.025c-0.042,0.017-0.079,0.041-0.109,0.072c-0.03,0.031-0.054,0.068-0.072,0.11
						C450.136,136.834,450.127,136.88,450.127,136.93z M450.199,135.894c0,0.041,0.007,0.08,0.022,0.117
						c0.015,0.036,0.035,0.068,0.06,0.095c0.025,0.027,0.055,0.048,0.089,0.063c0.034,0.015,0.07,0.023,0.109,0.023
						c0.039,0,0.076-0.008,0.109-0.023c0.034-0.015,0.063-0.036,0.089-0.064s0.046-0.059,0.06-0.095
						c0.015-0.036,0.022-0.075,0.022-0.116c0-0.042-0.007-0.082-0.021-0.118c-0.014-0.036-0.034-0.068-0.06-0.095
						c-0.026-0.027-0.056-0.048-0.09-0.063c-0.034-0.015-0.071-0.023-0.11-0.023c-0.041,0-0.079,0.008-0.113,0.024
						c-0.034,0.016-0.064,0.037-0.088,0.063c-0.025,0.027-0.044,0.058-0.057,0.095C450.206,135.813,450.199,135.852,450.199,135.894
						z"/>
				</g>
			</g>
		</g>
		<g opacity="0.5">
			<g>
				<circle fill="#FFFFFF" cx="336.286" cy="51.84" r="4.552"/>
				<path fill="#00AFE1" d="M336.285,56.684c-2.671,0-4.845-2.173-4.845-4.844s2.173-4.845,4.845-4.845s4.845,2.173,4.845,4.845
					S338.957,56.684,336.285,56.684z M336.285,47.58c-2.349,0-4.26,1.911-4.26,4.26s1.911,4.259,4.26,4.259s4.26-1.911,4.26-4.259
					S338.634,47.58,336.285,47.58z"/>
			</g>
			<g>
				<circle fill="#FFFFFF" cx="336.286" cy="40.091" r="4.552"/>
				<path fill="#00AFE1" d="M336.285,44.936c-2.671,0-4.845-2.173-4.845-4.845s2.173-4.845,4.845-4.845s4.845,2.173,4.845,4.845
					S338.957,44.936,336.285,44.936z M336.285,35.831c-2.349,0-4.26,1.911-4.26,4.26s1.911,4.26,4.26,4.26s4.26-1.911,4.26-4.26
					S338.634,35.831,336.285,35.831z"/>
			</g>
			<g>
				<circle fill="#FFFFFF" cx="336.286" cy="28.342" r="4.552"/>
				<path fill="#00AFE1" d="M336.285,33.187c-2.671,0-4.845-2.173-4.845-4.845s2.173-4.845,4.845-4.845s4.845,2.173,4.845,4.845
					S338.957,33.187,336.285,33.187z M336.285,24.083c-2.349,0-4.26,1.911-4.26,4.26s1.911,4.26,4.26,4.26s4.26-1.911,4.26-4.26
					S338.634,24.083,336.285,24.083z"/>
			</g>
			<g>
				<circle fill="#FFFFFF" cx="336.286" cy="16.594" r="4.552"/>
				<path fill="#00AFE1" d="M336.285,21.438c-2.671,0-4.845-2.173-4.845-4.844s2.173-4.845,4.845-4.845s4.845,2.173,4.845,4.845
					S338.957,21.438,336.285,21.438z M336.285,12.334c-2.349,0-4.26,1.911-4.26,4.26s1.911,4.259,4.26,4.259s4.26-1.911,4.26-4.259
					S338.634,12.334,336.285,12.334z"/>
			</g>
			<g>
				<circle fill="#FFFFFF" cx="336.286" cy="4.845" r="4.552"/>
				<path fill="#00AFE1" d="M336.285,9.689c-2.671,0-4.845-2.173-4.845-4.845S333.614,0,336.285,0s4.845,2.173,4.845,4.845
					S338.957,9.689,336.285,9.689z M336.285,0.585c-2.349,0-4.26,1.911-4.26,4.26s1.911,4.26,4.26,4.26s4.26-1.911,4.26-4.26
					S338.634,0.585,336.285,0.585z"/>
			</g>
			<g>
				<path fill="#878A8B" d="M334.311,5.711V5.357c0.123,0.09,0.267,0.135,0.432,0.135c0.104,0,0.185-0.022,0.242-0.067
					c0.058-0.045,0.087-0.107,0.087-0.186c0-0.082-0.036-0.146-0.107-0.19c-0.072-0.045-0.17-0.067-0.295-0.067h-0.171V4.671h0.158
					c0.24,0,0.36-0.08,0.36-0.239c0-0.15-0.092-0.225-0.276-0.225c-0.123,0-0.243,0.04-0.36,0.12V3.994
					c0.129-0.065,0.28-0.098,0.453-0.098c0.189,0,0.335,0.042,0.44,0.127c0.105,0.085,0.158,0.195,0.158,0.331
					c0,0.241-0.122,0.392-0.367,0.453v0.006c0.13,0.016,0.233,0.064,0.309,0.142c0.075,0.078,0.113,0.175,0.113,0.289
					c0,0.172-0.063,0.309-0.189,0.409c-0.126,0.1-0.3,0.15-0.522,0.15C334.585,5.804,334.43,5.773,334.311,5.711z"/>
				<path fill="#878A8B" d="M335.858,5.724V5.377c0.126,0.077,0.26,0.116,0.403,0.116c0.107,0,0.191-0.025,0.251-0.076
					c0.06-0.051,0.091-0.12,0.091-0.208c0-0.183-0.129-0.274-0.387-0.274c-0.095,0-0.205,0.007-0.329,0.022l0.069-1.029h0.976v0.332
					h-0.666l-0.026,0.369c0.066-0.005,0.123-0.008,0.171-0.008c0.189,0,0.338,0.05,0.445,0.149c0.107,0.099,0.161,0.233,0.161,0.401
					c0,0.186-0.064,0.338-0.192,0.456s-0.301,0.177-0.52,0.177C336.128,5.804,335.979,5.777,335.858,5.724z"/>
				<path fill="#878A8B" d="M338.26,3.886v1.885h-0.405V4.344c-0.022,0.02-0.049,0.038-0.079,0.056
					c-0.03,0.018-0.063,0.033-0.097,0.047c-0.034,0.014-0.07,0.026-0.107,0.036c-0.037,0.01-0.073,0.017-0.109,0.021V4.163
					c0.105-0.031,0.205-0.07,0.298-0.118c0.093-0.048,0.178-0.101,0.253-0.158H338.26z"/>
			</g>
			<g>
				<path fill="#878A8B" d="M335.32,17.179h0.782v0.337h-1.227v-0.139c0-0.094,0.016-0.179,0.048-0.254
					c0.032-0.075,0.072-0.142,0.12-0.202c0.048-0.06,0.101-0.112,0.158-0.158c0.057-0.046,0.111-0.087,0.163-0.124
					c0.054-0.039,0.101-0.075,0.142-0.111c0.041-0.035,0.075-0.07,0.103-0.105c0.028-0.035,0.049-0.07,0.062-0.105
					c0.014-0.035,0.021-0.073,0.021-0.114c0-0.079-0.022-0.138-0.067-0.179c-0.045-0.04-0.113-0.06-0.204-0.06
					c-0.159,0-0.31,0.063-0.455,0.189v-0.358c0.16-0.104,0.341-0.156,0.543-0.156c0.093,0,0.177,0.012,0.251,0.037
					c0.074,0.025,0.137,0.059,0.188,0.105c0.051,0.045,0.091,0.101,0.118,0.165c0.027,0.065,0.04,0.137,0.04,0.217
					c0,0.085-0.013,0.16-0.039,0.226c-0.026,0.066-0.061,0.126-0.104,0.18c-0.043,0.054-0.093,0.104-0.15,0.148
					c-0.057,0.045-0.115,0.089-0.176,0.131c-0.041,0.029-0.081,0.058-0.119,0.087s-0.072,0.057-0.101,0.085
					c-0.029,0.028-0.052,0.055-0.069,0.082S335.32,17.155,335.32,17.179z"/>
				<path fill="#878A8B" d="M336.387,17.02c0-0.051,0.008-0.101,0.022-0.149c0.015-0.047,0.038-0.092,0.068-0.132
					c0.03-0.041,0.068-0.077,0.113-0.109c0.045-0.032,0.098-0.058,0.159-0.079c-0.093-0.046-0.166-0.106-0.217-0.178
					c-0.051-0.072-0.077-0.153-0.077-0.241c0-0.07,0.015-0.135,0.044-0.195s0.07-0.112,0.123-0.156
					c0.052-0.044,0.115-0.078,0.187-0.102c0.072-0.024,0.152-0.037,0.237-0.037c0.087,0,0.168,0.012,0.24,0.037
					c0.073,0.025,0.136,0.058,0.188,0.102c0.053,0.043,0.094,0.094,0.123,0.154s0.044,0.123,0.044,0.193
					c0,0.087-0.027,0.167-0.082,0.238c-0.055,0.072-0.131,0.131-0.228,0.177c0.06,0.021,0.113,0.047,0.158,0.079
					c0.045,0.032,0.084,0.069,0.114,0.11c0.031,0.041,0.054,0.086,0.069,0.134c0.015,0.048,0.023,0.099,0.023,0.151
					c0,0.079-0.016,0.151-0.048,0.215c-0.032,0.065-0.077,0.121-0.134,0.167c-0.058,0.047-0.127,0.083-0.207,0.109
					c-0.08,0.026-0.169,0.039-0.266,0.039c-0.095,0-0.183-0.013-0.263-0.038c-0.08-0.025-0.149-0.061-0.207-0.107
					c-0.058-0.046-0.103-0.102-0.136-0.167C336.403,17.169,336.387,17.098,336.387,17.02z M336.771,16.985
					c0,0.042,0.006,0.08,0.019,0.113c0.013,0.033,0.031,0.062,0.055,0.085c0.024,0.023,0.052,0.041,0.086,0.053
					c0.033,0.013,0.07,0.019,0.111,0.019c0.039,0,0.076-0.006,0.109-0.019c0.033-0.013,0.061-0.031,0.086-0.054
					c0.024-0.023,0.043-0.051,0.057-0.085c0.014-0.033,0.021-0.071,0.021-0.112c0-0.037-0.006-0.072-0.019-0.105
					c-0.013-0.033-0.031-0.062-0.055-0.087c-0.024-0.025-0.052-0.044-0.086-0.059c-0.033-0.015-0.07-0.022-0.111-0.022
					c-0.039,0-0.075,0.007-0.108,0.02c-0.033,0.013-0.062,0.032-0.086,0.057c-0.024,0.025-0.043,0.053-0.057,0.087
					C336.778,16.909,336.771,16.946,336.771,16.985z M336.828,16.168c0,0.033,0.006,0.063,0.017,0.092
					c0.012,0.029,0.027,0.054,0.047,0.075c0.02,0.021,0.043,0.037,0.07,0.049s0.056,0.018,0.086,0.018
					c0.031,0,0.06-0.006,0.086-0.018s0.05-0.029,0.07-0.05c0.02-0.021,0.036-0.046,0.048-0.075c0.012-0.028,0.017-0.059,0.017-0.091
					c0-0.033-0.006-0.064-0.017-0.093c-0.011-0.029-0.027-0.054-0.047-0.075c-0.02-0.021-0.044-0.038-0.071-0.05
					c-0.027-0.012-0.056-0.018-0.087-0.018c-0.033,0-0.062,0.006-0.089,0.019c-0.027,0.012-0.05,0.029-0.069,0.05
					c-0.019,0.021-0.034,0.046-0.045,0.075C336.833,16.105,336.828,16.136,336.828,16.168z"/>
			</g>
			<g>
				<path fill="#878A8B" d="M336.153,28.253c0,0.164-0.018,0.31-0.054,0.439c-0.036,0.129-0.089,0.238-0.158,0.327
					c-0.069,0.089-0.153,0.157-0.253,0.205c-0.099,0.047-0.212,0.071-0.338,0.071c-0.151,0-0.281-0.024-0.39-0.072v-0.334
					c0.097,0.063,0.213,0.095,0.35,0.095c0.14,0,0.249-0.048,0.328-0.143c0.079-0.095,0.119-0.233,0.12-0.413l-0.008-0.003
					c-0.081,0.121-0.205,0.181-0.372,0.181c-0.075,0-0.145-0.014-0.209-0.042c-0.064-0.028-0.119-0.068-0.166-0.118
					c-0.047-0.05-0.083-0.11-0.109-0.179c-0.026-0.069-0.039-0.146-0.039-0.229c0-0.097,0.016-0.185,0.048-0.265
					c0.032-0.08,0.076-0.148,0.133-0.206s0.125-0.102,0.205-0.133c0.08-0.031,0.168-0.047,0.265-0.047c0.1,0,0.19,0.02,0.27,0.059
					c0.08,0.039,0.148,0.095,0.204,0.169s0.099,0.164,0.129,0.271C336.138,27.995,336.153,28.117,336.153,28.253z M335.743,28.037
					c0-0.047-0.006-0.091-0.018-0.133c-0.012-0.041-0.029-0.077-0.05-0.107c-0.021-0.03-0.048-0.054-0.078-0.071
					c-0.031-0.018-0.065-0.026-0.102-0.026c-0.035,0-0.068,0.008-0.097,0.023c-0.03,0.015-0.055,0.037-0.077,0.064
					c-0.021,0.027-0.038,0.059-0.05,0.097c-0.012,0.038-0.018,0.078-0.018,0.122c0,0.048,0.006,0.091,0.018,0.128
					c0.012,0.037,0.029,0.069,0.051,0.095c0.022,0.026,0.048,0.045,0.079,0.059c0.031,0.013,0.065,0.02,0.103,0.02
					c0.036,0,0.069-0.007,0.098-0.021c0.029-0.014,0.054-0.033,0.075-0.057c0.021-0.024,0.037-0.052,0.049-0.085
					C335.737,28.11,335.743,28.075,335.743,28.037z"/>
				<path fill="#878A8B" d="M337.494,27.42v1.163h0.221v0.303h-0.221v0.378h-0.37v-0.378h-0.804v-0.318
					c0.071-0.08,0.145-0.167,0.221-0.262c0.076-0.095,0.15-0.192,0.221-0.293c0.071-0.1,0.137-0.201,0.199-0.303
					c0.061-0.101,0.113-0.199,0.156-0.291H337.494z M336.684,28.582h0.44v-0.644c-0.03,0.056-0.063,0.112-0.098,0.169
					c-0.035,0.057-0.072,0.113-0.111,0.169c-0.039,0.055-0.078,0.109-0.117,0.161C336.759,28.488,336.721,28.537,336.684,28.582z"/>
			</g>
			<g>
				<path fill="#878A8B" d="M335.068,40.957v-0.354c0.123,0.09,0.267,0.135,0.432,0.135c0.104,0,0.185-0.022,0.242-0.067
					s0.087-0.107,0.087-0.186c0-0.082-0.036-0.146-0.107-0.19c-0.072-0.045-0.17-0.067-0.295-0.067h-0.171v-0.311h0.158
					c0.24,0,0.36-0.08,0.36-0.239c0-0.15-0.092-0.225-0.276-0.225c-0.123,0-0.243,0.04-0.36,0.12V39.24
					c0.129-0.065,0.28-0.098,0.453-0.098c0.189,0,0.335,0.042,0.44,0.127c0.105,0.085,0.158,0.195,0.158,0.331
					c0,0.241-0.122,0.392-0.367,0.453v0.006c0.13,0.016,0.233,0.064,0.309,0.142c0.075,0.078,0.113,0.175,0.113,0.289
					c0,0.172-0.063,0.309-0.189,0.409c-0.126,0.1-0.3,0.15-0.522,0.15C335.342,41.05,335.188,41.019,335.068,40.957z"/>
				<path fill="#878A8B" d="M337.503,39.132v1.885h-0.405V39.59c-0.022,0.02-0.049,0.038-0.079,0.056
					c-0.03,0.018-0.063,0.033-0.097,0.047c-0.034,0.014-0.07,0.026-0.107,0.036c-0.037,0.01-0.073,0.017-0.109,0.021v-0.342
					c0.105-0.031,0.205-0.07,0.298-0.118s0.178-0.101,0.253-0.158H337.503z"/>
			</g>
			<g>
				<path fill="#878A8B" d="M334.874,52.266c0-0.051,0.007-0.101,0.022-0.149c0.015-0.047,0.038-0.092,0.068-0.132
					c0.03-0.041,0.068-0.077,0.113-0.109c0.045-0.032,0.098-0.058,0.159-0.079c-0.093-0.046-0.166-0.106-0.217-0.178
					c-0.051-0.072-0.077-0.153-0.077-0.241c0-0.07,0.015-0.135,0.044-0.195c0.03-0.06,0.07-0.112,0.123-0.156
					s0.115-0.078,0.187-0.102c0.072-0.024,0.152-0.037,0.237-0.037c0.087,0,0.168,0.012,0.24,0.037
					c0.073,0.025,0.136,0.058,0.188,0.102c0.053,0.043,0.094,0.094,0.123,0.154c0.029,0.059,0.044,0.123,0.044,0.193
					c0,0.087-0.027,0.167-0.082,0.238c-0.055,0.072-0.131,0.131-0.228,0.177c0.06,0.021,0.113,0.047,0.158,0.079
					c0.045,0.032,0.084,0.069,0.114,0.11c0.031,0.041,0.054,0.086,0.069,0.134s0.023,0.099,0.023,0.151
					c0,0.079-0.016,0.151-0.048,0.215c-0.032,0.065-0.077,0.121-0.134,0.167c-0.058,0.047-0.127,0.083-0.207,0.109
					c-0.08,0.026-0.169,0.039-0.266,0.039c-0.095,0-0.183-0.013-0.263-0.038c-0.08-0.025-0.149-0.061-0.207-0.107
					c-0.058-0.046-0.103-0.102-0.136-0.167C334.89,52.415,334.874,52.344,334.874,52.266z M335.258,52.231
					c0,0.042,0.006,0.08,0.019,0.113c0.013,0.033,0.031,0.062,0.055,0.085c0.024,0.023,0.053,0.041,0.086,0.053
					c0.033,0.013,0.07,0.019,0.111,0.019c0.039,0,0.076-0.006,0.109-0.019c0.033-0.013,0.061-0.031,0.086-0.054
					c0.024-0.023,0.043-0.051,0.057-0.085c0.014-0.033,0.021-0.071,0.021-0.112c0-0.037-0.006-0.072-0.019-0.105
					c-0.013-0.033-0.031-0.062-0.055-0.087c-0.024-0.025-0.053-0.044-0.086-0.059c-0.033-0.015-0.07-0.022-0.111-0.022
					c-0.039,0-0.075,0.007-0.108,0.02c-0.033,0.013-0.062,0.032-0.086,0.057c-0.024,0.025-0.043,0.053-0.057,0.087
					C335.265,52.155,335.258,52.192,335.258,52.231z M335.315,51.415c0,0.033,0.006,0.063,0.017,0.092
					c0.012,0.029,0.027,0.054,0.047,0.075c0.02,0.021,0.043,0.037,0.07,0.049c0.027,0.012,0.056,0.018,0.086,0.018
					c0.031,0,0.06-0.006,0.086-0.018c0.027-0.012,0.05-0.029,0.07-0.05c0.02-0.021,0.036-0.046,0.048-0.075
					c0.012-0.028,0.017-0.059,0.017-0.091c0-0.033-0.006-0.064-0.017-0.093c-0.011-0.029-0.027-0.054-0.047-0.075
					c-0.02-0.021-0.044-0.038-0.071-0.05c-0.027-0.012-0.056-0.018-0.087-0.018c-0.033,0-0.062,0.006-0.089,0.019
					s-0.05,0.029-0.069,0.05c-0.019,0.021-0.034,0.046-0.045,0.075C335.32,51.351,335.315,51.382,335.315,51.415z"/>
				<path fill="#878A8B" d="M336.388,52.266c0-0.051,0.008-0.101,0.022-0.149c0.015-0.047,0.038-0.092,0.068-0.132
					c0.03-0.041,0.068-0.077,0.113-0.109c0.045-0.032,0.098-0.058,0.159-0.079c-0.093-0.046-0.166-0.106-0.217-0.178
					c-0.051-0.072-0.077-0.153-0.077-0.241c0-0.07,0.015-0.135,0.044-0.195s0.071-0.112,0.123-0.156
					c0.052-0.044,0.115-0.078,0.187-0.102c0.072-0.024,0.152-0.037,0.237-0.037c0.087,0,0.168,0.012,0.241,0.037
					c0.073,0.025,0.136,0.058,0.188,0.102c0.053,0.043,0.094,0.094,0.123,0.154c0.029,0.059,0.044,0.123,0.044,0.193
					c0,0.087-0.027,0.167-0.082,0.238c-0.055,0.072-0.131,0.131-0.228,0.177c0.06,0.021,0.113,0.047,0.158,0.079
					c0.045,0.032,0.084,0.069,0.114,0.11s0.054,0.086,0.069,0.134c0.015,0.048,0.023,0.099,0.023,0.151
					c0,0.079-0.016,0.151-0.048,0.215c-0.032,0.065-0.077,0.121-0.134,0.167c-0.058,0.047-0.127,0.083-0.207,0.109
					c-0.08,0.026-0.169,0.039-0.266,0.039c-0.095,0-0.183-0.013-0.263-0.038c-0.08-0.025-0.149-0.061-0.207-0.107
					c-0.058-0.046-0.103-0.102-0.136-0.167C336.405,52.415,336.388,52.344,336.388,52.266z M336.773,52.231
					c0,0.042,0.006,0.08,0.019,0.113c0.013,0.033,0.031,0.062,0.055,0.085c0.024,0.023,0.052,0.041,0.086,0.053
					c0.033,0.013,0.07,0.019,0.111,0.019c0.039,0,0.076-0.006,0.109-0.019s0.062-0.031,0.086-0.054
					c0.024-0.023,0.043-0.051,0.057-0.085c0.014-0.033,0.021-0.071,0.021-0.112c0-0.037-0.006-0.072-0.019-0.105
					c-0.013-0.033-0.031-0.062-0.055-0.087c-0.024-0.025-0.052-0.044-0.086-0.059c-0.033-0.015-0.07-0.022-0.111-0.022
					c-0.039,0-0.075,0.007-0.108,0.02c-0.033,0.013-0.062,0.032-0.086,0.057c-0.024,0.025-0.043,0.053-0.057,0.087
					C336.78,52.155,336.773,52.192,336.773,52.231z M336.83,51.415c0,0.033,0.006,0.063,0.017,0.092
					c0.012,0.029,0.027,0.054,0.047,0.075c0.02,0.021,0.043,0.037,0.07,0.049c0.027,0.012,0.056,0.018,0.086,0.018
					c0.031,0,0.06-0.006,0.086-0.018c0.027-0.012,0.05-0.029,0.07-0.05c0.02-0.021,0.036-0.046,0.048-0.075
					c0.012-0.028,0.017-0.059,0.017-0.091c0-0.033-0.006-0.064-0.017-0.093s-0.027-0.054-0.047-0.075s-0.044-0.038-0.071-0.05
					c-0.027-0.012-0.056-0.018-0.087-0.018c-0.033,0-0.062,0.006-0.089,0.019s-0.05,0.029-0.069,0.05
					c-0.019,0.021-0.034,0.046-0.045,0.075C336.835,51.351,336.83,51.382,336.83,51.415z"/>
			</g>
		</g>
		<g>
			<g>
				<circle fill="#FFFFFF" cx="74.63" cy="59.979" r="5.514"/>
				<path fill="#00AFE1" d="M74.63,65.848c-3.236,0-5.869-2.633-5.869-5.869s2.633-5.869,5.869-5.869s5.869,2.633,5.869,5.869
					S77.866,65.848,74.63,65.848z M74.63,54.82c-2.845,0-5.16,2.314-5.16,5.16s2.314,5.16,5.16,5.16s5.16-2.314,5.16-5.16
					S77.475,54.82,74.63,54.82z"/>
			</g>
			<g>
				<circle fill="#FFFFFF" cx="74.63" cy="45.748" r="5.514"/>
				<path fill="#00AFE1" d="M74.63,51.617c-3.236,0-5.869-2.633-5.869-5.869s2.633-5.869,5.869-5.869s5.869,2.633,5.869,5.869
					S77.866,51.617,74.63,51.617z M74.63,40.588c-2.845,0-5.16,2.314-5.16,5.16s2.314,5.16,5.16,5.16s5.16-2.314,5.16-5.16
					S77.475,40.588,74.63,40.588z"/>
			</g>
			<g>
				<circle fill="#FFFFFF" cx="74.63" cy="31.517" r="5.514"/>
				<path fill="#00AFE1" d="M74.63,37.385c-3.236,0-5.869-2.633-5.869-5.869s2.633-5.868,5.869-5.868s5.869,2.632,5.869,5.868
					S77.866,37.385,74.63,37.385z M74.63,26.357c-2.845,0-5.16,2.314-5.16,5.159c0,2.845,2.314,5.16,5.16,5.16s5.16-2.314,5.16-5.16
					C79.79,28.672,77.475,26.357,74.63,26.357z"/>
			</g>
			<g>
				<g>
					<path fill="#878A8B" d="M74.47,31.409c0,0.198-0.022,0.376-0.065,0.532c-0.044,0.156-0.107,0.288-0.191,0.396
						c-0.084,0.108-0.186,0.191-0.306,0.249c-0.12,0.057-0.257,0.086-0.41,0.086c-0.183,0-0.34-0.029-0.472-0.087V32.18
						c0.117,0.077,0.259,0.115,0.424,0.115c0.169,0,0.302-0.058,0.397-0.173c0.096-0.115,0.144-0.282,0.145-0.5l-0.009-0.003
						c-0.099,0.146-0.249,0.22-0.45,0.22c-0.091,0-0.176-0.017-0.253-0.051c-0.077-0.034-0.144-0.082-0.201-0.142
						c-0.057-0.061-0.101-0.133-0.132-0.217c-0.032-0.084-0.048-0.177-0.048-0.277c0-0.117,0.019-0.224,0.058-0.321
						c0.038-0.097,0.092-0.18,0.161-0.249c0.069-0.07,0.152-0.123,0.248-0.161c0.097-0.038,0.204-0.057,0.321-0.057
						c0.122,0,0.231,0.024,0.327,0.071c0.097,0.047,0.179,0.115,0.247,0.205c0.068,0.089,0.12,0.199,0.156,0.329
						C74.452,31.096,74.47,31.243,74.47,31.409z M73.973,31.147c0-0.057-0.007-0.111-0.022-0.161
						c-0.015-0.05-0.035-0.094-0.061-0.13c-0.026-0.036-0.058-0.065-0.095-0.086c-0.037-0.021-0.078-0.032-0.123-0.032
						c-0.043,0-0.082,0.009-0.118,0.028c-0.036,0.019-0.067,0.044-0.093,0.077c-0.026,0.033-0.046,0.072-0.061,0.118
						c-0.015,0.046-0.022,0.095-0.022,0.148c0,0.058,0.007,0.11,0.022,0.155c0.015,0.045,0.035,0.083,0.062,0.115
						s0.058,0.055,0.096,0.071c0.037,0.016,0.079,0.024,0.125,0.024c0.044,0,0.083-0.008,0.118-0.026
						c0.035-0.017,0.066-0.04,0.091-0.069c0.025-0.029,0.045-0.063,0.059-0.103C73.966,31.235,73.973,31.193,73.973,31.147z"/>
					<path fill="#878A8B" d="M76.095,30.399v1.408h0.268v0.368h-0.268v0.458h-0.449v-0.458h-0.974V31.79
						c0.086-0.097,0.176-0.202,0.268-0.317s0.182-0.233,0.268-0.354c0.086-0.122,0.166-0.244,0.241-0.367
						c0.074-0.123,0.137-0.241,0.189-0.353H76.095z M75.113,31.807h0.533v-0.78c-0.036,0.068-0.076,0.136-0.118,0.205
						c-0.043,0.069-0.087,0.137-0.134,0.204c-0.047,0.067-0.094,0.132-0.142,0.195C75.204,31.693,75.158,31.752,75.113,31.807z"/>
				</g>
			</g>
			<g>
				<g>
					<path fill="#878A8B" d="M73.156,46.797v-0.428c0.15,0.109,0.324,0.164,0.523,0.164c0.126,0,0.224-0.027,0.294-0.081
						c0.07-0.054,0.105-0.129,0.105-0.226c0-0.1-0.043-0.177-0.13-0.231c-0.087-0.054-0.206-0.081-0.358-0.081h-0.207v-0.377h0.192
						c0.291,0,0.436-0.097,0.436-0.29c0-0.182-0.112-0.273-0.335-0.273c-0.15,0-0.295,0.048-0.436,0.145v-0.402
						c0.157-0.079,0.34-0.118,0.548-0.118c0.228,0,0.406,0.051,0.534,0.154c0.127,0.103,0.191,0.236,0.191,0.4
						c0,0.292-0.148,0.475-0.444,0.548v0.008c0.158,0.02,0.282,0.077,0.374,0.172c0.091,0.095,0.137,0.212,0.137,0.35
						c0,0.209-0.076,0.374-0.229,0.495c-0.153,0.122-0.363,0.182-0.632,0.182C73.488,46.909,73.3,46.872,73.156,46.797z"/>
					<path fill="#878A8B" d="M76.105,44.587v2.284h-0.491v-1.729c-0.027,0.024-0.059,0.047-0.096,0.068
						c-0.037,0.021-0.076,0.041-0.118,0.057c-0.042,0.017-0.085,0.032-0.129,0.044c-0.045,0.012-0.089,0.021-0.132,0.026v-0.414
						c0.128-0.037,0.248-0.085,0.361-0.143c0.113-0.058,0.215-0.122,0.307-0.192H76.105z"/>
				</g>
			</g>
			<g>
				<g>
					<path fill="#878A8B" d="M72.92,60.496c0-0.062,0.009-0.122,0.027-0.18c0.018-0.057,0.045-0.111,0.082-0.16
						s0.082-0.093,0.136-0.133c0.055-0.039,0.119-0.071,0.192-0.096c-0.113-0.056-0.201-0.128-0.263-0.216
						c-0.062-0.088-0.093-0.185-0.093-0.292c0-0.085,0.018-0.164,0.054-0.237c0.036-0.073,0.085-0.136,0.149-0.188
						c0.063-0.053,0.139-0.094,0.227-0.124c0.088-0.029,0.184-0.044,0.287-0.044c0.106,0,0.203,0.015,0.291,0.044
						c0.088,0.03,0.164,0.071,0.228,0.123c0.064,0.052,0.113,0.114,0.149,0.186c0.035,0.072,0.053,0.15,0.053,0.234
						c0,0.106-0.033,0.202-0.1,0.289c-0.066,0.087-0.158,0.158-0.276,0.214c0.073,0.025,0.137,0.057,0.192,0.096
						c0.055,0.039,0.101,0.083,0.139,0.133s0.065,0.104,0.084,0.163c0.019,0.059,0.028,0.12,0.028,0.183
						c0,0.096-0.019,0.183-0.058,0.261c-0.038,0.079-0.093,0.146-0.163,0.203c-0.07,0.057-0.154,0.101-0.251,0.132
						c-0.097,0.031-0.204,0.047-0.322,0.047c-0.115,0-0.221-0.015-0.319-0.046c-0.097-0.031-0.181-0.074-0.251-0.13
						s-0.125-0.123-0.164-0.202C72.94,60.677,72.92,60.59,72.92,60.496z M73.386,60.454c0,0.051,0.008,0.097,0.023,0.137
						c0.016,0.041,0.038,0.075,0.067,0.103c0.029,0.028,0.064,0.05,0.104,0.065c0.04,0.015,0.085,0.023,0.135,0.023
						c0.048,0,0.092-0.008,0.132-0.023c0.04-0.016,0.075-0.037,0.104-0.065s0.052-0.062,0.069-0.103
						c0.017-0.041,0.025-0.086,0.025-0.136c0-0.045-0.008-0.087-0.023-0.128s-0.038-0.076-0.067-0.105
						c-0.029-0.03-0.064-0.053-0.104-0.071c-0.04-0.018-0.085-0.026-0.135-0.026c-0.047,0-0.09,0.008-0.131,0.024
						c-0.04,0.016-0.075,0.039-0.104,0.069c-0.029,0.03-0.052,0.065-0.069,0.105S73.386,60.406,73.386,60.454z M73.454,59.465
						c0,0.039,0.007,0.077,0.021,0.111c0.014,0.035,0.033,0.065,0.057,0.09c0.024,0.025,0.052,0.045,0.085,0.06
						c0.033,0.015,0.067,0.022,0.104,0.022c0.037,0,0.072-0.007,0.104-0.022c0.032-0.015,0.06-0.035,0.085-0.061
						c0.024-0.026,0.044-0.056,0.058-0.09s0.021-0.071,0.021-0.111c0-0.041-0.007-0.078-0.02-0.113s-0.032-0.065-0.057-0.09
						c-0.024-0.025-0.053-0.046-0.086-0.06c-0.033-0.015-0.068-0.022-0.105-0.022c-0.039,0-0.076,0.008-0.108,0.023
						c-0.033,0.015-0.061,0.035-0.084,0.061c-0.023,0.026-0.042,0.056-0.055,0.09C73.461,59.388,73.454,59.425,73.454,59.465z"/>
					<path fill="#878A8B" d="M74.755,60.496c0-0.062,0.009-0.122,0.027-0.18c0.018-0.057,0.045-0.111,0.082-0.16
						c0.036-0.049,0.082-0.093,0.136-0.133c0.055-0.039,0.119-0.071,0.192-0.096c-0.113-0.056-0.201-0.128-0.263-0.216
						c-0.062-0.088-0.093-0.185-0.093-0.292c0-0.085,0.018-0.164,0.054-0.237c0.036-0.073,0.085-0.136,0.149-0.188
						s0.139-0.094,0.227-0.124c0.088-0.029,0.184-0.044,0.287-0.044c0.106,0,0.203,0.015,0.291,0.044
						c0.088,0.03,0.164,0.071,0.228,0.123s0.113,0.114,0.149,0.186c0.035,0.072,0.053,0.15,0.053,0.234
						c0,0.106-0.033,0.202-0.1,0.289c-0.066,0.087-0.158,0.158-0.276,0.214c0.073,0.025,0.137,0.057,0.192,0.096
						c0.055,0.039,0.101,0.083,0.139,0.133s0.065,0.104,0.084,0.163c0.019,0.059,0.028,0.12,0.028,0.183
						c0,0.096-0.019,0.183-0.058,0.261c-0.038,0.079-0.093,0.146-0.163,0.203c-0.07,0.057-0.154,0.101-0.251,0.132
						s-0.204,0.047-0.322,0.047c-0.115,0-0.221-0.015-0.319-0.046c-0.097-0.031-0.181-0.074-0.251-0.13s-0.125-0.123-0.164-0.202
						C74.775,60.677,74.755,60.59,74.755,60.496z M75.221,60.454c0,0.051,0.008,0.097,0.023,0.137
						c0.016,0.041,0.038,0.075,0.067,0.103c0.029,0.028,0.064,0.05,0.104,0.065c0.04,0.015,0.085,0.023,0.135,0.023
						c0.048,0,0.092-0.008,0.132-0.023c0.04-0.016,0.075-0.037,0.104-0.065c0.029-0.028,0.052-0.062,0.069-0.103
						c0.017-0.041,0.025-0.086,0.025-0.136c0-0.045-0.008-0.087-0.023-0.128c-0.016-0.041-0.038-0.076-0.067-0.105
						c-0.029-0.03-0.064-0.053-0.104-0.071c-0.04-0.018-0.085-0.026-0.135-0.026c-0.047,0-0.09,0.008-0.131,0.024
						c-0.04,0.016-0.075,0.039-0.104,0.069c-0.029,0.03-0.052,0.065-0.069,0.105C75.229,60.362,75.221,60.406,75.221,60.454z
						 M75.289,59.465c0,0.039,0.007,0.077,0.021,0.111c0.014,0.035,0.033,0.065,0.057,0.09c0.024,0.025,0.052,0.045,0.085,0.06
						c0.033,0.015,0.067,0.022,0.104,0.022c0.037,0,0.072-0.007,0.104-0.022c0.032-0.015,0.06-0.035,0.085-0.061
						c0.024-0.026,0.044-0.056,0.058-0.09c0.014-0.034,0.021-0.071,0.021-0.111c0-0.041-0.007-0.078-0.02-0.113
						c-0.014-0.035-0.032-0.065-0.057-0.09c-0.024-0.025-0.053-0.046-0.086-0.06c-0.033-0.015-0.068-0.022-0.105-0.022
						c-0.039,0-0.076,0.008-0.108,0.023c-0.033,0.015-0.061,0.035-0.084,0.061c-0.023,0.026-0.042,0.056-0.055,0.09
						C75.296,59.388,75.289,59.425,75.289,59.465z"/>
				</g>
			</g>
		</g>
		<g>
			<g>
				<circle fill="#FFFFFF" cx="640.59" cy="169.81" r="15.556"/>
				<path fill="#00AFE1" d="M640.59,186.366c-9.129,0-16.556-7.427-16.556-16.556s7.427-16.556,16.556-16.556
					s16.556,7.427,16.556,16.556S649.719,186.366,640.59,186.366z M640.59,155.254c-8.026,0-14.556,6.53-14.556,14.556
					s6.53,14.556,14.556,14.556c8.026,0,14.556-6.53,14.556-14.556S648.615,155.254,640.59,155.254z"/>
			</g>
			<g>
				<circle fill="#FFFFFF" cx="640.59" cy="129.662" r="15.556"/>
				<path fill="#00AFE1" d="M640.59,146.218c-9.129,0-16.556-7.427-16.556-16.556s7.427-16.556,16.556-16.556
					s16.556,7.427,16.556,16.556S649.719,146.218,640.59,146.218z M640.59,115.106c-8.026,0-14.556,6.53-14.556,14.556
					c0,8.026,6.53,14.556,14.556,14.556c8.026,0,14.556-6.53,14.556-14.556C655.145,121.636,648.615,115.106,640.59,115.106z"/>
			</g>
			<g>
				<circle fill="#FFFFFF" cx="640.59" cy="89.514" r="15.556"/>
				<path fill="#00AFE1" d="M640.59,106.07c-9.129,0-16.556-7.427-16.556-16.556s7.427-16.556,16.556-16.556
					s16.556,7.427,16.556,16.556S649.719,106.07,640.59,106.07z M640.59,74.958c-8.026,0-14.556,6.53-14.556,14.556
					c0,8.026,6.53,14.556,14.556,14.556c8.026,0,14.556-6.53,14.556-14.556C655.145,81.488,648.615,74.958,640.59,74.958z"/>
			</g>
			<g>
				<circle fill="#FFFFFF" cx="640.59" cy="49.366" r="15.556"/>
				<path fill="#00AFE1" d="M640.59,65.922c-9.129,0-16.556-7.427-16.556-16.556s7.427-16.556,16.556-16.556
					s16.556,7.427,16.556,16.556S649.719,65.922,640.59,65.922z M640.59,34.811c-8.026,0-14.556,6.53-14.556,14.556
					c0,8.026,6.53,14.556,14.556,14.556c8.026,0,14.556-6.53,14.556-14.556C655.145,41.34,648.615,34.811,640.59,34.811z"/>
			</g>
			<g>
				<path fill="#878A8B" d="M637.291,51.368h2.672v1.151h-4.192v-0.475c0-0.322,0.054-0.611,0.163-0.868
					c0.108-0.256,0.245-0.486,0.409-0.689s0.344-0.384,0.538-0.541c0.195-0.156,0.38-0.298,0.556-0.424
					c0.185-0.132,0.346-0.258,0.486-0.378s0.256-0.239,0.352-0.358c0.095-0.118,0.166-0.238,0.213-0.36
					c0.047-0.121,0.07-0.251,0.07-0.389c0-0.27-0.076-0.473-0.229-0.611s-0.385-0.207-0.699-0.207c-0.542,0-1.061,0.215-1.556,0.646
					v-1.222c0.548-0.354,1.166-0.532,1.854-0.532c0.319,0,0.606,0.042,0.859,0.125c0.253,0.084,0.468,0.203,0.644,0.358
					s0.31,0.344,0.402,0.564c0.092,0.222,0.138,0.468,0.138,0.741c0,0.29-0.045,0.548-0.134,0.773s-0.208,0.431-0.356,0.615
					s-0.319,0.354-0.512,0.507c-0.193,0.154-0.394,0.303-0.602,0.446c-0.141,0.1-0.276,0.199-0.406,0.297s-0.245,0.195-0.345,0.29
					s-0.179,0.188-0.237,0.279S637.291,51.286,637.291,51.368z"/>
				<path fill="#878A8B" d="M640.935,50.823c0-0.176,0.026-0.345,0.077-0.508c0.051-0.162,0.128-0.313,0.231-0.452
					s0.231-0.264,0.385-0.374c0.154-0.109,0.335-0.2,0.543-0.27c-0.319-0.158-0.567-0.361-0.743-0.609
					c-0.176-0.247-0.264-0.522-0.264-0.824c0-0.24,0.051-0.463,0.152-0.668s0.241-0.382,0.42-0.532s0.392-0.266,0.639-0.35
					c0.248-0.083,0.518-0.125,0.811-0.125c0.299,0,0.573,0.042,0.822,0.125c0.249,0.084,0.464,0.2,0.644,0.348
					s0.32,0.323,0.42,0.525s0.149,0.422,0.149,0.659c0,0.299-0.094,0.571-0.281,0.815c-0.188,0.245-0.447,0.446-0.778,0.604
					c0.205,0.07,0.385,0.16,0.541,0.271c0.155,0.109,0.286,0.235,0.391,0.375s0.185,0.294,0.237,0.459s0.079,0.337,0.079,0.516
					c0,0.27-0.054,0.515-0.163,0.736c-0.108,0.222-0.261,0.412-0.459,0.571c-0.198,0.16-0.434,0.284-0.708,0.372
					s-0.576,0.132-0.907,0.132c-0.325,0-0.625-0.043-0.899-0.129c-0.274-0.086-0.51-0.209-0.708-0.367s-0.352-0.348-0.464-0.569
					C640.99,51.334,640.935,51.09,640.935,50.823z M642.248,50.705c0,0.144,0.022,0.272,0.066,0.387s0.107,0.211,0.189,0.29
					s0.179,0.14,0.292,0.182c0.113,0.043,0.24,0.064,0.38,0.064c0.135,0,0.259-0.022,0.371-0.066s0.21-0.105,0.292-0.185
					s0.146-0.176,0.193-0.29s0.07-0.242,0.07-0.382c0-0.126-0.022-0.246-0.066-0.36s-0.107-0.213-0.189-0.296
					c-0.082-0.084-0.179-0.15-0.292-0.2s-0.24-0.075-0.38-0.075c-0.132,0-0.255,0.023-0.369,0.068
					c-0.114,0.046-0.212,0.11-0.294,0.193c-0.082,0.084-0.146,0.183-0.193,0.297S642.248,50.57,642.248,50.705z M642.442,47.914
					c0,0.111,0.02,0.216,0.059,0.314s0.093,0.183,0.16,0.255s0.147,0.128,0.24,0.169s0.19,0.062,0.292,0.062
					c0.105,0,0.204-0.021,0.294-0.062s0.171-0.098,0.24-0.171s0.123-0.158,0.163-0.255s0.059-0.201,0.059-0.312
					c0-0.114-0.019-0.22-0.057-0.318s-0.092-0.183-0.16-0.255s-0.149-0.128-0.242-0.169s-0.191-0.062-0.297-0.062
					c-0.111,0-0.213,0.021-0.305,0.064s-0.171,0.1-0.237,0.171c-0.066,0.072-0.117,0.157-0.154,0.255
					C642.46,47.698,642.442,47.803,642.442,47.914z"/>
			</g>
			<g>
				<path fill="#878A8B" d="M640.137,89.209c0,0.56-0.062,1.06-0.185,1.501s-0.302,0.813-0.538,1.118s-0.524,0.538-0.864,0.701
					c-0.34,0.162-0.725,0.244-1.156,0.244c-0.516,0-0.959-0.082-1.332-0.246v-1.143c0.331,0.217,0.729,0.325,1.195,0.325
					c0.478,0,0.851-0.163,1.121-0.488s0.406-0.795,0.409-1.411l-0.026-0.009c-0.278,0.413-0.702,0.62-1.27,0.62
					c-0.258,0-0.496-0.048-0.714-0.145s-0.407-0.231-0.567-0.402c-0.16-0.172-0.284-0.376-0.374-0.613s-0.134-0.498-0.134-0.782
					c0-0.331,0.054-0.633,0.163-0.905s0.26-0.507,0.455-0.703s0.428-0.348,0.701-0.455c0.272-0.106,0.574-0.16,0.905-0.16
					c0.343,0,0.65,0.067,0.923,0.2s0.505,0.326,0.697,0.578s0.338,0.561,0.439,0.927S640.137,88.743,640.137,89.209z
					 M638.735,88.471c0-0.161-0.021-0.313-0.062-0.455c-0.041-0.142-0.098-0.264-0.171-0.367s-0.163-0.184-0.268-0.244
					s-0.221-0.09-0.347-0.09c-0.12,0-0.231,0.026-0.332,0.079s-0.188,0.125-0.261,0.217c-0.073,0.093-0.13,0.203-0.171,0.332
					s-0.062,0.268-0.062,0.417c0,0.164,0.021,0.31,0.062,0.437c0.041,0.128,0.099,0.235,0.174,0.323s0.165,0.155,0.27,0.2
					s0.223,0.068,0.352,0.068c0.123,0,0.234-0.024,0.334-0.073c0.1-0.048,0.185-0.113,0.257-0.195s0.127-0.179,0.167-0.29
					S638.735,88.6,638.735,88.471z"/>
				<path fill="#878A8B" d="M644.72,86.361v3.973h0.756v1.037h-0.756v1.292h-1.266v-1.292h-2.747v-1.085
					c0.243-0.272,0.495-0.57,0.756-0.894s0.513-0.657,0.756-1s0.469-0.688,0.679-1.035c0.209-0.347,0.387-0.679,0.534-0.995H644.72z
					 M641.952,90.334h1.503v-2.202c-0.103,0.19-0.214,0.383-0.334,0.578c-0.12,0.195-0.246,0.387-0.378,0.576
					c-0.132,0.188-0.265,0.372-0.4,0.549C642.208,90.013,642.078,90.179,641.952,90.334z"/>
			</g>
			<g>
				<path fill="#878A8B" d="M636.43,132.622v-1.208c0.422,0.308,0.914,0.461,1.477,0.461c0.354,0,0.631-0.076,0.828-0.229
					s0.297-0.365,0.297-0.637c0-0.281-0.122-0.498-0.367-0.65s-0.581-0.229-1.009-0.229h-0.584v-1.063h0.541
					c0.82,0,1.23-0.272,1.23-0.817c0-0.513-0.315-0.769-0.945-0.769c-0.422,0-0.832,0.136-1.23,0.409v-1.134
					c0.442-0.223,0.958-0.334,1.547-0.334c0.645,0,1.146,0.145,1.505,0.435s0.538,0.667,0.538,1.129
					c0,0.823-0.417,1.339-1.252,1.547v0.022c0.445,0.056,0.797,0.217,1.055,0.486c0.258,0.268,0.387,0.597,0.387,0.986
					c0,0.589-0.215,1.055-0.646,1.397s-1.025,0.514-1.784,0.514C637.366,132.938,636.837,132.833,636.43,132.622z"/>
				<path fill="#878A8B" d="M644.749,126.386v6.442h-1.384v-4.878c-0.076,0.067-0.166,0.131-0.27,0.191s-0.215,0.114-0.332,0.162
					c-0.117,0.049-0.239,0.09-0.365,0.123c-0.126,0.034-0.25,0.058-0.374,0.073v-1.169c0.36-0.105,0.7-0.24,1.02-0.404
					s0.608-0.344,0.866-0.541H644.749z"/>
			</g>
			<g>
				<path fill="#878A8B" d="M635.764,171.267c0-0.176,0.026-0.345,0.077-0.508c0.051-0.162,0.128-0.313,0.231-0.452
					s0.231-0.264,0.385-0.374c0.154-0.109,0.335-0.2,0.543-0.27c-0.319-0.158-0.567-0.361-0.743-0.609
					c-0.176-0.247-0.264-0.522-0.264-0.824c0-0.24,0.051-0.463,0.152-0.668s0.241-0.382,0.42-0.532s0.392-0.266,0.639-0.35
					c0.248-0.083,0.518-0.125,0.811-0.125c0.299,0,0.573,0.042,0.822,0.125c0.249,0.084,0.464,0.2,0.644,0.348
					s0.32,0.323,0.42,0.525s0.149,0.422,0.149,0.659c0,0.299-0.094,0.571-0.281,0.815c-0.188,0.245-0.447,0.446-0.778,0.604
					c0.205,0.07,0.385,0.16,0.541,0.271c0.155,0.109,0.286,0.235,0.391,0.375s0.185,0.294,0.237,0.459s0.079,0.337,0.079,0.516
					c0,0.27-0.054,0.515-0.163,0.736c-0.108,0.222-0.261,0.412-0.459,0.571c-0.198,0.16-0.434,0.284-0.708,0.372
					s-0.576,0.132-0.907,0.132c-0.325,0-0.625-0.043-0.899-0.129c-0.274-0.086-0.51-0.209-0.708-0.367s-0.352-0.348-0.464-0.569
					C635.82,171.778,635.764,171.533,635.764,171.267z M637.078,171.148c0,0.144,0.022,0.272,0.066,0.387s0.107,0.211,0.189,0.29
					s0.179,0.14,0.292,0.182c0.113,0.043,0.24,0.064,0.38,0.064c0.135,0,0.259-0.022,0.371-0.066s0.21-0.105,0.292-0.185
					s0.146-0.176,0.193-0.29s0.07-0.242,0.07-0.382c0-0.126-0.022-0.246-0.066-0.36s-0.107-0.213-0.189-0.296
					c-0.082-0.084-0.179-0.15-0.292-0.2s-0.24-0.075-0.38-0.075c-0.132,0-0.255,0.023-0.369,0.068
					c-0.114,0.046-0.212,0.11-0.294,0.193c-0.082,0.084-0.146,0.183-0.193,0.297S637.078,171.013,637.078,171.148z M637.272,168.358
					c0,0.111,0.02,0.216,0.059,0.314s0.093,0.183,0.16,0.255s0.147,0.128,0.24,0.169s0.19,0.062,0.292,0.062
					c0.105,0,0.204-0.021,0.294-0.062s0.171-0.098,0.24-0.171s0.123-0.158,0.163-0.255s0.059-0.201,0.059-0.312
					c0-0.114-0.019-0.22-0.057-0.318s-0.092-0.183-0.16-0.255s-0.149-0.128-0.242-0.169s-0.191-0.062-0.297-0.062
					c-0.111,0-0.213,0.021-0.305,0.064s-0.171,0.1-0.237,0.171c-0.066,0.072-0.117,0.157-0.154,0.255
					C637.29,168.142,637.272,168.246,637.272,168.358z"/>
				<path fill="#878A8B" d="M640.941,171.267c0-0.176,0.026-0.345,0.077-0.508c0.051-0.162,0.128-0.313,0.231-0.452
					s0.231-0.264,0.385-0.374c0.154-0.109,0.335-0.2,0.543-0.27c-0.319-0.158-0.567-0.361-0.743-0.609
					c-0.176-0.247-0.264-0.522-0.264-0.824c0-0.24,0.051-0.463,0.152-0.668s0.241-0.382,0.42-0.532s0.392-0.266,0.639-0.35
					c0.248-0.083,0.518-0.125,0.811-0.125c0.299,0,0.573,0.042,0.822,0.125c0.249,0.084,0.464,0.2,0.644,0.348
					s0.32,0.323,0.42,0.525s0.149,0.422,0.149,0.659c0,0.299-0.094,0.571-0.281,0.815c-0.188,0.245-0.447,0.446-0.778,0.604
					c0.205,0.07,0.385,0.16,0.541,0.271c0.155,0.109,0.286,0.235,0.391,0.375s0.185,0.294,0.237,0.459s0.079,0.337,0.079,0.516
					c0,0.27-0.054,0.515-0.163,0.736c-0.108,0.222-0.261,0.412-0.459,0.571c-0.198,0.16-0.434,0.284-0.708,0.372
					s-0.576,0.132-0.907,0.132c-0.325,0-0.625-0.043-0.899-0.129c-0.274-0.086-0.51-0.209-0.708-0.367s-0.352-0.348-0.464-0.569
					C640.997,171.778,640.941,171.533,640.941,171.267z M642.255,171.148c0,0.144,0.022,0.272,0.066,0.387s0.107,0.211,0.189,0.29
					s0.179,0.14,0.292,0.182c0.113,0.043,0.24,0.064,0.38,0.064c0.135,0,0.259-0.022,0.371-0.066s0.21-0.105,0.292-0.185
					s0.146-0.176,0.193-0.29s0.07-0.242,0.07-0.382c0-0.126-0.022-0.246-0.066-0.36s-0.107-0.213-0.189-0.296
					c-0.082-0.084-0.179-0.15-0.292-0.2s-0.24-0.075-0.38-0.075c-0.132,0-0.255,0.023-0.369,0.068
					c-0.114,0.046-0.212,0.11-0.294,0.193c-0.082,0.084-0.146,0.183-0.193,0.297S642.255,171.013,642.255,171.148z M642.448,168.358
					c0,0.111,0.02,0.216,0.059,0.314s0.093,0.183,0.16,0.255s0.147,0.128,0.24,0.169s0.19,0.062,0.292,0.062
					c0.105,0,0.204-0.021,0.294-0.062s0.171-0.098,0.24-0.171s0.123-0.158,0.163-0.255s0.059-0.201,0.059-0.312
					c0-0.114-0.019-0.22-0.057-0.318s-0.092-0.183-0.16-0.255s-0.149-0.128-0.242-0.169s-0.191-0.062-0.297-0.062
					c-0.111,0-0.213,0.021-0.305,0.064s-0.171,0.1-0.237,0.171c-0.066,0.072-0.117,0.157-0.154,0.255
					C642.467,168.142,642.448,168.246,642.448,168.358z"/>
			</g>
		</g>
	</g>
</g>
</svg>
