<?xml version="1.0" encoding="utf-8"?>
<!-- Generator: Adobe Illustrator 17.0.1, SVG Export Plug-In . SVG Version: 6.00 Build 0)  -->
<!DOCTYPE svg PUBLIC "-//W3C//DTD SVG 1.1//EN" "http://www.w3.org/Graphics/SVG/1.1/DTD/svg11.dtd">
<svg version="1.1" id="Layer_1" xmlns="http://www.w3.org/2000/svg" xmlns:xlink="http://www.w3.org/1999/xlink" x="0px" y="0px"
	 width="25px" height="31.5px" viewBox="0 0 25 31.5" enable-background="new 0 0 25 31.5" xml:space="preserve">
<g>
	<path fill="#d2d2d2" d="M23.456,12.855h-1.815V9.892c0-4.905-4.107-8.895-9.011-8.895c-4.904,0-9.011,3.99-9.011,8.895v2.963H1.618
		c-0.399,0-0.896,0.682-0.896,1.081v16.199c0,0.399,0.496,0.743,0.896,0.743h21.839c0.399,0,1.081-0.344,1.081-0.743V13.937
		C24.538,13.537,23.856,12.855,23.456,12.855z M16.492,12.855H8.768V9.892c0-2.113,1.749-3.833,3.862-3.833
		c2.113,0,3.862,1.72,3.862,3.833V12.855z"/>
</g>
</svg>
