<svg version="1.1" id="Layer_1" xmlns="http://www.w3.org/2000/svg" xmlns:xlink="http://www.w3.org/1999/xlink" x="0px" y="0px"
	 width="25px" height="25.604px" viewBox="0 0 25 25.604" enable-background="new 0 0 25 25.604" xml:space="preserve">
<path fill="#d2d2d2" d="M18.134,15.433c-0.401-0.248-1.001-0.179-1.341,0.154l-2.655,2.654c-0.34,0.334-0.88,0.334-1.214,0
	L6.96,12.274c-0.334-0.334-0.334-0.88,0-1.214l2.5-2.499c0.334-0.334,0.384-0.923,0.112-1.308L5.023,0.804
	C4.755,0.419,4.228,0.343,3.859,0.637c0,0-3.548,2.816-3.548,5.403c0,10.587,8.583,19.169,19.169,19.169
	c2.589,0,5.105-4.749,5.105-4.749c0.221-0.416,0.075-0.963-0.326-1.211L18.134,15.433z"/>
</svg>
