<?xml version="1.0" encoding="utf-8"?>
<!-- Generator: Adobe Illustrator 17.0.1, SVG Export Plug-In . SVG Version: 6.00 Build 0)  -->
<!DOCTYPE svg PUBLIC "-//W3C//DTD SVG 1.1//EN" "http://www.w3.org/Graphics/SVG/1.1/DTD/svg11.dtd">
<svg version="1.1" xmlns="http://www.w3.org/2000/svg" xmlns:xlink="http://www.w3.org/1999/xlink" x="0px" y="0px"
	 width="53.125px" height="53.125px" viewBox="0 0 53.125 53.125" enable-background="new 0 0 53.125 53.125" xml:space="preserve">
<g id="img_x5F_back">
</g>
<g id="blocks">
	<path fill="#FFFFFF" stroke="#939393" stroke-width="1" stroke-miterlimit="10" d="M26.563,1C12.445,1,1,12.445,1,26.562
		s11.445,25.562,25.563,25.562c14.118,0,25.562-11.445,25.562-25.562S40.68,1,26.563,1z M26.615,51.136
		c-13.583,0-24.594-11.011-24.594-24.594S13.032,1.948,26.615,1.948c13.583,0,24.594,11.011,24.594,24.594
		S40.198,51.136,26.615,51.136z"/>
	<g>
		<rect x="19.41" y="13.024" fill="none" width="23.259" height="28.655"/>
		<path fill="#4C4C4C" d="M24.485,31.709l-0.072-0.936c-0.216-1.944,0.432-4.068,2.231-6.228c1.62-1.908,2.52-3.312,2.52-4.932
			c0-1.836-1.152-3.06-3.42-3.096c-1.295,0-2.735,0.433-3.635,1.116l-0.864-2.268c1.188-0.864,3.239-1.44,5.147-1.44
			c4.14,0,6.011,2.556,6.011,5.292c0,2.447-1.368,4.211-3.095,6.263c-1.584,1.872-2.16,3.456-2.052,5.292l0.036,0.936H24.485z
			 M23.694,36.748c0-1.332,0.9-2.268,2.16-2.268s2.124,0.936,2.124,2.268c0,1.26-0.828,2.231-2.16,2.231
			C24.558,38.979,23.694,38.007,23.694,36.748z"/>
	</g>
</g>
<g id="content">
</g>
</svg>
