<svg version="1.1" xmlns="http://www.w3.org/2000/svg" xmlns:xlink="http://www.w3.org/1999/xlink" x="0px" y="0px" width="53px"
                 height="53px" viewBox="0 0 53 53" enable-background="new 0 0 53 53" xml:space="preserve">
						<circle fill="none" stroke="#939393" class="how-button-c" stroke-miterlimit="10" cx="26.5" cy="26.5" r="26"/>
              <path fill="#939393" class="how-button-q" d="M24.758,31.84c-0.092-0.239-0.164-0.509-0.214-0.808c-0.051-0.299-0.076-0.582-0.076-0.849
										c0-0.423,0.042-0.81,0.125-1.16c0.083-0.35,0.207-0.679,0.373-0.987c0.166-0.308,0.373-0.603,0.621-0.883s0.539-0.559,0.87-0.835
										c0.35-0.294,0.655-0.568,0.918-0.821c0.262-0.253,0.485-0.506,0.669-0.759c0.184-0.253,0.322-0.515,0.414-0.787
										c0.092-0.271,0.138-0.573,0.138-0.904c0-0.285-0.051-0.55-0.152-0.793c-0.102-0.244-0.247-0.453-0.435-0.628
										c-0.188-0.175-0.419-0.313-0.69-0.414c-0.272-0.101-0.573-0.152-0.904-0.152c-0.718,0-1.463,0.15-2.237,0.449
										c-0.773,0.299-1.504,0.752-2.195,1.36v-4.155c0.708-0.423,1.481-0.741,2.319-0.953c0.837-0.212,1.703-0.318,2.595-0.318
										c0.856,0,1.652,0.095,2.389,0.283c0.736,0.189,1.378,0.485,1.926,0.891c0.547,0.405,0.975,0.923,1.284,1.553
										c0.308,0.631,0.462,1.388,0.462,2.271c0,0.562-0.064,1.07-0.193,1.526s-0.317,0.886-0.566,1.291
										c-0.249,0.405-0.557,0.794-0.925,1.167c-0.368,0.373-0.792,0.757-1.27,1.153c-0.322,0.267-0.605,0.516-0.849,0.746
										c-0.244,0.23-0.447,0.458-0.607,0.683c-0.161,0.226-0.283,0.465-0.366,0.718c-0.083,0.253-0.125,0.541-0.125,0.863
										c0,0.221,0.03,0.446,0.09,0.676c0.06,0.23,0.14,0.423,0.242,0.58H24.758z M26.773,37.887c-0.736,0-1.349-0.221-1.836-0.663
										c-0.488-0.46-0.731-1.003-0.731-1.629c0-0.644,0.244-1.183,0.731-1.615s1.1-0.649,1.836-0.649c0.727,0,1.33,0.216,1.809,0.649
										c0.478,0.423,0.718,0.962,0.718,1.615c0,0.663-0.235,1.21-0.704,1.643C28.117,37.67,27.51,37.887,26.773,37.887z"/>

						</svg>
