
<svg version="1.1"  xmlns="http://www.w3.org/2000/svg" xmlns:xlink="http://www.w3.org/1999/xlink" x="0px" y="0px"
	 width="424px" height="35px" viewBox="0 0.1 401.442 33.084" enable-background="new 0 0.1 401.442 33.084"
	 xml:space="preserve">
<path fill="#B0B1B3" d="M136.755,0.1l4.363,12.37l13.283,0.267l-10.587,7.912l3.847,12.535l-10.905-7.48l-10.905,7.48l3.847-12.535
	l-10.587-7.912l13.283-0.267C132.392,12.47,136.755,0.1,136.755,0.1z"/>
<path fill="#B0B1B3" d="M97.052,0.1l4.363,12.37l13.283,0.267l-10.587,7.912l3.847,12.535l-10.905-7.48l-10.905,7.48l3.847-12.535
	l-10.587-7.912l13.283-0.267C92.689,12.47,97.052,0.1,97.052,0.1z"/>
<path fill="#B0B1B3" d="M57.349,0.1l4.363,12.37l13.283,0.267l-10.587,7.912l3.847,12.535l-10.905-7.48l-10.905,7.48l3.847-12.535
	l-10.587-7.912l13.283-0.267C52.986,12.47,57.349,0.1,57.349,0.1z"/>
<path fill="#B0B1B3" d="M17.646,0.1l4.363,12.37l13.283,0.267l-10.587,7.912l3.847,12.535l-10.905-7.48l-10.905,7.48l3.847-12.535
	L0,12.737l13.283-0.267C13.283,12.47,17.646,0.1,17.646,0.1z"/>
<path fill="#B0B1B3" d="M176.458,0.1l4.363,12.37l13.283,0.267l-10.587,7.912l3.847,12.535l-10.905-7.48l-10.905,7.48l3.847-12.535
	l-10.587-7.912l13.283-0.267C172.095,12.47,176.458,0.1,176.458,0.1z"/>
<path fill="#00B7E4" d="M344.093,0.1l4.363,12.37l13.283,0.267l-10.587,7.912l3.847,12.535l-10.905-7.48l-10.905,7.48l3.847-12.535
	l-10.587-7.912l13.283-0.267C339.73,12.47,344.093,0.1,344.093,0.1z"/>
<path fill="#00B7E4" d="M304.39,0.1l4.363,12.37l13.283,0.267l-10.587,7.912l3.847,12.535l-10.905-7.48l-10.905,7.48l3.847-12.535
	l-10.587-7.912l13.283-0.267C300.027,12.47,304.39,0.1,304.39,0.1z"/>
<path fill="#00B7E4" d="M264.687,0.1l4.363,12.37l13.283,0.267l-10.587,7.912l3.847,12.535l-10.905-7.48l-10.905,7.48l3.847-12.535
	l-10.587-7.912l13.283-0.267C260.324,12.47,264.687,0.1,264.687,0.1z"/>
<path fill="#00B7E4" d="M224.984,0.1l4.363,12.37l13.283,0.267l-10.587,7.912l3.847,12.535l-10.905-7.48l-10.905,7.48l3.847-12.535
	l-10.587-7.912l13.283-0.267C220.621,12.47,224.984,0.1,224.984,0.1z"/>
<path fill="#00B7E4" d="M383.796,0.1l4.363,12.37l13.283,0.267l-10.587,7.912l3.847,12.535l-10.905-7.48l-10.905,7.48l3.847-12.535
	l-10.587-7.912l13.283-0.267C379.433,12.47,383.796,0.1,383.796,0.1z"/>
</svg>
