<?xml version="1.0" encoding="utf-8"?>
<!-- Generator: Adobe Illustrator 17.0.1, SVG Export Plug-In . SVG Version: 6.00 Build 0)  -->
<!DOCTYPE svg PUBLIC "-//W3C//DTD SVG 1.1//EN" "http://www.w3.org/Graphics/SVG/1.1/DTD/svg11.dtd">
<svg version="1.1" xmlns="http://www.w3.org/2000/svg" xmlns:xlink="http://www.w3.org/1999/xlink" x="0px" y="0px"
	 width="102.354px" height="128.577px" viewBox="0 0 102.354 128.577" enable-background="new 0 0 102.354 128.577"
	 xml:space="preserve">
<g id="Main">
	<g id="Arrow_1_">
	</g>
	<g id="Arrow">
	</g>
	<g id="Arrow_3_">
	</g>
	<g id="Search_x5F_block_x5F_wt">
	</g>
	<g>
		<path fill="#FFFFFF" d="M102.354,123.468L76.216,84.983c9.853-8.871,16.111-22.004,16.111-36.645C92.328,21.685,71.617,0,46.163,0
			S0,21.685,0,48.338s20.708,48.338,46.163,48.338c8.453,0,16.377-2.403,23.199-6.574l26.131,38.475L102.354,123.468z M8.419,48.338
			c0-21.792,16.933-39.522,37.744-39.522c20.813,0,37.746,17.73,37.746,39.522S66.976,87.86,46.163,87.86
			C25.352,87.86,8.419,70.13,8.419,48.338z"/>
	</g>
</g>
<g id="Help">
</g>
</svg>
