<?xml version="1.0" encoding="utf-8"?>
<!-- Generator: Adobe Illustrator 17.0.1, SVG Export Plug-In . SVG Version: 6.00 Build 0)  -->
<!DOCTYPE svg PUBLIC "-//W3C//DTD SVG 1.1//EN" "http://www.w3.org/Graphics/SVG/1.1/DTD/svg11.dtd">
<svg version="1.1" id="Слой_1" xmlns="http://www.w3.org/2000/svg" xmlns:xlink="http://www.w3.org/1999/xlink" x="0px" y="0px"
	 width="176.375px" height="38.25px" viewBox="31.243 105.243 176.375 38.25" enable-background="new 31.243 105.243 176.375 38.25"
	 xml:space="preserve">
<g id="backgrounds">
</g>
<g id="back_x5F_img" display="none" opacity="0.5">
</g>
<path fill="#FFFFFF" stroke="#000000" stroke-width="0.5" stroke-miterlimit="10" d="M173.904,104.57h-5.237h-29.263h-5.237h-29.263
	h-5.237H70.404h-5.237h-34.5v39.737h34.5h5.237h29.263h5.237h29.263h5.237h29.263h5.237h34.5V104.57H173.904z M58.083,136.364
	l-7.673-4.149l-7.768,3.968l1.575-8.579l-6.174-6.161l8.646-1.153l3.952-7.776l3.768,7.867l8.617,1.356l-6.317,6.015L58.083,136.364
	z M92.583,136.364l-7.673-4.149l-7.768,3.968l1.575-8.579l-6.174-6.161l8.646-1.153l3.952-7.776l3.768,7.867l8.617,1.356
	l-6.317,6.015L92.583,136.364z M127.083,136.364l-7.673-4.149l-7.768,3.968l1.575-8.579l-6.174-6.161l8.646-1.153l3.952-7.776
	l3.768,7.867l8.617,1.356l-6.317,6.015L127.083,136.364z M161.583,136.364l-7.673-4.149l-7.768,3.968l1.575-8.579l-6.174-6.161
	l8.646-1.153l3.952-7.776l3.768,7.867l8.617,1.356l-6.317,6.015L161.583,136.364z M196.083,136.364l-7.673-4.149l-7.768,3.968
	l1.575-8.579l-6.174-6.161l8.646-1.153l3.952-7.776l3.768,7.867l8.617,1.356l-6.317,6.015L196.083,136.364z"/>
</svg>
