<svg class="stock-icon" version="1.1" xmlns="http://www.w3.org/2000/svg" xmlns:xlink="http://www.w3.org/1999/xlink" x="0px" y="0px" width="70px" height="70px" viewBox="0 0 70 70" enable-background="new 0 0 70 70" xml:space="preserve">
<path fill="#FFFFFF" class="stock-icon-fill" d="M63.62,35.039l6.459-6.97l-8.634-3.968l3.3-8.911l-9.496-0.361l-0.361-9.496l-8.911,3.3L42.009,0
l-6.97,6.459L28.069,0l-3.967,8.634l-8.911-3.3L14.83,14.83l-9.495,0.361l3.3,8.911L0,28.07l6.458,6.97L0,42.009l8.634,3.968
l-3.3,8.911l9.495,0.361l0.361,9.495l8.911-3.3l3.967,8.634l6.97-6.458l6.97,6.458l3.967-8.634l8.911,3.3l0.361-9.495l9.496-0.361
l-3.3-8.911l8.634-3.968L63.62,35.039z M37.368,25.389l-0.55,13.944h-3.613l-0.522-13.944H37.368z M36.909,45.288
c-0.475,0.442-1.094,0.663-1.856,0.663c-0.753,0-1.374-0.228-1.863-0.685c-0.489-0.456-0.734-1.009-0.734-1.658
c0-0.677,0.247-1.232,0.741-1.665c0.494-0.433,1.113-0.649,1.856-0.649c0.753,0,1.369,0.219,1.849,0.656
c0.48,0.438,0.72,0.99,0.72,1.658C37.622,44.286,37.384,44.846,36.909,45.288z"></path>
</svg>