<?xml version="1.0" encoding="utf-8"?>
<!-- Generator: Adobe Illustrator 17.0.1, SVG Export Plug-In . SVG Version: 6.00 Build 0)  -->
<!DOCTYPE svg PUBLIC "-//W3C//DTD SVG 1.1//EN" "http://www.w3.org/Graphics/SVG/1.1/DTD/svg11.dtd">
<svg version="1.1" xmlns="http://www.w3.org/2000/svg" xmlns:xlink="http://www.w3.org/1999/xlink" x="0px" y="0px"
	 width="21.527px" height="21.527px" viewBox="0 0 21.527 21.527" enable-background="new 0 0 21.527 21.527" xml:space="preserve">
<g id="img">
</g>
<g id="back">
</g>
<g id="text">
</g>
<g id="main">
	<g id="FIND_x5F_logo_2">
	</g>
	<g id="marker_x5F_map_x5F_area">
	</g>
	<g id="Arrow">
	</g>
	<g>
		<g>
			<path fill="#EFEFEF" d="M10.764,21.527C4.828,21.527,0,16.699,0,10.764S4.828,0,10.764,0s10.764,4.829,10.764,10.764
				S16.699,21.527,10.764,21.527z M10.764,2C5.932,2,2,5.931,2,10.764c0,4.832,3.932,8.763,8.764,8.763s8.764-3.931,8.764-8.763
				C19.527,5.931,15.596,2,10.764,2z"/>
		</g>
		<g>
			<path fill="#EFEFEF" d="M12.949,13.931l1.295-1.524l-2.48-2.106V3.81c-0.328-0.047-0.66-0.079-1-0.079s-0.672,0.032-1,0.079
				v7.417L12.949,13.931z"/>
		</g>
	</g>
</g>
<g id="ann">
</g>
<g id="logo">
</g>
</svg>
