<?xml version="1.0" encoding="utf-8"?>
<!-- Generator: Adobe Illustrator 17.0.1, SVG Export Plug-In . SVG Version: 6.00 Build 0)  -->
<!DOCTYPE svg PUBLIC "-//W3C//DTD SVG 1.1//EN" "http://www.w3.org/Graphics/SVG/1.1/DTD/svg11.dtd">
<svg version="1.1" xmlns="http://www.w3.org/2000/svg" xmlns:xlink="http://www.w3.org/1999/xlink" x="0px" y="0px"
	 width="32.279px" height="49.108px" viewBox="0 0 32.279 49.108" enable-background="new 0 0 32.279 49.108" xml:space="preserve">
<symbol  id="New_Symbol_1_" viewBox="-16.14 -24.554 32.279 49.108">
	<path fill="#00B8E4" d="M0-24.554c0,0,0.006,0.164,0,0.459C-0.006-24.39,0-24.554,0-24.554z"/>
	<path fill="#00B8E4" d="M0,24.554c-8.914,0-16.139-7.226-16.139-16.14c0-5.321,2.745-9.912,6.559-13.118
		C-0.744-12.132-0.043-21.893,0-24.095c0.043,2.202,0.744,11.963,9.581,19.392c3.814,3.206,6.559,7.797,6.559,13.118
		C16.14,17.328,8.913,24.554,0,24.554z M0,0.25c-4.509,0-8.165,3.655-8.165,8.165S-4.509,16.579,0,16.579
		c4.509,0,8.165-3.655,8.165-8.165S4.509,0.25,0,0.25z"/>
</symbol>
<g id="back">
</g>
<g id="text">
</g>
<g id="img">
</g>
<g id="Layer_7">
	<g>
		<defs>
			<rect id="SVGID_3_" x="-2783.173" y="-417.371" width="2560" height="904.68"/>
		</defs>
		<clipPath id="SVGID_2_">
			<use xlink:href="#SVGID_3_"  overflow="visible"/>
		</clipPath>
	</g>
</g>
<g id="main">
	<g id="FIND_x5F_logo_2">
	</g>
</g>
<g id="Layer_8">
	
		<use xlink:href="#New_Symbol_1_"  width="32.279" height="49.108" id="XMLID_2_" x="-16.14" y="-24.554" transform="matrix(1 0 0 -1 16.1395 24.5541)" overflow="visible"/>
</g>
<g id="Layer_9">
</g>
<g id="ann" display="none">
</g>
<g id="Non_Editable_Symbol_Art">
	<g id="New_Symbol_2">
		<g id="New_Symbol">
		</g>
	</g>
</g>
</svg>
