<svg version="1.1" xmlns="http://www.w3.org/2000/svg" xmlns:xlink="http://www.w3.org/1999/xlink" x="0px" y="0px"
                   width="31.641px" height="31.641px" viewBox="0 0 31.641 31.641" enable-background="new 0 0 31.641 31.641" xml:space="preserve">
								<path class="social-hover" fill="#FFFFFF" d="M26.757,10.213c0.013,0.242,0.018,0.485,0.018,0.73c0,7.457-5.676,16.055-16.055,16.055
								c-3.186,0-6.152-0.934-8.651-2.535c0.439,0.049,0.891,0.08,1.346,0.08c2.644,0,5.077-0.903,7.009-2.418
								c-2.472-0.044-4.554-1.677-5.273-3.918c0.345,0.066,0.699,0.102,1.059,0.102c0.516,0,1.015-0.07,1.487-0.199
								c-2.582-0.521-4.528-2.799-4.528-5.535c0-0.024,0-0.047,0-0.07c0.761,0.421,1.632,0.675,2.557,0.704
								c-1.514-1.012-2.509-2.741-2.509-4.697c0-1.034,0.278-2.002,0.764-2.835c2.781,3.414,6.94,5.659,11.63,5.894
								c-0.097-0.411-0.145-0.844-0.145-1.287c0-3.113,2.526-5.64,5.641-5.64c1.624,0,3.091,0.685,4.12,1.78
								c1.284-0.252,2.493-0.721,3.583-1.368c-0.422,1.317-1.317,2.423-2.481,3.121c1.14-0.135,2.226-0.438,3.24-0.889
								C28.816,8.424,27.861,9.418,26.757,10.213z"/>
								</svg>
