                <svg version="1.1" xmlns="http://www.w3.org/2000/svg" xmlns:xlink="http://www.w3.org/1999/xlink" x="0px" y="0px" width="25px" height="25px" viewBox="0 0 35 35" enable-background="new 0 0 35 35" xml:space="preserve">
                <path class="hi" fill="#939393" d="M21.829,23.701c-0.864-0.137-0.883-2.512-0.883-2.512s2.538-2.512,3.091-5.891
                c1.488,0,2.407-3.592,0.919-4.855C25.018,9.112,26.868,0,17.5,0c-9.368,0-7.518,9.112-7.456,10.442
                c-1.488,1.264-0.569,4.855,0.919,4.855c0.553,3.378,3.091,5.891,3.091,5.891s-0.02,2.375-0.883,2.512
                C10.389,24.143,0,29.936,0,34.96h17.5H35C35,29.936,24.611,24.143,21.829,23.701z"/>
                </svg>
