<svg version="1.1" xmlns="http://www.w3.org/2000/svg" xmlns:xlink="http://www.w3.org/1999/xlink" x="0px" y="0px"
                   width="32.781px" height="31.641px" viewBox="0 0 32.781 31.641" enable-background="new 0 0 32.781 31.641" xml:space="preserve">
								<path class="social-hover" fill="#FFFFFF" d="M28.894,13.587c0.451-0.583,0.81-1.051,1.074-1.405c1.906-2.533,2.731-4.152,2.478-4.857L32.347,7.16
								c-0.066-0.099-0.237-0.19-0.512-0.273c-0.275-0.082-0.628-0.096-1.057-0.041L26.019,6.88c-0.11-0.011-0.22-0.008-0.331,0.008
								c-0.11,0.017-0.182,0.034-0.215,0.05c-0.033,0.017-0.061,0.03-0.082,0.041l-0.066,0.05c-0.055,0.033-0.116,0.091-0.182,0.174
								c-0.066,0.083-0.122,0.179-0.165,0.289c-0.518,1.333-1.107,2.572-1.768,3.718c-0.408,0.683-0.782,1.275-1.123,1.776
								c-0.342,0.502-0.628,0.871-0.859,1.107c-0.231,0.237-0.441,0.427-0.628,0.57c-0.188,0.144-0.331,0.204-0.429,0.182
								c-0.099-0.022-0.193-0.044-0.281-0.066c-0.154-0.099-0.278-0.234-0.372-0.405c-0.094-0.17-0.157-0.385-0.19-0.644
								c-0.033-0.259-0.053-0.482-0.058-0.669c-0.006-0.187-0.003-0.451,0.008-0.793c0.011-0.342,0.016-0.572,0.016-0.694
								c0-0.418,0.008-0.873,0.025-1.363c0.016-0.49,0.03-0.879,0.041-1.165c0.011-0.286,0.016-0.589,0.016-0.909
								c0-0.319-0.019-0.57-0.058-0.752c-0.039-0.181-0.097-0.358-0.173-0.529c-0.077-0.17-0.19-0.303-0.339-0.396
								c-0.149-0.094-0.333-0.168-0.553-0.223c-0.584-0.132-1.328-0.203-2.231-0.215c-2.049-0.021-3.365,0.111-3.949,0.397
								c-0.231,0.121-0.441,0.286-0.628,0.496c-0.198,0.243-0.226,0.375-0.082,0.396c0.661,0.099,1.129,0.336,1.404,0.711l0.099,0.198
								c0.077,0.144,0.154,0.397,0.231,0.76c0.077,0.363,0.127,0.765,0.149,1.206c0.055,0.804,0.055,1.492,0,2.065
								c-0.055,0.573-0.107,1.019-0.157,1.338c-0.05,0.32-0.124,0.578-0.223,0.776c-0.099,0.199-0.165,0.32-0.198,0.364
								c-0.033,0.044-0.061,0.071-0.082,0.083c-0.143,0.055-0.292,0.082-0.446,0.082c-0.154,0-0.342-0.077-0.562-0.232
								c-0.22-0.154-0.449-0.366-0.686-0.636c-0.237-0.27-0.504-0.647-0.802-1.132c-0.297-0.484-0.606-1.057-0.925-1.718l-0.264-0.479
								c-0.165-0.308-0.391-0.757-0.678-1.346c-0.286-0.589-0.54-1.159-0.76-1.71C7.376,7.408,7.244,7.232,7.068,7.11l-0.082-0.05
								C6.931,7.017,6.842,6.97,6.721,6.92C6.6,6.871,6.473,6.835,6.341,6.813L1.814,6.846c-0.463,0-0.776,0.105-0.942,0.314
								L0.806,7.259c-0.033,0.055-0.05,0.144-0.05,0.265c0,0.121,0.033,0.27,0.099,0.446c0.661,1.553,1.38,3.051,2.156,4.494
								c0.777,1.443,1.451,2.606,2.024,3.487c0.573,0.882,1.156,1.713,1.752,2.495s0.989,1.283,1.181,1.503
								c0.193,0.221,0.344,0.386,0.454,0.496l0.413,0.397c0.264,0.264,0.653,0.581,1.165,0.95c0.512,0.369,1.079,0.733,1.702,1.09
								c0.622,0.358,1.347,0.65,2.173,0.876c0.826,0.226,1.63,0.317,2.412,0.272h1.9c0.386-0.033,0.677-0.154,0.876-0.363l0.066-0.082
								c0.044-0.066,0.085-0.168,0.124-0.305c0.038-0.138,0.058-0.289,0.058-0.454c-0.011-0.474,0.025-0.901,0.107-1.281
								c0.082-0.38,0.176-0.666,0.281-0.86c0.105-0.192,0.223-0.355,0.355-0.487c0.132-0.132,0.226-0.212,0.281-0.239
								c0.055-0.027,0.099-0.046,0.132-0.058c0.264-0.088,0.575-0.003,0.934,0.256c0.358,0.259,0.694,0.578,1.008,0.958
								c0.314,0.38,0.691,0.807,1.132,1.281c0.44,0.474,0.826,0.826,1.156,1.057l0.331,0.199c0.22,0.132,0.506,0.253,0.859,0.363
								c0.352,0.11,0.661,0.138,0.925,0.082l4.23-0.066c0.418,0,0.744-0.069,0.975-0.206c0.231-0.137,0.369-0.289,0.413-0.454
								c0.044-0.165,0.047-0.352,0.008-0.561c-0.039-0.209-0.077-0.355-0.116-0.437c-0.039-0.082-0.075-0.152-0.108-0.206
								c-0.551-0.991-1.603-2.209-3.156-3.652l-0.033-0.033l-0.016-0.017l-0.016-0.016h-0.017c-0.705-0.672-1.151-1.124-1.338-1.355
								c-0.341-0.44-0.419-0.886-0.231-1.338C27.539,15.411,28.034,14.689,28.894,13.587z"/>
								</svg>
