<?xml version="1.0" encoding="utf-8"?>
<!-- Generator: Adobe Illustrator 17.0.1, SVG Export Plug-In . SVG Version: 6.00 Build 0)  -->
<!DOCTYPE svg PUBLIC "-//W3C//DTD SVG 1.1//EN" "http://www.w3.org/Graphics/SVG/1.1/DTD/svg11.dtd">
<svg version="1.1" xmlns="http://www.w3.org/2000/svg" xmlns:xlink="http://www.w3.org/1999/xlink" x="0px" y="0px"
	 width="246.532px" height="54.269px" viewBox="0 0 246.532 54.269" enable-background="new 0 0 246.532 54.269"
	 xml:space="preserve">
<g id="img">
</g>
<g id="main">
	<g id="FIND_x5F_logo_2">
	</g>
	<g>
		<path fill="#F2F2F2" d="M246.532,44.353h-24.698V0h23.751v8.134H231.11v9.867h13.469v8.104H231.11V36.25h15.422V44.353z"/>
		<path fill="#F2F2F2" d="M24.648,8.134H9.859v10.887h12.324v8.104H9.859v17.228H0V0h24.648V8.134z"/>
		<path fill="#F2F2F2" d="M36.972,44.353h-9.859V0h9.859V44.353z"/>
		<path fill="#F2F2F2" d="M78.844,44.353h-9.951L48.778,13.046v31.307h-9.31V0H50.09l17.368,27.002
			c0.794,1.217,1.526,2.423,2.198,3.619h0.122c-0.163-1.031-0.244-3.062-0.244-6.093V0h9.31V44.353z"/>
		<path fill="#F2F2F2" d="M219.369,44.353h-9.882V15.927l-11.782,28.426h-8.558l-11.659-28.426v28.426h-9.88V0h13.23l12.65,31.618
			L206.181,0h13.188V44.353z"/>
		<path fill="#F2F2F2" d="M159.494,6.063c-3.768-3.995-8.704-5.992-14.808-5.992c-6.462,0-11.652,2.087-15.569,6.261
			c-3.917,4.174-5.875,9.64-5.875,16.397c0,0.658,0.032,1.327,0.081,2.001l4.849,4.849v-4.93h2.465v7.394l12.241,12.241
			c0.368,0,0.742-0.001,1.123-0.001c6.283,0,11.378-2.057,15.286-6.171c3.907-4.114,5.86-9.53,5.86-16.248
			C165.145,15.325,163.261,10.058,159.494,6.063z M152.082,32.373c-1.949,2.395-4.583,3.592-7.904,3.592
			c-3.221,0-5.826-1.232-7.814-3.697c-1.989-2.464-2.983-5.814-2.983-10.047c0-4.174,0.994-7.528,2.983-10.062
			c1.988-2.534,4.672-3.801,8.053-3.801c3.281,0,5.865,1.233,7.755,3.697c1.889,2.465,2.833,5.913,2.833,10.345
			C155.005,26.654,154.03,29.978,152.082,32.373z"/>
		<path fill="#F2F2F2" d="M120.78,21.62C120.78,7.207,112.883,0,97.091,0H81.339v44.353h15.752c0.533,0,1.032,0,1.517-0.001
			l22.163-22.163C120.773,21.999,120.78,21.812,120.78,21.62z M106.532,32.352c-2.47,2.598-5.876,3.897-10.217,3.897h-4.961V8.134
			h4.899c4.423,0,7.86,1.212,10.31,3.634c2.45,2.423,3.674,5.748,3.674,9.975C110.238,26.218,109.002,29.754,106.532,32.352z"/>
		<polygon fill="#F2F2F2" points="130.514,48.43 123.241,41.683 123.241,51.603 125.468,49.722 127.443,54.269 127.975,54.035 
			127.975,54.035 129.61,53.323 127.62,48.783 		"/>
	</g>
</g>
</svg>
