<?xml version="1.0" encoding="utf-8"?>
<!-- Generator: Adobe Illustrator 17.0.1, SVG Export Plug-In . SVG Version: 6.00 Build 0)  -->
<!DOCTYPE svg PUBLIC "-//W3C//DTD SVG 1.1//EN" "http://www.w3.org/Graphics/SVG/1.1/DTD/svg11.dtd">
<svg version="1.1" id="Layer_1" xmlns="http://www.w3.org/2000/svg" xmlns:xlink="http://www.w3.org/1999/xlink" x="0px" y="0px"
	 width="960px" height="550px" viewBox="0 0 960 550" enable-background="new 0 0 960 550" xml:space="preserve">
	
<style type="text/css">
	.plane{
		transition: all 200ms linear;
		-moz-transition: all 200ms linear;
		-webkit-transition: all 200ms linear;
		-o-transition: all 200ms linear;		
	}

	.plane:hover{
		fill:#00b7e4;
		transition: all 200ms linear;
		-moz-transition: all 200ms linear;
		-webkit-transition: all 200ms linear;
		-o-transition: all 200ms linear;
	}

</style>	
	
<polygon class="plane" fill="#D3D3D3" points="349.727,125.36 350.329,125.36 350.329,133.426 400.876,133.426 400.876,122.996 397.18,122.996 
	397.18,81.088 443.085,81.088 443.085,75.672 444.457,75.672 444.457,30.54 385.918,30.54 385.918,26.107 353.424,26.107 
	353.424,53.106 345.429,53.106 345.429,69.482 349.727,69.482 "/>
<polygon class="plane" fill="#D3D3D3" points="445.423,30.54 445.423,75.672 478.846,75.672 478.846,81.088 490.882,81.088 510.826,81.088 
	510.826,85.3 539.655,85.3 539.655,30.54 "/>
<polygon class="plane" fill="#D3D3D3" points="540.61,85.3 566.531,85.3 566.531,81.088 579.597,81.088 579.597,97.421 584.755,97.421 
	584.755,109.284 580.887,109.284 580.887,124.844 586.561,124.844 586.561,133.426 635.819,133.426 635.819,123.382 
	627.566,123.382 627.566,97.421 627.566,81.088 627.566,62.777 633.755,62.777 633.755,26.107 597.65,26.107 597.65,30.54 
	540.61,30.54 "/>
<polygon class="plane" fill="#D2D2D2" points="586.561,262.469 586.561,298.493 580.629,298.493 580.629,314.483 586.561,314.483 586.561,321.887 
	586.561,337.951 580.629,337.951 580.629,341.865 629.371,341.865 629.371,321.887 629.371,301.072 635.174,301.072 
	635.174,262.469 "/>
<polygon class="plane" fill="#D3D3D3" points="629.371,185.277 635.819,185.277 635.819,134.247 586.561,134.247 586.561,183.214 580.887,183.214 
	580.887,198.688 586.561,198.688 586.561,224.477 580.887,224.477 580.887,239.951 586.561,239.951 586.561,261.649 
	635.174,261.649 635.174,238.146 629.371,238.146 629.371,198.688 "/>
<polygon class="plane" fill="#D3D3D3" points="580.629,342.685 580.629,353.941 586.561,353.941 586.561,416.541 635.561,416.541 635.561,353.941 
	629.371,353.941 629.371,342.685 "/>
<polygon class="plane" fill="#D3D3D3" points="341.99,413.772 341.99,416.541 397.18,416.541 397.18,415.32 401.134,415.32 401.134,398.814 
	397.18,398.814 397.18,343.367 397.18,342.685 345.171,342.685 345.171,344.656 350.329,344.656 350.329,388.499 345.171,388.499 
	345.171,403.972 350.329,403.972 350.329,413.772 "/>
<polygon class="plane" fill="#D3D3D3" points="444.457,456.153 437.411,456.153 437.411,460.623 397.18,460.623 397.18,417.362 341.99,417.362 
	341.99,429.504 350.329,429.504 350.329,487.272 350.329,495.353 341.99,495.353 341.99,522.69 366.06,522.69 366.06,517.188 
	442.913,517.188 442.913,514.093 444.457,514.093 "/>
<polygon class="plane" fill="#D3D3D3" points="629.371,434.92 629.371,420.735 635.561,420.735 635.561,417.362 586.561,417.362 586.561,434.92 
	580.629,434.92 580.629,460.623 567.992,460.623 567.992,453.746 540.61,453.746 540.61,518.993 604.613,518.993 604.613,523.893 
	633.497,523.893 633.497,502.23 629.371,502.23 629.371,477.214 633.497,477.214 633.497,458.904 629.371,458.904 629.371,438.272 
	"/>
<polygon class="plane" fill="#D3D3D3" points="539.655,518.993 539.655,453.746 510.482,453.746 510.482,460.623 495.524,460.623 474.376,460.623 
	474.376,456.153 445.423,456.153 445.423,514.093 474.376,514.093 495.524,514.093 495.524,518.993 "/>
<polygon class="plane" fill="#D3D3D3" points="397.18,341.865 397.18,333.051 401.134,333.051 401.134,316.546 397.18,316.546 397.18,306.488 
	401.134,306.488 401.134,289.983 397.18,289.983 397.18,262.469 350.329,262.469 350.329,329.183 345.171,329.183 345.171,341.865 
	"/>
<polygon class="plane" fill="#D3D3D3" points="397.18,261.649 397.18,236.856 400.876,236.856 400.876,205.909 397.18,205.909 397.18,141.564 
	400.876,141.564 400.876,134.247 350.329,134.247 350.329,134.988 345.816,134.988 345.816,151.235 350.329,151.235 
	350.329,195.335 345.816,195.335 345.816,248.462 350.329,248.462 350.329,261.649 "/>
</svg>
