<?xml version="1.0" encoding="utf-8"?>
<!-- Generator: Adobe Illustrator 17.0.1, SVG Export Plug-In . SVG Version: 6.00 Build 0)  -->
<!DOCTYPE svg PUBLIC "-//W3C//DTD SVG 1.1//EN" "http://www.w3.org/Graphics/SVG/1.1/DTD/svg11.dtd">
<svg version="1.1" id="Layer_1" xmlns="http://www.w3.org/2000/svg" xmlns:xlink="http://www.w3.org/1999/xlink" x="0px" y="0px"
	 width="960px" height="557.43px" viewBox="0 0 960 557.43" enable-background="new 0 0 960 557.43" xml:space="preserve">
	
	<style type="text/css">
		.plane{
			transition: all 200ms linear;
			-moz-transition: all 200ms linear;
			-webkit-transition: all 200ms linear;
			-o-transition: all 200ms linear;		
		}

		.plane:hover{
			fill:#353535;
			transition: all 200ms linear;
			-moz-transition: all 200ms linear;
			-webkit-transition: all 200ms linear;
			-o-transition: all 200ms linear;
		}

		.opacity{
			opacity:0;
			transition: all 200ms linear;
			-moz-transition: all 200ms linear;
			-webkit-transition: all 200ms linear;
			-o-transition: all 200ms linear;		
		}

		.opacity:hover{
			opacity:1;
			transition: all 200ms linear;
			-moz-transition: all 200ms linear;
			-webkit-transition: all 200ms linear;
			-o-transition: all 200ms linear;
		}


	</style>
	
<path fill="#D2D2D2" d="M839.251,186.894h4.131v-39.656h-5.287v-16.633v-10.465v-11.731h3.966V84.915h-23.132v2.841H683.273v-2.841
	h-20.819v17.298h-5.122v10.492h2.754v35.8h0.385v6.169h-2.892v10.41h2.892v28.255h-2.892v34.038h2.892v51.717h-3.305v9.914h3.305
	v28.089h-3.305v9.914h3.305v6.279h-5.342v10.079h5.342v37.012v5.177h-5.342v17.515h15.422v-3.525h49.239v-1.983h20.158h13.549v3.139
	h69.893v3.139h18.506v-13.879h-2.644v-16.027h2.644v-11.731h-2.644v-13.219v-2.148v-9.088h3.966v-42.795h-3.966v-20.536v-13.336
	h3.718v-40.316h-3.718v-25.28V186.894z M811.823,212.01h-3.635v9.914h3.635v37.508h-3.8v10.244h3.8v4.744v10.292h-3.8v10.244h3.8
	v51.883h-3.8v16.468h-8.096V358.9H763.08v4.406h-9.583h-13.549v-2.864h-23.683v2.864h-25.776v-29.026h2.534v-10.575h-2.534v-35.525
	v-6.609h2.534v-10.575h-2.534v-6.444h2.534v-10.575h-2.534v-34.038h2.368v-19.828h-2.368v-41.225h2.368v-11.897h-2.368v-26.85
	h29.411v-3.47h22.912v3.47h7.711H763.3v2.699h35.69v-2.699h8.372v10.465h3.305v7.601h-2.479v9.969h3.635v37.397h-3.635v9.914h3.635
	V212.01z"/>
<path class="plane" fill="#D3D3D3" d="M286.001,176.484h4.131v-39.656h-5.287v-16.633V109.73V97.999h3.966V74.504h-23.132v2.841H130.023v-2.841
	h-20.819v17.298h-5.122v10.492h2.754v35.8h0.386v6.169h-2.892v10.41h2.892v28.255h-2.892v34.038h2.892v51.717h-3.305v9.914h3.305
	v28.089h-3.305v9.914h3.305v6.279h-5.342v10.079h5.342v37.012v5.177h-5.342v17.515H117.3v-3.525h49.239v-1.983h20.158h13.549v3.139
	h69.893v3.139h18.506v-13.879h-2.644v-16.027h2.644v-11.731h-2.644v-13.219v-2.148v-9.088h3.966v-42.795h-3.966v-20.536v-13.336
	h3.718v-40.316h-3.718v-25.28V176.484z M258.573,201.599h-3.635v9.914h3.635v37.508h-3.8v10.244h3.8v4.744v10.292h-3.8v10.244h3.8
	v51.883h-3.8v16.468h-8.096v-4.406H209.83v4.406h-9.583h-13.549v-2.864h-23.683v2.864h-25.776V323.87h2.534v-10.575h-2.534v-35.525
	v-6.609h2.534v-10.575h-2.534v-6.444h2.534v-10.575h-2.534V209.53h2.368v-19.828h-2.368v-41.225h2.368V136.58h-2.368v-26.85h29.411
	v-3.47h22.912v3.47h7.711h12.778v2.699h35.69v-2.699h8.372v10.465h3.305v7.601h-2.478v9.969h3.635v37.397h-3.635v9.914h3.635
	V201.599z"/>
<rect class="plane" x="502.646" y="231.008" fill="#D3D3D3" width="63.951" height="61.968"/>
<rect x="519.336" y="110.377" fill="none" stroke="#D3D3D3" stroke-width="0.407" stroke-miterlimit="10" width="40.155" height="70.396"/>
<rect class="plane" x="332.771" y="322.556" fill="none" stroke="#D3D3D3" stroke-width="0.407" stroke-miterlimit="10" width="33.711" height="84.276"/>
<rect class="plane" x="412.255" y="337.924" fill="#D3D3D3" width="67.421" height="65.331"/>
<text transform="matrix(1 0 0 1 410.1466 528.171)" fill="#D3D3D3" font-family="'SegoeUI'" font-size="15.8322">Красный проспект</text>
<line fill="none" stroke="#D3D3D3" stroke-width="2.0348" stroke-miterlimit="10" x1="13.424" y1="503.312" x2="949.461" y2="503.312"/>
<line fill="none" stroke="#D3D3D3" stroke-width="0.407" stroke-miterlimit="10" x1="519.336" y1="145.575" x2="559.491" y2="145.575"/>
<circle fill="none" stroke="#D3D3D3" stroke-width="0.407" stroke-miterlimit="10" cx="539.414" cy="145.575" r="5.124"/>
<polygon fill="#939393" points="321.428,258.466 321.428,276.892 321.428,292.976 346.303,292.976 346.303,276.892 367.493,276.892 
	367.493,258.466 "/>
<polygon fill="#939393" points="453.789,249.355 453.789,252.324 448.261,252.324 448.261,275.721 461.159,275.721 461.159,252.324 
	461.159,249.355 "/>
<path fill="none" stroke="#D3D3D3" stroke-width="0.407" stroke-miterlimit="10" d="M641.617,46.872h-13.358v21.497v352.247h-43.03
	v-13.784h-61.421v-36.243h38.081v-44.868h36.852v-13.359V197.391h-16.545h-98.114h-16.122v16.362v91.7h-71.292h-15.355v13.82
	v101.344h-65.106V222.535h53.436V195.51h-53.436V59.77V46.872H72.367V59.77v344.073v25.679h211.901v-9.213h18.426v86.603h13.513
	v-77.083h12.284v16.276h175.97v-16.276h7.063v16.276h113.321v-16.276h30.283v16.276h202.193h20.883V68.369V46.872H641.617z
	 M302.694,325.911H276.33v15.643h26.365v62.289h-18.426H85.88V260.023h34.303v-15.643H85.88V59.77h216.815V325.911z M499.24,325.721
	v94.895H396.668V319.272H499.24V325.721z M502.646,312.362v-6.91h-18.565v-91.7h98.114v98.61h-58.388H502.646z M857.322,420.616
	H669.989h-14.861h-13.511V68.369h215.705V420.616z"/>
<path class="opacity" fill="#00B8E4" d="M286.001,176.484h4.131v-39.656h-5.287v-16.633V109.73V97.999h3.966V74.504h-23.132v2.841H130.023v-2.841
	h-20.819v17.298h-5.122v10.492h2.754v35.8h0.386v6.169h-2.892v10.41h2.892v28.255h-2.892v34.038h2.892v51.717h-3.305v9.914h3.305
	v28.089h-3.305v9.914h3.305v6.279h-5.342v10.079h5.342v37.012v5.177h-5.342v17.515H117.3v-3.525h49.239v-1.983h20.158h13.549v3.139
	h69.893v3.139h18.506v-13.879h-2.644v-16.027h2.644v-11.731h-2.644v-13.219v-2.148v-9.088h3.966v-42.795h-3.966v-20.536v-13.336
	h3.718v-40.316h-3.718v-25.28V176.484z"/>
<path class="opacity" fill="#353535" d="M839.251,186.894h4.131v-39.656h-5.287v-16.633v-10.465v-11.731h3.966V84.915h-23.132v2.841H683.273v-2.841
	h-20.819v17.298h-5.122v10.492h2.754v35.8h0.385v6.169h-2.892v10.41h2.892v28.255h-2.892v34.038h2.892v51.717h-3.305v9.914h3.305
	v28.089h-3.305v9.914h3.305v6.279h-5.342v10.079h5.342v37.012v5.177h-5.342v17.515h15.422v-3.525h49.239v-1.983h20.158h13.549v3.139
	h69.893v3.139h18.506v-13.879h-2.644v-16.027h2.644v-11.731h-2.644v-13.219v-2.148v-9.088h3.966v-42.795h-3.966v-20.536v-13.336
	h3.718v-40.316h-3.718v-25.28V186.894z"/>
</svg>
