<?xml version="1.0" encoding="utf-8"?>
<!-- Generator: Adobe Illustrator 17.0.1, SVG Export Plug-In . SVG Version: 6.00 Build 0)  -->
<!DOCTYPE svg PUBLIC "-//W3C//DTD SVG 1.1//EN" "http://www.w3.org/Graphics/SVG/1.1/DTD/svg11.dtd">
<svg version="1.1" id="Layer_1" xmlns="http://www.w3.org/2000/svg" xmlns:xlink="http://www.w3.org/1999/xlink" x="0px" y="0px"
	 width="960px" height="800px" viewBox="0 0 960 800" enable-background="new 0 0 960 800" xml:space="preserve">
	
	<style type="text/css">
		.plane{
			opacity:0;
			transition: all 200ms linear;
			-moz-transition: all 200ms linear;
			-webkit-transition: all 200ms linear;
			-o-transition: all 200ms linear;		
		}

		.plane:hover{
			fill:#00b7e4;
			opacity:1;
			transition: all 200ms linear;
			-moz-transition: all 200ms linear;
			-webkit-transition: all 200ms linear;
			-o-transition: all 200ms linear;
		}
	</style>
	
<polygon class="plane" opacity="0" fill="#00B8E4" points="319.198,398.181 319.198,518.23 361.007,518.23 361.007,538.57 534.076,538.57 
	534.076,518.23 534.076,516.325 534.076,398.181 "/>
<text transform="matrix(0 1 -1 0 466.7754 133.7666)" fill="#939393" font-family="'SegoeUI-Bold'" font-size="6.2384">СУ</text>
<text transform="matrix(0 1 -1 0 475.8076 40.5351)" fill="#939393" font-family="'SegoeUI-Bold'" font-size="6.2384">СУ</text>
<text transform="matrix(0 1 -1 0 322.6206 55.6113)" fill="#939393" font-family="'SegoeUI-Bold'" font-size="6.2384">Л</text>
<text transform="matrix(0 1 -1 0 330.6353 331.3154)" fill="#939393" font-family="'SegoeUI-Bold'" font-size="6.2384">Л</text>
<text transform="matrix(0 1 -1 0 330.6353 452.6611)" fill="#FFFFFF" font-family="'SegoeUI-Bold'" font-size="6.2384">Л</text>
<text transform="matrix(0 1 -1 0 521.7305 41.0557)" fill="#939393" font-family="'SegoeUI-Bold'" font-size="6.2384">СУ</text>
<text transform="matrix(0 1 -1 0 503.3384 276.7314)" fill="#939393" font-family="'SegoeUI-Bold'" font-size="6.2384">СУ</text>
<text transform="matrix(0 1 -1 0 467.2949 276.7314)" fill="#939393" font-family="'SegoeUI-Bold'" font-size="6.2384">СУ</text>
<text transform="matrix(0 1 -1 0 503.3384 511.4355)" fill="#FFFFFF" font-family="'SegoeUI-Bold'" font-size="6.2384">СУ</text>
<text transform="matrix(0 1 -1 0 465.9321 653.6328)" fill="#939393" font-family="'SegoeUI-Bold'" font-size="6.2384">СУ</text>
<text transform="matrix(0 1 -1 0 476.3281 746.6895)" fill="#939393" font-family="'SegoeUI-Bold'" font-size="6.2384">СУ</text>
<text transform="matrix(0 1 -1 0 521.7305 746.6895)" fill="#939393" font-family="'SegoeUI-Bold'" font-size="6.2384">СУ</text>
<text transform="matrix(0 1 -1 0 467.2949 511.4355)" fill="#FFFFFF" font-family="'SegoeUI-Bold'" font-size="6.2384">СУ</text>
<text transform="matrix(0 1 -1 0 577.6152 58.2119)" fill="#939393" font-family="'SegoeUI-Bold'" font-size="6.2384">К</text>
<text transform="matrix(0 1 -1 0 410.2178 291.459)" fill="#939393" font-family="'SegoeUI-Bold'" font-size="6.2384">К</text>
<text transform="matrix(0 1 -1 0 410.2178 500.6182)" fill="#FFFFFF" font-family="'SegoeUI-Bold'" font-size="6.2384">К</text>
<text transform="matrix(0 1 -1 0 401.7715 572.3613)" fill="#939393" font-family="'SegoeUI-Bold'" font-size="6.2384">К</text>
<text transform="matrix(0 1 -1 0 577.0942 731.959)" fill="#939393" font-family="'SegoeUI-Bold'" font-size="6.2384">К</text>
<text transform="matrix(0 1 -1 0 322.6206 731.959)" fill="#939393" font-family="'SegoeUI-Bold'" font-size="6.2384">Л</text>
<g>
	<g>
		<rect x="352.99" y="605.633" fill="#939393" width="93.922" height="2.599"/>
		<polygon fill="#939393" points="444.313,635.092 444.313,635.092 444.313,686.386 446.912,686.386 446.912,635.092 
			498.293,635.092 498.293,632.493 446.912,632.493 446.912,632.493 444.313,632.493 444.313,632.493 444.313,632.493 		"/>
		<polygon fill="#939393" points="365.12,323.908 365.12,326.507 481.7,326.507 481.7,332.887 484.299,332.887 484.299,323.951 
			484.299,323.908 		"/>
		<rect x="481.7" y="353.053" fill="#939393" width="2.599" height="40.475"/>
		<polygon fill="#939393" points="479.188,301.294 492.617,301.294 492.617,298.694 484.3,298.694 484.3,256.802 481.7,256.802 
			481.7,298.694 479.188,298.694 		"/>
		<rect x="508.3" y="298.694" fill="#939393" width="25.776" height="2.599"/>
		<polygon fill="#939393" points="454.884,301.25 454.884,301.294 463.504,301.294 463.504,298.694 457.396,298.694 
			457.396,256.802 454.797,256.802 454.797,301.25 		"/>
		<rect x="517.03" y="356.14" fill="#939393" width="17.047" height="2.599"/>
		<rect x="484.299" y="356.14" fill="#939393" width="17.046" height="2.599"/>
		<polygon fill="#D3D3D3" points="365.12,471.465 484.299,471.465 484.299,471.421 484.299,462.486 481.7,462.486 481.7,468.865 
			365.12,468.865 		"/>
		<rect x="481.7" y="401.845" fill="#D3D3D3" width="2.599" height="40.475"/>
		<polygon fill="#D3D3D3" points="484.3,538.57 484.3,496.678 492.617,496.678 492.617,494.079 479.188,494.079 479.188,496.678 
			481.7,496.678 481.7,538.57 		"/>
		<rect x="508.3" y="494.079" fill="#D3D3D3" width="25.776" height="2.599"/>
		<polygon fill="#D3D3D3" points="454.797,538.57 457.396,538.57 457.396,496.678 463.504,496.678 463.504,494.079 454.884,494.079 
			454.884,494.122 454.797,494.122 		"/>
		<rect x="517.03" y="436.633" fill="#D3D3D3" width="17.047" height="2.599"/>
		<rect x="484.299" y="436.633" fill="#D3D3D3" width="17.046" height="2.599"/>
		<polygon fill="#939393" points="444.746,162.965 444.746,163.009 459.605,163.009 459.605,160.409 447.259,160.409 
			447.259,111.434 444.66,111.434 444.66,162.965 		"/>
		<rect x="444.313" y="540.736" fill="#939393" width="2.599" height="44.286"/>
		<polygon fill="#939393" points="546.12,201.566 546.12,103.397 618.989,103.397 618.989,100.798 546.12,100.798 543.608,100.798 
			543.521,100.798 543.521,201.566 		"/>
		<polygon fill="#939393" points="465.887,83.231 465.887,68.74 470.262,68.74 470.262,66.14 465.887,66.14 465.887,21.302 
			463.288,21.302 463.288,83.231 		"/>
		<polygon fill="#939393" points="540.012,66.14 540.012,68.74 543.521,68.74 543.521,80.632 546.12,80.632 546.12,21.302 
			543.521,21.302 543.521,66.14 		"/>
		<rect x="485.946" y="66.14" fill="#939393" width="38.383" height="2.599"/>
		<rect x="475.288" y="160.409" fill="#939393" width="20.99" height="2.599"/>
		<rect x="464.154" y="689.072" fill="#939393" width="2.599" height="9.098"/>
		<polygon fill="#939393" points="466.753,726.242 466.753,718.335 464.154,718.335 464.154,779.269 466.753,779.269 
			466.753,728.841 474.031,728.841 474.031,726.242 		"/>
		<rect x="489.715" y="726.242" fill="#939393" width="8.578" height="2.599"/>
		<polygon fill="#939393" points="545.253,702.437 545.253,694.443 624.36,694.443 624.36,691.844 545.253,691.844 545.253,675.36 
			542.654,675.36 542.654,702.437 		"/>
		<rect x="542.654" y="586.918" fill="#939393" width="2.599" height="68.276"/>
		<polygon fill="#939393" points="545.253,779.27 545.253,722.603 542.654,722.603 542.654,726.242 539.406,726.242 
			539.406,728.841 542.654,728.841 542.654,779.27 		"/>
		<rect x="502.971" y="726.242" fill="#939393" width="20.751" height="2.599"/>
		<rect x="441.021" y="193.226" fill="#939393" width="2.599" height="16.603"/>
		<rect x="441.021" y="238.292" fill="#939393" width="2.599" height="16.43"/>
		<rect x="403.763" y="193.226" fill="#939393" width="2.599" height="16.603"/>
		<rect x="403.763" y="238.292" fill="#939393" width="2.599" height="16.43"/>
		<rect x="628.866" y="345.049" fill="#939393" width="32.405" height="2.599"/>
		<path fill="#939393" d="M647.755,577.3v-52.767h-28.073V577.3H647.755z M633.718,549.795l-12.659-24.221h25.317L633.718,549.795z
			 M646.715,527.17v47.493l-12.41-23.747L646.715,527.17z M633.132,550.917l-12.41,23.747V527.17L633.132,550.917z M633.718,552.039
			l12.659,24.221H621.06L633.718,552.039z"/>
		<path fill="#939393" d="M650.529,408.391h-26.689v28.155h26.689V408.391z M637.185,421.712l-11.617-12.281h23.234L637.185,421.712
			z M649.49,410.217v24.503l-11.589-12.251L649.49,410.217z M636.469,422.468L624.88,434.72v-24.503L636.469,422.468z
			 M637.185,423.225l11.617,12.281h-23.234L637.185,423.225z"/>
		<path fill="#939393" d="M599.84,262v6.628v0.52v6.628v0.52v6.628v0.52v6.628v0.52v6.628v0.52v7.148h27.25v-7.148v-0.52v-6.628
			v-0.52v-6.628v-0.52v-6.628v-0.52v-6.628v-0.52V262v-0.52v-6.628v-0.52v-6.628v-0.52v-7.148h-27.25v7.148v0.52v6.628v0.52v6.628
			V262z M626.57,297.741v6.628h-26.21v-6.628H626.57z M626.57,290.593v6.628h-26.21v-6.628H626.57z M626.57,283.445v6.628h-26.21
			v-6.628H626.57z M626.57,276.297v6.628h-26.21v-6.628H626.57z M626.57,269.149v6.628h-26.21v-6.628H626.57z M626.57,262v6.628
			h-26.21V262H626.57z M600.359,247.184v-6.628h26.21v6.628H600.359z M600.359,254.332v-6.628h26.21v6.628H600.359z
			 M600.359,254.852h26.21v6.628h-26.21V254.852z"/>
		<path fill="#939393" d="M629.602,247.704v6.628v0.52v6.628V262v6.628v0.52v6.628v0.52v6.628v0.52v6.628v0.52v6.628v0.52v7.148
			h27.25v-7.148v-0.52v-6.628v-0.52v-6.628v-0.52v-6.628v-0.52v-6.628v-0.52V262v-0.52v-6.628v-0.52v-6.628v-0.52v-7.148h-27.25
			v7.148V247.704z M656.332,297.741v6.628h-26.21v-6.628H656.332z M656.332,290.593v6.628h-26.21v-6.628H656.332z M656.332,283.445
			v6.628h-26.21v-6.628H656.332z M656.332,276.297v6.628h-26.21v-6.628H656.332z M656.332,269.149v6.628h-26.21v-6.628H656.332z
			 M656.332,262v6.628h-26.21V262H656.332z M656.332,254.852v6.628h-26.21v-6.628H656.332z M656.332,247.704v6.628h-26.21v-6.628
			H656.332z M630.122,240.556h26.21v6.628h-26.21V240.556z"/>
	</g>
	<g>
		<polygon fill="#D3D3D3" points="529.917,260.961 529.917,319.056 538.235,319.056 538.235,260.961 538.235,252.644 
			538.235,252.644 368.066,252.644 368.066,238.292 347.271,238.292 347.271,267.718 308.281,267.718 308.281,283.315 
			347.271,283.315 368.066,283.315 368.066,260.961 		"/>
		<polygon fill="#D3D3D3" points="529.917,401.845 529.917,452.662 538.235,452.662 538.235,401.845 538.235,393.527 
			538.235,342.97 529.917,342.97 529.917,393.527 368.066,393.527 368.066,385.804 347.271,385.804 347.271,389.627 
			317.379,389.627 317.379,405.224 347.271,405.224 347.271,408.419 368.066,408.419 368.066,401.845 		"/>
		<polygon fill="#D3D3D3" points="491.534,542.729 491.534,558.585 505.051,558.585 505.051,542.729 529.917,542.729 
			538.235,542.729 538.235,534.411 538.235,476.576 529.917,476.576 529.917,534.411 368.066,534.411 368.066,512.663 
			357.668,512.663 347.271,512.663 308.281,512.663 308.281,528.259 347.271,528.259 347.271,559.885 368.066,559.885 
			368.066,542.729 		"/>
		<polygon fill="#D3D3D3" points="541.874,586.918 541.874,595.235 613.963,595.235 613.963,624.164 634.758,624.164 
			634.758,607.712 656.592,607.712 677.387,607.712 677.387,607.712 677.387,586.918 677.387,586.918 677.387,499.271 
			656.592,499.271 656.592,512.143 647.235,512.143 647.235,520.461 656.592,520.461 656.592,586.918 634.758,586.918 
			613.963,586.918 613.963,586.918 600.1,586.918 600.1,520.461 618.815,520.461 618.815,512.143 600.1,512.143 600.1,481.125 
			591.782,481.125 591.782,586.918 		"/>
		<polygon fill="#D3D3D3" points="458.555,194.937 458.555,186.62 368.066,186.62 352.99,186.62 329.596,186.62 329.596,170.59 
			308.801,170.59 308.801,203.255 329.596,203.255 347.271,203.255 347.271,209.83 368.066,209.83 368.066,194.937 		"/>
		<polygon fill="#D3D3D3" points="540.64,200.136 540.64,208.454 591.782,208.454 591.782,357.006 600.1,357.006 600.1,208.454 
			613.963,208.454 656.592,208.454 656.592,280.651 677.387,280.651 677.387,208.454 677.387,208.454 677.387,187.659 
			677.387,187.659 677.387,187.521 656.592,187.521 656.592,187.659 634.758,187.659 634.758,173.103 613.963,173.103 
			613.963,200.136 		"/>
		<polygon fill="#D3D3D3" points="368.066,608.232 368.066,592.636 347.271,592.636 329.596,592.636 308.801,592.636 
			308.801,623.958 329.596,623.958 329.596,608.232 		"/>
		<polygon fill="#D3D3D3" points="338.953,114.358 352.99,114.358 359.748,114.358 491.534,114.358 491.534,186.62 482.469,186.62 
			482.469,194.937 491.534,194.937 491.534,208.454 491.968,208.454 505.051,208.454 516.726,208.454 516.726,200.136 
			505.051,200.136 505.051,106.04 500.285,106.04 491.534,106.04 359.748,106.04 359.748,97.722 359.748,95.155 338.953,95.155 
			338.953,97.722 308.801,97.722 308.801,97.722 308.801,97.722 308.801,127.701 329.596,127.701 329.596,114.358 		"/>
		<polygon fill="#D3D3D3" points="360.788,690.544 500.285,690.544 500.285,690.48 505.051,690.48 505.051,595.235 517.96,595.235 
			517.96,586.918 505.051,586.918 505.051,582.499 491.534,582.499 491.534,682.227 352.99,682.227 352.99,682.227 329.596,682.227 
			329.596,666.847 308.801,666.847 308.801,697.823 308.801,697.823 329.596,697.823 339.993,697.823 339.993,701.159 
			360.788,701.159 360.788,697.823 		"/>
		<polygon fill="#D3D3D3" points="613.963,21.301 613.963,40.342 634.758,40.342 634.758,10.904 613.963,10.904 613.963,10.904 
			505.051,10.904 491.534,10.904 359.748,10.904 338.953,10.904 308.801,10.904 308.801,21.301 338.953,21.301 338.953,52.266 
			359.748,52.266 359.748,21.301 491.534,21.301 491.534,77.967 505.051,77.967 505.051,21.301 		"/>
		<polygon fill="#D3D3D3" points="600.1,387.028 600.1,383 591.782,383 591.782,452.662 600.1,452.662 600.1,447.333 
			626.527,447.333 626.527,439.015 600.1,439.015 600.1,395.346 656.592,395.346 656.592,439.015 647.235,439.015 647.235,447.333 
			656.592,447.333 656.592,456.382 677.387,456.382 677.387,339.98 656.592,339.98 656.592,387.028 		"/>
		<rect x="347.271" y="316.066" fill="#D3D3D3" width="20.795" height="36.986"/>
		<rect x="347.271" y="441.17" fill="#D3D3D3" width="20.795" height="39.132"/>
		<polygon fill="#D3D3D3" points="360.788,784.467 491.534,784.467 505.051,784.467 613.963,784.467 613.963,784.467 
			634.758,784.467 634.758,755.095 613.963,755.095 613.963,774.07 505.051,774.07 505.051,714.394 491.534,714.394 491.534,774.07 
			360.788,774.07 360.788,744.048 339.993,744.048 339.993,774.07 308.801,774.07 308.801,784.467 339.993,784.467 339.993,784.727 
			360.788,784.727 		"/>
		<rect x="613.963" y="148.019" fill="#D3D3D3" width="20.795" height="7.69"/>
		<rect x="613.963" y="83.231" fill="#D3D3D3" width="20.795" height="47.395"/>
		<rect x="613.963" y="666.641" fill="#D3D3D3" width="20.795" height="45.564"/>
		<rect x="613.963" y="641.558" fill="#D3D3D3" width="20.795" height="7.69"/>
	</g>
	<rect x="529.917" y="295.012" fill="#D3D3D3" width="12.824" height="24.044"/>
	<rect x="529.917" y="342.97" fill="#D3D3D3" width="12.824" height="8.015"/>
	<rect x="529.917" y="476.576" fill="#D3D3D3" width="12.824" height="24.044"/>
	<rect x="529.917" y="440.315" fill="#D3D3D3" width="12.824" height="12.347"/>
</g>
<polygon fill="#00B8E4" points="524.611,213.327 528.943,205.66 533.275,213.327 "/>
<polygon fill="#00B8E4" points="465.93,200.894 470.262,193.226 474.594,200.894 "/>
<polygon fill="#00B8E4" points="548.308,335.34 540.64,331.007 548.308,326.675 "/>
<polygon fill="#00B8E4" points="548.308,469.4 540.64,465.068 548.308,460.736 "/>
<polygon fill="#00B8E4" points="508.3,574.76 500.632,570.428 508.3,566.096 "/>
<polygon fill="#00B8E4" points="535.289,582.044 530.957,589.712 526.625,582.044 "/>
<g>
	<g>
		
			<line fill="none" stroke="#939393" stroke-width="0.8262" stroke-miterlimit="10" x1="613.465" y1="240.556" x2="613.465" y2="303.474"/>
		<g>
			<polygon fill="#939393" points="610.086,300.736 610.691,300.173 613.464,303.157 616.238,300.173 616.843,300.736 
				613.464,304.37 			"/>
		</g>
	</g>
</g>
<g>
	<g>
		
			<line fill="none" stroke="#939393" stroke-width="0.8262" stroke-miterlimit="10" x1="643.227" y1="304.37" x2="643.227" y2="241.452"/>
		<g>
			<polygon fill="#939393" points="646.606,244.189 646.001,244.753 643.228,241.769 640.454,244.753 639.849,244.189 
				643.228,240.556 			"/>
		</g>
	</g>
</g>
<g>
	<path fill="#D3D3D3" d="M633.105,33.178v152.655h-17.49V33.178H633.105 M634.758,31.526h-20.795v155.96h20.795V31.526
		L634.758,31.526z"/>
</g>
<line fill="none" stroke="#D3D3D3" stroke-width="1.6523" stroke-miterlimit="10" x1="624.36" y1="32.999" x2="624.36" y2="184.28"/>
<g>
	<path fill="#D3D3D3" d="M675.735,254.902v259.771h-17.49V254.902H675.735 M677.387,253.25h-20.795v263.075h20.795V253.25
		L677.387,253.25z"/>
</g>
<line fill="none" stroke="#D3D3D3" stroke-width="1.6523" stroke-miterlimit="10" x1="666.99" y1="255.734" x2="666.99" y2="510.917"/>
<g>
	<path fill="#D3D3D3" d="M633.105,607.101v152.656h-17.49V607.101H633.105 M634.758,605.449h-20.795v155.96h20.795V605.449
		L634.758,605.449z"/>
</g>
<line fill="none" stroke="#D3D3D3" stroke-width="1.6523" stroke-miterlimit="10" x1="624.36" y1="606.922" x2="624.36" y2="758.203"/>
<g>
	<path fill="#D3D3D3" d="M327.943,113.086v72.748h-17.49v-72.748H327.943 M329.596,111.434h-20.795v76.052h20.795V111.434
		L329.596,111.434z"/>
</g>
<line fill="none" stroke="#D3D3D3" stroke-width="1.6523" stroke-miterlimit="10" x1="319.198" y1="112.152" x2="319.198" y2="185.923"/>
<g>
	<path fill="#D3D3D3" d="M327.943,609.029v72.748h-17.49v-72.748H327.943 M329.596,607.376h-20.795v76.052h20.795V607.376
		L329.596,607.376z"/>
</g>
<line fill="none" stroke="#D3D3D3" stroke-width="1.6523" stroke-miterlimit="10" x1="319.198" y1="608.095" x2="319.198" y2="681.866"/>
<line fill="none" stroke="#D3D3D3" stroke-width="1.6523" stroke-miterlimit="10" x1="311.92" y1="13.244" x2="311.92" y2="100.062"/>
<line fill="none" stroke="#D3D3D3" stroke-width="1.6523" stroke-miterlimit="10" x1="311.92" y1="522.687" x2="311.92" y2="609.505"/>
<line fill="none" stroke="#D3D3D3" stroke-width="1.6523" stroke-miterlimit="10" x1="311.92" y1="693.62" x2="311.92" y2="780.438"/>
<line fill="none" stroke="#D3D3D3" stroke-width="1.6523" stroke-miterlimit="10" x1="320.498" y1="280.976" x2="320.498" y2="514.656"/>
</svg>
