<?xml version="1.0" encoding="utf-8"?>
<!-- Generator: Adobe Illustrator 17.0.1, SVG Export Plug-In . SVG Version: 6.00 Build 0)  -->
<!DOCTYPE svg PUBLIC "-//W3C//DTD SVG 1.1//EN" "http://www.w3.org/Graphics/SVG/1.1/DTD/svg11.dtd">
<svg version="1.1" xmlns="http://www.w3.org/2000/svg" xmlns:xlink="http://www.w3.org/1999/xlink" x="0px" y="0px"
	 width="36" height="36" viewBox="0 0 23.119 22.294" enable-background="new 0 0 23.119 22.294" xml:space="preserve">
		
<g id="Layer_10">
</g>
<g id="Layer_11">
</g>
<g id="Main">
	<g id="Arrow_4_">
	</g>
	<g id="Arrow_1_">
	</g>
	<g id="Arrow">
	</g>
	<g id="Arrow_3_">
	</g>
	<g id="Search_x5F_block_x5F_wt">
	</g>
	<g id="FD_x5F_HELP">
	</g>
	<g id="FD_x5F_LOGIN">
	</g>
	<g>
		<path fill="#D2D2D2" d="M14.419,15.656c-0.571-0.091-0.584-1.659-0.584-1.659s1.676-1.66,2.042-3.891
			c0.983,0,1.59-2.372,0.607-3.207C16.526,6.019,17.748,0,11.56,0C5.372,0,6.594,6.019,6.635,6.898
			c-0.983,0.835-0.376,3.207,0.607,3.207c0.365,2.232,2.042,3.891,2.042,3.891S9.271,15.565,8.7,15.656
			C6.862,15.948,0,18.975,0,22.294h11.56h11.56C23.119,18.975,16.257,15.948,14.419,15.656z"/>
	</g>
</g>
<g id="Help" display="none">
</g>
</svg>
