<?xml version="1.0" encoding="utf-8"?>
<!-- Generator: Adobe Illustrator 17.0.1, SVG Export Plug-In . SVG Version: 6.00 Build 0)  -->
<!DOCTYPE svg PUBLIC "-//W3C//DTD SVG 1.1//EN" "http://www.w3.org/Graphics/SVG/1.1/DTD/svg11.dtd">
<svg version="1.1" id="Layer_1" xmlns="http://www.w3.org/2000/svg" xmlns:xlink="http://www.w3.org/1999/xlink" x="0px" y="0px"
	 width="234.707px" height="51.666px" viewBox="0 0 234.707 51.666" enable-background="new 0 0 234.707 51.666"
	 xml:space="preserve">
<symbol  id="FIND_x5F_logo" viewBox="-140.508 -26.714 281.015 61.86">
	<path fill="#00B8E4" d="M140.508-15.411h-28.153v50.557h27.073v-9.272h-16.499V14.627h15.353V5.39h-15.353V-6.174h17.579V-15.411z"
		/>
	<path fill="#0090B0" d="M-112.412,25.874h-16.857v-12.41h14.048V4.227h-14.048v-19.637h-11.238v50.557h28.096V25.874z"/>
	<path fill="#0090B0" d="M-98.364-15.411h-11.238v50.557h11.238V-15.411z"/>
	<path fill="#0090B0" d="M-50.636-15.411h-11.342l-22.929,35.686v-35.686h-10.612v50.557h12.108l19.797-30.778
		c0.905-1.387,1.74-2.762,2.505-4.125h0.139c-0.186,1.175-0.278,3.49-0.278,6.946v27.958h10.612V-15.411z"/>
	<g>
		<path fill="#00B8E4" d="M109.545-15.411H98.281v32.402l-13.43-32.402h-9.755l-13.29,32.402v-32.402H50.544v50.557h15.08
			l14.42-36.041l14.468,36.041h15.033V-15.411z"/>
	</g>
	<path fill="#00B8E4" d="M41.295,28.235c-4.295,4.554-9.922,6.831-16.879,6.831c-7.366,0-13.282-2.379-17.747-7.136
		c-4.465-4.758-6.697-10.988-6.697-18.69c0-0.75,0.036-1.513,0.092-2.281l5.527-5.527V7.05H8.4v-8.429l13.953-13.953
		c0.42,0,0.846,0.001,1.28,0.001c7.162,0,12.97,2.345,17.424,7.034c4.453,4.69,6.68,10.863,6.68,18.52
		C47.737,17.678,45.589,23.681,41.295,28.235z M32.846-1.754c-2.221-2.73-5.224-4.095-9.009-4.095c-3.672,0-6.641,1.404-8.907,4.214
		c-2.267,2.809-3.4,6.627-3.4,11.452c0,4.757,1.133,8.58,3.4,11.469c2.266,2.889,5.326,4.333,9.179,4.333
		c3.74,0,6.686-1.405,8.839-4.214c2.153-2.809,3.23-6.74,3.23-11.792C36.178,4.764,35.067,0.975,32.846-1.754z"/>
	<path fill="#0090B0" d="M-2.834,10.502c0,16.429-9.001,24.644-27.003,24.644h-17.955v-50.557h17.955c0.607,0,1.177,0,1.729,0.001
		L-2.845,9.853C-2.842,10.07-2.834,10.284-2.834,10.502z M-19.074-1.731c-2.816-2.962-6.698-4.442-11.646-4.442h-5.655v32.048h5.584
		c5.042,0,8.96-1.381,11.752-4.143c2.792-2.762,4.188-6.552,4.188-11.37C-14.851,5.261-16.259,1.23-19.074-1.731z"/>
	<polygon fill="#0090B0" points="8.261,-20.058 -0.029,-12.367 -0.029,-23.675 2.51,-21.531 4.761,-26.714 5.368,-26.447 
		5.368,-26.447 7.231,-25.636 4.963,-20.461 	"/>
</symbol>
<use xlink:href="#FIND_x5F_logo"  width="281.015" height="61.86" id="XMLID_2_" x="-140.508" y="-26.714" transform="matrix(0.8352 0 0 -0.8352 117.3535 29.3544)" overflow="visible"/>
<g id="Arrow">
</g>
</svg>
