<?xml version="1.0" encoding="utf-8"?>
<!-- Generator: Adobe Illustrator 17.0.1, SVG Export Plug-In . SVG Version: 6.00 Build 0)  -->
<!DOCTYPE svg PUBLIC "-//W3C//DTD SVG 1.1//EN" "http://www.w3.org/Graphics/SVG/1.1/DTD/svg11.dtd">
<svg version="1.1" xmlns="http://www.w3.org/2000/svg" xmlns:xlink="http://www.w3.org/1999/xlink" x="0px" y="0px"
	 width="189.484px" height="41.711px" viewBox="0 0 189.484 41.711" enable-background="new 0 0 189.484 41.711"
	 xml:space="preserve">
<symbol  id="FIND_x5F_logo_x5F_BW" viewBox="-117.354 -25.833 234.707 51.666">
	<g id="FIND_x5F_logo_2_">
		<path fill="#FFFFFF" d="M117.353-16.393H93.84v42.226h22.611v-7.744h-13.78V8.695h12.823V0.98h-12.823v-9.658h14.682V-16.393z"/>
		<path fill="#D3D3D3" d="M-93.888,18.089h-14.08V7.724h11.733V0.009h-11.733v-16.401h-9.386v42.226h23.466V18.089z"/>
		<path fill="#D3D3D3" d="M-82.155-16.393h-9.386v42.226h9.386V-16.393z"/>
		<path fill="#D3D3D3" d="M-42.292-16.393h-9.473l-19.15,29.806v-29.806h-8.863v42.226h10.113l16.535-25.707
			c0.756-1.158,1.453-2.307,2.092-3.445h0.116c-0.155,0.981-0.232,2.915-0.232,5.801v23.351h8.863V-16.393z"/>
		<g>
			<path fill="#FFFFFF" d="M91.493-16.393h-9.408V10.67L70.869-16.393h-8.148l-11.1,27.063v-27.063h-9.407v42.226H54.81
				L66.853-4.269l12.084,30.102h12.556V-16.393z"/>
		</g>
		<path fill="#FFFFFF" d="M34.49,20.061c-3.588,3.803-8.287,5.705-14.098,5.705c-6.152,0-11.093-1.987-14.822-5.96
			c-3.729-3.974-5.594-9.177-5.594-15.61c0-0.626,0.03-1.264,0.077-1.905l4.616-4.616v4.693h2.347v-7.04L18.67-16.327
			c0.351,0,0.707,0.001,1.069,0.001c5.982,0,10.833,1.958,14.552,5.875c3.72,3.917,5.579,9.073,5.579,15.468
			C39.87,11.243,38.077,16.258,34.49,20.061z M27.434-4.987c-1.855-2.28-4.363-3.42-7.525-3.42c-3.067,0-5.547,1.173-7.439,3.519
			c-1.893,2.346-2.84,5.535-2.84,9.565c0,3.973,0.946,7.166,2.84,9.579c1.893,2.413,4.448,3.619,7.666,3.619
			c3.123,0,5.584-1.173,7.383-3.519c1.798-2.346,2.697-5.63,2.697-9.849C30.216,0.458,29.289-2.707,27.434-4.987z"/>
		<path fill="#D3D3D3" d="M-2.367,5.25c0,13.722-7.518,20.583-22.553,20.583h-14.996v-42.226h14.996c0.507,0,0.983,0,1.444,0.001
			l21.1,21.1C-2.374,4.889-2.367,5.068-2.367,5.25z M-15.931-4.968c-2.352-2.474-5.594-3.71-9.727-3.71h-4.723v26.767h4.664
			c4.211,0,7.483-1.154,9.815-3.46c2.332-2.307,3.498-5.472,3.498-9.496C-12.404,0.872-13.58-2.494-15.931-4.968z"/>
		<polygon fill="#D3D3D3" points="6.9,-20.274 -0.024,-13.85 -0.024,-23.295 2.096,-21.504 3.976,-25.833 4.483,-25.61 
			4.483,-25.61 6.04,-24.933 4.145,-20.61 		"/>
	</g>
</symbol>
<g id="img">
</g>
<g id="back">
</g>
<g id="text">
</g>
<g id="main">
	<g id="FIND_x5F_logo_2">
	</g>
	<g id="marker_x5F_map_x5F_area">
	</g>
	<g id="Arrow">
	</g>
	
		<use xlink:href="#FIND_x5F_logo_x5F_BW"  width="234.707" height="51.666" x="-117.354" y="-25.833" transform="matrix(0.8073 0 0 -0.8073 94.742 20.8556)" overflow="visible"/>
</g>
<g id="ann">
</g>
<g id="logo">
</g>
</svg>
